<svg xmlns="http://www.w3.org/2000/svg" viewBox="0 0 100 85.06448">
  <title>Asset 1</title>
  <g id="Layer_2" data-name="Layer 2">
    <g id="Layer_1-2" data-name="Layer 1">
      <g>
        <path d="M3.323,9.26846H96.7191c-.09229.53921-.16208,1.01878-.25752,1.4932a24.92866,24.92866,0,0,1-4.85506,10.69659l.041-.05441a27.60859,27.60859,0,0,1-8.285,6.97328l-.14263.07161A42.87068,42.87068,0,0,1,70.5035,32.914a45.89122,45.89122,0,0,1-8.79278.82672q-.29917,0-.59744-.00374s-15.82646.03921-23.7539-.03265A43.15551,43.15551,0,0,1,16.682,28.39174l.22537.11323A25.61912,25.61912,0,0,1,5.16243,16.02983,31.41,31.41,0,0,1,3.32707,9.79521a2.76006,2.76006,0,0,1-.01437-.28576q0-.12723.011-.25162l-.00074.01071Z"/>
        <path d="M57.8838,48.10026q.83253,4.44894,1.72322,9.20823c.58839.0093,1.12112.01636,1.65385.02658a.61933.61933,0,0,1,.067-.00349.64129.64129,0,0,1,.63766.708l.00024-.00274c.00565.20967.00291.41959.00291.62934.00008,2.60144-.00955,5.203.00739,7.80433.00374.57883-.02293,1.09894-.626,1.29125v2.2989c3.742.89541,7.43947,1.73027,9.99863,4.93506h1.40913a4.87085,4.87085,0,0,1,.43272,3.89443A13.93829,13.93829,0,0,1,70.12,84.58773a1.17452,1.17452,0,0,1-.94327.4745,1.18862,1.18862,0,0,1-.15467-.01l.006.00066c-.24955-.02326-.50316-.00407-.75486-.00407q-18.44094.00632-36.88189.01554a1.84067,1.84067,0,0,1-1.609-.5015,11.62854,11.62854,0,0,1-3.09355-7.61675l-.00075-.06937a3.20977,3.20977,0,0,1,.60143-1.87573l-.00664.00972h1.36352c2.14006-2.73735,5.18818-3.74175,8.33913-4.55178.5221-.13416,1.05076-.2429,1.69381-.39035.0177-.66248.04137-1.31965.047-1.97691.001-.1143-.04286-.29947-.1187-.333-.78585-.34823-.56655-1.04436-.56953-1.64272q-.01953-3.83919-.00225-7.67847c.00382-1.00682.086-1.07635,1.05915-1.10451.33536-.00972.671-.00939,1.00632-.018a1.42592,1.42592,0,0,0,.2689-.10973l-.00764.00374c.11829-.5015.27953-1.09031.39417-1.688.42474-2.21384.82107-4.43315,1.258-6.64458a1.384,1.384,0,0,0,.04162-.341,1.41436,1.41436,0,0,0-.51977-1.09695l-.00249-.002a47.74394,47.74394,0,0,1-5.32791-5.83962l-.08207-.11082a3.14289,3.14289,0,0,1-.58881-1.06015l-.00623-.02234a1.83506,1.83506,0,0,1,1.84076-2.18119c.96263-.05134,1.92924-.03671,2.8941-.036q10.95105.00855,21.902.024c.061-.00274.13242-.00424.20427-.00424q.22418,0,.44335.01969l-.01886-.00133a1.84722,1.84722,0,0,1,1.40265,2.89792,28.6791,28.6791,0,0,1-2.72065,3.48324l.01961-.02168c-1.09853,1.20337-2.33287,2.2827-3.61241,3.51655ZM49.96766,66.48513q2.51538,0,5.03068-.00157c.08307.00448.18035.00706.27821.00706a5.528,5.528,0,0,0,.75362-.05142l-.02858.00324a1.82924,1.82924,0,0,0,1.46146-1.20129l.00391-.01279a1.63026,1.63026,0,0,0,.12984-.643,1.65276,1.65276,0,0,0-.51371-1.19954l-.00067-.00067a6.34782,6.34782,0,0,0-.83336-.73119l-.0177-.01237q-2.351-1.7832-4.71484-3.54945a2.30525,2.30525,0,0,0-3.0801.03663q-2.31451,1.727-4.6144,3.47352a7.31276,7.31276,0,0,0-.94053.82573l-.0025.00257a1.822,1.822,0,0,0,1.05467,3.00409,6.121,6.121,0,0,0,.80412.05142q.10491,0,.20909-.00341l-.01013.00025c1.67686.0044,3.35381.002,5.03068.002Zm-8.76,13.28816a2.2882,2.2882,0,0,0,.08764-.365l.00174-.01379q.0089-1.44677.00839-2.89352c-.00083-1.69722-.09852-1.79092-1.70095-1.2336-1.5364.53439-3.05543,1.122-4.5659,1.72654a3.23673,3.23673,0,0,0-1.95382,2.13932l-.0054.02268a10.75762,10.75762,0,0,0-.30636,2.072l-.00117.0275a1.51637,1.51637,0,0,0,1.26824,1.73484c0-.57817-.02451-1.1158.00532-1.65053A1.48743,1.48743,0,0,1,35.63432,79.772c.29233-.018.5869.00108.88047.00116,1.54736.00042,3.09471.00017,4.69291.00017Zm17.4887.00681c.42864,0,.75337.00074,1.078-.00008,1.46786-.00391,2.93588-.024,4.40349-.00765,1.23966.01388,1.73369.528,1.78752,1.75512a3.57877,3.57877,0,0,0,.10923,1.42865,1.34466,1.34466,0,0,0,1.12553-1.13724c.14737-1.50491-.07451-3.87333-2.179-4.80206-1.03049-.45473-2.08333-.86112-3.13832-1.25678-.74207-.27829-1.49669-.53124-2.26078-.74016-.60159-.16448-.90447.054-.91709.66324-.02758,1.3317-.00856,2.66432-.00856,4.097Z"/>
        <path d="M50.00106,4.71021q-23.85948,0-47.71895-.00009c-.33577,0-.67379.02335-1.00682-.00731A1.219,1.219,0,0,1,.022,3.41738c-.03273-.67-.02493-1.34326-.00275-2.014A1.2041,1.2041,0,0,1,1.09561.07943,5.116,5.116,0,0,1,1.99286.00234q.119,0,.23675.00524L2.21848.00716Q48.36316.00275,94.50776.00442c1.21707,0,2.43447-.01437,3.6512.00872a3.57929,3.57929,0,0,1,1.12487.20028L99.25874.20578a1.01072,1.01072,0,0,1,.71623.9436v.00108c.02409.79673.042,1.59645-.00117,2.39144a1.17739,1.17739,0,0,1-1.11937,1.15078l-.00266.00008c-.21025.01728-.45506.02708-.7022.02708-.1511,0-32.24219-.00955-48.14851-.00972Z"/>
        <path d="M7.51739,84.99968c.88237-.72961,1.34674-1.6713,2.53349-1.73045V81.29614c2.35148-.44825,4.68676-.4274,6.98558-.7027,2.31792-.27762,4.65627-.384,7.03658-.56944.5795,1.652,1.15377,3.2891,1.74548,4.97576Z"/>
        <path d="M74.3082,84.93c.58358-1.60551,1.16557-3.20652,1.7837-4.90715,4.56481.391,9.13278.78227,13.7761,1.17993V83.0692a11.989,11.989,0,0,1,1.40838.779l-.04794-.029a12.602,12.602,0,0,1,1.12495,1.04511l.00489.00515c-.96062.22031-16.7257.26159-18.05017.06039Z"/>
      </g>
    </g>
  </g>
</svg>
