<svg xmlns="http://www.w3.org/2000/svg" viewBox="0 0 308.99805 308.99854">
  <title>curse-cycle</title>
  <g id="Layer_2" data-name="Layer 2">
    <g id="Layer_1-2" data-name="Layer 1">
      <path d="M262.97458,88.16531a15.43766,15.43766,0,0,1,2.21786,2.45638,131.18419,131.18419,0,0,1,15.67185,42.67959c1.45706,8.16884,1.38885,16.46135,1.3891,24.74856a119.31034,119.31034,0,0,1-7.11405,39.38421,121.7666,121.7666,0,0,1-19.81613,36.003,127.829,127.829,0,0,1-79.77514,47.59534,129.1636,129.1636,0,0,1-83.55053-14.6601,129.86533,129.86533,0,0,1-35.53588-29.43685c-13.13309-15.363-21.77183-33.11757-26.59495-52.80065-3.47988-14.20137-3.94574-28.60928-2.6861-42.96286A112.81112,112.81112,0,0,1,39.66618,98.56705c1.4611-2.79636,2.82238-5.64688,4.35591-8.40216a10.1957,10.1957,0,0,1,2.00375-1.99866l-.06309-.05743c5.48018,9.86551,10.93486,19.74528,16.44637,29.59327q13.37552,23.89953,26.808,47.7672c5.116,9.12189,10.19166,18.2664,15.32141,27.38052,8.46768,15.0447,16.99339,30.05677,25.43979,45.11338,6.82214,12.16119,13.54809,24.37628,20.3545,36.54635,1.24572,2.22739,2.67289,4.3533,4.28312,6.95758,3.642-6.46164,6.99539-12.36676,10.30667-18.29538,6.79951-12.17413,13.55066-24.3753,20.36915-36.53875q12.9052-23.02152,25.88015-46.00393c6.74371-12.01509,13.432-24.06128,20.17074-36.07917q15.82925-28.2298,31.69278-56.44036Z"/>
      <path d="M46.02583,88.16623a14.1572,14.1572,0,0,1,1.01214-2.698A126.54439,126.54439,0,0,1,74.19861,55.16087a123.12086,123.12086,0,0,1,45.0401-23.59368c9.56085-2.74,19.298-4.65676,29.31932-4.60521,5.62764.02894,11.27315-.20327,16.879.16436a120.55686,120.55686,0,0,1,30.4767,6.38114c22.142,7.42636,40.46084,20.50354,55.73446,37.94156,3.9195,4.47492,7.13156,9.57321,10.60416,14.43118a7.81678,7.81678,0,0,1,.72226,2.28509l.06082-.0558c-6.57022.74387-13.14664,1.43718-19.70917,2.24344-9.83157,1.20789-19.63447,2.67844-29.48494,3.69421-8.88826.91655-17.81636,1.52073-26.74139,1.98177-6.47513.33448-12.983.45795-19.45966.22093-6.4425-.23578-12.78834.83138-19.30693.30417-11.22879-.90815-22.56207-.0116-33.83165-1.20933-6.7516-.71756-13.56457-.85666-20.34958-1.26229-.49537-.02962-.98781-.11037-1.4812-.17073-4.58851-.56118-9.17855-1.11022-13.7649-1.6885-4.42062-.5574-8.835-1.16494-13.25646-1.715C59.08931,89.692,52.5252,88.907,45.96275,88.1088Z"/>
      <path d="M116.41617,104.0728c4.42706,0,8.39-.09236,12.34721.01985,7.46456.21167,14.924.67171,22.389.77139,4.296.05738,8.59639-.48561,12.89885-.587,6.99087-.1648,13.98564-.15865,20.97751-.2908,2.13556-.04036,4.267-.29778,6.65469-.47464,2.24639,1.528,2.69357,4.37843,3.1117,6.83517,1.30368,7.65968-.06122,14.87318-4.97348,21.15524a6.56359,6.56359,0,0,1-1.385,1.42078c-7.94854,5.40851-15.9159,10.7894-24.00061,16.25925-6.59188-4.94158-13.21381-4.99228-19.90607.0408-6.78226-4.65654-13.41963-9.32683-20.18332-13.8064-3.06954-2.033-6.09529-3.95674-7.85318-7.38484-3.84514-7.49847-4.5208-15.09523-.94678-22.87239A3.89363,3.89363,0,0,1,116.41617,104.0728Z"/>
      <path d="M140.62823,156.22565c-1.18853,7.86444.93761,11.64813,9.91646,17.69845.09587,1.03049.31752,2.32387.318,3.61736.00163,4.324.42967,8.72539-.2184,12.95733C148.745,202.901,137.82806,211.43161,124.154,211.19214c-12.28116-21.581-24.4941-43.55156-36.55783-65.355,5.55495-8.12506,15.19865-11.61817,23.76085-8.8506a14.16929,14.16929,0,0,1,3.56117,1.67985C123.43057,144.43059,131.90242,150.2547,140.62823,156.22565Z"/>
      <path d="M184.86842,211.29344c-10.79179.32477-18.35121-4.253-23.69583-12.77359a15.59248,15.59248,0,0,1-2.44-8.98695c.16921-5.30731.04535-10.624.04535-15.72208,8.71166-6.05063,10.72611-9.72447,9.75483-17.64706,8.68837-5.96118,17.40536-12.01618,26.20764-17.94457,3.48974-2.35039,7.55887-2.47406,11.55577-2.0097,5.9517.69147,10.94523,3.88606,15.13421,9.51307C209.61852,167.49265,197.20064,189.19543,184.86842,211.29344Z"/>
      <path d="M159.1713,205.91734A35.41178,35.41178,0,0,0,180.406,216.4922c-1.44736,5.163-4.63309,9.0443-6.81624,13.384-2.15562,4.285-4.74617,8.3493-7.078,12.5481-2.36523,4.25885-4.41923,8.7033-7.5558,12.9765-.41131-.85111-.76834-1.24573-.769-1.641q-.04218-23.6457-.024-47.29146Z"/>
      <path d="M150.13583,206.19514c.918,3.50962,1.1301,42.80761.27674,48.75307-.44658-.17181-1.07712-.21-1.24584-.50882q-9.52516-16.87188-18.954-33.798a34.17814,34.17814,0,0,1-1.49631-3.54674c4.13094-1.47036,8.1391-2.47294,11.73-4.297C143.88921,211.04871,146.899,208.44742,150.13583,206.19514Z"/>
      <path d="M242.20648,106.33148c-2.61,4.98358-5.16833,9.99512-7.84439,14.943-2.76315,5.10893-5.62633,10.16414-8.48553,15.22035a16.44426,16.44426,0,0,1-1.70209,2.0607c-5.00557-4.27685-10.16969-7.81163-17.19547-8.58824a16.032,16.032,0,0,1,2.13135-2.28439q15.614-10.69677,31.28873-21.30468a5.182,5.182,0,0,1,1.40408-.44421Q241.99785,106.13981,242.20648,106.33148Z"/>
      <path d="M67.18674,105.93817c5.28215,3.40087,10.60143,6.74576,15.83629,10.21793,5.53315,3.67,10.994,7.44943,16.46477,11.21255.79922.54978,1.47824,1.27426,2.7125,2.35562-6.95919,1.19088-12.40825,4.31905-17.55939,9.041-1.67386-2.89911-3.1638-5.415-4.592-7.96549Q73.84538,119.72119,67.695,108.613a17.86247,17.86247,0,0,1-.89289-2.28463Q67.00168,106.14042,67.18674,105.93817Z"/>
      <path d="M198.77069,103.08444,234.94458,99.63c-2.43829,2.79814-26.12045,19.25923-34.97459,24.32986A35.022,35.022,0,0,0,198.77069,103.08444Z"/>
      <path d="M73.37026,99.69428l35.69111,3.56393c-2.08169,6.80521-2.91188,13.4107-.77344,21.05989C95.89251,116.2226,84.60324,108.12685,73.37026,99.69428Z"/>
      <path d="M66.80207,106.32832l-.29123-1.01875.6759.6286Q67.00167,106.14041,66.80207,106.32832Z"/>
      <path d="M241.80316,105.934l1.018-.29363-.61463.69107Q241.99788,106.1398,241.80316,105.934Z"/>
      <path d="M154.499,308.99854C69.30811,308.99854,0,239.68994,0,154.499S69.30811,0,154.499,0c85.19141,0,154.499,69.30811,154.499,154.499S239.69043,308.99854,154.499,308.99854ZM154.499,9C74.27051,9,9,74.27051,9,154.499c0,80.229,65.27051,145.49952,145.499,145.49952s145.499-65.27051,145.499-145.49952C299.99805,74.27051,234.72754,9,154.499,9Z"/>
    </g>
  </g>
</svg>
