<svg xmlns="http://www.w3.org/2000/svg" viewBox="0 0 794.94816 952.22574">
  <title>Asset 2</title>
  <g id="Layer_2" data-name="Layer 2">
    <g id="Layer_1-2" data-name="Layer 1">
      <g>
        <path d="M472.52125,841.16916C662.0182,794.0831,762.00819,564.9039,641.43733,385.74924c27.55817-18.64478,55.11847-37.291,83.28394-56.34661A387.49269,387.49269,0,0,1,784.24867,464.082c19.46948,84.99759,12.5199,167.97189-22.09412,248.05283C690.748,877.33634,526.68043,961.7623,373.8824,951.369V158.31705c16.42511-3.59525,83.64184.82,98.63885,6.57692Z"/>
        <path d="M318.617,165.2167V267.35294C203.27235,304.392,132.33162,381.42619,104.62819,499.73077H318.47914v100.0485H104.5256c8.86881,80.78747,73.87108,201.72943,214.03426,241.24682V944.15964C143.41343,910.3674-2.03709,752.40152.02159,550.51593,2.03756,352.81876,145.41638,198.82346,318.617,165.2167Z"/>
        <polygon points="397.354 0 412.926 31.553 447.747 36.613 422.551 61.173 428.499 95.853 397.354 79.479 366.21 95.853 372.158 61.173 346.961 36.613 381.782 31.553 397.354 0"/>
        <polygon points="237.311 28 252.883 59.553 287.703 64.613 262.507 89.173 268.455 123.853 237.311 107.479 206.166 123.853 212.114 89.173 186.918 64.613 221.738 59.553 237.311 28"/>
        <polygon points="557.398 28 572.97 59.553 607.791 64.613 582.594 89.173 588.542 123.853 557.398 107.479 526.253 123.853 532.201 89.173 507.005 64.613 541.825 59.553 557.398 28"/>
      </g>
    </g>
  </g>
</svg>
