<svg xmlns="http://www.w3.org/2000/svg" viewBox="0 0 200 200">
  <title>highlight_quests</title>
  <g id="Layer_2" data-name="Layer 2">
    <g id="Layer_1-2" data-name="Layer 1">
      <g>
        <path d="M100.00024,198.3595,70.16073,184.37516V177.728c-5.58348-2.63212-11.047-5.20767-16.65128-7.84958V150.283a68.07131,68.07131,0,0,1-.04323-100.596V30.09363L70.0581,22.27208V15.67435L99.99793,1.6405l29.86038,13.99094v6.59833l16.65977,7.853V49.71408a67.95114,67.95114,0,0,1,.04027,100.44167V169.841l-16.62893,7.84165v6.64722C119.86006,189.05,109.93067,193.70449,100.00024,198.3595Zm.74167-34.49609a59.85148,59.85148,0,0,0,13.58282-1.53851A63.99318,63.99318,0,1,0,69.63514,43.55963a63.817,63.817,0,0,0-31.62472,74.1938C46.14115,145.36708,71.746,163.99252,100.74191,163.86341Zm43.54645-11.77651c-13.11863,10.61173-27.81064,16.00963-44.29754,16.00764-16.48491-.002-31.17431-5.4054-44.24048-15.97409v16.48248l44.25,20.73723,44.288-20.75639ZM55.70054,47.88313c13.19361-10.68066,27.89008-16.0439,44.3787-16.03192,16.474.012,31.14515,5.436,44.185,15.98379V31.3498L99.999,10.60658,55.70054,31.3691Z"/>
        <path d="M21.86992,100.03246a3.69622,3.69622,0,0,1-3.69541,3.52593,3.65329,3.65329,0,0,1-3.53142-3.67384,3.59474,3.59474,0,0,1,3.679-3.50369A3.63794,3.63794,0,0,1,21.86992,100.03246Z"/>
        <path d="M178.1278,99.823a3.69221,3.69221,0,0,1,3.788-3.42589,3.59635,3.59635,0,1,1-.32728,7.18523A3.71081,3.71081,0,0,1,178.1278,99.823Z"/>
        <path d="M180.38784,127.70377a3.57415,3.57415,0,0,1-3.58475,3.58665,3.703,3.703,0,0,1-3.61672-3.6104,3.61871,3.61871,0,0,1,3.638-3.551A3.51524,3.51524,0,0,1,180.38784,127.70377Z"/>
        <path d="M26.81292,72.23434a3.68463,3.68463,0,0,1-3.61118,3.60515,3.59266,3.59266,0,0,1-.04215-7.18507A3.72214,3.72214,0,0,1,26.81292,72.23434Z"/>
        <path d="M176.94064,68.67911a3.5711,3.5711,0,0,1,3.45336,3.71533,3.5319,3.5319,0,0,1-3.68478,3.46018,3.6551,3.6551,0,0,1-3.51157-3.69033A3.7122,3.7122,0,0,1,176.94064,68.67911Z"/>
        <path d="M26.80332,127.66385a3.68878,3.68878,0,0,1-3.62753,3.592,3.55473,3.55473,0,0,1-3.57205-3.58892,3.49039,3.49039,0,0,1,3.57128-3.5508A3.59675,3.59675,0,0,1,26.80332,127.66385Z"/>
        <path d="M40.9992,152.11448a3.571,3.571,0,0,1-3.71208,3.45411,3.51254,3.51254,0,0,1-3.52312-3.61311,3.61039,3.61039,0,0,1,3.68214-3.49764A3.66717,3.66717,0,0,1,40.9992,152.11448Z"/>
        <path d="M37.29557,44.36791A3.53,3.53,0,1,1,33.777,48.03628,3.5404,3.5404,0,0,1,37.29557,44.36791Z"/>
        <path d="M162.61869,148.50052a3.5733,3.5733,0,0,1,3.603,3.56012,3.6129,3.6129,0,0,1-7.22386-.00864A3.58747,3.58747,0,0,1,162.61869,148.50052Z"/>
        <path d="M166.23492,47.888a3.51591,3.51591,0,0,1-3.638,3.55062,3.52405,3.52405,0,1,1-.04486-7.04728A3.49449,3.49449,0,0,1,166.23492,47.888Z"/>
        <path d="M41.7818,99.923c.03365-31.93659,26.14517-57.77,58.32449-57.70326A57.73214,57.73214,0,1,1,41.7818,99.923ZM89.98073,85.14671C77.45124,80.9538,65.09034,76.751,52.68885,72.6723l-.185.41247L82.03818,98.79705l12.41917-2.01059C92.91206,92.76851,91.476,89.03463,89.98073,85.14671ZM117.9758,98.78866,147.576,73.00679l-.20732-.38316L110.01158,85.14322l-4.2548,11.553ZM89.99625,114.80134c1.2548-3.80333,2.45294-7.43489,3.71466-11.25915l-11.71477-2.36292L52.41131,126.95285l.22893.368Zm2.0451-30.84454,7.96149,9.02709,7.95279-9.03374c-2.62555-12.99693-5.21368-25.8086-7.8018-38.62027l-.31284.00743C97.25023,58.16529,94.65948,70.99327,92.04135,83.9568Zm7.95687,23.00051-7.95763,9.049,7.762,38.3764.40765-.03469c2.57311-12.74407,5.14621-25.48812,7.74288-38.34887Zm10.02366,7.85474,37.33318,12.50065.18979-.4038-29.56908-25.74614-11.56606,2.487C107.65946,107.51175,108.81792,111.09162,110.02188,114.81205Z"/>
      </g>
    </g>
  </g>
</svg>
