<svg xmlns="http://www.w3.org/2000/svg" viewBox="0 0 200 200">
  <title>highlight_triumphs</title>
  <g id="Layer_2" data-name="Layer 2">
    <g id="Layer_1-2" data-name="Layer 1">
      <g>
        <path d="M100,19.91011a16,16,0,1,1-16,16,16.01811,16.01811,0,0,1,16-16m0-8a24,24,0,1,0,24,24,24,24,0,0,0-24-24Z"/>
        <circle cx="36.08989" cy="35.91011" r="24"/>
        <circle cx="36.08989" cy="100" r="24"/>
        <path d="M100,84a16,16,0,1,1-16,16,16.01812,16.01812,0,0,1,16-16m0-8a24,24,0,1,0,24,24,24,24,0,0,0-24-24Z"/>
        <circle cx="163.91011" cy="100" r="24"/>
        <path d="M163.91008,19.91011a16,16,0,1,1-16,16,16.01811,16.01811,0,0,1,16-16m0-8a24,24,0,1,0,24,24,24,24,0,0,0-24-24Z"/>
        <path d="M36.08989,148.08989a16,16,0,1,1-16,16,16.01809,16.01809,0,0,1,16-16m0-8a24,24,0,1,0,24,24,24,24,0,0,0-24-24Z"/>
        <circle cx="100" cy="164.08989" r="24"/>
        <circle cx="163.91011" cy="164.08989" r="24"/>
      </g>
    </g>
  </g>
</svg>
