<svg xmlns="http://www.w3.org/2000/svg" viewBox="0 0 200 200">
  <title>highlight_clan</title>
  <g id="Layer_2" data-name="Layer 2">
    <g id="Layer_1-2" data-name="Layer 1">
      <g>
        <path d="M124.8666,28.71168c-.84847,16.976-.44885,149.435.40743,152.63869H176.7334c.69939-5.98844.47247-149.12217-.31177-152.41556Q150.74618,38.84552,124.8666,28.71168Z"/>
        <path d="M23.53815,181.36053H75.1474V28.70473a68.91238,68.91238,0,0,1-51.444.31873c-.3618.55966-.59473.77043-.63515,1.01311a9.9644,9.9644,0,0,0-.10726,1.63061q.05193,74.56515.12106,149.13029c.0002.10941.11967.22782.20272.32568A2.43279,2.43279,0,0,0,23.53815,181.36053Z"/>
        <path d="M18.65362,21.824c20.49126,0,40.98311.07094,61.47337-.06579,3.66-.02446,6.71856.58893,9.01464,3.59817a10.71111,10.71111,0,0,0,1.31013,1.207c1.21048.19511,2.52781.40738,3.59181.57892a6.40494,6.40494,0,0,1,.50948.498.71024.71024,0,0,1,.18391.3574c.069,60.89885.12987,110.1287.1885,171.0276h10.24033c-.26115-62.12168-.12347-169.01812.45025-171.74515,1.19707-.22377,2.4972-.46686,3.81053-.71235a5.44167,5.44167,0,0,0,.65677-.459c5.33738-4.98594,3.581-4.26534,10.76362-4.27519q30.12213-.04121,60.24448-.00956h4.70083c2.72252-3.39445,5.43564-6.777,8.38729-10.45715H114.54223c-1.64412-1.57062-3.31145-3.16336-5.10926-4.88087H90.64247c-1.64372,1.54151-3.32826,3.12119-5.09405,4.77727H5.82044C8.7827,15.00607,11.407,18.32177,14.17892,21.824Zm105.5238-6.56927h53.56635v3.28358H124.17742Zm-101.89437-.0004H75.8496v3.28163H22.28305Z"/>
      </g>
    </g>
  </g>
</svg>
