<svg xmlns="http://www.w3.org/2000/svg" viewBox="0 0 200 200">
  <title>highlight_maps</title>
  <g id="Layer_2" data-name="Layer 2">
    <g id="Layer_1-2" data-name="Layer 1">
      <g>
        <path d="M32.03469,168.09972c0-11.85011.27431-21.37957,0-30.88709a77.728,77.728,0,0,0-2.41391-16.26646l.12069.53764a81.8084,81.8084,0,0,1-2.595-20.71026,83.86365,83.86365,0,0,1,4.86623-28.23727l-.181.587c8.75043-25.79044,36.21415-44.64089,65.35664-44.64089a249.88165,249.88165,0,0,1,27.2333,2.11217l-1.26181-.13715c7.16492.75709,14.37373,1.399,21.588,1.67876s14.3079,0,22.96506,0c0,8.58585.25236,15.72883.181,22.96507a137.63973,137.63973,0,0,0,3.43983,29.19186l-.17556-.92167c10.33593,53.0018-29.66916,90.47777-68.385,89.55608-8.6791-.181-17.31432-2.2987-25.99343-3.09968-7.55444-.779-15.13083-1.377-22.7127-1.67877-6.726-.25236-13.50145-.04388-22.02145-.04388Zm68.08875-1.0753c39.86245,0,66.17956-32.1489,66.17956-66.986,0-39.03952-28.133-66.31672-66.43193-66.17956-39.1273.13716-66.29477,28.133-66.17956,66.41C33.82867,139.42356,55.23018,161.3298,100.12344,167.02442Z"/>
        <path d="M132.15713,68.57527c-11.48254,24.52314-22.64138,47.99294-34.7,73.48164-.32368.576-11.13691-27.557-11.13691-27.557l-27.557-9.43619Z"/>
        <path d="M172.96319,51.37615v.36758c0,.24139-.00548.52667-.00548.81743a106.31525,106.31525,0,0,0,.88876,13.74832l-.05486-.53215a78.95814,78.95814,0,0,1,7.55444,33.96482v.23042A81.47884,81.47884,0,0,1,69.68073,175.07812l.54862.192q-8.33347-.801-16.69439-1.21792A87.85648,87.85648,0,0,0,187.77583,100v-.203a86.11449,86.11449,0,0,0-15.00465-48.71162l.192.29625Z"/>
        <path d="M26.22485,140.455a59.06551,59.06551,0,0,0-.73515-8.01528,78.80994,78.80994,0,0,1-6.8193-32.33v-.14264A81.42462,81.42462,0,0,1,133.589,26.32634l-.51021-.20847c4.93754.43889,9.897.779,14.83458.98751h.38951A87.87672,87.87672,0,0,0,12.22417,99.93416v.15361a86.00532,86.00532,0,0,0,14.36826,47.72961l-.19751-.3182c-.02194-2.3426-.07132-4.70713-.1591-7.04972Z"/>
      </g>
    </g>
  </g>
</svg>
