<svg xmlns="http://www.w3.org/2000/svg" viewBox="0 0 200 200">
  <title>highlight_reports</title>
  <g id="Layer_2" data-name="Layer 2">
    <g id="Layer_1-2" data-name="Layer 1">
      <g>
        <path d="M82.11324,35.4308a.26818.26818,0,0,0-.37928.00072l-3.2323,3.24629a.26848.26848,0,0,0-.05883.28936l.60383,2.59014a.26587.26587,0,0,1-.05883.28937c-1.18488,1.17591-9.19261,9.11368-11.47551,11.39408a.258.258,0,0,1-.2914.0501,73.64728,73.64728,0,0,1-12.32464-6.75409A74.04472,74.04472,0,0,1,43.61633,37.026S31.43942,24.773,30.02909,23.38445c-.07976-.07856,2.81846-2.84154,2.81846-2.84154l-7.403-7.4406a20.28536,20.28536,0,0,0-3.80815,1.35348l-5.52256.17021-.17021,5.52256a20.28511,20.28511,0,0,0-1.35348,3.80815l7.44059,7.40305s2.763-2.89822,2.84154-2.81846c1.38858,1.41034,13.64153,13.58725,13.64153,13.58725a74.04527,74.04527,0,0,1,9.51078,11.28,73.64733,73.64733,0,0,1,6.75408,12.32465.258.258,0,0,1-.05011.29139c-2.28039,2.28291-10.21817,10.29062-11.39408,11.47551a.26587.26587,0,0,1-.28937.05883l-2.59014-.60383a.26846.26846,0,0,0-.28936.05883l-3.24629,3.23229a.26818.26818,0,0,0-.00072.37928l7.12439,7.15142a.26809.26809,0,0,0,.37934.0003L47.67042,84.529a.26823.26823,0,0,0,.057-.29481l-.47063-2.74439a.267.267,0,0,1,.06-.29779c1.21777-1.16934,9.14861-8.92715,10.16281-9.92222a.251.251,0,0,1,.22653-.06619l3.05479.52731a.24031.24031,0,0,1,.13769.06834c2.62709,2.63307,91.89989,92.13527,93.64425,93.94683,1.7602,1.82764,20.87515,17.03359,27.47743,19.23041a63.77371,63.77371,0,0,0,6.31621,1.87224,63.77675,63.77675,0,0,0-1.87223-6.31621c-2.19682-6.60228-17.40276-25.71724-19.2304-27.47744-1.81155-1.74436-91.31369-91.01723-93.94676-93.64433a.24031.24031,0,0,1-.06834-.13768l-.5273-3.0548a.251.251,0,0,1,.06618-.22652c.99507-1.0142,8.75289-8.945,9.92223-10.16281a.267.267,0,0,1,.29779-.06l2.74439.47063a.26821.26821,0,0,0,.29481-.057L89.265,42.93453a.26808.26808,0,0,0-.0003-.37933Z"/>
        <g>
          <path d="M151.92616,123.835a58.289,58.289,0,0,0,4.73376-13.638l.02256-.10237q.23171-1.09653.42-2.20067c.01475-.08753.02968-.17562.04425-.26334q.18185-1.08611.32393-2.17692c.00817-.06415.01484-.12836.02292-.1926a58.86579,58.86579,0,0,0,.42677-9.23254c-.00279-.08388-.00284-.16795-.0058-.252-.02407-.65823-.06471-1.3155-.11064-1.97295-.01389-.19653-.02644-.3932-.04238-.5896q-.07507-.93426-.18128-1.86605c-.02452-.21886-.05105-.43754-.07813-.656-.0769-.62046-.16091-1.24-.25763-1.85837-.02968-.189-.064-.37745-.09525-.5665-.10913-.65489-.2227-1.3091-.35416-1.96075l0,0c-.17224-.85462-.36042-1.70618-.57138-2.5535l-.00014-.00014c-.00507-.02041-.01123-.04045-.0163-.06086q-.247-.98892-.53051-1.9698c-.10475-.36485-.21722-.72791-.32914-1.09116q-.20218-.6548-.42023-1.30572c-.11375-.3395-.22434-.68024-.34448-1.0181q-.36363-1.02336-.7664-2.03546c-.12407-.31183-.25626-.62083-.38553-.93129q-.299-.71329-.61663-1.421c-.132-.29343-.26188-.58772-.39914-.87914q-.48664-1.03571-1.01439-2.05624c-.12466-.24009-.25709-.477-.38535-.71558q-.42323-.78816-.87166-1.56573c-.13977-.24205-.27849-.48452-.42229-.72475-.41507-.69563-.84307-1.38518-1.28974-2.06638-.10109-.15443-.20854-.30571-.31119-.4595q-.579-.864-1.1917-1.7119c-.143-.19781-.286-.39557-.43188-.59188-.50909-.68589-1.03024-1.36558-1.57363-2.03317-.05858-.07247-.12087-.14279-.18027-.21462q-.75522-.91959-1.55619-1.81335-.2278-.25521-.45845-.50887c-.599-.656-1.2091-1.30554-1.8435-1.93993-.01283-.01283-.02657-.02439-.0394-.03722-.77252-.77106-1.564-1.51143-2.36848-2.22966-.24608-.2205-.5-.42768-.749-.64311-.59065-.50955-1.1855-1.01161-1.79149-1.4934-.27288-.21736-.54941-.4274-.82535-.639q-.92748-.71158-1.87591-1.38276-.3696-.26109-.74216-.5164-1.09822-.74864-2.222-1.44244c-.14918-.09219-.29681-.18794-.44672-.27867a58.23651,58.23651,0,0,0-12.09833-5.53167q-1.44474-.4694-2.90716-.86221a58.88108,58.88108,0,0,0-23.47459-1.43522l.16484.16411c.02457.02457.04078.05393.06448.07909l4.57914,4.57914a53.38779,53.38779,0,0,1,21.92549,3.19429l.00416.00123.00013.00014a52.77771,52.77771,0,0,1,4.87221,2.08715l.04886.024q1.05351.51651,2.088,1.0812c.055.03018.10973.06151.1648.09174.65037.35886,1.29563.72941,1.93363,1.11755.10776.06539.21388.13424.32115.20059.58571.36215,1.16777.73161,1.74189,1.11869.17471.117.3453.24156.51873.36092.50717.35083,1.0133.70353,1.51075,1.07385.25575.19.505.39179.758.587.41416.31991.82987.63626,1.23627.97033.36923.30274.72887.6222,1.09148.93659.28735.24936.57968.48982.86265.74649q.97338.88131,1.91332,1.81834c.012.012.02265.02484.03465.03685.70613.70758,1.38336,1.433,2.04122,2.16979.20242.22654.39352.45928.59128.68846.46722.54174.92577,1.088,1.3676,1.64377.19868.24982.39151.50256.58462.75558q.65829.85884,1.27636,1.7381c.15448.2195.30932.43864.45992.6601q.71925,1.0568,1.38107,2.14017c.0631.10255.12982.2036.192.30667a53.28964,53.28964,0,0,1-.44124,55.55363q1.96133,1.95474,3.82777,3.81461c.4538-.69471.91362-1.38778,1.33513-2.09724.769-1.29417,1.47121-2.61652,2.13149-3.95443Z"/>
          <path d="M127.52457,143.10888a53.28748,53.28748,0,0,1-55.45126.2711c-.138-.0832-.27324-.17169-.41055-.2564q-1.01988-.62973-2.01655-1.3086c-.22608-.15448-.45074-.31192-.67526-.47q-.86118-.608-1.702-1.25486c-.25174-.19329-.50412-.385-.75339-.58315-.5495-.43773-1.0891-.89257-1.62477-1.35518-.22776-.19635-.459-.38594-.68407-.5869-.72951-.65207-1.44764-1.32344-2.14848-2.02281-.01292-.01293-.02671-.02452-.03963-.03745q-.93357-.93357-1.80861-1.90285c-.24375-.26932-.47284-.54663-.7101-.81969-.324-.37293-.652-.74335-.9638-1.12308-.31334-.38055-.61042-.76969-.91111-1.15732-.21279-.27416-.43073-.54544-.63731-.82289-.34544-.46306-.67517-.9338-1.00362-1.40545-.14042-.20251-.28471-.40306-.42215-.607-.36165-.5348-.70764-1.07659-1.04741-1.62167-.087-.13959-.17594-.27822-.26147-.41854q-.548-.89761-1.05494-1.81258c-.04749-.08475-.09548-.16927-.14211-.25461q-.53966-.98131-1.03448-1.97989c-.01882-.03854-.03786-.07658-.05663-.11507q-.5183-1.05091-.98754-2.11925l-.00219-.00439.00009.00009q-.58411-1.33043-1.09125-2.68542l-.00009-.00009-.00142-.00434a53.37816,53.37816,0,0,1-3.29524-21.84087l-4.79285-4.79285-.04681-.0468-.00114.01055c-.14077,1.03111-.24963,2.06564-.3353,3.10145-.01392.16653-.02351.333-.03593.4996q-.099,1.33221-.13786,2.66693-.00883.30788-.0147.6158-.02426,1.32262.012,2.64511c.00438.17972.00611.359.01242.53845.03616,1.01152.09534,2.02267.18365,3.03155.00288.03356.00434.06717.00726.10077a58.8172,58.8172,0,0,0,.92741,6.38575c.037.18383.08123.36617.12.54959q.26385,1.24907.58124,2.48812c.07032.27343.14594.54557.22037.818q.30391,1.11378.65284,2.21706c.09233.29324.185.58612.28242.87786.24622.73791.51092,1.47094.78737,2.20035.09922.26215.1931.52553.29621.78645q.5185,1.31193,1.10394,2.60241c.04607.10087.08585.2042.13242.30484q.67,1.45687,1.42568,2.8825c.1053.19955.22192.39435.33019.59248.39466.72562.80133,1.44645,1.22928,2.15788.18718.31137.3849.618.57823.92672.3727.59407.75394,1.18426,1.15,1.76738.22589.33329.45754.66357.69124.993q.59418.83637,1.22239,1.65564c.246.32123.49055.64325.74384.96083.45581.57124.93038,1.132,1.41066,1.68975.23352.27078.45909.546.69823.81366.71439.79914,1.45043,1.58559,2.21669,2.35332.01352.01351.02576.02794.03927.04146.67092.67092,1.35646,1.31846,2.05144,1.94989.2195.199.44471.38772.66631.583.48083.42384.96413.84357,1.45514,1.2491.2711.22361.54694.43882.82115.65677.45311.36032.90878.7159,1.37029,1.06051.29416.22037.59092.436.88869.64978q.68418.49131,1.37942.96006c.302.20411.60426.40772.90933.6054.47763.30959.96047.60758,1.44481.902.29571.17955.59.36275.888.53663.53964.31462,1.08572.61375,1.63335.90933.24736.13411.49188.27562.74134.40525q1.18248.617,2.38624,1.17783c.20744.09639.41863.18192.62667.276.60485.27243,1.21139.54,1.82359.79051.332.13617.66759.26065,1.0017.39019.49357.19183.98755.38188,1.48531.55964.37133.13243.74476.25672,1.118.38156.46558.1558.9322.30754,1.401.45119q.58809.18042,1.17942.348c.45539.12881.91184.25064,1.36942.3685.40444.10415.80878.20822,1.21513.30333.45448.10672.91074.20279,1.36733.29846.4095.08584.81809.17589,1.229.25288.46211.08657.9259.15876,1.38979.234.53932.08781,1.07878.17356,1.61984.24631.68023.09137,1.36075.17717,2.04331.24456.47649.0469.954.07654,1.4313.11183.38982.02891.77923.06251,1.16937.0837.491.02635.982.03955,1.47331.05375.37567.01109.75152.0231,1.12732.027.501.00489,1.00193.00027,1.50271-.00744q.543-.00829,1.08591-.02608.76974-.02589,1.53915-.07109c.341-.02064.68147-.04694,1.02193-.07325.53215-.04137,1.06412-.08438,1.59546-.14045.297-.03106.59343-.07069.8901-.10644.57247-.069,1.14513-.13708,1.71555-.22275.12762-.01922.25447-.04434.382-.06438a58.58848,58.58848,0,0,0,6.33487-1.3613c.20955-.05712.42-.10972.62914-.16941.58211-.166,1.16052-.34671,1.73857-.53142.24995-.07954.50037-.1579.75-.24146.56476-.1885,1.12714-.38814,1.68714-.59453q.37713-.139.75248-.28352c.56261-.21621,1.1233-.43946,1.68071-.674.22936-.09648.457-.19758.68544-.29722.57813-.25183,1.155-.50781,1.7265-.77946.156-.07415.30983-.15411.46517-.22964a57.87473,57.87473,0,0,0,6.18369-3.48292l.00452-.00278Q129.49181,145.0827,127.52457,143.10888Z"/>
        </g>
        <g style="opacity: 0.6000000000000001">
          <path d="M26.5763,34.73037A54.30969,54.30969,0,0,0,15.35675,63.57928l1.97833,1.97834A52.23233,52.23233,0,0,1,28.08787,36.2361C27.56909,35.71952,27.06224,35.21485,26.5763,34.73037Z"/>
          <path d="M66.82539,82.23582a54.31181,54.31181,0,0,0,15.12805,36.81526A52.738,52.738,0,0,1,49.8839,116.655l.00009.00009q.50768,1.35482,1.0912,2.68538A54.89444,54.89444,0,0,0,82.83341,121.016a54.92534,54.92534,0,0,0,.23456,27.38962l2.41332.72636a52.8015,52.8015,0,0,1-.66877-27.28756,54.29672,54.29672,0,0,0,35.41186,13.94164q-1.09158-1.09488-2.19847-2.205a52.14308,52.14308,0,0,1-31.97338-13.47232A54.19925,54.19925,0,0,0,98.729,114.22636q-.76331-.76439-1.523-1.52737a52.05426,52.05426,0,0,1-11.28476,5.23345,52.00111,52.00111,0,0,1,5.25012-11.28489l-1.52368-1.52806a54.21413,54.21413,0,0,0-5.92,12.72793,52.17927,52.17927,0,0,1-14.70416-33.4076Q67.886,83.299,66.82539,82.23582Z"/>
          <path d="M159.83722,42.782a54.53391,54.53391,0,0,0-52.599-14.0984,54.5824,54.5824,0,0,0-71.01785-3.59269c.48393.48539.98782.99147,1.50358,1.50942a52.47715,52.47715,0,0,1,67.15963,2.76355,54.04733,54.04733,0,0,0-16.10578,8.2255l1.50427,1.49842a52.02313,52.02313,0,0,1,16.35934-8.053c.01858.01859.03826.03534.05685.05393a52.313,52.313,0,0,1,8.12279,10.4936q1.45954.39213,2.90123.86065l-.00037-.00036A54.292,54.292,0,0,0,108.976,30.41479a52.3684,52.3684,0,0,1,63.20587,63.333,54.13391,54.13391,0,0,0-15.95824-9.99506l.00014.00014c.211.84732.39914,1.69888.57138,2.5535a52.06484,52.06484,0,0,1,14.764,9.76524,52.24457,52.24457,0,0,1-19.633,27.76342c-.66033,1.33787-1.36212,2.65985-2.13122,3.954l.00028-.00045a54.28179,54.28179,0,0,0,23.46025-30.05349,52.46461,52.46461,0,0,1,6.09455,65.475q.66385.89728,1.32523,1.81035A54.57974,54.57974,0,0,0,174.248,95.70873c-.1043-.10429-.21389-.2-.31909-.303A54.53469,54.53469,0,0,0,159.83722,42.782Z"/>
          <path d="M83.23017,64.84583c.683.68078,1.396,1.39161,2.15007,2.14422a52.16587,52.16587,0,0,1,34.83542,14.78038q-.033.12259-.06612.24511a54.15188,54.15188,0,0,0-13.53149,6.1546q.7611.76,1.53056,1.52692a52.20492,52.20492,0,0,1,11.26453-5.22226,52.20669,52.20669,0,0,1-5.22422,11.245l1.52952,1.52513a54.15756,54.15756,0,0,0,6.15313-13.50373c.07348-.02.14663-.03968.22028-.05955a52.1363,52.1363,0,0,1,13.8731,33.75062q1.083,1.07967,2.15007,2.14349A54.30769,54.30769,0,0,0,124.4233,83.11556a52.77333,52.77333,0,0,1,26.41988.99124l-.70335-2.391a54.90862,54.90862,0,0,0-27.38925-.40005c-.05826-.05973-.11516-.12028-.17347-.18a54.87167,54.87167,0,0,0-1.81254-31.88781c-.88613-.38493-1.77952-.74937-2.682-1.08339l-.00013-.00014a52.70738,52.70738,0,0,1,2.71131,31.22529A54.3028,54.3028,0,0,0,83.23017,64.84583Z"/>
        </g>
        <path d="M138.67293,178.18668a1.54572,1.54572,0,0,1-.16375-1.10038c.56476-1.51527.72284-3.13767-.27954-4.16562a42.982,42.982,0,0,0-3.93238-3.40562,2.05747,2.05747,0,0,0-1.67331-.71841,20.4059,20.4059,0,0,0,1.14426,5.94505c.52969,1.57226,1.01878,2.37259,2.66373,2.83689a7.436,7.436,0,0,1,1.05394.53083c-2.38405-.14914-4.70156-.25658-6.84483-.32713-.18439-.5833-.52138-1.01015-.34183-1.56559.602-1.86674.705-3.84078-.56549-5.03166a52.0932,52.0932,0,0,0-4.9497-3.91225,2.49552,2.49552,0,0,0-2.06619-.77959,24.76043,24.76043,0,0,0,1.70961,7.14091c.72745,1.876,1.36326,2.81935,3.38187,3.292a7.23761,7.23761,0,0,1,1.5192.72942,1.23269,1.23269,0,0,1,.08712.09c-2.76967-.07521-5.1886-.08608-6.97529-.04115-.42823.01087-.87567.02151-1.33367.03256-.241-.83864-.88855-1.275-.75649-2.02774.36767-2.10249.18137-4.24535-1.36687-5.33769a56.77421,56.77421,0,0,0-5.92327-3.47064,2.7158,2.7158,0,0,0-2.34428-.52873,26.95684,26.95684,0,0,0,2.9178,7.438c1.06663,1.91194,1.89395,2.83278,4.14056,3.03808a7.86074,7.86074,0,0,1,1.74687.55745.77068.77068,0,0,1,.31023.36137c-2.49136.05845-5.28673.12411-8.04992.2132-.30941-.769-.93723-1.16371-.858-1.89984.226-2.12213-.103-4.24773-1.72076-5.23422a56.78909,56.78909,0,0,0-6.142-3.06694,2.71692,2.71692,0,0,0-2.37464-.3706,26.94221,26.94221,0,0,0,3.40872,7.22612c1.1917,1.83683,2.079,2.7,4.33426,2.75469a7.87659,7.87659,0,0,1,1.78016.43951.7535.7535,0,0,1,.24447.19626c-3.28657.11657-6.44341.27082-8.88134.49229a12.45689,12.45689,0,0,1-.434-2.9363,4.58394,4.58394,0,0,0-2.28186-4.67312,56.79084,56.79084,0,0,0-6.142-3.06693,2.71677,2.71677,0,0,0-2.37459-.37055,26.94141,26.94141,0,0,0,3.40872,7.22612c1.19165,1.83678,2.64,3.261,4.89531,3.31575.21639.00525.43845.28648.65795.4395l-.0995.40608c-2.27852-.01512-4.55809-.02982-6.71159-.04411a3.81207,3.81207,0,0,1-.68028-3.67941,4.05367,4.05367,0,0,0-.97408-3.65612c-2.36765-2.8557-5.50386-4.23407-8.90171-5.87994a25.99508,25.99508,0,0,0,2.98154,8.88482,5.66359,5.66359,0,0,0,3.65982,3.05123,4.57984,4.57984,0,0,1,1.18669.65991,19.74959,19.74959,0,0,1-7.81513-.97595c.21946-1.3002.33142-2.39519.59791-3.44086a4.23635,4.23635,0,0,0-.4417-3.51607c-2.02418-3.22091-4.97627-5.14651-8.31421-7.19786a31.474,31.474,0,0,0,1.91468,9.14765,5.90777,5.90777,0,0,0,3.25744,3.53215c.4422.17333.78576.66229,1.17458,1.00654a28.89715,28.89715,0,0,1-5.98195-1.3828c-1.382-.45782-1.69536-1.13865-1.34718-2.59287a6.84308,6.84308,0,0,1,.55114-1.431,4.5831,4.5831,0,0,0-.38059-4.71965,24.90737,24.90737,0,0,0-6.77411-7.0174,24.01966,24.01966,0,0,0,.83558,9.76866,5.26661,5.26661,0,0,0,2.2972,3.08918,7.59461,7.59461,0,0,1,1.16445,1.09211l-.27718.47973c-2.17975-.986-4.36033-1.972-6.827-3.08775a19.93473,19.93473,0,0,1,1.20751-3.04461,4.29364,4.29364,0,0,0,.36881-3.97462c-1.15567-3.12246-3.20588-5.52555-5.95971-8.21142-.09927,3.084-.30155,5.5871-.22,8.09279a5.61681,5.61681,0,0,0,2.31277,4.791c.29174.19749.37443.75361.78791,1.65732-2.3567-1.46755-4.222-2.62852-6.36986-3.96543a16.25406,16.25406,0,0,1,1.48144-2.80283,4.602,4.602,0,0,0,.81416-4.39138c-.82243-3.00547-2.56546-5.46815-4.65919-8.123a23.4744,23.4744,0,0,0-1.42344,8.70637,5.00774,5.00774,0,0,0,1.55454,3.77777,6.24074,6.24074,0,0,1,.87111,1.36864q-.17343.17289-.34626.34489c-1.79094-1.40883-3.58292-2.81725-5.64076-4.43453a15.13317,15.13317,0,0,1,1.77135-2.64076,4.30111,4.30111,0,0,0,1.32508-4.21069,21.90126,21.90126,0,0,0-3.7226-8.58331,21.08426,21.08426,0,0,0-2.39716,8.82929,4.414,4.414,0,0,0,1.10723,3.41447,7.61889,7.61889,0,0,1,.85143,1.91226,9.21818,9.21818,0,0,1-1.01248-.64425c-.88225-.83257-1.76861-1.66194-2.62122-2.5277-1.98226-2.01076-2.01144-2.65.0727-4.262a3.97449,3.97449,0,0,0,1.66856-3.51945,17.65161,17.65161,0,0,0-2.61753-8.66326,18.25805,18.25805,0,0,0-3.21849,8.14312,3.94749,3.94749,0,0,0,.78819,3.22694c.24849.29087.21626.84676.313,1.28106a15.27123,15.27123,0,0,1-3.10717-3.18314c-1.359-1.77035-1.26636-2.6231.58344-3.703a3.8039,3.8039,0,0,0,2.115-2.64341c.59571-3.3079-.19539-6.4289-1.45764-9.86323-1.09513,1.50728-1.92428,2.64784-2.75346,3.78836-.33307.868-.71768,1.71742-.9892,2.609-.499,1.64015-1.04334,3.28693.15982,4.984.19508.2747.07311.79275-.24447,1.33362-1.11687-1.70865-2.23437-3.41721-3.27922-5.0144a2.64163,2.64163,0,0,1,1.725-2.42775c.84581-.46416,1.62193-1.05864,2.4293-1.59632a19.562,19.562,0,0,0-.40005-10.45534A19.73587,19.73587,0,0,0,30.7537,132.349a5.17372,5.17372,0,0,0-.34389,4.51024c.13909.32539-.15023.83755-.33009,1.30207l-.00192-.00265c-.0216-.03182-.04434-.06333-.06594-.09516-.05059-.0747-.10018-.14986-.14995-.22521q-.283-.43863-.52681-.90234a.57118.57118,0,0,0-.12886-.15662c-.44129-.88038-.87791-1.76267-1.26468-2.6667-.77475-1.81514-.42087-2.48629,1.28112-3.15292a5.24884,5.24884,0,0,0,2.228-1.3191c1.43335-1.79737,1.6855-6.99333.50069-9.66492-1.48984,1.71313-2.97159,3.27726-4.29188,4.98312a4.49793,4.49793,0,0,0-.941,4.1265c.22005.76142.09174,1.40389-.55786,1.574l-.01507-.0421q-.157-.43863-.3143-.87686a.39706.39706,0,0,0-.09749-.14571.145.145,0,0,0-.00625-.04863c-.31156-.91649-.63846-1.82787-.95335-2.74332-.87937-2.55464-.60759-2.98278,1.76-3.656a4.197,4.197,0,0,0,2.39487-1.49632c1.5528-2.57,1.74043-5.53345,1.57007-9.164-3.16027,2.74155-6.91763,4.14079-6.561,9.063.03165.42982-.12045.96521-.55512,1.04051-.00858-.05534-.02009-.10995-.02744-.16553l-.00863-.06123c-.00493-.06119-.01082-.12187-.01562-.18292a.87167.87167,0,0,0-.11534-.39079.67338.67338,0,0,0-.17494-.18808,6.36515,6.36515,0,0,0-.65238-2.66739c-.79056-2.7588-.38055-3.61566,2.20679-3.80242a3.11348,3.11348,0,0,0,2.52925-1.2918c1.70656-2.45057,2.24665-5.31216,2.43273-8.60668a16.89758,16.89758,0,0,0-6.00263,3.965,4.4318,4.4318,0,0,0-1.4376,3.42822,5.78841,5.78841,0,0,1-.61458,1.90893c-.3237-1.62637-.62457-3.25694-.889-4.89271a.31651.31651,0,0,0-.10813-.19142c.49635-1.98989.62247-2.17281,2.29272-2.06532a3.55432,3.55432,0,0,0,3.69955-2.36446c.80571-1.74774,1.38271-3.62046,2.05938-5.4388q-.27062-.286-.543-.57078c-1.58184.82914-3.15707,1.67368-4.74814,2.4841-1.82071.92709-1.965,3.02424-2.863,5.03988a40.02707,40.02707,0,0,1-.44494-5.35824c.87659-1.23632,1.02207-1.29322,2.38359-1.08751a3.13277,3.13277,0,0,0,2.963-.81717,15.15037,15.15037,0,0,0,3.46411-7.11357c-3.70621,1.46865-7.48973,1.83715-8.37252,6.56831-.18622-.07589-.34741-.14284-.49147-.20288-.01087-1.46112.155-2.91282.10772-4.37672a.30229.30229,0,0,0-.00936-.06781c.519-.97358,1.11869-1.46546,2.08815-1.09143,2.27651.87887,3.64055-.39311,4.76-2.06893.86577-1.29463,1.5508-2.72689,2.56159-4.53769-4.11206.54261-7.55749,1.087-9.03532,5.945l-.00324-.00616c.25959-1.83066.3469-3.69772.47311-5.54779a1.88026,1.88026,0,0,1,2.294-.36315,2.55578,2.55578,0,0,0,2.81378-.265,12.41733,12.41733,0,0,0,3.86-5.29377c-.57009.01146-.89033-.01215-1.20051.02836-2.69214.35155-5.50546.43726-6.88,3.53114-.04969.11178-.29782.11936-.59841.10735a8.99493,8.99493,0,0,1,.32288-1.88208,3.58458,3.58458,0,0,1,.78818-.56489c1.93856-.90787,2.69241-2.61177,2.81017-4.7428a10.48007,10.48007,0,0,0-.98229-6.06c-1.13609,1.68331-2.164,3.0963-3.07922,4.58919-1.06645,1.74053-1.54906,3.57831-.26553,5.60487a3.14382,3.14382,0,0,1,.33279,1.10431,9.3717,9.3717,0,0,0-.29626,1.93427c-.14064-.00621-.28187-.01009-.41028-.0048.07169-4.34772-3.13775-5.59843-5.78363-7.56777a11.6248,11.6248,0,0,0,1.41823,6.72023,3.08033,3.08033,0,0,0,2.48885,1.577,2.19728,2.19728,0,0,1,2.00249,1.54586c-.11133,1.67354-.19932,3.35872-.41827,5.01742-.4743-.77823-.8401-1.23244-.85188-1.676a3.90119,3.90119,0,0,0-1.38833-2.72022,17.29488,17.29488,0,0,0-5.85925-3.617c.699,2.18728,1.14,3.936,1.8171,5.58628.73667,1.79824,1.88395,3.10917,4.00662,2.99547.93294-.04973,1.6824.40969,1.86921,1.70043.04086,1.4429-.11905,2.87424-.10854,4.31453-.70563-.31183-.73266-.4163-.87536-.84905a6.116,6.116,0,0,0-.70617-1.9c-1.8156-2.25249-4.27933-3.18561-7.03968-4.1611A16.17218,16.17218,0,0,0,13.5427,97.8899a3.46175,3.46175,0,0,0,3.61576,1.88934,2.05712,2.05712,0,0,1,2.45884,1.76989,40.87749,40.87749,0,0,0,.42193,4.8143c-.43754-.54932-.76933-.94613-1.05673-1.37161a10.07358,10.07358,0,0,0-1.3828-2.13387,13.66751,13.66751,0,0,0-7.06681-2.87387c1.20372,2.45743,1.995,4.66166,3.65284,6.38894.88088.91814,1.84011,1.57783,3.12515,1.24239,1.51084-.39384,2.51716.17411,3.00045,1.81614a.20984.20984,0,0,0-.03868.19293c.27133,1.67408.5791,3.343.91166,5.00742a6.65671,6.65671,0,0,1-1.30034-1.61961,4.90164,4.90164,0,0,0-2.39966-2.63054,18.66385,18.66385,0,0,0-7.65868-2.04035c1.35275,2.07387,2.33377,3.81909,3.543,5.371,1.44983,1.86262,3.11506,3.21515,5.637,2.23459,1.32468-.515,2.04455-.04279,2.5257,1.41006a45.81286,45.81286,0,0,1,1.09805,4.45371.403.403,0,0,0-.00859.07471c.01215.17068.04356.33726.06881.505a7.746,7.746,0,0,1-1.00024-.7606c-.65923-.657-1.16892-1.59413-1.92692-2.00656a15.19019,15.19019,0,0,0-8.09978-1.46444,19.18355,19.18355,0,0,0,4.17859,5.3607c1.54925,1.42724,3.15347,2.21391,5.23153,1.20518,1.57075-.7628,2.38373-.23914,3.12831,1.54289.493,1.17833.87576,2.40346,1.4333,3.959.00311-.02027.00516-.03575.00854-.055q.09329.25987.18676.51992a3.1664,3.1664,0,0,1-1.25038-.66663c-.80312-.59709-1.464-1.548-2.33094-1.886-2.55113-.99714-5.164-.88124-8.0712-.45466a21.72991,21.72991,0,0,0,5.5555,5.36774,3.88289,3.88289,0,0,0,4.22923.254c2.06469-1.09664,2.795-.69654,3.84649,1.65322a19.55978,19.55978,0,0,0,.9401,2.13756,1.05489,1.05489,0,0,0,.10649.32639,11.56428,11.56428,0,0,0,.79933,1.2976c-.41115.2369-.82481-.10662-1.23093-.48571a9.86413,9.86413,0,0,0-11.38166-1.02536c1.7113,1.3292,3.27927,2.68967,4.97582,3.82512,2.09163,1.399,4.1848,2.12815,6.3973.21128,1.24924-1.08284,2.07413-.72553,3.08574.76024.91659,1.344,1.76286,2.73894,2.641,4.111q-.12369.26316-.24726.52644a6.08175,6.08175,0,0,0-5.80049-2.41194,14.70128,14.70128,0,0,0-6.52752,1.89048c1.81463,1.171,3.27534,2.22473,4.82654,3.08771,2.52017,1.40454,5.01884,2.14975,7.23133-.42467a1.462,1.462,0,0,1,2.408.00941c1.21261,1.41938,2.34286,2.91639,3.50908,4.38-4.60339-3.01068-8.2833-.6222-12.10317,1.32093a29.43451,29.43451,0,0,0,5.18007,2.78c2.48076,1.00641,4.86,1.36842,6.65958-1.28207a1.59059,1.59059,0,0,1,2.61209-.27891c1.38773,1.34463,2.71812,2.75611,4.07183,4.13978a4.04187,4.04187,0,0,1-1.69632-.38927,7.12052,7.12052,0,0,0-2.6494-.508,17.3558,17.3558,0,0,0-8.47207,4.00078c2.13126.768,3.82973,1.49765,5.57875,1.98272,2.86963.79617,5.63281,1.09869,7.33548-2.19158a1.55653,1.55653,0,0,1,2.32355-.77056c1.65746,1.16869,3.2046,2.51857,4.97394,3.93357-1.79185-.19256-3.31739-.7128-4.65618-.42745-2.93419.6253-5.21673,2.54958-7.64635,4.88276a21.41842,21.41842,0,0,0,8.57664,1.52924,3.95708,3.95708,0,0,0,3.67781-2.51113,11.6132,11.6132,0,0,1,1.49819-2.07518,15.06953,15.06953,0,0,1,5.94414,3.76475c-4.48855-1.56322-8.288,2.12381-10.91429,5.89249a19.85715,19.85715,0,0,0,8.39819.34183,3.86428,3.86428,0,0,0,3.32926-2.97876,2.65518,2.65518,0,0,1,1.89021-2.27788c.99823.45832,2.08254.93111,3.14885,1.45166a13.891,13.891,0,0,1,3.458,1.78788c-4.23517.07758-4.6281.17489-6.82708,2.27039a19.44926,19.44926,0,0,0-4.55608,6.11583c3.07912-.3189,5.72035-.43206,8.28686-.90777a4.55774,4.55774,0,0,0,4.10124-4.13485,11.10335,11.10335,0,0,1,1.162-2.74309c2.64921.80736,4.99774,1.52372,7.34612,2.23994a2.95776,2.95776,0,0,1-1.41518.5158,9.42126,9.42126,0,0,0-3.14264,1.18983c-2.47766,1.99948-3.99539,4.80911-5.34751,7.8428a17.73559,17.73559,0,0,0,8.91436-1.94094,4.33792,4.33792,0,0,0,2.52688-4.061,3.279,3.279,0,0,1,1.24618-2.95625c1.237.20909,2.47428.37745,3.69758.63635,1.103.23361,2.30629.029,3.37059.9238-3.16652-.06073-4.81029,1.99893-6.06939,4.48856-.94777,1.87308-1.70943,3.857-2.6172,5.93669a15.87024,15.87024,0,0,0,8.90089-3.30383,4.33834,4.33834,0,0,0,1.76947-4.24412c-.15452-1.10138-.17374-2.30418.95207-3.08232,1.18572.02333,2.4246.00046,3.66224.08813,1.11444.07918,2.2735-.32526,3.50224.26274a16.15754,16.15754,0,0,0-3.31128,1.77591c-1.97719,1.77153-3.69744,6.9942-3.523,10.16854a21.06844,21.06844,0,0,0,7.463-4.30773c1.404-1.319,2.26437-2.87031,1.5697-5.07a2.8511,2.8511,0,0,1,.54156-3.00844,86.89808,86.89808,0,0,1,8.70258-.39051c-.0463.36941-.32521.59535-1.09636.77033a16.15332,16.15332,0,0,0-3.31128,1.77592c-1.97719,1.77153-3.69749,6.99415-3.523,10.16853a21.06844,21.06844,0,0,0,7.463-4.30773c1.404-1.319,2.26437-2.87031,1.5697-5.07a5.02668,5.02668,0,0,1-.11219-3.34292c2.78323-.01571,5.63135-.00817,8.28768-.06822-.07849.30727-.36562.51549-1.05179.69143a16.15155,16.15155,0,0,0-3.26022,1.86861c-1.92624,1.82614-3.499,7.09543-3.23511,10.26351a21.067,21.067,0,0,0,7.33867-4.51609c1.36641-1.358,2.18273-2.933,1.4266-5.1123a5.24535,5.24535,0,0,1-.24873-3.21424c2.29647-.048,5.39436-.02306,8.357.04274-.11543.21187-.37119.37548-.8917.51982a14.84858,14.84858,0,0,0-2.96227,1.77495c-1.73792,1.71272-3.089,6.582-2.7899,9.48789a19.35982,19.35982,0,0,0,6.66246-4.27978,4.19615,4.19615,0,0,0,1.21951-4.72248,5.18927,5.18927,0,0,1-.34626-2.75944c3.134.07936,5.96812.20146,7.33918.32685-.03315.27078-.23731.44653-.80512.594a12.23825,12.23825,0,0,0-2.46633,1.42267c-1.4561,1.38814-2.63657,5.384-2.42985,7.784a15.9636,15.9636,0,0,0,5.55126-3.43735,3.46051,3.46051,0,0,0,1.0701-3.87681,4.01162,4.01162,0,0,1-.202-2.415c4.6776.4905,13.7836,1.66509,17.46557,2.94994,2.02386.70659,4.54357,1.23029,5.45737-.988C157.04348,179.96378,147.5504,178.7886,138.67293,178.18668Z"/>
      </g>
    </g>
  </g>
</svg>
