<svg xmlns="http://www.w3.org/2000/svg" viewBox="0 0 200 200">
  <title>highlight_this-week</title>
  <g id="Layer_2" data-name="Layer 2">
    <g id="Layer_1-2" data-name="Layer 1">
      <g>
        <polygon points="74.202 58.013 69.75 51.655 96.119 33.191 96.119 1 103.881 1 103.881 33.191 130.25 51.655 125.798 58.013 100 39.949 74.202 58.013"/>
        <polygon points="74.202 128.318 69.75 121.96 96.119 103.497 96.119 71.305 103.881 71.305 103.881 103.497 130.25 121.96 125.798 128.318 100 110.254 74.202 128.318"/>
        <polygon points="74.202 198.623 69.75 192.265 96.119 173.801 96.119 141.61 103.881 141.61 103.881 173.801 130.25 192.266 125.798 198.623 100 180.559 74.202 198.623"/>
        <polygon points="190.475 93.165 164.677 75.102 138.879 93.165 134.426 86.808 160.796 68.344 160.796 36.152 168.558 36.152 168.558 68.344 194.927 86.808 190.475 93.165"/>
        <polygon points="190.475 163.471 164.677 145.407 138.879 163.471 134.426 157.112 160.796 138.649 160.796 106.457 168.558 106.457 168.558 138.649 194.927 157.112 190.475 163.471"/>
        <polygon points="61.121 93.165 35.323 75.102 9.525 93.165 5.073 86.808 31.442 68.344 31.442 36.152 39.204 36.152 39.204 68.344 65.573 86.808 61.121 93.165"/>
        <polygon points="61.121 163.471 35.323 145.407 9.525 163.471 5.073 157.112 31.442 138.649 31.442 106.457 39.204 106.457 39.204 138.649 65.573 157.112 61.121 163.471"/>
      </g>
    </g>
  </g>
</svg>
