<svg xmlns="http://www.w3.org/2000/svg" viewBox="0 0 1023.99995 1023.99995">
  <title>Asset 1</title>
  <g id="Layer_2" data-name="Layer 2">
    <g id="Layer_1-2" data-name="Layer 1">
      <path d="M1024,574.77705l-147.567,24.459a365.44983,365.44983,0,0,1-44.841,109.248l87.236,121.478-88.866,88.866-121.478-87.236a365.45057,365.45057,0,0,1-109.248,44.841L574.777,1024H449.223l-24.459-147.567q-56.255-13.04508-108.433-44.841L194.853,918.828l-88.866-88.866,87.236-121.478q-29.35-44.841-45.656-109.248L0,574.777V449.223l147.567-24.459q16.306-63.592,45.656-108.433L105.987,194.853l88.866-88.866,121.478,87.236a389.41928,389.41928,0,0,1,108.433-45.656L449.223,0H574.777l24.459,147.567a416.10569,416.10569,0,0,1,109.248,45.656l121.478-87.236,88.866,88.866-87.236,121.478q31.796,52.17805,44.841,108.433L1024,449.223V574.77705Zm-512,168.764q95.389,0,163.465-68.076t68.076-163.465q0-95.389-68.076-163.465t-163.465-68.076q-95.389,0-163.465,68.076t-68.076,163.465q0,95.389,68.076,163.465t163.465,68.076Z"/>
    </g>
  </g>
</svg>
