<svg xmlns="http://www.w3.org/2000/svg" viewBox="0 0 785.36322 1061">
  <title>solar</title>
  <path d="M8.6816,650q-44,198,135,341,54,43,131,67,12,3,13,3-66-26-116-85-53-62-58.5-138.5t34.5-144.5q41-72,125-198.5t119-184.5a.88386.88386,0,0,1,1,1l1-1q35,58,119,184.5t125,198.5q40,68,34.5,144.5t-58.5,138.5q-50,59-116,85,1,0,13-3,74-22,131-67,179-143,135-341-19-87-91-196-23-36-108.5-165t-129.5-201q-10-16-29-46t-26-42q-7,12-26,42t-29,46q-34,56-73.5,116.5t-88.5,134.5q-49,74-76,115Q26.68158,568,8.6816,650Zm265,285q49,62,119,63,69-1,120-63,57-72,13-159-11-20-133-228-115,196-132,228Q214.68158,863,273.6816,935Z"/>
</svg>
