<svg xmlns="http://www.w3.org/2000/svg" viewBox="0 0 158.91039 90.25901">
  <title>european-dead-zone-1_monochrome</title>
  <g id="Layer_2" data-name="Layer 2">
    <g id="European_Dead_Zone" data-name="European Dead Zone">
      <g>
        <path d="M75.82788.25869a.92321.92321,0,0,1,1.29157.0096c.37738.37453.82959.82374,1.08481,1.07882Q92.262,15.39735,106.30451,29.4628c.68965.69026,1.41767,1.34656,2.061,2.07747a2.79273,2.79273,0,0,0,2.31874.92835q14.94642-.04069,29.893-.01911,8.01259-.00027,16.02518.003c.30818.00007.61713-.01168.9244.00557,1.03352.058,1.284.26843,1.33148,1.2743.05817,1.23253-.00185,2.47082.02666,3.70439.04,1.73.0277,3.46069-.00219,5.19094-.05729,3.31621.29741,3.436-2.00491,3.43626q-19.41515.00255-38.83029-.00037c-4.16037.00005-8.32149-.04076-12.48068.0299a4.36252,4.36252,0,0,1-3.4016-1.41875Q90.21706,32.65692,78.21716,20.69045c-.07262-.07266-.14419-.14637-.21747-.21835-1.32617-1.30257-1.70538-1.306-3.0292.01843q-8.986,8.99007-17.96661,17.98552Q43.336,52.15407,29.66541,65.82932c-3.19474,3.19618-6.40585,6.37621-9.57781,9.59484a5.10384,5.10384,0,0,1-3.64811,1.52362c-4.85011-.01114-9.70033.01378-14.55036-.00868-.10375-.00048-.2721-.00037-.47475.00011a.92524.92524,0,0,1-.67549-1.55948c.37766-.40129.73277-.77495.92908-.97222Q7.645,68.4013,13.65075,62.42367,44.20337,31.85957,74.75961,1.29905C75.01039,1.04832,75.454.61877,75.82788.25869Z" style="fill: #fff;opacity: 0.2"/>
        <path d="M54.92459,76.96011l-11.73183.145a.923.923,0,0,1-.93618-.92626c.013-3.24733.05052-14.09425-.0038-19.25487-.01315-1.24938.85908-1.85876,1.50165-2.55655,2.0402-2.21553,4.20329-4.31944,6.34948-6.43546,2.833-2.79316,5.71189-5.53979,8.54-8.33781q4.90857-4.85634,9.75994-9.77039c1.83959-1.8607,6.25591-6.31825,7.65233-7.7276a.61083.61083,0,0,1,.86519-.00535c2.72428,2.695,17.56719,17.38485,24.54718,24.42161a4.38776,4.38776,0,0,0,3.40574,1.38108q25.728-.04968,51.45607-.017a11.829,11.829,0,0,1,1.2593.01373,1.38855,1.38855,0,0,1,1.21623,1.3863c.01235,2.91088.00879,8.47.00642,10.934a1.22825,1.22825,0,0,1-1.22944,1.22822c-5.70957.00107-29.88776.00545-41.88468.00543-5.75159,0-11.50337-.02335-17.25459.02217A3.08775,3.08775,0,0,1,96.023,60.4476Q87.2391,51.5847,78.39775,42.77877q-.27221-.27246-.54845-.54086c-1.26145-1.22359-1.45377-1.227-2.74258.06086q-6.593,6.58808-13.17659,13.18552c-1.6697,1.67094-3.32138,3.36058-5.02012,5.00148a3.30031,3.30031,0,0,0-1.077,2.59058c.035,3.186.01384,10.41646.00491,12.96375A.92354.92354,0,0,1,54.92459,76.96011Z" style="fill: #fff;opacity: 0.4"/>
        <path d="M158.87941,75.53415a1.53951,1.53951,0,0,1-1.54026,1.54565c-7.61681-.001-41.47823-.00522-58.64257-.00616-.25679,0-.51453.01526-.7702-.0015-1.04508-.06855-1.38826-.37219-1.41893-1.40547-.03809-1.28278-.00444-2.56766-.004-3.85163.00069-2.1571-.00536-4.31422.00083-6.47131.00526-1.83649.203-2.04628,2.03-2.0475q14.17524-.00942,28.35049-.004,14.63748-.00053,29.275-.00074c.30816,0,.61643-.00516.92445.00136,1.424.03014,1.73239.323,1.76955,1.69939.01385.51322.00288,1.02713.00286,1.54072C158.8565,68.56492,158.87117,73.13112,158.87941,75.53415Z" style="fill: #fff;opacity: 0.1"/>
        <g style="opacity: 0.4">
          <path d="M0,86.90256H2.46875c.11133.999.76318,1.415,1.94189,1.415.80469,0,1.59522-.291,1.59522-1.04,0-.791-.80469-.957-2.16357-1.29C2.12207,85.58518.30518,85.05784.30518,82.97776c0-2.12207,1.71972-3.05176,3.939-3.05176,2.1499,0,3.81445.9707,3.91162,3.05176H5.75635c-.09717-.7627-.67969-1.19336-1.59522-1.19336-.85986,0-1.42871.375-1.42871.92969,0,.69336.7627.86035,2.24707,1.19238,1.84473.43066,3.50928.999,3.50928,3.12109,0,2.08106-1.77539,3.23145-4.064,3.23145C1.78906,90.259.05566,89.094,0,86.90256Z" style="fill: #fff"/>
          <path d="M12.01221,80.10666h2.52441l3.57861,9.917H15.53516l-.58252-1.78907H11.48535l-.56885,1.78907H8.44775Zm2.37158,6.36622-.74854-2.39942c-.1665-.51367-.38867-1.40137-.38867-1.40137h-.02783s-.23584.8877-.40186,1.40137l-.76318,2.39942Z" style="fill: #fff"/>
          <path d="M18.67041,80.10666h2.45508v7.83692h4.45215v2.08008H18.67041Z" style="fill: #fff"/>
          <path d="M26.2583,88.0676,30.544,82.93577c.1665-.19434.666-.73536.666-.73536v-.041s-.72168.02734-.94336.02734H26.605V80.10666h7.72559V82.0344l-4.16114,4.99316c-.23584.26368-.8042.8877-.8042.8877v.042s.79053-.02832,1.09571-.02832h4.0498v2.09473H26.2583Z" style="fill: #fff"/>
          <path d="M34.74707,80.10666H37.23l.99854,4.16114c.22168.957.45752,2.45508.45752,2.45508h.02783s.26367-1.35938.48535-2.3584l.92969-4.25782h2.27441l.9292,4.23047c.22217,1.0127.47168,2.38575.47168,2.38575H43.832s.27735-1.49805.49951-2.4834l.98487-4.13282h2.46875l-2.71875,9.917H42.667l-1.04-4.75782c-.18066-.79-.34716-1.84472-.34716-1.84472h-.02735s-.1665,1.05469-.333,1.84472l-1.04052,4.75782H37.46582Z" style="fill: #fff"/>
          <path d="M48.32715,80.10666h7.51758v2.02442h-5.0625v1.77539h4.34131v1.91406H50.78223v2.123h5.146v2.08008H48.32715Z" style="fill: #fff"/>
          <path d="M56.89941,80.10666h4.74366c1.96972,0,3.46728,1.0127,3.46728,2.85743a2.37463,2.37463,0,0,1-1.71972,2.39941v.041A1.98813,1.98813,0,0,1,64.833,87.2219c.208,1.30371.06933,2.55176.416,2.67676v.125H62.86377c-.26367-.15235-.22217-1.31739-.37451-2.30274a1.45454,1.45454,0,0,0-1.65088-1.41406H59.35449v3.7168H56.89941Zm4.29981,4.38282c.9707,0,1.47021-.458,1.47021-1.207,0-.72071-.47168-1.23438-1.415-1.23438h-1.8999v2.44141Z" style="fill: #fff"/>
          <path d="M66.06836,80.10666h2.45508v3.5918l3.41211-3.5918h2.91259l-3.80029,3.98047,4.02246,5.93653H72.21289l-2.85742-4.28614-.832.874v3.41211H66.06836Z" style="fill: #fff"/>
          <path d="M80.0498,82.18674H77.165V80.10666H85.418v2.08008H82.50488v7.83692H80.0498Z" style="fill: #fff"/>
          <path d="M86.19531,80.10666H90.939c1.96973,0,3.46729,1.0127,3.46729,2.85743a2.37463,2.37463,0,0,1-1.71973,2.39941v.041a1.98814,1.98814,0,0,1,1.44239,1.81738c.208,1.30371.06933,2.55176.416,2.67676v.125H92.15967c-.26367-.15235-.22217-1.31739-.37451-2.30274a1.45454,1.45454,0,0,0-1.65088-1.41406H88.65039v3.7168H86.19531Zm4.29981,4.38282c.9707,0,1.47021-.458,1.47021-1.207,0-.72071-.47168-1.23438-1.415-1.23438h-1.8999v2.44141Z" style="fill: #fff"/>
          <path d="M94.96143,85.08616c0-2.96875,1.90039-5.17383,4.89648-5.17383,3.00977,0,4.90967,2.20508,4.90967,5.17383,0,2.96777-1.8999,5.17285-4.90967,5.17285C96.86182,90.259,94.96143,88.05393,94.96143,85.08616Zm7.30957,0c0-1.80371-.79053-3.19043-2.39942-3.19043-1.59521,0-2.41357,1.38672-2.41357,3.19043,0,1.80273.81836,3.17578,2.41357,3.17578C101.48047,88.26194,102.271,86.88889,102.271,85.08616Z" style="fill: #fff"/>
          <path d="M105.11523,86.90256H107.584c.11133.999.76319,1.415,1.9419,1.415.80469,0,1.59521-.291,1.59521-1.04,0-.791-.80468-.957-2.16357-1.29-1.72022-.40234-3.53711-.92968-3.53711-3.00976,0-2.12207,1.71973-3.05176,3.939-3.05176,2.1499,0,3.81445.9707,3.91162,3.05176h-2.39942c-.09717-.7627-.67969-1.19336-1.59521-1.19336-.85987,0-1.42871.375-1.42871.92969,0,.69336.76269.86035,2.24707,1.19238,1.84472.43066,3.50927.999,3.50927,3.12109,0,2.08106-1.77539,3.23145-4.064,3.23145C106.9043,90.259,105.1709,89.094,105.11523,86.90256Z" style="fill: #fff"/>
          <path d="M116.55859,82.18674h-2.88476V80.10666h8.25293v2.08008h-2.91309v7.83692h-2.45508Z" style="fill: #fff"/>
          <path d="M122.7041,80.10666h2.45508v7.83692h4.45215v2.08008H122.7041Z" style="fill: #fff"/>
          <path d="M133.41211,80.10666h2.52441l3.57862,9.917h-2.58008l-.58252-1.78907h-3.46729l-.56884,1.78907h-2.46875Zm2.37158,6.36622-.74853-2.39942c-.16651-.51367-.38868-1.40137-.38868-1.40137h-.02783s-.23584.8877-.40185,1.40137l-.76319,2.39942Z" style="fill: #fff"/>
          <path d="M140.0708,80.10666h2.46875l2.94043,4.9795c.15283.27734.67969,1.26172.67969,1.26172h.02783s-.02783-1.19239-.02783-1.53907V80.10666h2.3999v9.917h-2.46924l-2.9126-4.91016c-.1665-.26367-.70752-1.33105-.70752-1.33105h-.02783s.02783,1.27539.02783,1.62207v4.61914H140.0708Z" style="fill: #fff"/>
          <path d="M149.78027,80.10666h4.23047c2.7461,0,4.59082,1.9834,4.59082,5.02051a4.82451,4.82451,0,0,1-1.71972,3.99512,4.90139,4.90139,0,0,1-3.02393.90137h-4.07764Zm3.89746,7.85059c1.60889,0,2.44141-1.01269,2.44141-2.83008,0-1.80273-.874-2.96777-2.41357-2.96777h-1.47022v5.79785Z" style="fill: #fff"/>
        </g>
      </g>
    </g>
  </g>
</svg>
