<svg xmlns="http://www.w3.org/2000/svg" viewBox="0 0 158.16814 135.50807">
  <title>fields-of-glass-1_monochrome</title>
  <g id="Layer_2" data-name="Layer 2">
    <g id="Fields_of_Glass" data-name="Fields of Glass">
      <g style="opacity: 0.4">
        <circle cx="79.83414" cy="68.56125" r="4.0823" style="fill: #fff"/>
        <path d="M86.67575,97.13657a2.10437,2.10437,0,0,0-1.968-.077,5.80434,5.80434,0,0,1-2.6067.52758c-.48667-.05367-1.0522-.19564-1.446.32752-.04243.05637-.25526.0544-.33723.00058-1.21447-.79766-2.68936.07-3.962-.65155-.42434-.24062-1.15182.05341-1.78385.10666l-.07938-.367a2.54153,2.54153,0,0,1-1.00838.18344,3.25425,3.25425,0,0,1-.93273-.632l-.16556.16557c-1.023-.31482-1.9931-.60985-2.9604-.91391a2.67713,2.67713,0,0,1-.59962-.249,17.93961,17.93961,0,0,0-3.37716-1.62079,16.98809,16.98809,0,0,1-4.01518-2.616c-.70458-.506-1.52187-.87-1.90505-1.81178-.16307-.4008-.88947-.5724-1.4796-.91834.02916.0552-.01094-.04884-.07416-.13614a34.0042,34.0042,0,0,0-2.48243-3.35864,21.23745,21.23745,0,0,1-2.77337-4.49843,29.9439,29.9439,0,0,1-1.093-2.88695,16.42638,16.42638,0,0,1-.99086-2.92195,16.439,16.439,0,0,0-.41-2.48083c-.09506-.25339-.22262-.49458-.37187-.82139a1.8432,1.8432,0,0,0,.253-2.00457,2.14753,2.14753,0,0,1-.00456-1.92383,2.25237,2.25237,0,0,0,.11945-1.00223,13.35907,13.35907,0,0,1,.67917-4.82241,6.2233,6.2233,0,0,0,.032-1.9246,11.60283,11.60283,0,0,0,1.79434-4.00782c1.34721-1.6243,1.89267-3.73033,3.4344-5.29193,1.28777-1.30437,2.47264-2.73573,3.78985-4.028.46948-.46058.79208-1.224,1.67714-1.0367.26649-.83487,1.152-.86285,1.71332-1.31362.57138-.45888,1.17066-.88636,1.71327-1.37676a2.66378,2.66378,0,0,1,1.77056-.84565,2.42319,2.42319,0,0,0,.76389-.26665c1.92849-.76438,3.75966-1.8427,5.92759-1.83256.83353-.74512,2.04008.03587,2.8768-.70305.12667-.11186.2693-.20566.40537-.30844,1.302.8796,2.60935-.20319,3.90415-.0256a33.62388,33.62388,0,0,1,3.79494.58743c1.28034.32667,2.606.47555,4.0072.71881l.23654-.21124c1.14672.6471,1.99586,1.85538,3.52653,1.7031,1.72923,1.05306,3.70679,1.67753,5.24162,3.07026.585.5308,1.22541,1.00041,1.84017,1.49839s.99758,1.28164,1.84423,1.49661a.21607.21607,0,0,1,.12247.12175c.47563,1.27864,1.72484,1.93458,2.42695,3.01615.41346.63693,1.32211,1.00357,1.16209,1.97769l1.28845.65183-.25008.25007,1.31392,3.60883a3.04244,3.04244,0,0,0,.8546,2.26718,3.789,3.789,0,0,1,.573,1.50882c.218.79376.3187,1.62457.5891,2.39771.27986.80018-.12743,1.69643.44731,2.4625.14523.19356-.03961.651-.10537.98074-.04191.21016-.175.40314-.21023.61336a5.951,5.951,0,0,0-.0085.84528l.7393.51072a9.92553,9.92553,0,0,0-.73872,3.30184l.98472.10968.11261.57764-1.51307.14168.35532.858c-.12332,1.61756-1.2412,2.92159-1.426,4.35345a6.58446,6.58446,0,0,0-.93411,2.04005c-.081,1.496-1.03583,2.4282-1.85675,3.46839-.3147.39876-.86648.6604-.58819,1.45151l-1.49779,1.23252v.83425a1.50857,1.50857,0,0,0-.31857.14259,4.88759,4.88759,0,0,0-1.20611.92662,36.92756,36.92756,0,0,1-2.92569,3.03327c-.41432.43846-1.00534.30183-1.4974.68977a9.79825,9.79825,0,0,1-4.26994,2.39516.50594.50594,0,0,0-.28845.14367,4.34486,4.34486,0,0,1-2.773,1.4074A17.95347,17.95347,0,0,0,86.67575,97.13657ZM55.03931,69.09835c.32243.32243.55351.459.64405.6591a35.86932,35.86932,0,0,0,2.60382,4.21185c1.07314,1.70384,2.61313,2.97527,3.78378,4.577a14.5272,14.5272,0,0,0,1.9362,1.64547,24.40407,24.40407,0,0,0,8.16063,4.95846,12.12636,12.12636,0,0,0,3.7521,1.07879c1.44.04585,2.81684.5659,4.25246.41391.60261-.06381,1.19027-.27849,1.79284-.33059.84075-.07271,1.6679-.1642,2.50457-.29894a17.70361,17.70361,0,0,0,4.51231-1.47326,29.22479,29.22479,0,0,0,8.74373-6.10295,47.46613,47.46613,0,0,0,3.50283-4.178,39.85031,39.85031,0,0,0,2.84142-4.28943,2.4575,2.4575,0,0,0-.05555-2.64376,38.30584,38.30584,0,0,0-5.15116-7.18271,23.48567,23.48567,0,0,0-5.53-4.88275,25.36406,25.36406,0,0,0-3.94974-2.36082,20.43936,20.43936,0,0,0-5.18643-1.57537c-1.23865-.115-2.52387-.35427-3.78117-.56608a6.18674,6.18674,0,0,0-2.67835.27643c-.84388.236-1.76482.14378-2.67039.3435a25.08907,25.08907,0,0,0-4.50212,1.48164,27.65366,27.65366,0,0,0-8.313,5.81289,40.29671,40.29671,0,0,0-3.54919,4.13219c-1.19907,1.53986-2.14147,3.22643-3.17671,4.86014A6.4685,6.4685,0,0,0,55.03931,69.09835Z" style="fill: #fff"/>
        <path d="M79.56417,22.92247l-.7765,2.07553c1.09346,1.762-.57945,3.41446-.37416,5.18788a5.754,5.754,0,0,1-2.58077.85922c-.81348.1267-1.57255.45169-2.28847-.11435L71.84621,32.0651c-2.394-.37945-4.51351.93376-6.79279,1.55805a4.50444,4.50444,0,0,0-2.45036,1.34237c-.171.20525-.64775.12312-.92487.27856-.90841.50952-1.82208,1.02113-2.67428,1.617-1.65394,1.1564-3.24621,2.3986-4.81431,3.69564l-4.86807-3.53957-.19169.19168-1.41-1.4a39.97733,39.97733,0,0,1,6.86391-5.50249,41.87739,41.87739,0,0,1,7.63592-4.08923,43.37417,43.37417,0,0,1,8.1362-2.43866A39.39424,39.39424,0,0,1,79.56417,22.92247Z" style="fill: #fff"/>
        <path d="M34.36885,67.63288a41.54916,41.54916,0,0,1,3.539-17.49735,43.85048,43.85048,0,0,1,9.11841-13.63418c.64279.83193,1.0799,1.70423,2.11881,2.00521v1.48686c.796.36262,1.53252.69727,1.43518,1.71465l1.00026.61456v1.24052l-2.725,2.725v.95694a18.126,18.126,0,0,0-2.47617,3.58853,37.20615,37.20615,0,0,1-2.15112,3.55815A2.82719,2.82719,0,0,1,43.052,57.31564l.42087.63219-.53345.297a26.04831,26.04831,0,0,0-.48127,4.92139,1.5793,1.5793,0,0,1-.35006,1.06566c-.53659.60095-.37211,1.11148.19491,1.80353l-1.29055.65781.23082.23523a8.08106,8.08106,0,0,0-2.44249.05439,13.41384,13.41384,0,0,0-2.2165.59327C36.035,67.86212,35.21744,67.63288,34.36885,67.63288Z" style="fill: #fff"/>
        <path d="M111.22739,36.39448c-.52519.5252-.8374,1.102-1.28228,1.235-1.64141.49063-2.45979,2.3086-4.42846,2.52463a9.32426,9.32426,0,0,1-1.95635-1.13054,8.95646,8.95646,0,0,0-2.35013-1.58033A9.3543,9.3543,0,0,1,99.067,35.882c-1.17827-1.02243-2.6609-1.31918-3.96513-1.96649a8.00886,8.00886,0,0,0-4.1916-1.14772l-.70922-.70919c-.97484.00473-2.031.15731-2.82341-.70255a9.805,9.805,0,0,1-2.8009-.05179,18.05077,18.05077,0,0,0-3.73527-.33856,3.659,3.659,0,0,1,.65427-.75891l-.78072-4.387-.70767.30464c-.40478-.60162-.12245-.76073.375-.79689.54781-.93169-.21185-1.55377-.88429-2.26527,2.0568-.48393,3.70943.50489,5.41493.19318,1.56345.57889,3.25156.52513,4.85252,1.01167,1.562.47471,3.15441.85069,4.68008,1.45181,1.51221.59583,3.07435,1.08517,4.53408,1.78835a36.90369,36.90369,0,0,1,4.25289,2.46563c1.39609.9199,2.73979,1.92911,4.04169,2.97947C108.61658,34.0353,109.8809,35.215,111.22739,36.39448Z" style="fill: #fff"/>
        <path d="M34.29049,68.66846c2.4359.97827,4.83378.46521,7.1012,1.19657a4.01443,4.01443,0,0,1,.74683,2.2643c.02623.83862-.2513,1.73034.34093,2.49476a11.27758,11.27758,0,0,0,.69536,3.75882,3.38627,3.38627,0,0,1,.009.79132l.62155.16239.55448,3.07352a39.01031,39.01031,0,0,0,2.27706,3.668,2.20489,2.20489,0,0,1,.4053,1.05472,2.89349,2.89349,0,0,0,.97341,1.71545,6.77065,6.77065,0,0,1,.79722.90184,2.32169,2.32169,0,0,0,1.83177,1.33754l-.21971.49359.8445.84409v2.16285l-1.71935,1.62511-.04243.95069a12.82608,12.82608,0,0,1-1.04295,1.2687,12.93553,12.93553,0,0,1-1.26174.9148A45.19349,45.19349,0,0,1,34.29049,68.66846Z" style="fill: #fff"/>
        <path d="M79.3826,112.71974c-1.58108-.04429-3.0548-.12509-4.537-.27328-1.4657-.14653-2.94535-.33443-4.39759-.5352a39.80041,39.80041,0,0,1-3.98028-.98686,29.96255,29.96255,0,0,1-3.995-1.39237c-1.30619-.52808-2.5958-1.11144-3.8451-1.762-1.26039-.65629-2.48848-1.38436-3.68241-2.15576-1.16685-.75389-2.30291-1.56355-3.39714-2.41948-1.17-.91525-2.27539-1.91319-3.547-2.99214l3.24554-2.09957.07847-.724A5.83779,5.83779,0,0,1,53.09,96.90609c.71219.04165.86366-.75527,1.44993-.77859.568.9195.568.9195,1.86552,1.45658.37151,1.47526,2.26724,1.19294,2.787,2.551l1.00354-.49848c.08559.13181.24967.26962.23136.37605a.83488.83488,0,0,0,.50414,1.00732c1.44152.34041,2.533,1.63067,4.14543,1.49869.17528-.01435.36312.23167.55789.33221a23.41188,23.41188,0,0,0,6.68218,2.1665,18.76132,18.76132,0,0,0,2.15135.31649,2.90128,2.90128,0,0,1,.816.37544l.46076-.34713,2.1981.41869a15.44374,15.44374,0,0,1,.85144,4.65936A8.50141,8.50141,0,0,0,79.3826,112.71974Z" style="fill: #fff"/>
        <path d="M80.42527,112.85761c.18956-.86909.33-1.45045.44059-2.03745.11274-.5986-.2372-1.25914.32469-1.81611.14765-.14635.0425-.563.02862-.85438a2.21188,2.21188,0,0,1,1.46468-2.3594c.3507-.145.69022-.317,1.133-.52218a2.21915,2.21915,0,0,0,2.59369.03045c.61182-.36268,1.26174.16888,1.88758-.29957a5.33021,5.33021,0,0,1,1.83074-.6515c.69322-.183,1.41686-.25389,2.10557-.44986.62337-.17739,1.2155-.463,1.82652-.68692.10349-.03793.27009.0439.34471-.0126,1.66-1.25644,3.85117-1.59638,5.31087-3.15838l.367.367,1.54036-1.73529a6.59987,6.59987,0,0,0,3.32723-2.11542h1.39884c1.35224.93264,2.76774,1.90888,4.22655,2.915a4.67614,4.67614,0,0,1-1.53816,1.77458,52.11167,52.11167,0,0,1-7.74774,5.50378,22.602,22.602,0,0,1-3.49926,1.7657c-1.233.40114-2.37884,1.03369-3.624,1.46045-1.02794.35231-2.09317.59976-3.10685.98823a18.69486,18.69486,0,0,1-3.04894.73656,26.00312,26.00312,0,0,1-5.35126.6859A11.68494,11.68494,0,0,0,80.42527,112.85761Z" style="fill: #fff"/>
        <path d="M123.78143,67.72526c-.24842-.21734-.37437-.424-.50879-.42967a6.35654,6.35654,0,0,1-2.84153-.37254c-.34479-.18137-.461.42479-1.00187.12059-.52008-.29252-1.14268-.41092-1.471-.98043l-.51058-3.9234-.64387-.6801.6526-.65256A3.25946,3.25946,0,0,1,116.478,58.485a3.54729,3.54729,0,0,0-.44-1.58767c-.36738-.711-.3334-1.49619-.64252-2.20114-.1736-.3959-.14357-.90788-.38024-1.24457a14.03184,14.03184,0,0,1-2.11744-4.2331,3.88677,3.88677,0,0,0-.80444-1.24521c-1.32339-1.63942-2.667-3.26255-3.99133-4.87719,1.26513-1.81569,2.59524-3.72466,3.92-5.62591a43.41826,43.41826,0,0,1,6.50005,8.87355,44.016,44.016,0,0,1,3.90176,9.99038A34.144,34.144,0,0,1,123.78143,67.72526Z" style="fill: #fff"/>
        <path d="M117.36287,74.85832l-.28495-1.04469.81343-.64c-.40162-.79764-.40162-.79764.163-2.84647l3.03155-1.28869.54829.35987c.664-.22164,1.47289-.83982,2.25986.2703A45.08641,45.08641,0,0,1,111.64223,98.6753c-1.20106-1.734-2.75559-3.22427-3.40308-5.20169,1.13506-1.7227,2.63658-2.96343,3.29394-4.81286.26183-.73664,1.07568-1.101,1.48707-1.838a12.22611,12.22611,0,0,0,1.08428-2.202,11.649,11.649,0,0,1,1.1939-2.67653,9.22472,9.22472,0,0,0,.64169-2.002l.37941-.29943C116.69752,77.90915,117.026,76.40306,117.36287,74.85832Z" style="fill: #fff"/>
        <path d="M108.3966,83.18612l.865.68121-.865.84143Z" style="fill: #fff"/>
        <path d="M102.92162,47.23663l-.45531.8948-.88262-.78932.77688-.51974Z" style="fill: #fff"/>
        <path d="M75.98337,37.99018a9.23262,9.23262,0,0,1,.73442-.88083c.10808-.09631.29607-.10291.56766-.187l.07676,1.06782Z" style="fill: #fff"/>
        <path d="M63.51413,36.93575l1.177.60228-.09976.4926C63.89789,38.10086,63.69588,37.70094,63.51413,36.93575Z" style="fill: #fff"/>
        <path d="M89.86725,33.86859l-.24149-1.01285.66182-.134v1.09965Z" style="fill: #fff"/>
        <path d="M63.55373,37.86567v1.26442l-.81465-.14964Z" style="fill: #fff"/>
        <path d="M103.94677,44.51155l.81465-.14964v1.26443Z" style="fill: #fff"/>
        <path d="M107.46471,84.87876l.48839.5289-.4822.54984-.53058-.53058Z" style="fill: #fff"/>
        <path d="M68.94765,38.60944l-.61427.75218-.165-.87936.54585-.10446Z" style="fill: #fff"/>
        <path d="M81.42426,36.28045c.3793.63631-.15086.75713-.40508,1.06943C80.63989,36.71356,81.17,36.59274,81.42426,36.28045Z" style="fill: #fff"/>
        <path d="M80.48741,36.37334v.55977H79.44906Z" style="fill: #fff"/>
        <path d="M97.51328,68.62843a38.62961,38.62961,0,0,1-3.56319,5.18394c-.67416.76408-1.27685,1.60685-2.02814,2.30473a18.44636,18.44636,0,0,1-7.165,4.33611,9.87468,9.87468,0,0,1-2.58069.58213c-.599.01821-1.19516.32892-1.788.31493a16.82664,16.82664,0,0,1-9.79547-3.06183,26.99836,26.99836,0,0,1-6.98284-7.43929c-1.39906-2.22095-1.38122-2.20131-.00475-4.4037a31.284,31.284,0,0,1,5.97827-6.63493,18.89625,18.89625,0,0,1,3.31674-2.10313,16.8892,16.8892,0,0,1,3.68869-1.28686,11.3766,11.3766,0,0,1,4.05252-.36547,14.86319,14.86319,0,0,1,5.12144,1.17847,16.56282,16.56282,0,0,1,4.38285,2.58416c.79713.73105,1.69092,1.362,2.44946,2.12872a21.09421,21.09421,0,0,1,3.78378,5.10538A13.64454,13.64454,0,0,0,97.51328,68.62843ZM86.62469,74.02368c-.02292.02294.2183.13391.19538.15684.08184.09593.16368.01575.24551.11167l.11106-.111c-.09593-.08184-.10381-.33978-.23163-.38473-.37329-.432-.4965-.50071-.84909-.949a6.38558,6.38558,0,0,1-.73872-.93756c.84127-.04555,1.567.44212,2.11994.45609a6.36706,6.36706,0,0,0,.92945.037c-.75475-.47-1.37787-1.0869-1.95545-1.5029-.177-.12748-.22917-.42827-.42983-.83467h3.16021c-1.052-.79913-2.33652-.48714-3.1587-1.40236.80728-.94118,2.17354-.3855,3.00921-1.43605H86.054c.36427-1.19,1.57357-1.21855,2.16232-2.01955-.50056-.12756-.85466.13626-1.27265.27428a6.98871,6.98871,0,0,1-1.94892-.03713c.91226-.912,1.57108-1.571,2.4974-2.49719-1.3447.25169-1.9082,1.51991-3.20529,1.01749A6.77742,6.77742,0,0,1,84.717,62.921a3.11477,3.11477,0,0,0,.73364-1.80639l-2.56,2.56.491-3.76008c-.73719,1.09031-.82806,2.24327-2.18873,2.48294V59.54462c-.55511.94522-.59385,2.06357-1.53376,3.08041-.22084-.89157-.359-1.56577-.56237-2.21967a4.79552,4.79552,0,0,0-.48294-.87547l-.259.09784V63.0842L76.482,60.24669l-.17567.09857c.22884.86981.36963,1.82767.6136,2.755-.37959,0-.30408-.08805-.49733-.08805-.57419-.48188-1.27749-.92432-1.83656-1.32989.02292-.02292-.04221-.04584-.01929-.06877l-.24551-.28778-.11105.111c.09593.08184.10381.25173.23162.29669-.00989.16175.81486,1.45266,1.10094,2.32046a2.96936,2.96936,0,0,1-1.156-.3522,4.5172,4.5172,0,0,0-2.15544-.65679c.51709.51709.86507.85383,1.2,1.20308a11.03288,11.03288,0,0,1,1.19481,1.28007,24.07256,24.07256,0,0,1-2.56193-.34167,5.08893,5.08893,0,0,0-.9683.0488,15.36046,15.36046,0,0,1,2.94705,1.94708c-1.25676.22066-2.3372-.03137-3.37026.28886a8.03382,8.03382,0,0,0,1.582.51357,4.02606,4.02606,0,0,1,1.4326.73218c-1.0431.34433-2.07779.83293-3.02444,1.14543,1.06244.34322,2.15491.08518,3.487.42881a13.31982,13.31982,0,0,1-2.83651,1.76963,2.96259,2.96259,0,0,0,1.44357-.17419,10.50513,10.50513,0,0,1,1.949-.0273c-.858.858-1.36638,1.36528-2.04721,2.05233-.02114.02133-.10791.17825-.08948.20767.02932.04678-.00613.167.116.2767.79182-.47187,2.83083-1.25857,2.7938-1.27382a7.21419,7.21419,0,0,1-1.26893,2.82l.11105.11105a1.01408,1.01408,0,0,0,.20862-.31968l1.71867-1.4328.75081.11729-.749,2.889c1.03233-.808.97893-2.12378,2.20353-2.64205V77.9295c1.06911-.78745.509-2.18757,1.51114-3.14487.22634.6852.37973,1.182.55511,1.671.16151.45029.34666.89208.5214,1.33762l.16539-.046c0-.86245.3522-1.46074.3522-2.17934.23791-.28615.03231-.72664.18359-.9086l1.46337,2.489c.48992-1.1348-.7736-2.12463.13915-3.44733l2.10471,2.1055c-.00828-.65458-.99852-2.44319-.99852-2.85431C85.31951,73.24393,86.26111,73.998,86.62469,74.02368Z" style="fill: #fff"/>
        <path d="M64.19867.2965l14.88025,13.465C84.22352,9.32023,89.02669,4.64655,94.42445,0c-.08664,1.779-.13629,3.108-.2213,4.4347-.056.87408-.24866,1.74709-.22633,2.61663a3.40787,3.40787,0,0,1-1.3255,2.88682c-2.85138,2.43249-5.6515,4.92542-8.45361,7.415a2.40656,2.40656,0,0,1-1.72172.70844q-3.33973-.0443-6.68037-.00065A2.4099,2.4099,0,0,1,74.06,17.38811q-4.266-3.796-8.58012-7.53752a3.28757,3.28757,0,0,1-1.236-2.56922c-.081-2.26591-.301-4.52684-.4639-6.78981Z" style="fill: #fff"/>
        <path d="M63.9818,135.50807c0-1.61571-.03737-2.8894.01162-4.15975.04046-1.04942.24386-2.09384.26236-3.14246a2.87189,2.87189,0,0,1,1.06555-2.28617c2.96486-2.57013,5.88122-5.19639,8.85784-7.7526a2.69829,2.69829,0,0,1,1.57315-.57234c2.22494-.06284,4.45286-.01069,6.67928-.03619a2.41756,2.41756,0,0,1,1.73505.67886c2.84371,2.53062,5.69464,5.05368,8.57775,7.53913a3.28486,3.28486,0,0,1,1.22886,2.57192c.08033,2.2654.29828,4.52591.478,7.04507-2.19022-1.23517-3.55207-3.02169-5.23035-4.42029-1.75331-1.46112-3.39938-3.051-5.09122-4.58577-1.64132-1.48893-3.28124-2.9794-5.01965-4.55807C74.08908,126.36925,69.15118,130.834,63.9818,135.50807Z" style="fill: #fff"/>
        <path d="M18.81883,106.57068a7.5734,7.5734,0,0,1,.57969-.89066c1.46919-1.59418,2.96445-3.16451,4.42132-4.76974a2.57322,2.57322,0,0,1,1.98806-.9142q5.44431-.12044,10.88605-.34382a3.67416,3.67416,0,0,1,2.71869.95147c1.76573,1.52,3.59038,2.97167,5.68325,4.69141a19.353,19.353,0,0,1-2.139.35586c-4.15436.16912-8.31119.28005-12.46479.46437-3.38963.15045-6.77556.38288-10.164.56186A13.415,13.415,0,0,1,18.81883,106.57068Z" style="fill: #fff"/>
        <path d="M113.23863,105.19244c2.15417-1.76724,4.06888-3.39269,6.05438-4.9265a3.0197,3.0197,0,0,1,1.76722-.57623c3.86349.06366,7.72614.19632,11.58752.346a2.0051,2.0051,0,0,1,1.2689.45106c1.82458,1.88611,3.58943,3.83,5.31554,5.692a1.60866,1.60866,0,0,1-.0799.31484.23134.23134,0,0,1-.12882.1043,2.91512,2.91512,0,0,1-.68071.10591q-12.09906-.57425-24.19695-1.17259A4.2291,4.2291,0,0,1,113.23863,105.19244Z" style="fill: #fff"/>
        <path d="M44.73737,30.62407c-1.89426,1.55672-3.75884,3.15211-5.70279,4.64409a3.30918,3.30918,0,0,1-1.9139.65448c-3.862-.05352-7.7231-.19131-11.5829-.342a1.99818,1.99818,0,0,1-1.26229-.4667c-1.82188-1.88217-3.58541-3.82082-5.68526-6.08248,4.6976.03388,8.95747.30251,13.217.507,4.30229.20659,8.61507.27636,12.908.63Z" style="fill: #fff"/>
        <path d="M69.62576,17.60852c-1.5001.38959-2.94053.64747-4.2955,1.14028a7.76382,7.76382,0,0,1-7.43619-.84789,67.24652,67.24652,0,0,0-7.16638-3.71745A3.57776,3.57776,0,0,1,48.656,11.76637C48.16967,9.962,47.4982,8.208,46.92112,6.42748c-.11905-.36732-.16921-.757-.26148-1.18434C48.17194,5.54093,68.37511,16.40171,69.62576,17.60852Z" style="fill: #fff"/>
        <path d="M111.59425,5.04843c-.13012.61466-.17761,1.00388-.296,1.37022-.59345,1.83691-1.26688,3.65061-1.78718,5.5075a3.31417,3.31417,0,0,1-1.86011,2.16853c-3.2837,1.67994-6.55,3.394-9.83639,5.06849a2.24066,2.24066,0,0,1-1.31288.32993c-2.61522-.55329-5.21341-1.187-7.95567-1.82668C89.65794,16.57213,108.831,6.10624,111.59425,5.04843Z" style="fill: #fff"/>
        <path d="M34.07165,95.18578,8.35492,91.97938a4.29181,4.29181,0,0,1,.57845-.81625c1.66713-1.29541,3.37334-2.54161,5.01723-3.86537a2.985,2.985,0,0,1,2.44349-.68233,79.51613,79.51613,0,0,0,8.3435,1.13051,7.95451,7.95451,0,0,1,6.55806,3.657c.87863,1.21711,1.95111,2.29429,2.93612,3.43461Z" style="fill: #fff"/>
        <path d="M8.54381,43.62163l25.514-3.18814.16643.31694c-.7718.923-1.53363,1.85456-2.31832,2.76646-.72681.84462-1.542,1.621-2.20141,2.51373a3.8929,3.8929,0,0,1-2.82744,1.53483q-5.04455.68165-10.08389,1.4016a3.47342,3.47342,0,0,1-2.95343-.70975c-1.74421-1.4559-3.58228-2.79934-5.38139-4.18947Z" style="fill: #fff"/>
        <path d="M139.59448,29.0862c-1.08967,1.15741-1.89113,1.99776-2.68012,2.84965-.87514.94492-1.753,1.888-2.6023,2.8559a2.24773,2.24773,0,0,1-1.84585.82286c-1.17077-.02069-2.34339.00049-3.51395.04064-2.51386.08622-5.02715.1904-7.54015.29922a2.9189,2.9189,0,0,1-2.14192-.57295c-1.92693-1.60445-3.87372-3.185-5.933-4.8735a4.05619,4.05619,0,0,1,2.23084-.55341c4.15207-.15389,8.30568-.27144,12.45638-.4555,3.38732-.15022,6.77105-.38083,10.15713-.56157A11.51872,11.51872,0,0,1,139.59448,29.0862Z" style="fill: #fff"/>
        <path d="M149.77543,44.0397c-1.23236.96611-2.51224,1.8782-3.686,2.9109-1.80015,1.58379-3.62654,2.42818-6.19477,1.80837a86.45737,86.45737,0,0,0-8.68421-1.2172,3.86223,3.86223,0,0,1-2.6728-1.47277c-1.23612-1.56127-2.60628-3.01622-3.91255-4.52241-.2188-.2523-.399-.53807-.85416-1.15932l25.86755,3.22619Z" style="fill: #fff"/>
        <path d="M69.67294,117.95151c-1.12148,1.09845-20.32025,11.58005-22.88523,12.55733a3.51676,3.51676,0,0,1,.01235-.97719c.65615-2.06235,1.353-4.11169,2.02083-6.17038a2.49112,2.49112,0,0,1,1.30073-1.55221c3.48771-1.79423,6.95142-3.635,10.43627-5.43489a1.91746,1.91746,0,0,1,1.15922-.25244C64.33023,116.68657,66.93014,117.31249,69.67294,117.95151Z" style="fill: #fff"/>
        <path d="M56.81954,22.12273c-2.28722,1.29366-4.55866,2.6169-6.87623,3.85366a2.494,2.494,0,0,1-1.53923.10126Q42.72379,24.93621,37.06237,23.702a2.07839,2.07839,0,0,1-1.20972-.58392c-1.49977-2.15306-2.92561-4.35762-4.62534-6.92253,3.25.42116,5.97386,1.20181,8.73428,1.76024,2.868.5802,5.70982,1.28864,8.57015,1.90844,2.7655.59926,5.544,1.14172,8.27911,1.85482Z" style="fill: #fff"/>
        <path d="M158.15862,59.22835c-.68753.45075-1.153.7823-1.6433,1.07183-1.00772.59507-2.02842,1.1682-3.04431,1.74942-3.21662,1.84031-2.08178,1.69132-5.6875.72757-2.87893-.76947-5.73212-1.63872-8.62308-2.35779a3.5887,3.5887,0,0,1-2.35542-1.62514c-1.29012-2.0139-2.654-3.98057-4.02164-6.017C134.00621,52.6555,155.34061,58.07548,158.15862,59.22835Z" style="fill: #fff"/>
        <path d="M111.27263,130.59735,88.33824,118.24951a15.92471,15.92471,0,0,1,1.59146-.63189c1.81146-.46366,3.62643-.91565,5.44922-1.33207a3.16123,3.16123,0,0,1,2.37946.1072q5.02345,2.70806,10.11077,5.29659a2.98532,2.98532,0,0,1,1.60761,1.93382c.68824,2.22245,1.43056,4.42815,2.15118,6.64056Z" style="fill: #fff"/>
        <path d="M31.39549,119.50139c.37577-.72121.55008-1.132.78888-1.501,1.08316-1.674,2.19726-3.328,3.27272-5.00678a2.36328,2.36328,0,0,1,1.6696-1.12427c3.73109-.73722,7.44386-1.56726,11.1759-2.29934a3.02715,3.02715,0,0,1,1.85681.19441c2.22454,1.17134,4.38936,2.45608,6.82021,3.83846a6.13653,6.13653,0,0,1-1.14467.56769q-10.54448,2.32141-21.09622,4.60988C33.73458,118.99924,32.72952,119.21384,31.39549,119.50139Z" style="fill: #fff"/>
        <path d="M132.74451,83.20881a8.99433,8.99433,0,0,1,.46025-.98684c1.26519-1.90013,2.501-3.82221,3.84087-5.66861a3.33714,3.33714,0,0,1,1.62958-1.18464c3.64486-1.06534,7.32156-2.02118,10.97693-3.0515a2.39923,2.39923,0,0,1,2.0127.19621c1.91326,1.13259,3.84117,2.24044,5.75734,3.36818a6.89454,6.89454,0,0,1,.746.66161C149.6533,78.87414,141.32235,80.94727,132.74451,83.20881Z" style="fill: #fff"/>
        <path d="M123.99812,94.81149c.94882-1.09713,1.9874-2.13007,2.82743-3.305a8.09561,8.09561,0,0,1,6.68725-3.76972c2.79154-.10448,5.56241-.73687,8.34519-1.11639a2.45538,2.45538,0,0,1,2.00181.39963c1.88441,1.49055,3.80209,2.939,5.69988,4.41279.07567.05879.08068.20858.20193.55178l-25.53132,3.19835Z" style="fill: #fff"/>
        <path d="M.25955,76.15908C2.4811,74.88067,4.68574,73.571,6.94,72.35305a2.28332,2.28332,0,0,1,1.51263-.0421q5.59248,1.478,11.158,3.05665a2.479,2.479,0,0,1,1.29383.80676,59.21743,59.21743,0,0,1,4.33968,6.96742L.32653,76.66469Z" style="fill: #fff"/>
        <path d="M101.39964,21.9063a2.33178,2.33178,0,0,1,.61016-.3837c8.15108-1.7895,16.305-3.56605,24.73761-5.40512a9.60613,9.60613,0,0,1-.51309,1.1817c-1.146,1.77331-2.31314,3.53295-3.46661,5.30146a2.19835,2.19835,0,0,1-1.48109,1.112c-3.8455.76484-7.67559,1.60734-11.52247,2.36478a2.73793,2.73793,0,0,1-1.68844-.20577c-2.12193-1.1277-4.194-2.34942-6.27872-3.54654A2.32275,2.32275,0,0,1,101.39964,21.9063Z" style="fill: #fff"/>
        <path d="M25.36983,52.47835a10.20492,10.20492,0,0,1-.5521,1.22438c-1.19819,1.80743-2.42124,3.59835-3.6219,5.40415a2.72062,2.72062,0,0,1-1.65611,1.19492c-3.563.94233-7.12561,1.88974-10.66464,2.917a3.0492,3.0492,0,0,1-2.66242-.29118c-1.64788-1.01008-3.343-1.94284-5.00814-2.9252A14.77879,14.77879,0,0,1,0,59.07557C8.54486,56.79542,16.80532,54.64885,25.36983,52.47835Z" style="fill: #fff"/>
        <path d="M101.48182,113.46391c2.18651-1.24314,4.35131-2.52752,6.57574-3.69866a3.027,3.027,0,0,1,1.85654-.19541q5.59776,1.098,11.16656,2.34094a2.52571,2.52571,0,0,1,1.44529.81605c1.381,1.96649,2.66423,4.00178,3.96962,6.02077.0802.124.05178.31828.10466.70471-8.46741-1.81142-16.81582-3.62147-25.14592-5.51423Z" style="fill: #fff"/>
      </g>
    </g>
  </g>
</svg>
