<svg xmlns="http://www.w3.org/2000/svg" viewBox="0 0 157.94575 158.1252">
  <title>new-pacific-arcology-1</title>
  <g id="Layer_2" data-name="Layer 2">
    <g id="New_Pacific_Arcology" data-name="New Pacific Arcology">
      <g>
        <path d="M81.91349,126.34067a4.342,4.342,0,0,1,3.66147-4.932h0a4.355,4.355,0,0,1,4.93783,3.66677h0a4.34679,4.34679,0,0,1-3.66677,4.932h0a4.26032,4.26032,0,0,1-.64083.04934h0A4.34353,4.34353,0,0,1,81.91349,126.34067Zm-10.31041,3.64555a4.35288,4.35288,0,0,1-3.645-4.949h0a4.35348,4.35348,0,0,1,4.95429-3.645h0a4.34162,4.34162,0,0,1,3.63971,4.94845h0a4.34625,4.34625,0,0,1-4.29169,3.69436h0A4.6095,4.6095,0,0,1,71.60308,129.98622Zm24.03243-6.4699a4.3507,4.3507,0,0,1,2.03709-5.802h0a4.35267,4.35267,0,0,1,5.80149,2.04293h0a4.34794,4.34794,0,0,1-2.04241,5.79617h0a4.29058,4.29058,0,0,1-1.87423.42917h0A4.35165,4.35165,0,0,1,95.63551,123.51632Zm-38.60165,1.94479a4.34812,4.34812,0,0,1-2.01-5.80732h0a4.34386,4.34386,0,0,1,5.807-2.01534h0a4.346,4.346,0,0,1,2.01,5.80731h0a4.3415,4.3415,0,0,1-3.91133,2.44982h0A4.389,4.389,0,0,1,57.03386,125.46111Zm50.86773-8.7192a4.34406,4.34406,0,0,1,.239-6.13834h0a4.351,4.351,0,0,1,6.14392.23925h0a4.34572,4.34572,0,0,1-.24456,6.14365h0v-.00531h0a4.31014,4.31014,0,0,1-2.94981,1.157h0A4.32349,4.32349,0,0,1,107.90159,116.74191Zm-63.44335.09814h.0053a4.3389,4.3389,0,0,1-.22254-6.13834h0a4.34462,4.34462,0,0,1,6.14365-.22281h0a4.35008,4.35008,0,0,1,.2175,6.14365h0a4.332,4.332,0,0,1-3.18349,1.38512h0A4.33231,4.33231,0,0,1,44.45824,116.84005Zm73.17791-10.17487a4.348,4.348,0,0,1-1.5753-5.94259h0a4.3422,4.3422,0,0,1,5.94285-1.57026h0a4.34224,4.34224,0,0,1,1.56973,5.94312h0a4.33473,4.33473,0,0,1-3.75907,2.15646h0A4.34288,4.34288,0,0,1,117.63615,106.66518ZM34.968,104.91084a4.345,4.345,0,0,1,1.597-5.932h0a4.35107,4.35107,0,0,1,5.93755,1.59678h0a4.3434,4.3434,0,0,1-1.597,5.932h0a4.29847,4.29847,0,0,1-2.1676.58143h0A4.34447,4.34447,0,0,1,34.968,104.91084Zm89.01288-10.74515a4.34249,4.34249,0,0,1-3.25935-5.20945h0a4.34906,4.34906,0,0,1,5.20971-3.25936h0a4.35028,4.35028,0,0,1,3.25936,5.21476h0a4.34619,4.34619,0,0,1-4.23175,3.3681h0A4.33915,4.33915,0,0,1,123.98085,94.16569ZM29.42166,90.7a4.34655,4.34655,0,0,1,3.28667-5.19353h0a4.346,4.346,0,0,1,5.193,3.28694h0a4.34632,4.34632,0,0,1-3.28084,5.193h0a4.54513,4.54513,0,0,1-.96152.10875h0A4.35186,4.35186,0,0,1,29.42166,90.7Zm92.26693-14.36312h0v-.01592h0a.35542.35542,0,0,1-.00557-.07639h0a4.3434,4.3434,0,0,1,4.00921-4.65508h0a4.34445,4.34445,0,0,1,4.65535,4.01425h0a.37305.37305,0,0,1,.00557.07586h0a.04061.04061,0,0,0,.0053.02705h0a4.3528,4.3528,0,0,1-4.02539,4.65031h0c-.10318.00531-.21166.01061-.31511.01061h0A4.34091,4.34091,0,0,1,121.68859,76.33685Zm-89.3715,3.82963a4.34815,4.34815,0,0,1-4.00894-4.66038h0a4.34964,4.34964,0,0,1,4.66092-4.00948h0a4.345,4.345,0,0,1,4.00337,4.66092h0a4.342,4.342,0,0,1-4.324,4.02008h0C32.53433,80.17762,32.42584,80.17232,32.31709,80.16648Zm86.56837-16.26387a4.338,4.338,0,0,1,2.461-5.628h0a4.344,4.344,0,0,1,5.63305,2.461h0a4.34069,4.34069,0,0,1-2.466,5.628h0a4.28,4.28,0,0,1-1.58087.304h0A4.34045,4.34045,0,0,1,118.88546,63.90261ZM34.164,66.27126a4.34649,4.34649,0,0,1-2.44452-5.63915h0a4.35108,4.35108,0,0,1,5.63862-2.44451h0a4.34837,4.34837,0,0,1,2.44452,5.63914h0a4.34207,4.34207,0,0,1-4.04157,2.7538h0A4.3694,4.3694,0,0,1,34.164,66.27126Zm78.39292-13.32547a4.34408,4.34408,0,0,1,.68991-6.106h0a4.3438,4.3438,0,0,1,6.106.68434h0a4.34282,4.34282,0,0,1-.68461,6.106h0a4.331,4.331,0,0,1-2.71055.95065h0A4.34021,4.34021,0,0,1,112.55693,52.94579Zm-72.50975.60847a4.3432,4.3432,0,0,1-.679-6.106h0a4.34953,4.34953,0,0,1,6.11129-.679h0a4.34314,4.34314,0,0,1,.679,6.106h0a4.33748,4.33748,0,0,1-3.39516,1.635h0A4.34127,4.34127,0,0,1,40.04718,53.55426Zm63.23142-9.22953a4.34513,4.34513,0,0,1-1.12995-6.04073h0a4.34542,4.34542,0,0,1,6.04073-1.13h0a4.33884,4.33884,0,0,1,1.12995,6.03542h0a4.34043,4.34043,0,0,1-3.59065,1.896h0A4.31183,4.31183,0,0,1,103.2786,44.32473ZM49.407,43.12422a4.3427,4.3427,0,0,1,1.14613-6.03542h0a4.33806,4.33806,0,0,1,6.03543,1.14639h0a4.34721,4.34721,0,0,1-1.14083,6.03543h0a4.33293,4.33293,0,0,1-2.44451.75489h0A4.3334,4.3334,0,0,1,49.407,43.12422ZM91.8873,38.81661h0a4.35266,4.35266,0,0,1-2.86838-5.43809h0a4.34761,4.34761,0,0,1,5.43783-2.86785h0a4.35194,4.35194,0,0,1,2.86812,5.43756h0a4.35088,4.35088,0,0,1-4.15032,3.06361h0A4.39277,4.39277,0,0,1,91.8873,38.81661ZM61.4176,35.91a4.34539,4.34539,0,0,1,2.88456-5.427h0a4.343,4.343,0,0,1,5.427,2.88482h0a4.34788,4.34788,0,0,1-2.88456,5.42695h.0053a4.3413,4.3413,0,0,1-1.27637.18992h0A4.35066,4.35066,0,0,1,61.4176,35.91Zm13.608-3.32991a4.34919,4.34919,0,0,1,4.35111-4.34581h0a4.34466,4.34466,0,0,1,4.3458,4.34581h0a4.34466,4.34466,0,0,1-4.3458,4.3458h0A4.34919,4.34919,0,0,1,75.02556,32.58013Z" style="fill: #ffea2a"/>
        <path d="M71.375,141.21465a3.2595,3.2595,0,0,1-2.83019-3.63972h0a3.2573,3.2573,0,0,1,3.63415-2.83018h0a3.2595,3.2595,0,0,1,2.83018,3.63972h0a3.25734,3.25734,0,0,1-3.22673,2.85193h0A3.49319,3.49319,0,0,1,71.375,141.21465ZM86.17256,138.107a3.25135,3.25135,0,0,1,2.65088-3.76969v-.0053a3.261,3.261,0,0,1,3.76995,2.65087h0a3.25564,3.25564,0,0,1-2.65088,3.76969h0a2.87144,2.87144,0,0,1-.565.05464h0A3.26252,3.26252,0,0,1,86.17256,138.107Zm-32.69142-1.94479a3.25421,3.25421,0,0,1-1.6188-4.31292h0a3.255,3.255,0,0,1,4.31318-1.62437h0a3.2664,3.2664,0,0,1,1.62437,4.31345h0a3.26441,3.26441,0,0,1-2.97156,1.9172h0A3.22424,3.22424,0,0,1,53.48114,136.16223ZM103.181,133.4461a3.25615,3.25615,0,0,1,1.41774-4.38347h0a3.25652,3.25652,0,0,1,4.38374,1.41748h0a3.25661,3.25661,0,0,1-1.41775,4.384h0a3.20782,3.20782,0,0,1-1.483.35861h0A3.24926,3.24926,0,0,1,103.181,133.4461Zm-65.29053-7.38235a3.25851,3.25851,0,0,1-.28779-4.601h0a3.25878,3.25878,0,0,1,4.60124-.28276h0a3.264,3.264,0,0,1,.28779,4.60151h0a3.25669,3.25669,0,0,1-2.44452,1.09706h0A3.241,3.241,0,0,1,37.89046,126.06375Zm80.15311-2.09651a3.26582,3.26582,0,0,1,.05968-4.61212h0a3.26614,3.26614,0,0,1,4.61211.05942h0a3.266,3.266,0,0,1-.05994,4.61211h0a3.26982,3.26982,0,0,1-2.27609.92359h0A3.272,3.272,0,0,1,118.04357,123.96724ZM25.94507,111.837a3.25812,3.25812,0,0,1,1.08088-4.48162h0a3.2581,3.2581,0,0,1,4.48161,1.08062h0a3.25765,3.25765,0,0,1-1.08088,4.48161h0a3.21927,3.21927,0,0,1-1.69493.47851h0A3.26189,3.26189,0,0,1,25.94507,111.837Zm103.52242-1.30926a3.25667,3.25667,0,0,1-1.29282-4.4275h0a3.25988,3.25988,0,0,1,4.42193-1.29282h0a3.25622,3.25622,0,0,1,1.29282,4.42167h0a3.24612,3.24612,0,0,1-2.86281,1.69493h0A3.22991,3.22991,0,0,1,129.46749,110.52771Zm-110.731-15.8241h0a3.25852,3.25852,0,0,1,2.36309-3.95483h0a3.25636,3.25636,0,0,1,3.96013,2.35751h0a3.2599,3.2599,0,0,1-2.36308,3.96014h0a3.37843,3.37843,0,0,1-.79866.09761h0A3.26644,3.26644,0,0,1,18.73645,94.70361Zm117.70066-.38037a3.25956,3.25956,0,0,1-2.54769-3.84077h0a3.25925,3.25925,0,0,1,3.84051-2.54743h0a3.26224,3.26224,0,0,1,2.54769,3.84608h0a3.25984,3.25984,0,0,1-3.18853,2.60737h0A3.3144,3.3144,0,0,1,136.43711,94.32324ZM19.99133,79.6397a3.26465,3.26465,0,0,1-3.09649-3.41691h0a3.26517,3.26517,0,0,1,3.41691-3.09649h0a3.26173,3.26173,0,0,1,3.09649,3.41691h0a3.25813,3.25813,0,0,1-3.254,3.09649h-.16287ZM134.726,73.86h0v-.02705h0c-.00557-.02759-.00557-.05464-.01088-.0817h0a3.2607,3.2607,0,0,1,2.91719-3.56916h0a3.25759,3.25759,0,0,1,3.56889,2.91719h0v.03289h0a.45912.45912,0,0,1,.01088.087h0a3.25341,3.25341,0,0,1-2.92249,3.56332h0c-.10875.01061-.21724.01645-.32069.01645h0A3.26255,3.26255,0,0,1,134.726,73.86ZM22.52285,62.18062A3.25635,3.25635,0,0,1,20.57806,58.003h0a3.25407,3.25407,0,0,1,4.17737-1.94479h0a3.25445,3.25445,0,0,1,1.94479,4.17764h0a3.25,3.25,0,0,1-3.05856,2.14585h0A3.2235,3.2235,0,0,1,22.52285,62.18062Zm108.091-4.55217a3.26631,3.26631,0,0,1,1.73817-4.26994h0a3.266,3.266,0,0,1,4.26968,1.73843h0a3.25717,3.25717,0,0,1-1.73817,4.26994h0a3.25366,3.25366,0,0,1-1.26045.25517h0A3.27029,3.27029,0,0,1,130.61388,57.62845ZM30.10626,46.25838a3.25149,3.25149,0,0,1-.62492-4.56278h0a3.24736,3.24736,0,0,1,4.56331-.63022h0a3.25722,3.25722,0,0,1,.63,4.5633h0a3.25083,3.25083,0,0,1-2.60207,1.29282h0A3.26076,3.26076,0,0,1,30.10626,46.25838Zm91.82132-2.81374a3.26122,3.26122,0,0,1,.39654-4.59036h0a3.25826,3.25826,0,0,1,4.59567.39681h0a3.25761,3.25761,0,0,1-.40185,4.59036h0a3.2238,3.2238,0,0,1-2.09147.7655h0A3.26306,3.26306,0,0,1,121.92758,43.44464ZM42.03547,33.26447a3.25319,3.25319,0,0,1,.73872-4.54687h0a3.25362,3.25362,0,0,1,4.54686.739h0a3.25992,3.25992,0,0,1-.739,4.55217h0a3.2609,3.2609,0,0,1-1.90129.61378h0A3.25281,3.25281,0,0,1,42.03547,33.26447Zm67.40879-.82545a3.26165,3.26165,0,0,1-.96682-4.50867h0a3.25619,3.25619,0,0,1,4.50309-.96709h0a3.26306,3.26306,0,0,1,.9724,4.50867h0a3.267,3.267,0,0,1-2.74318,1.48856h0A3.245,3.245,0,0,1,109.44426,32.439ZM57.25667,24.36119a3.26057,3.26057,0,0,1,2.05327-4.12831h0a3.26343,3.26343,0,0,1,4.12857,2.05885h0a3.26043,3.26043,0,0,1-2.05884,4.123h0a3.13152,3.13152,0,0,1-1.03765.17347h0A3.26079,3.26079,0,0,1,57.25667,24.36119Zm37.02608,1.22756a3.25779,3.25779,0,0,1-2.25433-4.01955h0a3.25546,3.25546,0,0,1,4.01981-2.2546h0a3.26033,3.26033,0,0,1,2.2546,4.02008h0a3.26918,3.26918,0,0,1-3.14,2.37343h0A3.29248,3.29248,0,0,1,94.28275,25.58875ZM74.43326,20.36286a3.26009,3.26009,0,0,1,3.17262-3.34636h0a3.25513,3.25513,0,0,1,3.34079,3.17288h0a3.25961,3.25961,0,0,1-3.17236,3.34583h-.087A3.25339,3.25339,0,0,1,74.43326,20.36286Z" style="fill: #ffea2a"/>
        <path d="M71.52722,150.69935a2.44025,2.44025,0,0,1-2.1676-2.69438h0a2.434,2.434,0,0,1,2.68907-2.16229h0a2.434,2.434,0,0,1,2.16733,2.68907h0a2.44,2.44,0,0,1-2.42276,2.18352h0A2.169,2.169,0,0,1,71.52722,150.69935Zm18.57285-2.83018a2.4377,2.4377,0,0,1,1.93922-2.85777h0a2.44586,2.44586,0,0,1,2.86281,1.93948h0a2.446,2.446,0,0,1-1.93922,2.86308h0v-.00584h0a2.24324,2.24324,0,0,1-.46179.04881h0A2.44529,2.44529,0,0,1,90.10007,147.86917Zm-39.32418-2.65141h0a2.44511,2.44511,0,0,1-1.27106-3.21586h0a2.44365,2.44365,0,0,1,3.21585-1.27106h0a2.45017,2.45017,0,0,1,1.27106,3.21586h0a2.45143,2.45143,0,0,1-2.24345,1.47212h0A2.45608,2.45608,0,0,1,50.77589,145.21776Zm59.11372-3.558a2.43923,2.43923,0,0,1,1.005-3.30286h0a2.44654,2.44654,0,0,1,3.30816,1.00529h0a2.44356,2.44356,0,0,1-1.01032,3.30816h0a2.40626,2.40626,0,0,1-1.14614.28806h0A2.44167,2.44167,0,0,1,109.88961,141.65974Zm-77.31708-7.80038h0a2.45051,2.45051,0,0,1-.27162-3.44981h0a2.44984,2.44984,0,0,1,3.44927-.27161h0a2.44521,2.44521,0,0,1,.26631,3.4498h0a2.44061,2.44061,0,0,1-1.85779.85834h0A2.45341,2.45341,0,0,1,32.57253,133.85936Zm94.37458-3.98773a2.439,2.439,0,0,1-.01645-3.45457h0a2.44093,2.44093,0,0,1,3.46042-.01114h0a2.44457,2.44457,0,0,1,.01087,3.4551h0a2.4226,2.4226,0,0,1-1.73286.72254h0A2.44,2.44,0,0,1,126.94711,129.87163ZM18.50834,117.6602a2.44137,2.44137,0,0,1,.75516-3.37341h0a2.44627,2.44627,0,0,1,3.37341.75489h0a2.4441,2.4441,0,0,1-.75516,3.37341h0a2.45225,2.45225,0,0,1-1.30926.38036h0A2.43554,2.43554,0,0,1,18.50834,117.6602Zm121.28043-4.0742a2.44233,2.44233,0,0,1-1.0265-3.29755h0a2.44018,2.44018,0,0,1,3.30259-1.0265h0a2.4423,2.4423,0,0,1,1.02677,3.30285h0a2.44612,2.44612,0,0,1-2.16733,1.30343h0A2.45828,2.45828,0,0,1,139.78877,113.586ZM9.85466,98.02238a2.44448,2.44448,0,0,1,1.722-2.99836h0a2.44423,2.44423,0,0,1,2.99862,1.722h0a2.444,2.444,0,0,1-1.722,2.99835h0a2.35947,2.35947,0,0,1-.64083.087h0A2.44372,2.44372,0,0,1,9.85466,98.02238Zm137.42522-3.78083a2.44233,2.44233,0,0,1-1.961-2.8461h.0053a2.443,2.443,0,0,1,2.84663-1.96124h0a2.44307,2.44307,0,0,1,1.95567,2.85194h0a2.44116,2.44116,0,0,1-2.401,1.9989h0A2.04736,2.04736,0,0,1,147.27988,94.24155ZM9.7353,79.23759a2.44533,2.44533,0,0,1-2.36866-2.52038h0a2.44621,2.44621,0,0,1,2.52064-2.36865h0a2.4471,2.4471,0,0,1,2.36839,2.52621h0a2.44585,2.44585,0,0,1-2.44451,2.36282H9.7353Zm136.25707-7.83327h0c-.00531-.02175-.00531-.0435-.01088-.07056h0c0-.01591-.0053-.03766-.0053-.05411h0a2.4485,2.4485,0,0,1,2.14028-2.71613h0a2.44836,2.44836,0,0,1,2.71612,2.14585h0c0,.02175.00557.0435.00557.06525h0c.00531.02122.00531.043.01088.06472h0v.00584h0a2.44331,2.44331,0,0,1-2.15142,2.705h0a2.39734,2.39734,0,0,1-.28222.01644h0A2.44234,2.44234,0,0,1,145.99237,71.40432ZM12.77715,58.72021a2.44985,2.44985,0,0,1-1.51005-3.11294h0a2.44345,2.44345,0,0,1,3.10737-1.50978h0a2.445,2.445,0,0,1,1.51,3.11241h0A2.44026,2.44026,0,0,1,13.57581,58.856h0A2.42052,2.42052,0,0,1,12.77715,58.72021ZM140.72324,51.984h0a2.45133,2.45133,0,0,1,1.24931-3.22646h0a2.45168,2.45168,0,0,1,3.22673,1.24931h0A2.44535,2.44535,0,0,1,143.95,53.228h0a2.36155,2.36155,0,0,1-.98858.2122h0A2.449,2.449,0,0,1,140.72324,51.984ZM21.75682,40.02243a2.44216,2.44216,0,0,1-.52705-3.41691h0a2.4404,2.4404,0,0,1,3.41691-.52678h0a2.4456,2.4456,0,0,1,.527,3.41691h0a2.44576,2.44576,0,0,1-1.97185.99945h0A2.45637,2.45637,0,0,1,21.75682,40.02243Zm108.243-4.91609a2.43971,2.43971,0,0,1,.239-3.4498h0a2.44224,2.44224,0,0,1,3.44424.23925h0a2.4384,2.4384,0,0,1-.239,3.44927h0a2.43474,2.43474,0,0,1-1.60262.60317h0A2.4453,2.4453,0,0,1,129.99984,35.10634ZM35.82631,24.785a2.45141,2.45141,0,0,1,.49972-3.42274h0a2.4512,2.4512,0,0,1,3.42249.50025h0a2.45067,2.45067,0,0,1-.5,3.42222h0a2.44352,2.44352,0,0,1-1.46125.48328h0A2.43933,2.43933,0,0,1,35.82631,24.785Zm78.947-2.65088a2.44286,2.44286,0,0,1-.78222-3.3681h0a2.44166,2.44166,0,0,1,3.36784-.78248h0a2.44634,2.44634,0,0,1,.78222,3.36811h0a2.44908,2.44908,0,0,1-2.075,1.1517h0A2.43592,2.43592,0,0,1,114.77334,22.13417ZM53.76363,14.37146a2.44377,2.44377,0,0,1,1.48857-3.11824h0a2.44746,2.44746,0,0,1,3.12354,1.48856h0a2.4466,2.4466,0,0,1-1.49387,3.11771h0a2.35394,2.35394,0,0,1-.81483.14165h0A2.4416,2.4416,0,0,1,53.76363,14.37146Zm42.64852-.1687h0A2.43987,2.43987,0,0,1,94.674,11.215h0a2.43718,2.43718,0,0,1,2.98217-1.73843h0a2.44328,2.44328,0,0,1,1.74373,2.98774h0a2.45046,2.45046,0,0,1-2.36282,1.82013h0A2.4538,2.4538,0,0,1,96.41215,14.20276ZM73.98261,9.73229a2.43525,2.43525,0,0,1,2.33576-2.548h0a2.44568,2.44568,0,0,1,2.5477,2.33576h0a2.4503,2.4503,0,0,1-2.34134,2.548h-.10318A2.4401,2.4401,0,0,1,73.98261,9.73229Z" style="fill: #ffea2a"/>
        <path d="M71.64658,158.11937A1.63223,1.63223,0,0,1,70.18,156.338h0a1.63111,1.63111,0,0,1,1.77636-1.46682h0a1.63273,1.63273,0,0,1,1.46655,1.78193h0a1.62318,1.62318,0,0,1-1.61881,1.47212h0C71.75533,158.1252,71.701,158.11937,71.64658,158.11937Zm21.67465-2.54213a1.62878,1.62878,0,0,1,1.27133-1.923h0a1.63275,1.63275,0,0,1,1.923,1.27106h0a1.633,1.633,0,0,1-1.27133,1.923h0a1.709,1.709,0,0,1-.33129.0329h0A1.62971,1.62971,0,0,1,93.32123,155.57724Zm-44.59862-3.22116a1.62568,1.62568,0,0,1-.87478-2.1294h0a1.63161,1.63161,0,0,1,2.135-.87478h0a1.62718,1.62718,0,0,1,.87452,2.1294h0a1.636,1.636,0,0,1-1.50474,1.00528h0A1.61512,1.61512,0,0,1,48.72261,152.35608Zm66.49608-4.28639a1.6313,1.6313,0,0,1,.6411-2.21587h0a1.63323,1.63323,0,0,1,2.2164.64614h0a1.63377,1.63377,0,0,1-.6464,2.2111h0a1.62914,1.62914,0,0,1-.78248.20106h0A1.62474,1.62474,0,0,1,115.21869,148.06969Zm-86.6933-7.97438h0a1.63417,1.63417,0,0,1-.21193-2.29757h0a1.63341,1.63341,0,0,1,2.29783-.20636v-.00584a1.63493,1.63493,0,0,1,.20663,2.2981h0a1.62106,1.62106,0,0,1-1.24958.58673h0A1.6399,1.6399,0,0,1,28.52539,140.09531Zm105.38021-5.68212a1.62991,1.62991,0,0,1-.03793-2.3034h0a1.62513,1.62513,0,0,1,2.3034-.03767h0a1.62929,1.62929,0,0,1,.03793,2.30288h0a1.619,1.619,0,0,1-1.17345.49442h0A1.62085,1.62085,0,0,1,133.9056,134.41319ZM12.81534,122.44578h0a1.63306,1.63306,0,0,1,.47267-2.25407h0a1.63079,1.63079,0,0,1,2.25964.47267h0a1.62964,1.62964,0,0,1-.478,2.25407h0a1.60691,1.60691,0,0,1-.8854.26631h0A1.63661,1.63661,0,0,1,12.81534,122.44578Zm134.94251-6.58343a1.62639,1.62639,0,0,1-.71139-2.18935h0a1.62606,1.62606,0,0,1,2.19439-.71192h0a1.62958,1.62958,0,0,1,.71166,2.18935h0a1.64126,1.64126,0,0,1-1.45568.8907h0A1.64765,1.64765,0,0,1,147.75785,115.86235ZM3.02641,100.93426a1.62339,1.62339,0,0,1,1.11907-2.01h0a1.6296,1.6296,0,0,1,2.01535,1.12464h0a1.62688,1.62688,0,0,1-1.12465,2.01h0a1.56848,1.56848,0,0,1-.44535.05942h0A1.623,1.623,0,0,1,3.02641,100.93426Zm152.51591-6.87733a1.622,1.622,0,0,1-1.32544-1.87953h0a1.62632,1.62632,0,0,1,1.87954-1.331h0a1.62864,1.62864,0,0,1,1.331,1.88537h0A1.63,1.63,0,0,1,155.8195,94.084h0A1.58216,1.58216,0,0,1,155.54232,94.05693ZM1.59779,79.16173a1.62482,1.62482,0,0,1-1.59732-1.662h0a1.6316,1.6316,0,0,1,1.6623-1.59731h0a1.63478,1.63478,0,0,1,1.597,1.66256h0a1.63089,1.63089,0,0,1-1.62967,1.59679H1.59779Zm153.09706-9.64226c0-.02705-.0053-.05411-.0053-.07586h0c-.00557-.02175-.00557-.0435-.01088-.06525h0a1.63092,1.63092,0,0,1,1.40687-1.82543h0A1.63228,1.63228,0,0,1,157.911,68.9598h0a.29342.29342,0,0,1,.00531.07056h0a.314.314,0,0,1,.01087.07108h.00531a1.63255,1.63255,0,0,1-1.41218,1.8249h0a1.34433,1.34433,0,0,1-.20662.01645h0A1.63827,1.63827,0,0,1,154.69485,69.51947ZM5.04175,56.26456a1.62479,1.62479,0,0,1-1.03207-2.05832h0A1.62946,1.62946,0,0,1,6.06852,53.1739h0A1.62963,1.62963,0,0,1,7.1006,55.23274h0a1.63183,1.63183,0,0,1-1.54268,1.11882h0A1.53265,1.53265,0,0,1,5.04175,56.26456ZM148.4642,47.58939a1.62165,1.62165,0,0,1,.804-2.15646h0a1.62957,1.62957,0,0,1,2.162.8037h0a1.63224,1.63224,0,0,1-.80954,2.16229h0a1.63884,1.63884,0,0,1-.67346.14642h0A1.62243,1.62243,0,0,1,148.4642,47.58939ZM15.1023,35.41562a1.63261,1.63261,0,0,1-.38036-2.27052h0a1.62978,1.62978,0,0,1,2.27608-.38036h0a1.62737,1.62737,0,0,1,.38037,2.271h0a1.63625,1.63625,0,0,1-1.331.68434h0A1.618,1.618,0,0,1,15.1023,35.41562ZM136.0785,28.62a1.62738,1.62738,0,0,1,.1305-2.3034h0a1.631,1.631,0,0,1,2.29784.1305h0a1.62712,1.62712,0,0,1-.13051,2.3034h0a1.61765,1.61765,0,0,1-1.08645.41273h0A1.62372,1.62372,0,0,1,136.0785,28.62ZM30.8394,18.43982a1.63881,1.63881,0,0,1,.30424-2.287h0a1.63848,1.63848,0,0,1,2.287.3045h0a1.62889,1.62889,0,0,1-.304,2.287h0a1.60157,1.60157,0,0,1-.98884.33686h0A1.64578,1.64578,0,0,1,30.8394,18.43982ZM118.652,14.13221a1.63324,1.63324,0,0,1-.54879-2.24346h0a1.63625,1.63625,0,0,1,2.23815-.54853h0a1.63773,1.63773,0,0,1,.54853,2.24346h0a1.63511,1.63511,0,0,1-1.396.78194h0A1.62916,1.62916,0,0,1,118.652,14.13221Zm-67.7674-7.2736a1.63083,1.63083,0,0,1,.96683-2.09174h0a1.62988,1.62988,0,0,1,2.09677.96709h0a1.63051,1.63051,0,0,1-.97239,2.0912h0a1.68448,1.68448,0,0,1-.55941.09815h0A1.63564,1.63564,0,0,1,50.88464,6.85861ZM97.73786,5.39709a1.62511,1.62511,0,0,1-1.18433-1.97184h0a1.632,1.632,0,0,1,1.97741-1.1899h0A1.63348,1.63348,0,0,1,99.715,4.213h0A1.62243,1.62243,0,0,1,98.1344,5.4459h0A1.43429,1.43429,0,0,1,97.73786,5.39709Zm-24.277-3.67738A1.62557,1.62557,0,0,1,74.99824.003h0a1.62391,1.62391,0,0,1,1.71668,1.53154h0a1.638,1.638,0,0,1-1.53738,1.72251h-.087A1.62806,1.62806,0,0,1,73.46087,1.71971Z" style="fill: #ffea2a"/>
      </g>
    </g>
  </g>
</svg>
