<svg xmlns="http://www.w3.org/2000/svg" viewBox="0 0 158.56416 164.06218">
  <title>new-pacific-arcology-2_monochrome</title>
  <g id="Layer_2" data-name="Layer 2">
    <g id="New_Pacific_Arcology" data-name="New Pacific Arcology">
      <g style="opacity: 0.4">
        <path d="M79.24337,164.0449c-.94855,0-1.8997.0448-2.84509-.00987-1.671-.09662-3.33865-.25188-5.00739-.3864-.86948-.07009-1.73972-.13467-2.60715-.22529a62.79254,62.79254,0,0,1-8.239-1.3646,12.56321,12.56321,0,0,1-4.78409-2.51835,29.46529,29.46529,0,0,1-2.61758-2.5548,53.01363,53.01363,0,0,0-6.5646-6.04939c-.92939-.66788-1.93029-1.33245-2.11437-2.60634a3.93827,3.93827,0,0,1,.00543-1.425,8.11993,8.11993,0,0,1,.6679-1.7588c1.28491-2.56789,2.6061-5.11762,3.896-7.68305.65905-1.31074,1.27959-2.64083,1.91777-3.96205a1.85873,1.85873,0,0,1,.09592-.18744c.70281-1.11154.65324-1.42187,2.09856-.69464a50.20886,50.20886,0,0,1,8.54189,5.50883,34.8304,34.8304,0,0,1,5.064,5.16687,13.80462,13.80462,0,0,0,2.46279,2.27569,18.06233,18.06233,0,0,0,7.05172,3.36225,17.16184,17.16184,0,0,0,5.19754.21924,17.5643,17.5643,0,0,0,7.9702-3.26377,15.24026,15.24026,0,0,0,3.49583-3.307,34.28911,34.28911,0,0,1,7.03785-6.57787,54.022,54.022,0,0,1,5.68511-3.56812,5.84262,5.84262,0,0,1,.66124-.3243c.81155-.31678,1.20562-.16662,1.60981.62029,1.43972,2.80294,2.86989,5.61079,4.31306,8.41194.72224,1.40182,1.487,2.78212,2.19045,4.19309a3.3861,3.3861,0,0,1,.283,3.02484,3.91659,3.91659,0,0,1-.89565,1.25529q-2.18269,1.965-4.44212,3.84429c-1.60014,1.32771-2.78985,3.03425-4.24861,4.49066a14.89814,14.89814,0,0,1-8.60869,4.42057c-2.03209.2892-4.04692.69816-6.07649,1.0074-.92959.14164-1.87656.16731-2.81475.25505-1.31865.12329-2.634.311-3.95532.369-1.47243.06464-2.94988.01481-4.42514.01481Z" style="fill: #fff"/>
        <path d="M136.47814,81.06555a13.827,13.827,0,0,1-.41229-2.05624,36.26152,36.26152,0,0,1,.00342-4.10707c.1157-1.62975.41223-3.2458.56975-4.87366a22.81723,22.81723,0,0,1,1.33036-5.68745,22.27312,22.27312,0,0,0,1.22977-4.21168,17.20117,17.20117,0,0,0,.28494-4.77195,19.53846,19.53846,0,0,0-.71541-4.21406,15.6065,15.6065,0,0,0-7.01032-8.59019,19.91043,19.91043,0,0,0-7.13107-2.63683A38.21686,38.21686,0,0,1,110.66,34.46521c-.44985-.27-.91729-.51434-1.34747-.81258-.80758-.55988-.8523-.82287-.32754-1.63418.85472-1.32147,1.71855-2.63705,2.57412-3.958q2.59533-4.00707,5.1843-8.01826a3.5386,3.5386,0,0,1,2.58882-1.77072,2.57235,2.57235,0,0,1,1.10873.07059c1.48767.50693,2.94506,1.10435,4.43824,1.59315a40.0894,40.0894,0,0,0,6.48467,1.616,11.43683,11.43683,0,0,1,2.79166.85782,13.54731,13.54731,0,0,1,5.67021,4.01813c1.5738,2.0509,3.33833,3.95661,4.88978,6.02317a65.87674,65.87674,0,0,1,5.57217,8.505c1.31729,2.47205,2.67386,4.92647,3.89247,7.447a65.34272,65.34272,0,0,1,3.87165,10.06876,11.8266,11.8266,0,0,1,.00822,6.22932c-.50678,2.025-1.19676,4.00407-1.70788,6.02817-.3911,1.54878-.63251,3.1356-.933,4.70693-.14364.75117-.20313,1.52534-.418,2.25453a3.24367,3.24367,0,0,1-3.18438,2.44352c-1.46647.075-2.9383.09-4.39871.22763-2.53857.2392-5.07833.386-7.628.42308C138.74912,80.79948,137.71023,80.95619,136.47814,81.06555Z" style="fill: #fff"/>
        <path d="M22.14081,83.31145c.08054.83234.19907,1.66319.23188,2.4974.04,1.01713.04046,2.03832.00138,3.05558a35.99855,35.99855,0,0,1-2.25666,12.07334,18.47808,18.47808,0,0,0-1.082,8.465,15.17517,15.17517,0,0,0,4.24056,9.36771,18.608,18.608,0,0,0,6.3658,4.17549,25.148,25.148,0,0,0,5.55913,1.41579,27.61161,27.61161,0,0,1,5.21572,1.5244,42.54,42.54,0,0,1,8.83733,4.57093c.11478.07953.25013.13216.35634.22076.43467.36254.464.54271.13165,1.06351q-1.75034,2.74287-3.51473,5.47677c-1.40138,2.17632-2.79222,4.35963-4.21671,6.52075a4.39912,4.39912,0,0,1-2.2618,1.94208,2.5945,2.5945,0,0,1-1.833-.00167q-2.35143-.89407-4.72432-1.73134a45.147,45.147,0,0,0-5.674-1.41669,14.767,14.767,0,0,1-8.24444-4.28351A66.677,66.677,0,0,1,13.32,130.92738c-1.84057-2.72291-3.70306-5.44034-5.36265-8.2734a80.1322,80.1322,0,0,1-3.78908-7.49923c-1.16568-2.57689-2.17847-5.22538-3.19069-7.86837a12.13481,12.13481,0,0,1-.91565-5.22224A17.17723,17.17723,0,0,1,.9338,97.34863,53.07821,53.07821,0,0,0,3.161,88.53833a8.47147,8.47147,0,0,0,.21211-1.551c-.00935-1.86941,1.87871-2.9586,3.29027-3.04187,1.886-.11125,3.77775-.12633,5.66393-.236,1.38844-.08072,2.77192-.24678,4.15759-.375.035-.00325.06967-.01083.10465-.01212q2.67379-.0984,5.34762-.19592Z" style="fill: #fff"/>
        <path d="M22.117,81.27125c-1.42679-.09472-2.71287-.18014-3.999-.26541-.105-.007-.21007-.01532-.31525-.01887-2.3451-.079-4.69178-.12685-7.03479-.24653-1.6355-.08353-3.27328-.20993-4.896-.42384A2.96949,2.96949,0,0,1,3.66444,78.676a6.91751,6.91751,0,0,1-.45758-1.91488c-.32154-1.67421-.55386-3.36946-.9591-5.02264-.43068-1.757-1.02731-3.47292-1.5368-5.21107a16.15888,16.15888,0,0,1-.64472-6.11636A12.93522,12.93522,0,0,1,.77,57.57846,96.02928,96.02928,0,0,1,4.83324,47.46155a88.9398,88.9398,0,0,1,6.52983-11.48621,72.38364,72.38364,0,0,1,5.74338-7.614c.68945-.78961,1.29979-1.6529,2.02856-2.40254a14.01982,14.01982,0,0,1,4.40465-2.9824,30.80441,30.80441,0,0,1,5.82987-1.63816,46.77933,46.77933,0,0,0,7.851-2.58343,3.28078,3.28078,0,0,1,4.21477,1.3256c1.599,2.29563,3.07241,4.67864,4.60331,7.02183.8796,1.3463,1.77185,2.68434,2.65,4.03159.30549.4687.59163.95039.8757,1.43258.29034.49282.26884.7208-.21345,1.05209q-1.16715.80175-2.38845,1.52413A43.3276,43.3276,0,0,1,35.97524,39.7758c-1.4778.39047-3.00836.57713-4.49686.93221a18.53661,18.53661,0,0,0-5.77186,2.70576,13.76185,13.76185,0,0,0-3.66727,3.41756,15.17578,15.17578,0,0,0-2.99314,7.06705,19.905,19.905,0,0,0,1.12666,9.86832,32.1985,32.1985,0,0,1,1.82864,7.50167,59.1122,59.1122,0,0,1,.3633,8.48719A10.99177,10.99177,0,0,1,22.117,81.27125Z" style="fill: #fff"/>
        <path d="M158.39284,100.59318a11.23745,11.23745,0,0,1-.58974,5.85592,89.85112,89.85112,0,0,1-4.03653,10.123,88.62526,88.62526,0,0,1-5.79591,10.45539,71.811,71.811,0,0,1-5.58,7.59935c-.86247,1.00853-1.64683,2.084-2.51273,3.08941a14.578,14.578,0,0,1-5.61986,3.77023,30.66352,30.66352,0,0,1-4.95495,1.259,51.26473,51.26473,0,0,0-7.26642,2.3541c-.38872.15578-.79107.27721-1.1827.42614a2.57182,2.57182,0,0,1-2.80431-.63078,9.613,9.613,0,0,1-1.49939-1.74663c-2.082-3.14981-4.12561-6.325-6.18193-9.49179-.41909-.64539-.84327-1.28771-1.2494-1.94122-.36251-.58334-.34182-.82769.229-1.22625a30.5943,30.5943,0,0,1,2.81706-1.82426,40.29769,40.29769,0,0,1,11.7783-4.58892,23.97813,23.97813,0,0,0,5.72636-1.59612,16.13917,16.13917,0,0,0,9.879-12.17016,16.627,16.627,0,0,0,.08018-2.62707,18.99116,18.99116,0,0,0-1.426-7.87512,32.73634,32.73634,0,0,1-1.606-6.58591,34.218,34.218,0,0,1-.37657-4.79057c-.02292-.69547-.1669-1.38919-.16044-2.08282.00811-.87043.10421-1.74084.18176-2.60953a.81354.81354,0,0,1,.86761-.85561c.87159.00479,1.74285.08543,2.614.13722.13909.00826.27683.04351.41583.04859,2.16882.07927,4.33794.15017,6.50657.23442,1.64253.06381,3.28593.12047,4.926.22589a4.92031,4.92031,0,0,1,2.44524.86961,2.79168,2.79168,0,0,1,1.16886,2.04356,52.70787,52.70787,0,0,0,2.642,11.1706,21.44114,21.44114,0,0,1,.557,2.75617Z" style="fill: #fff"/>
        <path d="M77.6,14.95665a10.68467,10.68467,0,0,0-4.84227,1.1758A18.24838,18.24838,0,0,0,68.45,18.72526a38.4322,38.4322,0,0,0-2.943,2.84746,41.13985,41.13985,0,0,1-3.59282,3.80411A45.48415,45.48415,0,0,1,56.473,29.4741c-1.32893.84114-2.7123,1.60026-4.09844,2.34565-.94214.50664-1.24318.37406-1.73458-.57693-2.138-4.13758-4.28613-8.27-6.40008-12.41982a5.96512,5.96512,0,0,1-.5518-1.7833A3.054,3.054,0,0,1,45.13372,14.076,50.63667,50.63667,0,0,0,51.21134,8.5914c.77071-.813,1.49834-1.66683,2.27051-2.47837a14.42223,14.42223,0,0,1,8.805-4.44524c1.895-.25422,3.76617-.682,5.65623-.9797C68.87166.54181,69.8193.51825,70.75751.43044,72.07244.30737,73.38623.172,74.70138.05149c.31392-.02876.63128-.02614.94708-.0269,2.002-.00477,4.00566-.05674,6.00561.00657,1.63587.05179,3.26735.24225,4.90078.37128.974.07694,1.95329.11294,2.92069.23986,1.79144.235,3.57724.51483,5.36267.79326.79033.12324,1.56989.31872,2.36165.4289a11.63435,11.63435,0,0,1,5.1878,2.38387,24.0811,24.0811,0,0,1,4.04823,3.95748,23.8455,23.8455,0,0,0,2.50049,2.39715c1.346,1.16887,2.72232,2.30385,4.10965,3.42364a3.67974,3.67974,0,0,1,.65756,4.43688c-2.10658,4.19391-4.23661,8.376-6.35747,12.56277-.03171.06259-.06188.126-.09569.1875-.38882.70665-.70153.83978-1.44665.47067a31.351,31.351,0,0,1-3.0493-1.64638c-1.76338-1.13231-3.53137-2.27192-5.192-3.546a32.1922,32.1922,0,0,1-4.8999-4.73915,19.824,19.824,0,0,0-5.69255-4.75955,16.55052,16.55052,0,0,0-4.85819-1.8825,17.60843,17.60843,0,0,0-4.27234-.3207Z" style="fill: #fff"/>
        <path d="M134.77551,102.48838a13.33791,13.33791,0,0,1-.0063,4.41772l-.00819.21336a16.08308,16.08308,0,0,1-4.98709,9.47453,19.62975,19.62975,0,0,1-6.25984,3.78364,75.343,75.343,0,0,0-9.12457,3.99736c-2.07344,1.1588-4.13988,2.33013-6.20964,3.49555a.885.885,0,0,1-.27809.1434c-.25377.03322-.59127.14568-.7506.02894a.63125.63125,0,0,1-.064-.93692,6.20728,6.20728,0,0,1,.56476-.75486,52.05283,52.05283,0,0,1,8.07674-7.00716c2.26762-1.51177,4.63823-2.86975,6.97138-4.2823a13.9415,13.9415,0,0,0,5.02955-5.22893,14.40738,14.40738,0,0,0,1.65156-4.38449,4.16238,4.16238,0,0,0,.10477-.61647c.08085-2.37682.20926-4.7538.214-7.131a38.59131,38.59131,0,0,1,1.00792-8.60423c.40608-1.7652.87823-3.51513,1.31135-5.27423a1.12433,1.12433,0,0,1,.786-.89744c.29891-.08919.46968.04639.50256.35542l.1618.23905c.00864,2.9092-.01016,5.81888.04057,8.72734a27.24717,27.24717,0,0,0,.31949,3.10412c.22473,1.68687.48455,3.36907.72463,5.05392.0784.55018.14139,1.10256.21143,1.65392Z" style="fill: #fff"/>
        <path d="M51.25374,35.82239c.58367.94585.59454.99125.00083,1.60753a52.28219,52.28219,0,0,1-10.29784,8.59854c-2.001,1.221-4.02558,2.40563-5.99534,3.67523a12.83172,12.83172,0,0,0-4.04956,4.45711,15.54011,15.54011,0,0,0-2.01847,7.91974c-.02853,2.6982-.0627,5.39962-.22473,8.09178a29.58819,29.58819,0,0,1-.69819,4.22292c-.34862,1.67112-.76911,3.32763-1.18063,4.985a6.633,6.633,0,0,1-.46244,1.27839.70355.70355,0,0,1-.84244.47442c-.37663-.11433-.3602-.46877-.36052-.792-.00216-2.14363.04147-4.28882-.02729-6.43037-.05257-1.63677-.21159-3.273-.38957-4.9022-.2572-2.3543-.58582-4.70069-.86-7.05326a26.09135,26.09135,0,0,1-.18993-2.60829,15.96511,15.96511,0,0,1,3.40211-9.92614,17.3018,17.3018,0,0,1,7.179-5.314c2.93626-1.314,6.04167-2.24115,8.88054-3.77763,2.5858-1.39953,5.13157-2.873,7.6962-4.31172C50.933,35.95148,51.06245,35.90672,51.25374,35.82239Z" style="fill: #fff"/>
        <path d="M105.06533,34.54462c-.38224.91785-.55473,1.04186-1.35521.82972-1.41511-.375-2.82181-.78339-4.22539-1.20016a36.13226,36.13226,0,0,1-7.404-2.90336c-1.86466-1.039-3.70383-2.13112-5.61469-3.07781a17.878,17.878,0,0,0-5.95017-1.884c-3.75485-.43061-7.00783.78052-10.15559,2.57044-1.76358,1.00283-3.512,2.03357-5.29529,3.00007a43.41683,43.41683,0,0,1-7.15242,2.69923c-1.12461.3738-2.26811.695-3.41374,1-.85739.22823-1.12711.09495-1.52881-.63144a5.49978,5.49978,0,0,1,1.9561-1.32779c3.12928-1.85658,6.23822-3.74572,9.17111-5.90216,1.2656-.93055,2.42835-1.99969,3.66219-2.975,2.69615-2.13135,5.621-3.867,9.10157-4.22132a15.87232,15.87232,0,0,1,8.905,1.35739,31.07993,31.07993,0,0,1,5.93246,3.93316,55.00125,55.00125,0,0,0,6.73937,4.8038c1.82925,1.09749,3.68194,2.15584,5.5216,3.236C104.31918,34.06258,104.667,34.29412,105.06533,34.54462Z" style="fill: #fff"/>
        <path d="M105.70423,129.20451c-.69251.39686-1.33768.73925-1.95547,1.12546-2.43226,1.52051-4.89361,2.999-7.26934,4.60379-1.55961,1.05353-3.01309,2.26979-4.47478,3.4614a22.39622,22.39622,0,0,1-8.61451,4.83982,7.55677,7.55677,0,0,1-1.53.3115,21.18053,21.18053,0,0,1-6.4715-.36983,21.33408,21.33408,0,0,1-7.92243-4.39918,65.063,65.063,0,0,0-8.5733-6.02155c-1.44808-.85065-2.91163-1.67492-4.36555-2.5157a3.37263,3.37263,0,0,1-.69554-.46649.67686.67686,0,0,1-.20663-.52842.61432.61432,0,0,1,.43094-.37421,4.3495,4.3495,0,0,1,1.46518.02962,54.44111,54.44111,0,0,1,10.75834,3.774c1.9905,1.02683,3.91612,2.17868,5.8887,3.2413a14.16089,14.16089,0,0,0,4.40329,1.64943,11.969,11.969,0,0,0,4.25907.20207,18.81677,18.81677,0,0,0,3.072-.58548,32.39353,32.39353,0,0,0,5.82969-2.8653,41.00282,41.00282,0,0,1,11.09785-4.87986c1.07815-.28829,2.13988-.63742,3.21575-.9348A1.18227,1.18227,0,0,1,105.70423,129.20451Z" style="fill: #fff"/>
        <path d="M25.10211,91.92939V83.443c1.02835-.19327,1.21457-.14174,1.4431.65125.40541,1.40669.77314,2.82646,1.09278,4.255.37994,1.69814.72568,3.40565,1.02065,5.12036a17.712,17.712,0,0,1,.23088,2.71021c.036,2.24781-.02435,4.4977.03793,6.74443a14.99855,14.99855,0,0,0,2.09541,7.261,15.28387,15.28387,0,0,0,5.58023,5.43051c2.04585,1.21226,4.1,2.4132,6.10691,3.68768a30.826,30.826,0,0,1,4.856,3.8209c1.288,1.23973,2.60286,2.45174,3.88134,3.70106.61962.60548.59591.66533.0524,1.56821-.2102-.101-.43185-.19343-.64009-.30982-1.58855-.888-3.16233-1.80325-4.765-2.66486-1.32439-.712-2.69867-1.33135-4.021-2.04688-2.1353-1.15545-4.4695-1.81472-6.69265-2.74963a19.76869,19.76869,0,0,1-7.98923-5.46312,15.85547,15.85547,0,0,1-2.47086-4.12916,15.05654,15.05654,0,0,1-1.1001-6.04034,44.55521,44.55521,0,0,1,.5988-6.56171,28.63122,28.63122,0,0,0,.51905-6.25987Z" style="fill: #fff"/>
        <path d="M133.31362,80.35123l-.141.58023a1.04293,1.04293,0,0,1-1.15695-.90673c-.48357-1.854-1.02226-3.69547-1.44208-5.5637-.35056-1.55992-.56811-3.15-.83348-4.72855a4.6179,4.6179,0,0,1-.02792-.736c-.007-1.26438-.03-2.52907-.01138-3.79311a45.20594,45.20594,0,0,0-.4535-6.79218,10.61062,10.61062,0,0,0-.86291-2.78867,12.97919,12.97919,0,0,0-3.13879-4.67526,32.01557,32.01557,0,0,0-4.043-2.98039,82.49459,82.49459,0,0,1-7.54353-4.73776,68.029,68.029,0,0,1-6.63664-6.129c-.45126-.46618-.42189-.6612.044-1.44143,1.05568.584,2.12056,1.16041,3.17343,1.758a68.35717,68.35717,0,0,0,10.76486,5.197,30.08618,30.08618,0,0,1,6.977,3.36142,13.96,13.96,0,0,1,3.52466,3.41975,16.53564,16.53564,0,0,1,2.91079,6.22236,3.58367,3.58367,0,0,1,.122.50672c.07973,1.39287.2434,2.78977.19428,4.17882-.054,1.52771-.28845,3.0507-.47919,4.57137-.1559,1.24285-.30264,2.49215-.5631,3.71523a25.317,25.317,0,0,0-.19644,4.49982c-.07989,2.34433-.12555,4.68984-.18572,7.03484Z" style="fill: #fff"/>
        <path d="M55.60291,37.405c1.08668-.33374,2.01122-.6299,2.94291-.9016a55.62007,55.62007,0,0,0,8.85474-3.23467,28.57966,28.57966,0,0,1,8.73188-2.81956,8.33541,8.33541,0,0,1,3.319-.10253,1.96768,1.96768,0,0,0,.52533.01278,22.01175,22.01175,0,0,1,9.10773,2.13768,58.94748,58.94748,0,0,0,8.30968,3.17653c1.48173.39157,2.95091.83145,4.42041,1.26747a2.86927,2.86927,0,0,1,.60726.42507,18.61481,18.61481,0,0,1-2.86894,1.47049,3.98074,3.98074,0,0,1-3.32978-.08108,42.50778,42.50778,0,0,0-8.94725-2.51124,65.73389,65.73389,0,0,0-6.662-.6619,55.15639,55.15639,0,0,0-5.53775.11772,40.83374,40.83374,0,0,0-5.66776.89115,45.94216,45.94216,0,0,0-6.82661,2.00216c-.45964.16524-.8825.43725-1.34614.58557a3.80156,3.80156,0,0,1-1.31976.23195A10.01617,10.01617,0,0,1,55.60291,37.405Z" style="fill: #fff"/>
        <path d="M52.47934,124.73168c-.31652-.22266-.43925-.28919-.53791-.38145-1.15232-1.07775-2.25982-2.20784-3.46055-3.22834-1.70377-1.448-3.45817-2.83836-5.22323-4.21186a54.11654,54.11654,0,0,1-4.94393-3.88832,22.90956,22.90956,0,0,1-6.4271-11.57035,26.86,26.86,0,0,1-.6957-4.85385,28.57555,28.57555,0,0,0-.69346-4.64315c-.463-2.2507-1.03013-4.47986-1.53608-6.722a4.72992,4.72992,0,0,1-.00783-.91755,7.48179,7.48179,0,0,1,.83494.41177c.69639.46834,1.39943.93124,2.05979,1.44753a3.375,3.375,0,0,1,1.3092,2.29735A45.37251,45.37251,0,0,0,36.12,99.45856a37.04892,37.04892,0,0,0,2.80925,5.7495c1.25919,1.97382,2.51941,3.95926,3.94894,5.80842a48.81654,48.81654,0,0,0,4.16071,4.5888,35.79887,35.79887,0,0,0,3.43551,2.91749,4.41217,4.41217,0,0,1,1.87788,3.23349A16.52124,16.52124,0,0,1,52.47934,124.73168Z" style="fill: #fff"/>
        <path d="M129.65728,79.75361a3.43163,3.43163,0,0,1-.83337-.29427c-.78992-.57566-1.5399-1.20622-2.33074-1.78051a3.27646,3.27646,0,0,1-1.21117-2.4399,44.72411,44.72411,0,0,0-1.5911-7.01671,47.66485,47.66485,0,0,0-3.13306-7.65289,48.65448,48.65448,0,0,0-4.57755-7.14223,56.07193,56.07193,0,0,0-6.12366-6.49694c-.674-.653-1.48678-1.16059-2.20117-1.77526a3.37,3.37,0,0,1-1.026-1.146,9.59154,9.59154,0,0,1-.47344-4.603,2.58622,2.58622,0,0,1,.44824.24771q1.80391,1.68713,3.59754,3.38523a53.51172,53.51172,0,0,0,6.14189,4.9,27.84557,27.84557,0,0,1,5.1994,4.56093,22.42475,22.42475,0,0,1,4.97232,9.59185,44.47285,44.47285,0,0,1,.89316,5.98744,54.86049,54.86049,0,0,0,.91142,5.66612c.37522,1.84.88777,3.65181,1.3334,5.47762A2.89143,2.89143,0,0,1,129.65728,79.75361Z" style="fill: #fff"/>
        <path d="M106.35921,124.39115a9.98367,9.98367,0,0,1,.43377-4.29392,2.41551,2.41551,0,0,1,.72726-1.00427c1.15706-1.0117,2.35158-1.98048,3.52846-2.96963.21445-.18024.41914-.37354.6163-.57271a49.05223,49.05223,0,0,0,8.89409-12.00774,48.10549,48.10549,0,0,0,4.00338-10.65029,40.32028,40.32028,0,0,0,.86084-4.72081,2.94963,2.94963,0,0,1,1.13311-2.0401q1.09527-.896,2.24263-1.72725a3.61182,3.61182,0,0,1,.82392-.312,4.22429,4.22429,0,0,1-.00668.80671c-.47721,2.10465-1.011,4.19738-1.44343,6.311-.27144,1.32679-.39509,2.6837-.59,4.02636-.055.37874-.143.75307-.18909,1.13267-.1507,1.2416-.24546,2.49158-.441,3.72581a22.8599,22.8599,0,0,1-2.7227,7.76514,23.659,23.659,0,0,1-4.94666,5.9525,40.99977,40.99977,0,0,1-3.6526,2.81021,60.89319,60.89319,0,0,0-8.14522,7.09563C107.20871,123.99958,106.99391,124.42531,106.35921,124.39115Z" style="fill: #fff"/>
        <path d="M28.92055,79.83012a6.70458,6.70458,0,0,1,.08326-.89675c.507-2.24246,1.07154-4.47293,1.52841-6.72533.25555-1.25986.35622-2.55263.4982-3.83372a33.66108,33.66108,0,0,1,1.925-9.28626,21.92823,21.92823,0,0,1,3.21484-5.51924,30.92412,30.92412,0,0,1,6.10852-5.56654,53.06143,53.06143,0,0,0,7.31926-6.123c.76971-.79623,1.64551-1.4899,2.60277-2.34671a8.14419,8.14419,0,0,1,.07938,2.39143,10.63062,10.63062,0,0,1-.1822,1.13235,3.52031,3.52031,0,0,1-1.2841,2.21909c-1.37281,1.1373-2.764,2.25807-4.06711,3.472a29.4189,29.4189,0,0,0-2.865,3.07333c-1.22523,1.52317-2.39833,3.09524-3.49531,4.71312a42.9104,42.9104,0,0,0-4.77136,9.43327A51.63063,51.63063,0,0,0,33.614,72.89581c-.23229,1.08788-.32085,2.2059-.49879,3.30634a2.126,2.126,0,0,1-.28325.76406c-.88246,1.42015-2.32382,2.13892-3.63785,3.01619Z" style="fill: #fff"/>
        <path d="M56.15515,126.816a10.54829,10.54829,0,0,1,4.1001-1.90531,2.60145,2.60145,0,0,1,1.31864.16654c1.26052.4098,2.49979.88436,3.75366,1.31526a48.61846,48.61846,0,0,0,7.01395,1.64443,26.77237,26.77237,0,0,0,4.4716.402c.9057.01483,1.81293.19613,2.71431.16283a63.90463,63.90463,0,0,0,6.45764-.56387A47.00843,47.00843,0,0,0,94.8084,125.882c.7928-.27256,1.58354-.56224,2.34639-.9077a2.81,2.81,0,0,1,2.43045-.10723c.92564.41614,1.8481.83936,2.77134,1.26086.15786.07206.31264.15087.46885.22657l-.10939.29346c-.64116.228-1.2702.50143-1.92555.67628a59.46224,59.46224,0,0,0-9.4601,3.39158,35.91256,35.91256,0,0,1-5.95043,2.3158,16.36107,16.36107,0,0,1-4.01422.67279c-.76486.00319-1.53912.22333-2.29195.15536a32.7448,32.7448,0,0,1-5.88-.89282,44.65066,44.65066,0,0,1-5.65154-2.22278,46.0627,46.0627,0,0,0-5.79879-2.13509c-1.57724-.44056-3.139-.937-4.70472-1.41791C56.79273,127.11558,56.5619,126.99059,56.15515,126.816Z" style="fill: #fff"/>
        <path d="M134.77551,102.48838l-.0098-.42972C134.99851,102.19666,134.99847,102.34,134.77551,102.48838Z" style="fill: #fff"/>
        <path d="M77.6,14.95665l.2396-.16652Z" style="fill: #fff"/>
        <path d="M133.31362,80.35123l-.00473-.22717Z" style="fill: #fff"/>
        <path d="M22.14081,83.31145l-.2036-.18491Z" style="fill: #fff"/>
        <path d="M133.46961,83.51936l-.16182-.23905Z" style="fill: #fff"/>
        <path d="M25.10211,91.92939l-.16344.23883Z" style="fill: #fff"/>
        <path d="M158.39284,100.59318l-.008-.22412Z" style="fill: #fff"/>
        <path d="M134.761,107.11946l.00819-.21336Z" style="fill: #fff"/>
      </g>
    </g>
  </g>
</svg>
