<svg xmlns="http://www.w3.org/2000/svg" viewBox="0 0 158.09793 118.16217">
  <title>the-tangled-shore-1_monochrome</title>
  <g id="Layer_2" data-name="Layer 2">
    <g id="The_Tangled_Shore" data-name="The Tangled Shore">
      <g style="opacity: 0.4">
        <path d="M157.45588,38.29071a24.41892,24.41892,0,0,0-6.06021-5.97175,54.96352,54.96352,0,0,0-8.1922-5.073c-3.44759-1.74487-6.98147-3.34748-10.296-5.31781-2.46509-1.46539-5.00972-2.795-7.43216-4.33268a28.94488,28.94488,0,0,1-5.38609-3.95181c-1.33123-1.35809-2.7278-2.6542-4.02152-4.04642-1.74283-1.87555-4.15209-2.76916-6.12689-4.29518-1.71119-.20347-3.17112-1.17576-4.87636-1.51112-1.66562-.32756-3.34651-.70265-5.01044-1.09858-1.06491-.25341-2.13059-.45217-3.17779-.80855a18.98627,18.98627,0,0,1-2.269-.89771A15.77321,15.77321,0,0,0,92.17265.54082a12.9235,12.9235,0,0,0-3.2731-.06821C87.84378.46747,86.89136-.035,85.78866.00194,79.85315.20064,73.909-.22471,67.97008.40376c-1.40141.14831-2.77441.51563-4.19835.554-.545.01471-1.06137.73346-1.6181.77627a11.20224,11.20224,0,0,0-1.57164.4785c-2.69163.55008-5.3813,1.096-8.06068,1.71277a22.417,22.417,0,0,0-5.147,1.88768,22.70455,22.70455,0,0,0-5.8868,4.35c-1.02252,1.0461-2.08933,2.04958-3.09656,3.10988-2.24121,2.35921-5.07924,3.88285-7.79736,5.56159-1.438.88809-3.07561,1.45792-4.49351,2.37232-2.46969,1.59272-5.06137,2.94589-7.66545,4.28783-2.96282,1.52683-5.94405,3.01059-8.76821,4.80336a66.43026,66.43026,0,0,0-5.996,4.56147A15.89352,15.89352,0,0,0,0,39.53943c1.10989.01288,1.46271-.81094,1.9893-1.30744,1.98914-1.87547,3.96951-3.736,6.8327-4.18166,1.42376-.22161,2.84206-.47818,4.18813-.70627l.92265,1.0114h3.03041c-.78508.62737-1.35357,1.08163-1.953,1.56061.62167.3498,1.65584-.29976,2.11695.95949v1.58166c.47732.4184.8167.96688,1.24044,1.04248,1.56457.27907,3.03269,1.11232,4.67517.90542a3.94515,3.94515,0,0,1,2.38718.60677c.72352.38125,1.43458.79272,2.11931,1.23961,1.73051,1.12941,3.49932,2.21173,5.14587,3.45458a21.185,21.185,0,0,1,3.98553,3.5611,38.2968,38.2968,0,0,1,4.24824,5.89561,12.09348,12.09348,0,0,1,1.54574,3.657c-1.25172-1.18139-2.28646-2.51629-3.4346-3.74523-1.44733-1.54911-3.03966-2.96347-4.47523-4.5227a19.66955,19.66955,0,0,0-8.24294-5.54017c-1.4746-.49395-2.90723-1.3728-4.66568-1.032l-.67948,1.03332a7.11631,7.11631,0,0,1,2.67674,3.66245l-1.05971.32981c1.25184,1.04849,2.20852,2.09587,2.33494,3.61739a24.018,24.018,0,0,0-8.70673,2.249h6.62053c.73689.658,1.27695,1.14034,1.80507,1.61193-.144,1.44822-.10872,2.83935-.36614,4.26739a28.871,28.871,0,0,0-.062,6.34526,5.21735,5.21735,0,0,0,.70313,2.32544,12.6186,12.6186,0,0,0,5.40983,4.80978c2.7484,1.38786,5.72569,2.08033,8.59646,3.096a9.23355,9.23355,0,0,0,2.46523.40791,5.53267,5.53267,0,0,1,3.78359,1.64333,5.815,5.815,0,0,1-2.08154-.55483c-.783-.4191-1.4872-.14217-2.31-.15216.90652,1.2571,2.47071,1.345,3.2147,2.72348a4.563,4.563,0,0,1,.40368,4.32716,35.62125,35.62125,0,0,1,9.65147,15.10675c1.05294.24306,1.92637.44469,2.79858.646.38023-.401.73129-.77134,1.10793-1.16855.30685-2.19135-1.36879-4.09479-1.21464-6.71818,1.16387,2.42672,2.15259,4.48825,3.1708,6.61128l2.93748-3.57811c-.14887-1.897-.3158-4.0224-.48169-6.14792-.00568-.07271.03116-.1773-.00538-.21486-.84965-.87261-.244-1.87857-.19008-2.85057.99525,3.20707,1.99051,6.41414,3.02128,9.7357.77405-.97055,1.4831-1.8596,2.18294-2.73717.44849.3277.6249.73547.9773.838.21148-1.60457.48616-3.06265.5751-4.532.097-1.60334.022-3.21709.022-4.82632v-1.17l1.00734.16439c-.54033,1.75609.23738,3.31795.32777,4.94751.093,1.67666.333,3.3452.53741,5.29075.4512-.69394.74348-1.14346.97235-1.4955H73.7546l.06432,1.09129c.44909.18528.80229.331,1.15551.47724.57095-.3861,1.142-.77265,1.72435-1.16692a3.05151,3.05151,0,0,0,1.94673,1.20437V92.62976l.90422.1085V95.6407c.8374-.68929,1.405-1.15648,1.89952-1.56353L83.16041,95.236l1.12071-.58242.10165-1.0746H86.2522l1.0262,1.43437c.40941-3.6052.78822-6.94089,1.17231-10.32306l.69761.19415a17.198,17.198,0,0,1-.00889,1.78572c-.30938,2.88318.59385,5.67827.46036,8.5181L90.583,94.205c.849,1.06453,1.558,1.95359,2.33092,2.92277C93.95717,93.77,94.93675,90.617,95.91636,87.464a7.91237,7.91237,0,0,1-.11236,3.151,48.82589,48.82589,0,0,0-.56934,6.01049c1.03471,1.24485,1.9669,2.36637,2.97091,3.57433,1.03094-2.15322,2.0013-4.18,2.97166-6.20675.21414,2.27244-1.323,4.19937-.78945,6.30068l.80309,1.18964c1.048-.237,1.91841-.43387,2.77679-.628a52.0384,52.0384,0,0,1,2.338-5.61231,33.49914,33.49914,0,0,1,5.58193-7.57284c.68647-.68526,1.27725-1.46641,1.89824-2.18781-.90172-.89892-.30974-1.88008-.533-2.747a15.69926,15.69926,0,0,1,1.701-2.34754,13.89866,13.89866,0,0,1,2.30483-1.49966c-.91681-.15015-1.71111-.492-2.53037.11507a6.50252,6.50252,0,0,1-2.18321.48886,7.18515,7.18515,0,0,1,4.29124-1.74671,7.75959,7.75959,0,0,0,3.02347-.67064c.57382-.20039,1.11624-.51062,1.7015-.65512a23.29989,23.29989,0,0,0,8.4093-3.53471,8.08165,8.08165,0,0,0,3.95068-7.01076,27.70219,27.70219,0,0,0-.06614-4.81568,21.71891,21.71891,0,0,1-.36188-4.43062c.58469-.67134,1.06244-1.21989,1.58929-1.82484H141.802a42.12539,42.12539,0,0,0-4.16409-1.587,24.03337,24.03337,0,0,0-4.5257-.62139c.32716-.85311.6376-1.66265.94293-2.4588.68521-.145,1.23432-.38392,1.161-1.21364l-.74881-.30139c.43542-1.57215,1.62817-2.66079,2.64616-3.86661-.332-.36036-.5691-.6177-.81337-.88279a18.80308,18.80308,0,0,0-7.58232,2.49858,17.83875,17.83875,0,0,0-5.11527,4.11252c-1.26565,1.41553-2.676,2.70138-4.01611,4.05085-.35515.35767-.70356.7247-1.0259,1.11171-.44886.53893-.84447,1.12379-1.31054,1.64649-.49133.551-1.03871,1.05207-1.902,1.91536,2.73363-6.87949,6.87584-12.37057,18.31435-18.75653,1.252-.21831,2.49322.06165,3.79232-.38853,1.247-.43215,2.59358-.48889,3.57061-1.74484V36.31433l2.01408-.43877c-.5811-.48163-1.11808-.92672-1.93823-1.60652h3.135l.91689-.91692a19.98446,19.98446,0,0,1,3.68091.57754,8.9459,8.9459,0,0,1,4.6457,2.02488c1.18956,1.02793,2.35911,2.07168,3.50224,3.15027a8.03936,8.03936,0,0,0,1.116.69036A11.06075,11.06075,0,0,0,157.45588,38.29071ZM91.20454,63.01655c1.17916-.20537,2.48613-.13113,4.11579-.26771,1.33561-.11194,10.48752-.93463,12.23659-.71377-5.75285,1.8615-16.87322,2.77388-21.07148,1.498C88.182,63.15954,89.85214,63.25209,91.20454,63.01655Zm-29.10473-.405a2.24589,2.24589,0,0,0,.84008.1826c2.5957-.32472,6.51777.68542,9.12342.62239-3.95255.48495-16.97206,1.03733-22.12714-1.26216A119.84557,119.84557,0,0,1,62.09981,62.61154ZM79.06619,89.65793c-.39063-1.0289-.61558-1.62139-.74123-1.95238.15919-1.25951.28872-2.28423.42358-3.35123h.59354c.52023.89246-.36523,2.06177.61555,2.86649C79.66784,88.013,79.4483,88.61323,79.06619,89.65793Zm37.52529-24.76339a29.48587,29.48587,0,0,0,3.71439-3.91138,15.63146,15.63146,0,0,1,4.0568-3.75319,4.4908,4.4908,0,0,1,1.01925-.22029,10.22167,10.22167,0,0,1,1.9654,4.79049c.06781.53414.35693,1.04206.4112,1.57558a8.24322,8.24322,0,0,1-.70924,3.42691c-.88268,2.64823-2.77435,4.25949-5.59827,5.2489-1.62849.57058-3.24848.29515-4.63945.40269a11.64437,11.64437,0,0,1-5.64385-5.17692,21.742,21.742,0,0,0-.05934,2.38783,11.24856,11.24856,0,0,1-.4726,5.14953,7.02346,7.02346,0,0,1-4.644,4.81191,9.92094,9.92094,0,0,1-5.82132.64869c-2.692-.516-5.04806-1.86127-5.75717-4.9144-.1703-.73324-.36777-1.46017-.56929-2.25522-2.15465-.39767-2.63017-.29587-4.70412.97473a19.53755,19.53755,0,0,0-3.60847-1.16606,10.41433,10.41433,0,0,0-2.11245-.13336,6.046,6.046,0,0,0-4.22681,2.88047c-1.01443-.42462-1.21174-1.56575-2.1326-1.92471a15.44278,15.44278,0,0,0-2.16348-.60294,6.852,6.852,0,0,0-2.6455-.10973,7.82107,7.82107,0,0,0-3.09493,1.14316,7.89117,7.89117,0,0,0-4.94922-1.27017,13.96609,13.96609,0,0,1-.8755,3.30153,5.93373,5.93373,0,0,1-4.1473,3.70132,10.58464,10.58464,0,0,1-6.983-.21786A7.67091,7.67091,0,0,1,47.03553,72.914c-.08155-.8377-.9551-1.67267-.40952-2.41114.7348-.99466.17438-1.902.436-3.12827-.96533,1.13493-1.69188,1.98345-2.41231,2.83712-2.33787,2.7702-5.52356,2.81556-8.46827,1.64084C34.458,71.165,32.59588,70.33373,31.73305,68.381a12.97831,12.97831,0,0,1-.89717-1.81717,6.67766,6.67766,0,0,1-.43025-3.06554c.38814-1.50469.22948-3.17119,1.22645-4.52918a11.15136,11.15136,0,0,0,.896-1.82044,2.80646,2.80646,0,0,1,2.6665,1.08583c1.40752,1.53054,2.77569,3.09763,4.19589,4.61614a8.54454,8.54454,0,0,0,3.85383,2.86327c2.85762.80952,5.81956.42412,8.73765.656a11.28181,11.28181,0,0,1,5.36506,1.7959c1.99372,1.34913,4.18169,2.37428,6.11621,3.8416h3.1503l.78489-1.15075c.82.4856,1.73027,1.02467,2.79354,1.65432.77011,0,1.9223.04955,2.85239,0a32.1829,32.1829,0,0,0,3.2565-.50888c1.113-.3484,1.25238-1.85792,1.87429-2.835,0-1.17466-.34629-2.49627.08685-3.47178.55263-1.24456.21513-2.40031.328-3.58162.11043-1.15543.02406-2.32967.02406-3.63019l.66276-.08067a1.69681,1.69681,0,0,1,.20489.50347,7.24533,7.24533,0,0,1,.00353,1.31237c-.329,2.95778.59346,5.85012.44,8.83317.42079.74238.88946,1.49342,1.28244,2.28217.44659.89637,1.6769.61658,2.7218.81222.88641.166,5.2747.13639,6.74341-1.40457l.65826,1.07851c2.83721.94532,4.68816-.7902,6.74331-1.914,1.78333-.97519,3.3329-2.34925,5.41018-2.83571a15.26369,15.26369,0,0,1,3.84558-.76483,36.71813,36.71813,0,0,0,4.38257-.02178C113.40946,66.11817,115.23576,65.94219,116.59148,64.89454Z" style="fill: #fff"/>
        <path d="M63.437,98.381h1.49871a6.557,6.557,0,0,1,.9085,2.00848c.18213,2.29361,1.3011,4.37186,1.39836,6.68609.02915.69391.65315,1.34254.81621,2.055a26.6495,26.6495,0,0,0,1.72257,5.65055c.11406.23874.01792.57029.05847.85324.10711.74728.23586,1.49147.40286,2.52778-.58581-.73417-1.353-.82074-1.82593-1.63157-1.1769-2.01789-2.687-3.84619-3.80692-5.891a49.46391,49.46391,0,0,1-2.23482-5.428,7.34437,7.34437,0,0,0-.27815-.76135c-1.117-2.07478-.63792-3.06571.80241-5.09237A10.166,10.166,0,0,0,63.437,98.381Z" style="fill: #fff"/>
        <path d="M87.9138,118.13849a39.8047,39.8047,0,0,1,2.14822-8.63424c.72893-2.29111,1.12023-4.64691,1.72014-6.95914.29106-1.12182.55749-2.25126.895-3.359a3.1351,3.1351,0,0,1,.59687-.83039H94.4731c.59435.72658,1.12548,1.37585,1.71747,2.09956l.46854,2.61577c-.413.88808-.7263,1.422-.9173,1.99647a24.32794,24.32794,0,0,1-3.77769,7.88074,13.76389,13.76389,0,0,0-1.45558,2.45532A8.27708,8.27708,0,0,1,87.9138,118.13849Z" style="fill: #fff"/>
        <path d="M73.998,113.7712c-1.40713-.28611-1.4722-1.8263-2.40689-2.51777-1.72816-3.7961-3.813-7.44294-4.87027-11.66378l2.154-2.80065,2.55175.33681c.95228,2.66509.59591,5.56919,1.25967,8.36112A42.77489,42.77489,0,0,1,73.998,113.7712Z" style="fill: #fff"/>
        <path d="M91.45182,99.644a51.93521,51.93521,0,0,1-6.3436,13.47965,3.90077,3.90077,0,0,1-1.00432.71682,46.84262,46.84262,0,0,1,1.33466-8.39742c.6481-2.73666.36081-5.5602,1.21459-8.31894.64736-.397,1.66783.35812,2.35024-.5964C89.805,97.548,90.58548,98.54137,91.45182,99.644Z" style="fill: #fff"/>
        <path d="M73.34686,97.03294c1.26845.0157,2.43154.12435,3.29592-.8929l1.15013,1.27277c-.15373,1.5777-.391,3.32919-.477,5.0881-.08542,1.74663-.0187,3.50071-.0187,5.25152V109.556c-.44687-.33473-.72807-.45293-.86726-.66453a14.24152,14.24152,0,0,1-1.70819-4.75049c-.46066-1.9991-.81205-4.02659-1.36453-6.00962A5.04109,5.04109,0,0,1,73.34686,97.03294Z" style="fill: #fff"/>
        <path d="M80.37986,97.24224l1.08236-1.04969a3.87992,3.87992,0,0,0,3.21842.81419c.31685,1.55151-.67713,2.82416-.76091,4.21339a25.10055,25.10055,0,0,1-.95138,4.22178,35.02839,35.02839,0,0,1-1.38116,3.914l-.77854-.10635c0-1.70306-.117-3.443.02868-5.16071C81.03344,101.77578,80.207,99.55868,80.37986,97.24224Z" style="fill: #fff"/>
        <path d="M56.09423,103.54816a3.28338,3.28338,0,0,1,3.12633-1.20168,114.78593,114.78593,0,0,0,4.024,10.94766.77755.77755,0,0,1,.00085.4321,1.98141,1.98141,0,0,1-.158.38141C59.60154,111.35523,57.78545,107.52645,56.09423,103.54816Z" style="fill: #fff"/>
        <path d="M94.81609,114.28064c.2319-2.36693,1.59786-4.07169,2.169-6.03633.56622-1.94782,1.25983-3.84677,1.90494-5.86807a3.10589,3.10589,0,0,1,3.09865,1.13591C100.41,107.48136,98.49656,111.2866,94.81609,114.28064Z" style="fill: #fff"/>
      </g>
    </g>
  </g>
</svg>
