<svg xmlns="http://www.w3.org/2000/svg" viewBox="0 0 1004 1007">
  <title>arc</title>
  <path d="M173,538q51,0,54.5,6T207,594q-22,38-63.5,114.5T81,823q-10,17-17.5,63.5t-8.5,79q-.99994,32.5,0,41.5,3-3,128.5-134.5T350,700l46,85q49,87,49,91,15,39,32.5,59.5T534,985V830q0-52,6-55.5T591,796l110,60,118,66q16,10,63.5,17t81,8q33.5,1,40.5,0-16-13-134.5-126T698,655l87-47q90-47,92-49,39-15,59.5-32.5T986,470H831q-52,0-55.5-6T797,413q22-38,63.5-114T923,185q10-16,17-63.5t8-81Q949,7,948,0,933,19,817.5,141T654,308l-47-85q-34-60-49-91-14-38-31.5-59.5T469,22q0,110,1,155,0,53-6,56.5T413,212q-38-22-114-63.5T185,86q-17-10-62.5-17t-83-9Q2,58,0,60,15,72,133,185T305,352l-86,47q-90,50-92,50-39,15-59.5,32.5T18,538Zm329,61-96-95,96-96,95,96Z"/>
</svg>
