<svg xmlns="http://www.w3.org/2000/svg" viewBox="0 0 158.30908 158.30957">
  <title>curse-cycle</title>
  <g id="Layer_2" data-name="Layer 2">
    <g id="Layer_1-2" data-name="Layer 1">
      <path d="M88.62471,79.155a9.72964,9.72964,0,1,0-9.72965,9.72964A9.72965,9.72965,0,0,0,88.62471,79.155Zm-2.53173,0a7.19791,7.19791,0,1,0-7.19792,7.1979A7.19792,7.19792,0,0,0,86.093,79.155Z" style="fill-rule: evenodd"/>
      <path d="M123.92093,79.155a9.67032,9.67032,0,1,0-9.67032,9.67032,9.6703,9.6703,0,0,0,9.67032-9.67032Zm-1.9621,0a7.70822,7.70822,0,1,0-7.70822,7.7082,7.70821,7.70821,0,0,0,7.70822-7.7082Zm-8.92542-6.84223a7.27247,7.27247,0,0,1,0,13.6832,6.94772,6.94772,0,1,0,0-13.6832Zm24.48777-.09794a12.68167,12.68167,0,0,1,0,13.87907q.16872.00818.3395.00818a6.94772,6.94772,0,0,0,0-13.89543q-.17075,0-.3395.00818Zm9.95623,6.94017a9.67032,9.67032,0,1,0-9.6703,9.67032,9.67029,9.67029,0,0,0,9.6703-9.67032Zm-1.96211,0a7.70821,7.70821,0,1,0-7.70819,7.7082,7.7082,7.7082,0,0,0,7.70819-7.7082Z" style="fill-rule: evenodd"/>
      <path d="M34.09913,79.155a9.67032,9.67032,0,1,1,9.67032,9.67032A9.67032,9.67032,0,0,1,34.09913,79.155Zm1.9621,0a7.70822,7.70822,0,1,1,7.70822,7.7082,7.70822,7.70822,0,0,1-7.70822-7.7082Zm8.92542,6.841a7.27248,7.27248,0,0,1,0-13.6832,6.94771,6.94771,0,1,0,0,13.6832Zm-24.48777.09793a12.68167,12.68167,0,0,1,0-13.87907q-.16868-.00817-.3395-.00818a6.94772,6.94772,0,1,0,0,13.89543q.17075,0,.3395-.00818ZM10.54265,79.155A9.67032,9.67032,0,1,1,20.213,88.82529,9.67032,9.67032,0,0,1,10.54265,79.155Zm1.96212,0a7.70821,7.70821,0,1,1,7.70819,7.7082,7.7082,7.7082,0,0,1-7.70819-7.7082Z" style="fill-rule: evenodd"/>
      <path d="M79.1543,158.30957A79.15479,79.15479,0,1,1,158.30908,79.1543,79.24456,79.24456,0,0,1,79.1543,158.30957Zm0-156.50977a77.3545,77.3545,0,1,0,77.354,77.3545A77.44223,77.44223,0,0,0,79.1543,1.7998Z"/>
      <path d="M132.86774,92.91052a55.69913,55.69913,0,0,1-107.94544,0H20.81744a59.68126,59.68126,0,0,0,116.15516,0Z"/>
      <path d="M24.92212,65.39868a55.69916,55.69916,0,0,1,107.9458,0h4.10486a59.6813,59.6813,0,0,0-116.15552,0Z"/>
    </g>
  </g>
</svg>
