<svg xmlns="http://www.w3.org/2000/svg" viewBox="0 0 427.33167 328.21014">
  <path d="M407.1767,159.88641c-9.33-15.23675-18.8216-30.37445-28.19928-45.58209-2.52-4.08661-4.93958-8.23846-7.29621-12.42169-3.498-6.20953-13.944-23.77448-13.944-23.77448L349.75537,74.508c-4.21716,2.5382-8.466,5.09545-12.84228,7.72937-4.36725-2.62757-8.6156-5.18354-12.94672-7.78937-4.3385,2.663-8.54059,5.24237-12.96381,7.95746-4.20666-2.65247-8.38672-5.28809-12.8103-8.07733-4.25348,2.60058-8.83459,5.24859-13.26434,7.95684l-.12167-4.49268s9.34005-5.9,13.37942-8.56762c4.46295,2.9256,8.57648,5.622,12.85614,8.42737,4.62268-2.9129,8.80987-5.459,13.07941-8.14935,4.43756,3.11688,8.73236,5.20788,12.725,8.0122,4.31732-3.00586,8.49188-5.16223,12.528-7.97223,1.8211.95972,4.75769,2.7168,6.19427,3.47382l-5.16949-9.04034c-4.26038,2.62908-9.33258,5.642-13.40046,8.15234-4.43493-2.60779-8.71026-5.12177-13.10437-7.70557-4.36865,2.62873-8.61731,5.18518-12.93713,7.78449-4.34656-2.67322-8.54773-5.257-12.71082-7.81732-4.52349,2.64019-8.89141,5.18951-13.49469,7.87622-.03428-2.24555-.0533-4.38783-.0533-4.38783s9.511-6.01995,13.54055-8.6704c4.34729,2.89819,8.57037,5.54687,12.55536,8.20349l13.35211-8.20166c4.34051,2.83673,8.58691,5.612,12.86578,8.40851,3.68952-2.51142,7.816-5.05976,11.366-7.47614l-2.36475-3.80047c-3.11584,1.7337-5.7456,3.83612-8.91473,5.59948-4.32172-2.54675-8.81525-5.29742-13.18945-7.87506-4.37464,2.57825-8.61792,5.0791-12.92853,7.61969-4.5426-2.65985-8.79236-5.14819-12.8858-7.545-4.49634,2.57623-8.86841,5.438-13.48462,8.083-.15424-1.70447.00036-3.25861-.09375-4.299,4.58258-3.038,8.96441-5.94274,13.50262-8.95129,4.64893,2.93066,8.83533,5.4773,13.06885,8.14606,2.40393-1.766,10.87585-6.88874,13.041-8.13715,4.47809,2.86359,8.63056,5.519,12.86908,8.22943,2.20246-1.4787,4.212-2.82776,6.60877-4.43689C326.12579,30.44189,304.52734,13.842,279.94513,0c-4.546,6.15509-8.93561,12.09833-13.46045,18.22473,2.47772,5.52924,1.941,11.54059,1.88733,17.48822a8.96835,8.96835,0,0,1-.86176,3.30841c-2.34771,5.48572-6.85443,8.83936-11.83807,11.64051a18.99355,18.99355,0,0,0-10.13348,16.561,104.759,104.759,0,0,1-1.23145,14.80457c-.91577,4.90387-2.15356,9.85607-5.44153,13.91027-1.70807-.94024-1.44177-2.37176-1.44879-3.66558-.02618-4.83283-.06287-9.66657.00183-14.49866a62.09017,62.09017,0,0,0-1.72119-13.18866c-.61411-3.03059-3.12585-6.53223-3.85217-9.96826,2.886-3.94709,6.72682-8.93873,4.62951-13.26569a7.03637,7.03637,0,0,0-2.221-2.74585c.74511,5.35932-.93786,7.38328-2.94287,8.33875a4.19619,4.19619,0,0,1-3.918-.24878,7.80437,7.80437,0,0,1-2.67109-2.85767c1.60816-2.88751,3.58154-5.76964,4.24323-8.31756.63148-2.43161.78361-4.00151,0-5.61689-.805-1.65938-1.93115-3.28027-4.69092-3.37127,1.39655,2.22107,2.871,4.73611,1.79279,6.402-2.00033,3.09059-5.57038,4.31885-9.42633,1.28095,4.04852-9.0445,3.70135-12.10132-2.27149-14.80756,1.58386,1.96338,2.41089,4.22586,1.27033,5.848-1.80756,2.5707-4.83582,2.56232-7.92286,1.708-1.74475-.48285-3.45227-1.14447-5.22308-1.47979-4.02252-.76154-7.98382-2.058-12.18579-.35724a5.22335,5.22335,0,0,1-5.31232-.72162c-1.40539-2.92969-.34924-5.42548,1.56739-7.70246,1.06976-1.27087,2.45459-2.30127,3.38928-3.65313a9.54714,9.54714,0,0,0,1.38116-3.664,4.32653,4.32653,0,0,0-1.24926-3.408c-2.2771,1.97265-4.21741,3.68872-6.19709,5.35809-1.76788,1.49078-3.85229,2.70258-5.30536,4.447-2.01281,2.41644-3.69537,5.17542-3.039,8.62952.1499.78876.36634,1.56488.654,2.77527-3.15167-1.961-3.48077-4.39051-2.22662-6.8161,1.51044-2.92127,3.52283-5.58,5.24878-8.39466a22.93043,22.93043,0,0,0,1.27-2.84656,42.62447,42.62447,0,0,1-8.87213,7.11676c-3.10639,2.05542-6.46986,4.42383-5.75726,8.68824.43187,2.5845,1.70172,4.92291,2.77331,7.319-3.56818,4.62243-8.89069,7.497-9.23035,13.71618-.3012,5.51484.635,10.60169,4.56433,15.19727,1.3003-5.89215,3.51226-12.24574,9.88147-11.73535,1.80481.14462,3.09565,1.10852,4.77631,1.791a10.86667,10.86667,0,0,1,2.57306-1.79956c1.34579-.457,2.91254-.12939,4.40393-.19568a23.38724,23.38724,0,0,1,2.1839-1.81244c4.74191-1.4582,5.46081-.04858,8.35681,2.81275-2.31712.40542-4.13734-1.01031-6.39624-.48017-2.54217.59663-6.1816,3.19436-8.45435,4.85663-1.70636,1.248-5.23681,2.49561-4.41223,6.68555,2.73688-1.10962,5.12311-2.24908,7.61939-3.0423,2.653-.843,5.33766-1.977,7.913-1.96515,1.55868.00715,2.77627.39372,4.06519.48841,3.21327.23605,8.23694,3.89026,11.1145,7.35846a12.2679,12.2679,0,0,1,1.49341,14.274c-1.25419,1.65692-2.06318,1.96029-3.3241,2.12946-1.45268.1949-2.81634-.41064-4.15191-.48682.94177,5.79535,7.94092,5.93,9.545,5.80152-1.61444,12.36383-10.16687,19.59533-18.10871,27.16308a37.76617,37.76617,0,0,1-14.42883-9.96008c-2.5683-2.87177-5.36322-5.47534-9.42273-6.6106-1.79547-.25043-3.98041-.55676-5.716.11481-3.7273,1.44214-7.26154.7796-10.67719-.36188-3.90515-1.30505-8.0448-2.71673-10.22705-6.61358-2.26446-4.0437-4.31421-8.27167-2.57861-13.0528-6.07568-4.80115-12.00018-9.48273-18.3429-14.49487-10.394,16.70148-20.35394,33.0191-30.28045,49.52753,2.36474,1.58947,4.51269,3.0332,6.5249,4.38574l13.04016-8.53528c4.54816,2.99072,8.80676,5.791,12.97022,8.52869,4.41467-2.89161,8.68414-5.68811,13.03308-8.53669,4.08313,2.69288,13.06329,8.81637,13.06329,8.81637l.0589,4.227c-4.185-2.574-9.10852-5.39087-13.23712-7.93018-4.49555,2.76807-8.69885,5.3562-12.90625,7.9469-4.48908-2.73742-8.817-5.37658-13.06592-7.96759-4.41479,2.72528-8.47668,5.73267-12.701,8.34033-2.58551-1.50372-8.40161-5.44482-9.04217-5.58465-.49457,1.0733-1.46528,2.34466-2.13349,3.79462,3.62341,2.45733,7.37811,4.83416,10.84692,7.18664,4.52173-2.88678,8.68525-5.54486,13.0694-8.34375,4.49536,2.85065,8.78089,5.56824,13.04914,8.27484,4.42761-2.82788,8.5899-5.48633,13.02246-8.31732,4.595,3.001,8.98718,5.86951,13.44806,8.7829l.01129,4.20361c-4.66577-2.684-9.40772-5.37433-13.613-7.79346-4.46979,2.63941-8.58368,5.06867-12.88678,7.60968-2.25738-1.32428-4.38055-2.56951-6.50336-3.8153-2.12414-1.24665-4.24792-2.49384-6.51818-3.82666-2.30542,1.3562-4.42939,2.60888-6.55652,3.85608-2.11982,1.24285-4.24286,2.4801-6.1529,3.59619l-13.24157-8.14533s-5.31808,8.79433-5.346,8.81868c.0354-.03082,3.7585-2.09181,5.7076-2.95179,4.17963,2.63232,8.61859,5.428,13.05084,8.21948,4.20545-3.0965,7.98786-6.31763,12.92688-8.295,4.14,2.64814,8.30377,5.31141,12.585,8.04987,4.37268-2.75952,8.6706-5.4718,13.21833-8.34167,4.59826,3.18762,8.91784,5.93206,13.27874,8.9552-.08569,1.09234.09009,3.03778-.00384,4.2351l-13.48706-8.02758c-4.21656,2.48187-8.70685,5.22772-13.0235,7.76855-4.58435-2.712-8.81494-5.21484-13.00476-7.69348-4.45148,2.6593-8.55036,5.10791-12.7608,7.62323-4.62909-2.65686-9.02118-5.17767-13.11554-7.52765-2.26807,1.28778-8.15524,3.62751-8.15524,3.62751S60.67,161.84045,55.30432,170.58179c-5.36584,8.74164-10.76831,17.46106-16.09338,26.22741-6.18628,10.18427-12.25336,20.44123-18.46979,30.60694-5.69568,9.314-11.5387,18.53784-17.27417,27.8277C2.38751,256.99225,1.25836,258.86432,0,261.215c6.03882.05407,11.79718.868,17.043-1.02076,4.64185-1.67126,9.29657-3.64294,11.34167-8.97845-1.53186-2.04083-1.06539-4.04932-.93371-6.14178.39212-6.23085,5.32135-9.5492,9.96759-12.04828a18.89388,18.89388,0,0,0,7.32934-6.28736Q61.3642,201.72794,78.17664,176.848c2.01977-2.99914,3.79689-6.74277,7.31482-7.856a5.21,5.21,0,0,1,3.83532,0c3.748,1.21122,5.28028,4.712,5.594,8.47632-1.22315.65039-2.36609,1.25818-3.77814,2.009-.90015-1.97064-1.43058-5.42076-4.158-4.66461-1.31986.36592-1.93805,1.79328-2.82,3.08832-8.37744,12.30139-16.8294,24.55567-24.98681,37.0025-8.70411,13.28107-17.1272,26.74659-25.633,40.15692-1.1264,1.77594-2.26721,3.70136-3.4491,5.89533,6.11872.67712,12.21369,1.05481,17.70478-.98389,4.272-1.58612,8.69909-3.53235,10.37365-8.25451-1.61535-7.76715,1.384-13.37452,7.82239-18.08344,2.85626-.39636,5.47315-2.38617,7.58453-5.05615,1.43042-1.80884,2.70936-3.74164,3.99579-5.65943Q94.443,197.77475,111.3089,172.631a8.937,8.937,0,0,1,3.48047-3.43481,5.12242,5.12242,0,0,1,4.40466-.25c4.9179,1.85543,5.23346,4.30365,6.02,8.88208-1.17615.38305-2.38391.77643-3.72669,1.2138-.98333-1.65795-.44059-3.80871-2.8695-4.0097-2.47446-.20476-3.24567,2.016-4.30438,3.60748-5.314,7.98859-10.52552,16.04523-15.79975,24.06031q-17.185,26.11532-34.38531,52.22045c-1.24121,1.88813-2.33857,3.87073-3.84943,6.387,5.97406-.14484,11.29358.72613,16.43366-1.03375,4.728-1.619,9.50482-3.31531,11.49218-8.64154-1.91436-4.4867-.04272-8.59264,1.49823-11.62861,1.538-3.03018,5.13678-4.43,6.92792-6.34808,4.10138-.79785,5.72241-3.32349,7.95178-6.64947q18.23484-27.20445,36.66956-54.27478c1.09253-1.61042,2.18388-3.4618,3.85113-4.21015a5.92877,5.92877,0,0,1,4.73.21845c3.66728,1.30305,4.54474,4.93414,5.54706,8.37524-1.46448.808-2.72552,1.50378-4.11816,2.27216-1.24481-1.7024-1.999-4.72616-3.9466-4.20258-2.01422.5415-2.906,2.81281-4.159,4.72662-7.52033,11.48658-14.91254,23.05707-22.44049,34.53864C111.0116,229.251,90.6214,260.07245,90.185,261.03381c9.38446.81263,18.30572.76178,25.9367-6.12542,1.17933-1.47156,1.21534-3.74652,1.33448-6.11725.3869-7.69916,3.48871-13.73444,11.22961-16.37207,2.25977-.77,3.52014-2.32141,4.73993-4.12335,6.67029-9.85358,13.3761-19.68317,20.03424-29.54493,5.55414-8.22668,11.02454-16.51019,16.61121-24.71454,1.381-2.02813,2.71543-4.362,4.70672-5.313a5.34,5.34,0,0,1,4.54492-.25c3.59564,1.12914,4.17511,5.59777,5.99463,8.65728-1.44891.7984-2.70178,1.48871-3.86731,2.13092-.96665-1.09231-1.512-5.62325-4.24426-4.58758a3.93518,3.93518,0,0,0-1.7395,1.55292c-8.36871,12.70977-16.68689,25.45288-25.08716,38.14172-7.03137,10.62115-14.19189,21.1568-21.22082,31.77954-3.20771,4.84772-6.23621,9.8139-9.62854,15.17267,3.67791,0,6.6723.112,9.65557-.02222,7.228-.32525,13.60053-2.52588,18.09479-8.655.53443-4.40228-.73462-8.96484,1.97455-13.12555,2.72492-4.18481,6.58814-6.39233,11.08618-7.6344,12.19977-16.7359,24.51648-33.1939,36.822-49.6715,3.89338,3.04968,4.7851,4.21618,6.2367,8.6173a163.94989,163.94989,0,0,1,5.391,19.02216c.91681,4.56281,3.0741,10.90177-1.48682,13.39215-1.60666.87728-5.7196-.50891-5.7196-.50891l.03918,11.3468c6.17438-.16,16.60991-3.13295,16.73475-9.66894.04181-2.18913-2.16761-3.65375-3.455-5.73255,2.40289-.99261,3.97742-.01175,5.32574,1.47943,3.88452,4.29613,2.32367,8.56134-2.058,11.74292a32.05644,32.05644,0,0,1-4.21985,2.60144c-11.97015,6.12061-23.07556,13.64191-34.28967,20.997a58.98634,58.98634,0,0,0-11.83374,10.90186,27.4596,27.4596,0,0,0-5.89508,11.74975c-.56891,2.3534-.78644,4.49891.28088,6.75068,2.16907,4.57617,3.561,9.25555.4093,14.82434,4.03614-2.04279,4.58942-5.82227,7.32117-8.16724,2.21661,3.89441,2.41449,8.12512,2.70758,13.23676,1.96777-3.94544,5.12854-8.98988,4.92419-9.87323-.23407-1.01189-2.964-3.589-4.34143-5.25684,2.09143-3.62671,1.16828-7.00372.13709-10.09521.55756-2.51136,1.05109-4.73456,1.544-6.95484,0,0,8.09558-.41061,9.2918.66834,3.08421,2.78183-.67167,6.15054-.64941,9.49926a6.46608,6.46608,0,0,0,2.03113,4.12342c1.68931,1.29658,2.89075,2.06506,5.14892,1.14789-.08209-3.13019-.71545-6.04566-.06829-8.64191.63421-2.54431,4.03188-5.58429,3.88946-7.04279-.1598-1.63655-7.64531-7.67538-5.84131-12.62518.92653-2.54218,2.58991-3.83264,5.33533-4.46265a5.65856,5.65856,0,0,0,3.87585-2.8172,13.48747,13.48747,0,0,1,2.38233-2.54376c4.45209-4.42737,9.39993-4.71714,13.33948-1.27386,2.35411,2.05756,2.16357,3.61749.62707,6.38806-1.43286-1.54749-2.24594-3.0764-3.89563-3.97717-2.95129-1.61149-5.90179.155-7.47845,2.45739a24.63541,24.63541,0,0,0-4.55158,13.38434c-.18951,5.8783,1.0716,11.48248,2.42273,17.09979.96686,4.01978,1.87732,8.01911,1.6615,12.21271-.26324,5.115-.03992,10.205-.8277,15.35535a54.23987,54.23987,0,0,1-3.70123,12.77057c-.47229,1.136-.89893,2.79107-1.3205,3.87072.65607-.04382.65607-.04382.78-.0628a23.51087,23.51087,0,0,0,19.87952-18.96814,12.13767,12.13767,0,0,0-.26733-6.38977c-1.72358-4.17853-1.71723-8.437-1.53717-12.732.22778-5.43365,1.67523-10.47723,5.9765-14.22375,3.63861-3.16931,5.72558-7.22858,7.15771-11.73785.57843-1.82123,1.405-3.56366,2.11859-5.34192.97473,7.28918-1.80591,13.3908-6.10852,18.71942a21.841,21.841,0,0,0-4.10009,8.3537,21.498,21.498,0,0,0-.75171,5.55346,28.1272,28.1272,0,0,0,.69256,5.09394c1.22132,6.84771,8.47144,12.16272,15.022,10.6585,3.98889-.916,8.00068-1.73171,11.80078-3.58551,5.7665-2.81306,10.722-6.13377,11.58679-13.04779.24685-1.97347-.97138-5.69842-1.65552-7.9046-3.08349,3.30329-5.48069,6.87661-8.87408,8.98889a8.49164,8.49164,0,0,1-5.41638,1.71405,6.94667,6.94667,0,0,1-5.27564-2.53534c-.90692-1.18222-1.04529-3.02911-1.17944-4.62939-.34528-4.11755,1.96734-7.32471,4.16241-10.39642,2.30054-3.21936,5.05792-6.11231,7.96674-9.56458V236.44177c5.36834-2.58062,10.62622-4.9928,15.77563-7.61773,4.63446-2.36243,9.67407-3.27491,14.64362-4.43421a4.24307,4.24307,0,0,1,5.09576,2.48175c-1.59772,4.20069-6.70239,3.77985-9.41211,6.91052v24.285c6.33441-5.24243,6.39014-5.41608,4.73419-14.71234.91309-1.77808,1.95282-3.8028,3.26966-6.36707,1.63122,2.00049,2.84759,3.49231,3.33221,4.08661,3.28772,3.16376,7.70807,2.45819,9.21375,5.916V252.804c-4.40717.90442-4.04761,5.06036-5.25409,7.84777-1.23676,2.85736-4.0717,6.42106-1.19666,9.86139a8.55354,8.55354,0,0,0,2.24048,1.9986c.87134-3.55365-.5094-7.024,1.67017-9.67572,1.92547-2.34247,3.74548-4.9931,7.287-5.24164,1.39411,10.81848,1.55243,11.08881,6.94471,12.18042-.6034-1.67761-1.16667-3.41138-1.84613-5.09833a10.93816,10.93816,0,0,1,1.17279-10.44323c1.92718-2.88208,2.97088-5.90532,1.78186-9.09833a11.13726,11.13726,0,0,0-4.82971-5.72266,9.44274,9.44274,0,0,1-4.65168-6.25348c-.61071-3.57122-.461-7.34463-1.70556-11.44519a16.08984,16.08984,0,0,0-1.24884-2.95977c-2.25171-4.07233-5.05555-5.22565-9.52887-3.71564A45.628,45.628,0,0,0,280.698,217.522c-1.0409.51044-1.98383,1.3949-3.07019,1.61048-6.98657,1.38635-13.92572,3.13427-21.34,3.50366v-9.05078c-3.52692,1.99847-6.56734,6.05588-11.07214,4.70923-1.45754-.43572-2.52448-1.98413-4.36469-3.19141.15253-1.72919-.22485-3.11945-.07355-4.83484,1.86194,1.48987,3.04887,2.98664,4.58783,3.42108,3.954,1.11618,6.31379-2.48114,7.74854-5.72265.53821-1.21595,1.18524-2.38324,1.752-3.5871q7.95219-16.89249,15.90992-33.78241a18.51828,18.51828,0,0,1,1.56042-2.32458c3.45032,1.99292,4.70062,5.07836,6.18231,8.56921V185.542c4.78266,7.46448,18.09125,10.64289,27.1156,7.8075a29.493,29.493,0,0,0-1.79522-3.98169c-6.58667-10.30811-13.17493-20.61615-19.88245-30.84571-6.5304-9.95941-13.1922-19.83282-19.81714-29.73-2.03-3.03259-3.762-7.57055-7.69366-6.77783-1.91329.38577-2.22016,2.08068-3.00391,3.53021-1.39545-.60388-3.29285-1.60046-4.31384-2.04235,1.24986-3.95608,3.20724-7.55136,6.91839-8.74805a5.29958,5.29958,0,0,1,4.0672.25,6.91255,6.91255,0,0,1,2.79395,2.43481c2.642,3.79676,5.21631,7.64093,7.79816,11.47925q10.80413,16.06192,21.60577,32.12555c.91907,1.36188,2.00287,2.61261,2.81891,3.66742,4.65094,1.57715,8.649,3.21307,10.93164,7.71167,2.19458,4.32513,2.47272,8.85944,2.46258,13.1203,5.18573,8.66205,19.48835,10.10693,26.89582,7.91309-.52881-1.05957-.96552-2.11573-1.552-3.08081q-6.70176-11.02754-13.45911-22.02137c-4.25458-6.90039-8.45026-13.84088-12.87158-20.63373-4.95844-7.618-10.09491-15.12188-15.261-22.60144-1.18286-1.71258-2.38069-3.77448-3.98364-3.70678-1.83866.07765-2.63,2.28216-3.74793,4.13592-1.40258-.59-2.70215-1.13672-4.4049-1.85309,1.623-2.88653,2.43486-5.69952,4.369-7.5202,3.90666-3.67744,7.10389-2.02411,9.89716,2.15985,8.263,12.37689,16.45239,24.8031,24.75525,37.153,2.20673,3.28235,4.71808,6.35992,7.03882,9.46374,5.23272.61322,7.73486,4.60254,10.36584,7.10993,2.72711,4.82818,1.41974,9.466,2.00727,13.6358,6.44482,7.73615,17.23681,10.39081,26.71765,7.70178.11767-2.368-1.61078-3.85443-2.6817-5.67877-9.04712-15.41193-18.28107-30.70624-28.26026-45.53937-3.97131-5.90289-7.94684-11.8031-11.87494-17.73468-1.11572-1.68469-2.66045-4.58873-4.97741-3.11761-1.303.8273-1.70508,2.70941-2.85346,4.154-1.24506-.79315-2.53686-1.45685-3.673-2.18066,1.32715-3.60663,2.72059-7.50125,6.36389-8.57025a4.71854,4.71854,0,0,1,3.882.25c3.09342,1.48168,4.8844,4.85455,6.9079,7.8482,8.15179,12.06006,16.15283,24.222,24.22955,36.33295,1.83429,2.75061,3.71393,5.43841,7.04584,6.67383,5.0094,1.85748,8.16809,5.53222,10.09765,11.08856v8.56872c4.704,7.41156,17.68231,10.6402,26.73242,8.04785a8.95447,8.95447,0,0,0-1.65576-4.50891c-.9956-1.52374-2.16357-2.94384-3.06482-4.5188-6.41-11.20117-13.18335-22.173-20.433-32.852-5.85474-8.62421-11.62769-17.30414-17.5116-25.90827-1.28888-1.88464-1.91831-4.28921-4.61218-4.1336-2.413.13938-2.35309,2.13287-3.57623,4.02136-1.46656-.75434-2.69171-1.38459-4.0611-2.089,1.35968-2.71857,2.32632-5.13277,3.89014-7.02814,2.2604-2.73964,5.79663-2.73736,8.47693-.34173a14.20677,14.20677,0,0,1,2.04632,2.77716c8.49457,12.63018,16.93567,25.29675,25.49573,37.88244,2.65271,3.90021,4.99274,7.85633,10.13568,9.64728,6.63562,2.31073,10.06922,11.02563,8.25391,18.1272,2.0794,7.14593,17.52691,12.01538,27.718,8.83722C420.60333,182.23254,413.98334,171.00232,407.1767,159.88641ZM185.50555,40.338a3.542,3.542,0,0,1-2.94879-1.5802c-1.09554-1.79275-.73852-4.10168,1.01026-6.07556,3.2807.60791,3.50537,3.40643,4.90759,5.82233C187.50269,39.10474,186.7814,40.29893,185.50555,40.338ZM218.879,164.33661q-.29591,0-1.50977-.07324-1.73-.10987-3.23926-.11035-2.57812,0-4.91455.11035c-.19628.01172-.39257.01855-.58886.01855q-.8833,0-.8833-.3125c0-.24609.15918-.36816.47851-.36816q2.33716,0,2.3374-1.45557,0-1.52929-5.41162-8.584a37.78982,37.78982,0,0,0-2.9541,3.98828q-2.365,3.43579-2.36474,4.31933,0,.62622.89257,1.105a5.78356,5.78356,0,0,0,2.273.58985q.68115.05419.68116.3584,0,.34131-.644.34082l-.68115-.01856-3.75488-.09179q-3.31348,0-4.54639.1289c-.51514,0-.77295-.12012-.77295-.3584q0-.34131.5708-.34082a5.58879,5.58879,0,0,0,2.29151-.46093,5.01536,5.01536,0,0,0,1.74853-1.26172q.70826-.80127,3.13818-4.23682,2.42945-3.4358,3.36817-4.92773-6.33179-9.24684-7.79492-10.43506a5.69446,5.69446,0,0,0-3.32227-1.29883q-.49731-.0359-.49707-.3584,0-.323.92041-.32275H203.381a2.94754,2.94754,0,0,1,.8374.06445.28206.28206,0,0,1,.13819.28516.278.278,0,0,1-.166.26709,5.159,5.159,0,0,1-1.21484.13818,1.989,1.989,0,0,0-1.06738.396.98017.98017,0,0,0-.4419.78271,11.56623,11.56623,0,0,0,1.76709,3.24219,45.78993,45.78993,0,0,0,3.29492,4.51318q.90162-1.08692,2.44776-3.28808a27.45793,27.45793,0,0,0,1.84082-2.82764,2.69487,2.69487,0,0,0,.29443-1.12354,1.37723,1.37723,0,0,0-.7085-1.24365,3.33672,3.33672,0,0,0-1.53711-.48828q-.79174-.05493-.7915-.40479,0-.31273,1.14111-.313h7.71241a4.54054,4.54054,0,0,1,.94726.05517.25434.25434,0,0,1,.17481.27637c0,.2085-.23243.32519-.69922.34961a5.59264,5.59264,0,0,0-3.1377,1.14209,23.74787,23.74787,0,0,0-4.04052,4.57764q-2.595,3.509-2.88965,4.09863a100.19572,100.19572,0,0,0,7.56494,10.38916q2.209,2.37671,4.06738,2.44971.66357.03808.66309.40527C219.57825,164.23309,219.34485,164.33661,218.879,164.33661Zm8.4209-6.86475a31.57152,31.57152,0,0,0,.33105,4.27,2.20217,2.20217,0,0,0,.69922,1.14063,3.828,3.828,0,0,0,1.915.626c.30664.03711.46.1543.46.34961q0,.33252-.4248.332l-4.57325-.0371-3.89062.05566q-.646,0-.64551-.36816,0-.38673.51465-.38672,1.7124-.03663,2.00683-1.14161a44.39829,44.39829,0,0,0,.29395-7.04931q0-5.74291-.10059-9.29492-.10107-3.55226-.59863-4.34375a2.50277,2.50277,0,0,0-1.87695-.99414q-.51562-.09156-.51563-.42334,0-.33106.3877-.33106l3.35547.07373,5.14551-.07373q.92137,0,.92187.36817,0,.27612-.49707.3496-2.04345.25782-2.54883,1.47266-.50684,1.21436-.50683,8.98193Q227.15247,153.90082,227.29993,157.47186Zm28.53808-17.1914a6,6,0,0,1,1.00293.04589.23912.23912,0,0,1,.17481.26709q0,.33107-.71778.4419a3.23942,3.23942,0,0,0-2.07031,1.00293,12.10855,12.10855,0,0,0-1.32519,1.91406q-.63574,1.114-3.39551,8.86279-.97705,2.72388-4.418,11.74317h-1.08594q-.86572-2.78028-2.72363-7.5835l-3.47949-8.96386a42.84353,42.84353,0,0,0-2.25391-5.19043,4.15517,4.15517,0,0,0-1.24316-1.39893,3.97247,3.97247,0,0,0-1.71094-.46q-.46143-.03663-.46094-.33154,0-.34936.46094-.34961h9.64453q.90089,0,.90137.313,0,.405-.58887.40479-2.42871,0-2.42969,2.08008a9.04955,9.04955,0,0,0,.22071,1.583,22.05956,22.05956,0,0,0,.76464,2.66845q.542,1.58351,2.33692,6.48828,1.79444,4.905,2.292,6.02784l3.93848-10.91455a25.098,25.098,0,0,0,1.69336-5.835q0-1.93212-2.39258-2.13476-.479-.03663-.47852-.34961a.25628.25628,0,0,1,.17481-.26709,4.40575,4.40575,0,0,1,1.02148-.06445Z"/>
</svg>
