<svg xmlns="http://www.w3.org/2000/svg" viewBox="0 0 994 994">
  <title>void</title>
  <path d="M39,304A489.502,489.502,0,0,0,0,497,496.75329,496.75329,0,0,0,39,691,509.92333,509.92333,0,0,0,145,848q69,70,158,107a496.7534,496.7534,0,0,0,194,39,489.50207,489.50207,0,0,0,193-39q91-39,158-107,68-65,106-157a488.02526,488.02526,0,0,0,0-387q-39-94-106-158Q778,76,690,39,595,0,497,0,401,0,303,39,217,75,145,146A484.609,484.609,0,0,0,39,304ZM502,69q171,0,289.5,112.5T924,461h-1v-6l-1-3v-2l-2-11-2-6-1-5-3-11a13.67631,13.67631,0,0,0-.5-3,13.67631,13.67631,0,0,1-.5-3l-2-5-1-6-2-5q-20-52-38-83-16-27-57-72a366.489,366.489,0,0,0-73-57q-33-20-84-40l-11-3-6-2-6-1-11-3-12-3q-4,0-5-1l-6-1a53.05607,53.05607,0,0,1-6-.5,53.05607,53.05607,0,0,0-6-.5l-12-1a4.07448,4.07448,0,0,1-3-1h-8a53.05607,53.05607,0,0,1-6-.5,53.05607,53.05607,0,0,0-6-.5H540a53.05607,53.05607,0,0,0-6,.5,53.05607,53.05607,0,0,1-6,.5h-5q-5,0-6,1a168.9799,168.9799,0,0,0-23,2q-1,1-6,1l-3,1h-3l-11,3h-4a2.881,2.881,0,0,1-2,1,4.438,4.438,0,0,0-2,.5,6.96415,6.96415,0,0,1-3,.5l-6,2h-3l-2,1a44.52406,44.52406,0,0,0-11,4h-3l-3,1a7.67441,7.67441,0,0,0-3,1,2.881,2.881,0,0,1-2,1l-6,2-2,1-3,1a12.55222,12.55222,0,0,1-5,3,38.798,38.798,0,0,0-5,2l-3,1-3,1a6.7839,6.7839,0,0,1-5,2,12.55222,12.55222,0,0,1-5,3l-2,1-3,1q-82,43-130,114-25,36-38,72a7.67471,7.67471,0,0,0-1,3,2.881,2.881,0,0,0-1,2l-2,4-3,10-2,4v3l-1,2-3,10a82.82347,82.82347,0,0,0-2,9l-3,10a42.79714,42.79714,0,0,1-.5,4.5,41.34382,41.34382,0,0,0-.5,5.5l-1,2v2a4.07438,4.07438,0,0,1-1,3v2q-5,44-1,75,5,40,14,67a394.4348,394.4348,0,0,0,25,56q27,39,31,44,1,2,8,9l8,10,9,8,5,4a16.3865,16.3865,0,0,1,2,2.5,16.386,16.386,0,0,0,2,2.5l5,4,5,4a32.77152,32.77152,0,0,0,5,4,29.79535,29.79535,0,0,1,4,3l10,7q8,6,11,7a5.76219,5.76219,0,0,0,4,2,203.60547,203.60547,0,0,1-38-16q-34-17-59-39-30-27-49-53-15-19-36-63l-1-2v-2l-2-4-2-4v-2a7.67471,7.67471,0,0,1-1-3l-3-8-1-5-2-4-2-9a2.881,2.881,0,0,0-1-2v-2l-1-5q-2-6-2-8l-2-9-1-5v-4l-2-9v-9q-1-2-1-9v-9l-1-5v-4q0-7,1-9v-9q0-3,.5-9t.5-9q1-2,1-9,1-1,1-4l1-5a30.6821,30.6821,0,0,1,.5-4,31.43061,31.43061,0,0,0,.5-5q2-6,2-8a82.82347,82.82347,0,0,0,2-9l3-9,4-14a273.897,273.897,0,0,1,18-44q17-34,36-59a26.6925,26.6925,0,0,1,5-7q1-3,5-7l5-6q4-4,5-7l23-24,24-22q5-4,13.5-10.5T299,143q52-35,103-53h2l2-1a4.07448,4.07448,0,0,1,3-1,7.67441,7.67441,0,0,0,3-1,7.67441,7.67441,0,0,1,3-1l6-2h1a4.07448,4.07448,0,0,1,3-1,7.67441,7.67441,0,0,0,3-1l6-2a6.96415,6.96415,0,0,0,3-.5,6.96415,6.96415,0,0,1,3-.5l12-3Q489,69,502,69ZM305,497q0-77,54.5-131T490,312q77,0,131.5,54T676,497q0,77-54.5,131T490,682q-76,0-130.5-54T305,497ZM495,925h-4q-170,6-288-108.5T70,533v1l1,5v3l1,1v2s.66663,3.66666,2,11l1,5,1,6,3,11,1,2a4.07466,4.07466,0,0,0,1,3l3,11v4l1,1q15,46,39,83a392.45676,392.45676,0,0,0,57,72q36,36,73,58,37,24,83,39l12,4a4.43779,4.43779,0,0,1,2,.5,6.96385,6.96385,0,0,0,3,.5l6,2,11,3q2,0,12,2a13.67577,13.67577,0,0,1,3,.5,13.67577,13.67577,0,0,0,3,.5l6,1q3,0,11,2,9,0,12,1h12q3,1,12,1h11q9,0,12-1h12l23-3a6.96385,6.96385,0,0,0,3-.5,6.96385,6.96385,0,0,1,3-.5h3a2.88109,2.88109,0,0,1,2-1l12-2,2-1h3l6-2h2a7.67475,7.67475,0,0,1,3-1l3-1,3-1,11-3,3-1,2-1,6-2q1,0,5-2l3-1,2-1,11-4,2-1,3-2a2.88109,2.88109,0,0,0,2-1,7.67475,7.67475,0,0,0,3-1,7.67475,7.67475,0,0,1,3-1,2.88109,2.88109,0,0,1,2-1l3-2,2-1q81-40,130-114a342.65824,342.65824,0,0,0,39-72l2-4a8.87558,8.87558,0,0,1,1-4v-1q4-7,4-9v-2a7.67512,7.67512,0,0,0,1-3,2.88113,2.88113,0,0,0,1-2v-1a4.07454,4.07454,0,0,1,1-3,2.88113,2.88113,0,0,0,1-2,4.43766,4.43766,0,0,1,.5-2,6.96357,6.96357,0,0,0,.5-3l3-9,3-10,1-1a23.17331,23.17331,0,0,1,.5-4.5,23.17331,23.17331,0,0,0,.5-4.5,82.81394,82.81394,0,0,1,2-9v-5q1-1,1-5,5-43,1-74a292.51972,292.51972,0,0,0-14-67,261.80013,261.80013,0,0,0-25-56q-18-29-31-45-1-2-8-9l-8-9-9-9-5-4-4-4-5-4a21.45111,21.45111,0,0,0-5-4l-9-8a38.06512,38.06512,0,0,1-10-7q-2-1-5.5-2.5A17.371,17.371,0,0,1,657,254l-4-3q31,12,38,16a354.35828,354.35828,0,0,1,59,40q26,20,49,52a393.86973,393.86973,0,0,1,36,63,4.07451,4.07451,0,0,0,1,3v1l2,5,2,4a4.43766,4.43766,0,0,0,.5,2,4.43766,4.43766,0,0,1,.5,2l3,9,2,4,1,4a82.81506,82.81506,0,0,1,2,9,2.88113,2.88113,0,0,1,1,2v3l1,4a82.81506,82.81506,0,0,1,2,9,82.81506,82.81506,0,0,1,2,9l1,4q0,4,1,5,0,7,1,9,0,7,1,9v9q0,7,1,9v22a4.43766,4.43766,0,0,1-.5,2,6.96351,6.96351,0,0,0-.5,3q0,12-1,17-1,2-1,9,0,2-1,2v3l-1,4a30.67638,30.67638,0,0,1-.5,4,31.42719,31.42719,0,0,0-.5,5,82.81394,82.81394,0,0,0-2,9l-2,8a82.81394,82.81394,0,0,0-2,9q-12,39-26,66a478.73969,478.73969,0,0,1-35,60,15.66916,15.66916,0,0,1-3,4,3.20326,3.20326,0,0,1-2,3l-5,6-6,7-5,6q-8,11-23,24-8,9-24,22a88.21719,88.21719,0,0,1-12,9.5,88.21719,88.21719,0,0,0-12,9.5q-52,37-104,53l-3,2a4.0746,4.0746,0,0,0-3,1,41.79057,41.79057,0,0,0-7,2,6.9637,6.9637,0,0,0-3,.5,6.9637,6.9637,0,0,1-3,.5,4.0746,4.0746,0,0,1-3,1,4.0746,4.0746,0,0,1-3,1l-6,2a16.43719,16.43719,0,0,0-4,.5,13.67515,13.67515,0,0,1-3,.5l-12,3A303.44,303.44,0,0,1,495,925Z"/>
</svg>
