<svg xmlns="http://www.w3.org/2000/svg" viewBox="0 0 270.31414 375.38702">
  <path d="M270.28864,182.36346c-.19391-4.10662-.05146-8.18371-.88745-12.29681-.84412-4.15289-.4466-8.55664-1.27558-12.71442-.71881-3.605-1.45813-7.36407-3.92157-10.41925a43.07766,43.07766,0,0,1-2.989-4.47973,79.0127,79.0127,0,0,0-10.07813-13.38312c-2.95495-3.077-6.20538-5.86267-6.20984-10.92737-1.02532.51935-1.58105.80078-2.13555,1.08167-1.78247-3.49677-3.38581-7.13471-3.69623-11.20844-.02167-.28479-.356-.54571-.74109-1.10016-.8039-.22748-1.85779-.52569-2.58136-.73047-.77228-1.06512-1.34314-1.85247-2.214-3.05365a11.24018,11.24018,0,0,0-.20331,2.336c.17859,1.11341.5213,2.2005.81848,3.38947-1.411,1.904-2.85577,3.85364-4.03936,5.45074-5.25586-.27337-8.6886-3.10962-12.50287-5.94244a33.9224,33.9224,0,0,1-2.38745-15.77472c-1.13508-1.91882-2.12812-3.59753-2.89655-4.89667.01715-9.07867.01715-9.07867-2.20093-10.892.19245,2.3462.36127,4.40467.55353,6.74927-.27386.30652-.82562.92389-1.2959,1.4502-.407,7.55877-.12958,15.10376-1.44159,22.36139-.89093,4.92822.13306,8.95269,1.82086,13.19934a7.96911,7.96911,0,0,1,.47046,1.37829c.5824,2.97132,2.48133,4.9386,4.90107,6.5246,2.87554,1.88477,5.7669,3.72614,9.16449,4.57874a9.54426,9.54426,0,0,1,1.716.80218c.14929,1.223.28686,2.34943.39081,3.20093,2.0592,2.74585,4.73474,3.43542,7.61535,3.30786a7.60172,7.60172,0,0,1,5.0625,1.62311,69.92181,69.92181,0,0,1,7.13465,6.14929c2.89746,2.91,5.34387,6.1568,6.11108,10.39374.37476,2.06939,1.27087,4.06219,1.49713,6.137.48981,4.49219,2.29773,8.90558,1.114,13.49249-.9748.34516-1.81519.64276-3.19318,1.13068,1.45819,1.051,2.4433,1.76093,3.49609,2.51965-.34155,1.21295-.73352,2.26532-.92852,3.353-1.26429,7.0498-3.47248,13.62714-8.8523,18.74738a11.81183,11.81183,0,0,0-2.32489,3.14581c-1.47436,2.89416-3.81226,5-6.19055,7.05456-3.74451,3.23487-7.69141,6.24176-11.35108,9.567a46.66009,46.66009,0,0,1-21.254,10.79608c-.38007-4.67383-.66712-9.08539-1.12067-13.4798-.31848-3.08654-.7207-6.17871-1.33575-9.21777a40.60684,40.60684,0,0,0-10.843-20.03583,19.58061,19.58061,0,0,1-1.99866-2.78454c-1.78461-2.72028-3.54224-5.45826-5.54675-8.55414,1.64038-1.53967,3.66461-3.28638,5.50983-5.20514,3.22393-3.35254,7.22705-4.95239,11.70684-5.71234a45.19707,45.19707,0,0,0,4.81488-1.38043c-1.46038-8.53949,2.62085-16.68451-.16186-24.92231.23633-.40466.71149-.83764.70257-1.26037-.12487-5.91724,1.11628-11.88788-.78289-17.74048-1.02594-3.16174-.58527-6.59992-1.28113-9.73651-1.22455-5.51941-2.297-11.21887-5.29413-15.11835-.6073-5.16534-1.10431-9.39239-1.67517-14.24762-1.06793,1.42529-1.75067,2.33649-2.80859,3.74835a33.70849,33.70849,0,0,0-7.94269-12.86108,5.9374,5.9374,0,0,0-2.09033-5.45874c-1.022.69916-2.06586,1.41327-3.03742,2.07794-2.31244-1.41034-4.26843-3.2478-6.54675-3.83539-3.0943-.798-5.65137-2.43866-8.444-3.73132a8.78778,8.78778,0,0,1-4.66327-4.82922,6.72489,6.72489,0,0,0-2.72547-3.52167c-.75293,1.8313-1.40258,3.4115-2.10571,5.12176-4.77081-1.28051-5.78613-5.09094-7.42017-8.36834.14075-5.21906.42743-10.43-3.56164-14.78077-.90717,5.74048-1.76837,11.19013-2.63641,16.68274-1.26563.87818-2.46076,1.7074-3.60193,2.49921-.266,2.13165-.832,4.15106,1.43347,5.60675.6391-.87146,1.28619-1.75378,1.96844-2.68408,2.26538,7.24646,6.45948,12.89776,12.89685,15.99548.73072,1.82977,1.26978,3.17969,1.794,4.49243,6.0622,1.549,11.67615,3.6875,16.52936,7.50025a10.17709,10.17709,0,0,0,2.15454,1.17,23.67487,23.67487,0,0,1,9.1842,7.53034,76.35086,76.35086,0,0,1-1.22741,8.77581c-.66748,2.69373-1.72791,5.90808-4.3938,6.82819-3.18256,1.09845-5.68012,3.18512-8.65167,4.51514-5.52,2.47076-10.86725,5.33172-16.41163,7.74224a14.27773,14.27773,0,0,0-7.41613,6.876,11.56178,11.56178,0,0,1-1.66333,2.41394c-4.03589,4.5484-8.10858,9.06415-12.39667,13.84436a24.07774,24.07774,0,0,0-3.56183-3.77753c-3.98767-2.81213-6.76959-6.57525-9.7027-10.39611a26.81786,26.81786,0,0,0-10.85064-8.34589c-3.30713-1.39307-6.52851-2.99823-9.86969-4.29919a75.27563,75.27563,0,0,0-9.24329-3.03632c-4.23846-1.04449-8.55988-1.7522-12.86414-2.60815-.278-.43628-.81628-.89-.76263-1.25739.54193-3.71155,1.074-7.56457,3.16522-10.68115a57.118,57.118,0,0,1,12.5293-13.39795c3.36249-2.59546,7.16247-4.61713,10.59741-7.12726,5.44354-3.978,10.93109-7.93243,16.05017-12.30633,4.374-3.73731,8.86817-7.46869,12.34253-12.10816,2.44678-3.26733,4.23114-7.02631,6.62793-10.33649,4.61536-6.37426,5.90207-16.60034,5.79285-24.24139-.1797-12.5708-.4458-20.65636-2.59748-24.5,0,0-3.54369,19.2746-7.65252,27.5-.80584,1.61318-2.00794,3.00525-2.86463,4.58765a48.08107,48.08107,0,0,1-10.70575,13.47558,16.7756,16.7756,0,0,1-2.598,1.41272c.38843-2.21667.64984-3.70819.91883-5.24335-.59858.16266-1.0882.29578-1.82392.49567V37.78143c-1.54938,2.33484-3.21191,4.605-4.59826,7.033-3.66718,6.42243-7.61847,12.559-13.35627,17.4336-2.64618,2.248-5.18036,4.40448-8.8363,4.85315-1.03845-.86066-2.12341-1.76-3.20837-2.65918l.14.13256c-6.47,7.50226-10.741,16.23279-14.03381,25.47022-2.83033,7.93988-5.58063,15.91748-6.37085,24.06964-2.634.42493-4.88025.92664-7.153,1.12524-4.82281.42145-9.14117,2.43634-13.42413,4.352-10.236,4.57819-20.40082,9.36719-26.89008,19.23047-3.3316,5.06385-7.268,9.84137-9.83691,15.26648-3.043,6.42652-5.10614,13.34967-7.22083,20.17322C-.37634,180.02948-.18738,186.128.46332,192.00543c.59192,5.3465,1.04285,10.73145,1.883,16.04492C2.95185,211.88,3.887,215.72,6.28,218.97974c1.06323,1.4483,2.09155,2.93048,3.02332,4.46551a71.87535,71.87535,0,0,0,10.7384,14.11707c2.85638,2.81653,5.52686,5.61047,5.50977,10.1101l2.613-.95257c1.334,3.98718,2.66132,7.95416,4.14166,12.37866.59711.18482,1.64441.509,2.412.74664.78729.96259,1.41388,1.72858,2.04041,2.49457q.3153-.16122.63061-.32239c-.28869-1.56707-.57739-3.13409-.92352-5.01281,1.26318-1.71216,2.7077-3.67023,3.91693-5.30945,5.35657.2865,8.89093,3.24945,12.79053,6.21429a60.46516,60.46516,0,0,1,2.01489,7.6947,56.95352,56.95352,0,0,1,.07794,7.81489c1.1117,1.83734,2.12171,3.50653,2.93207,4.84588-.02008,9.01752-.02008,9.01752,2.18719,11.09747-.193-2.43139-.35632-4.48992-.54779-6.90234.21485-.2456.76044-.86914,1.50568-1.72089,0-2.94781-.5802-6.241.11829-9.23608,1.552-6.65509.0484-13.49963,1.927-19.12787-1.261-3.34778-2.38556-5.7298-3.04224-8.23443a10.25921,10.25921,0,0,0-4.8872-6.54407c-3.50477-2.0362-7.16095-3.81165-11.022-5.84027-.07812-.74311-.19659-1.86945-.29089-2.76587-2.68543-3.6405-6.455-3.30683-10.20789-3.48712-5.598-3.65955-10.9613-7.72565-14.808-14.57733-1.95361-6.94513-4.14386-14.77576-3.81305-22.82831,1.25061-.62647,2.13538-1.06958,3.20642-1.60608-1.358-1.04083-2.34582-1.798-3.25189-2.49243a29.29488,29.29488,0,0,0,.93774-3.07038c1.28913-7.03186,3.42774-13.63635,8.79431-18.77673a42.25035,42.25035,0,0,0,2.66846-3.51807,68.60779,68.60779,0,0,1,5.873-6.65771c3.64886-3.33692,7.67517-6.26093,11.32818-9.59369,6.047-5.517,13.10688-8.88379,21.3147-10.85632.37091,4.4508.6767,8.69,1.08893,12.91876a73.86765,73.86765,0,0,0,2.67554,14.39837c1.666,5.48407,4.95855,9.92493,8.45459,14.28553,1.12963,1.409,2.301,2.79437,3.31274,4.28589,1.74054,2.566,3.37091,5.20691,5.32422,8.24694a49.4956,49.4956,0,0,0-4.05829,3.69562,20.74148,20.74148,0,0,1-14.11017,7.22125c-1.22211.1026-2.386.89917-3.93945,1.52131,1.6709,8.28521-2.61524,16.428.21771,24.71008-.21167.37042-.6734.80127-.66876,1.227.06457,5.91687-1.11786,11.87549.74261,17.73645,1.00244,3.15808.6167,6.59436,1.29529,9.73553,1.19379,5.52576,2.26892,11.2287,5.29321,15.16974.60315,5.11914,1.10138,9.348,1.67139,14.186l2.79743-3.57337c1.92333,4.97864,4.36364,9.2135,7.20806,11.99628.92621,2.66644,1.54224,4.44012,2.32355,6.68957l3.49079-2.587c2.33636,1.42377,4.29028,3.2149,6.56762,3.85474a52.47428,52.47428,0,0,1,8.44965,3.714,8.968,8.968,0,0,1,4.67328,4.82312,6.73711,6.73711,0,0,0,2.76391,3.5578c.72528-1.79394,1.368-3.38372,2.06189-5.1,4.77814,1.22638,5.79425,5.04437,7.38135,8.18329-.20361,9.215.58649,11.43414,3.68677,14.66412.85309-5.41736,1.71142-10.868,2.58093-16.3894q1.86237-1.2942,3.58423-2.49066c.29523-2.11878.8548-4.12647-1.40729-5.62635-.63513.88434-1.27551,1.77594-1.9447,2.70771-2.309-7.21113-6.44513-12.91089-12.95563-16.03052-.70178-1.7829-1.23431-3.13581-1.73932-4.41876-6.01172-1.70154-11.68188-3.713-16.53442-7.537a12.72631,12.72631,0,0,0-2.9895-1.69623c-3.48871-1.44635-5.96631-4.02747-8.42462-7.11139.38226-2.68213.6441-5.45935,1.20141-8.176.60535-2.95081,1.79834-5.79938,4.42542-7.43933a89.88612,89.88612,0,0,1,8.68988-4.37037c5.45-2.62756,10.85455-5.36261,16.3963-7.782a14.27052,14.27052,0,0,0,7.43286-6.86377,11.44848,11.44848,0,0,1,1.65289-2.41992c4.04-4.55444,8.118-9.07526,12.42316-13.87433a24.17782,24.17782,0,0,0,3.53686,3.77478c3.96625,2.83063,6.84418,6.50434,9.71515,10.39368a25.9997,25.9997,0,0,0,8.29065,6.85651c4.83826,2.67584,10.03443,4.72009,15.13312,6.90545,6.17889,2.64838,12.87915,3.193,19.30676,4.39777.37091.57306.91492,1.02551.86206,1.39178-.53619,3.71332-1.06756,7.56952-3.15936,10.684A57.18612,57.18612,0,0,1,178.442,275.37787c-3.363,2.5954-7.16474,4.61542-10.60016,7.12555-5.44446,3.97815-10.95044,7.91522-16.04468,12.31616-4.09912,3.54126-8.51629,6.88739-11.68243,11.35761-3.31342,4.6781-6.32117,9.57867-9.34033,14.45758-3.38013,5.46209-4.20465,11.60589-4.39893,17.87371-.05646,1.82087-.56464,3.89515.111,5.42078,1.97534,4.46063,1.71118,9.27753,2.7088,13.87793,1.2392,5.71417,1.74823,11.58667,2.59943,17.57983,1.12195-2.05023,2.19-3.90966.83838-6.27288a3.14953,3.14953,0,0,1-.21588-2.39991c1.4024-3.542.629-7.21557.83288-10.822.30646-5.42261,2.10456-10.53253,3.22412-15.783a9.2917,9.2917,0,0,1,1.40473-2.58526c1.78241-2.94757,3.69806-5.82129,5.3468-8.84113a29.26181,29.26181,0,0,1,7.16345-8.77563c3.78516-3.09442,7.66162-6.077,11.88281-9.41108,0,2.65827.008,4.96772-.00225,7.277-.01032,2.31592-.10364,4.64606,1.57049,6.747,2.63349-4.52966.90717-9.43426,1.65772-14.821,1.05157-1.57343,2.19824-4.05963,4.036-5.82758,1.9353-1.86175,4.53094-3.03711,6.7395-4.44934.66681.38812,1.08771.63306,1.53265.892l4.15094-3.95166c.67389-2.69092.36585-5.5722,3.30817-6.84552.02984,2.59552.05969,5.19452.10223,8.89655,4.11688-9.16919,6.91065-17.66675,12.23462-25.00977-.45624,2.83289-.67737,5.49518,1.302,8.16681,2.22187-10.00635,3.04328-20.06037,5.88123-29.7768,2.14709-.27948,4.4046-.55957,6.658-.86962,4.89331-.67328,9.41-2.58783,13.879-4.50843,11.78869-5.06616,22.64538-11.39148,29.45153-22.91583,2.40741-4.07629,5.24006-7.92621,7.35962-12.14044a76.17324,76.17324,0,0,0,4.75037-12.27936C268.52155,193.634,270.56623,188.24115,270.28864,182.36346Zm-187.03882-33.572c-1.87293-5.84289-3.43158-11.78656-5.2132-17.97046A15.05681,15.05681,0,0,1,89.139,132.68341a87.08869,87.08869,0,0,0,8.40582,3.89819c7.79248,3.60187,14.12683,9.11048,19.57111,15.5951a44.04959,44.04959,0,0,1,7.68957,12.50494c.2262.59308.36823,1.21814.64942,2.16632-5.61054,2.09308-10.18128,6.727-17.19055,5.34039-.38843-1.00671-.83277-2.15838-1.42719-3.69915-.75983.30059-1.58014.62518-2.82226,1.1167-.72858-.666-1.33808-1.223-2.0467-1.87073-.63586.26825-1.32409.55865-2.20526.93042A33.75048,33.75048,0,0,1,83.24982,148.79144Zm40.38452,62.9162c-2.21472,2.44342-4.31018,4.99567-6.54553,7.41937a23.771,23.771,0,0,1-3.66944,3.3252c-8.16046,5.77032-16.40515,11.42181-24.54162,17.22534-2.546,1.816-4.83441,3.9914-7.26434,5.97339a18.70683,18.70683,0,0,1-2.02143,1.19989c-.24249-5.30249-2.78857-9.69623-2.30206-14.787a77.32933,77.32933,0,0,1,3.20947-16.22925c.44135-1.38488.68854-2.84539,1.25189-4.175,1.48035-3.49378,3.19977-6.81006,6.10852-9.44806,3.44129-3.12091,6.66559-6.48108,10.14-9.89069,3.15832,1.76709,6.1839,3.69251,9.8211,4.11133,2.427.27948,4.84327.66662,7.25367,1.0694,2.08.34759,4.145.78527,6.31994,1.203,1.69623,2.28174,3.35547,4.51379,4.86408,6.54309C126.50238,208.0882,125.2323,209.94464,123.63434,211.70764ZM127.24,201.49457c-1.50415-.86017-2.71649-1.55347-4.82275-2.758H127.24Zm-2.194-19.77374h3.09082C127.80383,183.23383,127.80383,183.23383,125.046,181.72083Zm21.2265-26.68311a102.50725,102.50725,0,0,1,8.27912-9.20166,83.402,83.402,0,0,1,9.85779-7.33246,281.52815,281.52815,0,0,0,24.90789-18.496,6.34786,6.34786,0,0,1,1.65992-.60687c.23236,5.05609,2.76165,9.45971,2.27917,14.55078A76.6793,76.6793,0,0,1,190.04,150.17883c-.44275,1.38428-.68689,2.84558-1.24963,4.1753-1.479,3.495-3.20612,6.80688-6.11389,9.44445-3.44013,3.12049-6.66394,6.47931-10.139,9.88935-3.15277-1.80329-6.19232-3.69464-9.8263-4.11988-2.42663-.28393-4.84344-.667-7.25384-1.07055-2.07953-.34821-4.1438-.788-6.3114-1.20587-1.69946-2.28791-3.35767-4.52015-4.80341-6.46643A6.8036,6.8036,0,0,1,146.27252,155.03772Zm-2.8789,9.38757c1.45575.918,2.60864,1.645,4.43243,2.795h-4.43243Zm-1.637,17.87458c1.76245.81781,2.61969,1.21557,3.5633,1.65344C143.92981,184.85211,142.88208,184.93018,141.75659,182.29987Zm38.7937,50.41882c-2.36309-1.63751-5.34088-2.37061-8.0017-3.59924-7.63947-3.52753-13.8241-8.95655-19.13233-15.33692a44.225,44.225,0,0,1-7.69879-12.50122c-.22443-.59369-.346-1.22626-.59924-2.14563,5.59741-2.11072,10.18823-6.73419,17.19592-5.27844.37842.99975.81873,2.163,1.38422,3.65686l2.774-1.10736c.60218.52392,1.327,1.15448,2.1377,1.85992.6369-.27142,1.33026-.56683,2.20038-.93756a33.92335,33.92335,0,0,1,16.494,19.923c1.85815,5.84082,3.4306,11.77252,5.25476,18.09234C187.682,235.8335,184.03955,235.13666,180.55029,232.71869Zm4.73719,56.73572-.00537.05426-.01728-.01593.02265-.03833h0q.082-.8281.164-1.65625l.6784.23126Q185.70874,288.742,185.28748,289.45441Z"/>
</svg>
