<svg xmlns="http://www.w3.org/2000/svg" viewBox="0 0 204.40449 204.40449">
  <title>iron-banner_1</title>
  <g class="Layer_2" data-name="Layer 2">
    <g class="Layer_33" data-name="Layer 33">
      <rect class="square" x="45.66131" y="45.66111" width="113.08208" height="113.08208" transform="translate(102.20221 -42.33365) rotate(45)" style="fill: none;stroke: #fff;stroke-miterlimit: 10;stroke-width: 0.75px;opacity: 0.15"/>
      <polygon class="polygon outer" points="135.7 21.241 68.704 21.241 21.331 68.614 21.331 135.61 68.704 182.984 135.7 182.984 183.074 135.61 183.074 68.614 135.7 21.241" style="fill: none;stroke: #fff;stroke-miterlimit: 10;stroke-width: 0.75px;opacity: 0.15"/>
    </g>
    <g class="iron-banner">
      <path d="M102.213,31.786a70,70,0,1,0,69.99973,70.00027A70.07927,70.07927,0,0,0,102.213,31.786Zm0,137.9965a67.9965,67.9965,0,1,1,67.99623-67.99623A68.07337,68.07337,0,0,1,102.213,169.78245Z" style="fill: #fff;opacity: 0.2"/>
      <path class="polygon inner ani" d="M102.213,31.786a70,70,0,1,0,69.99973,70.00027A70.07927,70.07927,0,0,0,102.213,31.786Zm0,137.9965a67.9965,67.9965,0,1,1,67.99623-67.99623A68.07337,68.07337,0,0,1,102.213,169.78245Z" style="fill: #fff;opacity: 0.8"/>
      <circle cx="102.21274" cy="101.78599" r="58.04531" style="fill: #4a7850;opacity: 0.9"/>
      <g>
        <polygon points="148.807 66.193 148.807 66.193 148.821 66.207 148.807 66.193" style="fill: #fff"/>
        <path d="M174.761,59.83837l-.00257.03721c.00948-.00587.01672-.0131.02628-.01889Z" style="fill: #fff"/>
        <path d="M155.55156,94.559a4.302,4.302,0,0,0-3.94141-2.83148,4.78492,4.78492,0,0,0-2.87689,1.03375,7.09542,7.09542,0,0,0-2.03638,2.92914c-.40124.89313.212,1.44842.80506,1.98547.12359.11194.24444.22144.3529.33106a2.67376,2.67376,0,0,0,1.91815.79065,2.4954,2.4954,0,0,0,1.98719-.87635,1.10453,1.10453,0,0,0,.1831-1.01977c-.07452-.23236-.20361-.26373-.32007-.26373a2.14172,2.14172,0,0,0-.71814.2232,2.7886,2.7886,0,0,1-.65612.22327,2.4169,2.4169,0,0,1-.32782.02325A1.1353,1.1353,0,0,1,148.702,96.323a1.73349,1.73349,0,0,1,.40979-1.90424,3.44887,3.44887,0,0,1,2.2456-1.1391,2.5995,2.5995,0,0,1,1.57343.62427,3.50966,3.50966,0,0,1,.92957,4.719,5.7597,5.7597,0,0,1-4.36322,2.97187,10.5058,10.5058,0,0,1-1.22083.07123,12.466,12.466,0,0,1-4.99481-1.11884c-.61878-.27075-.9621-.59186-1.04968-.98163a1.7705,1.7705,0,0,1,.60717-1.46545,1.81229,1.81229,0,0,1,.18518-.17652,1.48126,1.48126,0,0,0,.1673-.15985c.12445-.14734.26819-.2879.40717-.42383.49194-.48107.95654-.93554.657-1.70977a3.81665,3.81665,0,0,0-2.55243-2.30725,1.11094,1.11094,0,0,0-.335-.05487.62146.62146,0,0,0-.589.34222.69017.69017,0,0,0-.0777.56793.78659.78659,0,0,0,.512.39319,2.71041,2.71041,0,0,1,.85962.51056,1.103,1.103,0,0,1,.36249,1.22717,1.33493,1.33493,0,0,1-1.15924.94879,4.38665,4.38665,0,0,1-.67572.05176,6.01949,6.01949,0,0,1-4.94568-2.93469,8.06977,8.06977,0,0,1-1.03827-4.961,4.66729,4.66729,0,0,1,2.73352-3.91516,2.77415,2.77415,0,0,1,1.31623-.33984,5.58973,5.58973,0,0,1,2.82824,1.13952l.04218.02643a1.9711,1.9711,0,0,1,.78821,2.46405,2.73221,2.73221,0,0,1-2.33081,1.75818,1.29468,1.29468,0,0,1-.25928-.02521,1.02244,1.02244,0,0,1-.81336-.52392.93647.93647,0,0,1,.2088-.87787c.46692-.66712.6341-1.13648.10669-1.56122a.294.294,0,0,0-.18847-.05475,2.52409,2.52409,0,0,0-1.79016,1.52319,2.40569,2.40569,0,0,0,.59674,1.97138,2.85784,2.85784,0,0,0,2.092,1.1546,1.69065,1.69065,0,0,0,.28515-.02393,4.65228,4.65228,0,0,0,3.77955-3.78326,4.73714,4.73714,0,0,0-3.28931-4.45215,7.22757,7.22757,0,0,0-2.14386-.36041,4.50446,4.50446,0,0,0-3.666,1.83191,4.29871,4.29871,0,0,1-.55712.54046c-.0561.04816-.11213.09632-.16712.145a.78648.78648,0,0,1-.49957.23127.451.451,0,0,1-.31055-.12366,1.12133,1.12133,0,0,1-.35553-.70349,6.9947,6.9947,0,0,1,.30841-1.63709c.72-1.82373,5.93659-11.60363,10.459-13.88415a8.08121,8.08121,0,0,1,3.59613-.91284,6.34039,6.34039,0,0,1,.90112.06372,3.935,3.935,0,0,1,3.105,1.93829,4.4186,4.4186,0,0,1-.18383,4.042,6.933,6.933,0,0,1-4.54072,3.626,5.12881,5.12881,0,0,1-1.319.19849,1.82287,1.82287,0,0,1-1.82745-1.04413,3.11713,3.11713,0,0,1,1.49561-3.81861.98749.98749,0,0,1,.46057-.11548,1.66457,1.66457,0,0,1,.44513.0763,1.36865,1.36865,0,0,0,.34991.06372.58268.58268,0,0,0,.31439-.09253.69513.69513,0,0,0,.36249-.66858,1.17545,1.17545,0,0,0-.70367-.93414,2.35826,2.35826,0,0,0-.94037-.21271,1.42993,1.42993,0,0,0-1.01233.37872,30.669,30.669,0,0,0-2.8078,3.00415,2.01624,2.01624,0,0,0,.02985,2.38215c.62719,1.20349,1.93988,2.50238,2.967,2.50238.03534,0,.07019-.00153.10479-.00483.19812-.01855.38288-.028.5492-.028a1.5032,1.5032,0,0,1,1.34088.48553c.33386.50128.10925,1.3-.36127,2.42615-.889,2.12775.11084,3.78693,1.21118,5.30389A2.79991,2.79991,0,0,0,149.701,89.7323a5.28886,5.28886,0,0,0,2.1803-.52869,4.20983,4.20983,0,0,0,2.339-3.8117,2.98254,2.98254,0,0,0-1.81281-2.29877.69208.69208,0,0,0-.33685-.09607.52507.52507,0,0,0-.405.19189.60791.60791,0,0,0-.04309.76008,1.48917,1.48917,0,0,0,.15491.2019c.04822.05621.09637.11267.13861.173,1.02472,1.46289,1.04443,2.03986.09589,2.80616a2.7409,2.7409,0,0,1-1.72577.64416,2.51237,2.51237,0,0,1-1.7663-.74774,3.03446,3.03446,0,0,1-.71826-3.48834c.21222-.35376.41064-.72657.60248-1.087a10.17475,10.17475,0,0,1,1.75512-2.601,22.77967,22.77967,0,0,0,2.06861-2.45911l.10711-.1402a7.1284,7.1284,0,0,0,1.53272-4.91009,5.47173,5.47173,0,0,0-4.31287-5.22663,7.98831,7.98831,0,0,0-1.91662-.23889,10.229,10.229,0,0,0-5.77881,2.08991A21.15848,21.15848,0,0,0,138.37407,71.96c-.49616.52216-.8429.73511-1.19666.73511-.42242,0-.82269-.307-1.37121-.83716a3.19871,3.19871,0,0,0-2.24573-.9906,2.42052,2.42052,0,0,0-1.74127.69824c-.0293.03095-.0622.07508-.05286.10968.0401.14929.53436.29566.74542.35816l.09186.02746c1.83649.55933,1.96161.81855,2.09412,2.5951a11.10742,11.10742,0,0,1-1.67328,5.84765c-.31732.61939-.61676,1.262-.90637,1.88336-.443.95057-.90107,1.93348-1.43549,2.86109a7.05124,7.05124,0,0,1-3.13068,3.06891,5.031,5.031,0,0,1-2.14459.50952,4.14378,4.14378,0,0,1-3.54754-2.04206,1.68017,1.68017,0,0,1-.01948-2.18743c.1363-.13031.26954-.27393.40461-.4195a2.7868,2.7868,0,0,1,1.98059-1.17987,2.04827,2.04827,0,0,1,.32782.02722.93583.93583,0,0,1,.77209.572,1.61386,1.61386,0,0,1-.41467,1.51514,1.77121,1.77121,0,0,1-.37616.31464c-.194.1347-.37738.262-.39337.41577a.55954.55954,0,0,0,.20337.39264.77178.77178,0,0,0,.58465.24212,1.74634,1.74634,0,0,0,.86908-.28228,11.64084,11.64084,0,0,0,1.70954-1.32618.88293.88293,0,0,0,.19683-1.00177,6.144,6.144,0,0,0-3.72015-2.56048l-.067-.00061a3.89807,3.89807,0,0,0-3.22552,1.7558,4.17955,4.17955,0,0,0-.32672,3.97235,2.165,2.165,0,0,0,.23016.39026c.04944.0722.09888.14453.14368.21887.73846,1.22461,1.07257,1.77862.89856,2.20147-.17359.42176-.79627.579-2.16052.92359l-.19342.04883a13.9831,13.9831,0,0,0-7.27222,4.4895,27.38093,27.38093,0,0,0-5.36011,8.54663c-.02869.07794-.05426.16376-.0805.25165-.12177.40765-.27326.915-.82325.915a1.12894,1.12894,0,0,1-.30792-.04755,1.29615,1.29615,0,0,1-.84631-1.73224,9.78861,9.78861,0,0,1,1.37536-3.15332c.30957-.44336.60883-.907.8982-1.35535.45007-.6972.9154-1.41821,1.433-2.08441a13.97146,13.97146,0,0,0,2.38477-6.20618,7.25717,7.25717,0,0,1,2.0653-3.753l.08844-.09314.08692.09455c.23712.258.46374.5404.68286.81354.73309.91369,1.42548,1.77667,2.47919,1.77667a2.59786,2.59786,0,0,0,1.074-.26007,2.16406,2.16406,0,0,0,1.28009-1.12146,1.46692,1.46692,0,0,0-.13977-1.13745c-.03747-.00251-.075-.00641-.11169-.01038a1.37267,1.37267,0,0,0-.14057-.01056.1629.1629,0,0,0-.08392.01471,3.35321,3.35321,0,0,0-.47644.39832,1.68864,1.68864,0,0,1-1.10614.61547,1.21615,1.21615,0,0,1-.61633-.18548,2.85411,2.85411,0,0,1-1.1319-2.178,6.23686,6.23686,0,0,1,1.6875-5.0412c2.05463-2.56616,4.44183-5.10516,7.96674-6.29742a5.37385,5.37385,0,0,1,1.74224-.3042,5.44008,5.44008,0,0,1,2.76752.81341c1.28858.73719,1.87171,1.61664,1.7331,2.61389a3.94129,3.94129,0,0,1-1.95887,2.42371l-.24029.17462a.76708.76708,0,0,1-.45978.15882.83617.83617,0,0,1-.58856-.26569,1.36725,1.36725,0,0,1-.3692-.97565,1.94726,1.94726,0,0,1,.41632-1.2l.05352-.06879c.12323-.15661.32953-.41882.29047-.59686a.28548.28548,0,0,0-.17065-.18066.88421.88421,0,0,0-.40467-.1015c-.7-.00007-1.36206.89007-1.59777,1.75073-.24073.87933.58581,2.13244,1.80487,2.73627a2.71059,2.71059,0,0,0,1.19531.3269,2.07023,2.07023,0,0,0,1.36725-.56708,5.52082,5.52082,0,0,0,1.75244-5.87054,3.60936,3.60936,0,0,0-3.31238-2.671l-.45428-.05023a20.148,20.148,0,0,0-2.2143-.16614,5.296,5.296,0,0,0-3.57153,1.15594,3.10024,3.10024,0,0,1-.58631.31732c-.05163.02338-.09051.04053-.10565.04932-.18792.12579-.376.25672-.56152.39136q-.142.103-.28235.20868l-.13147.09967-.03961.03027c-.37738.2956-.74121.59125-1.10346.88947-.49792.49316-.97576,1.03009-1.43786,1.54937a23.10847,23.10847,0,0,1-2.15112,2.21045,16.035,16.035,0,0,0-2.59217,3.09894,23.51851,23.51851,0,0,1-1.65307,2.17279,12.45249,12.45249,0,0,0-2.52936,4.61865c-.01654.05622-.05322.21888-.10749.45826a27.23582,27.23582,0,0,1-1.79254,5.7713.85583.85583,0,0,1-.33618.3277,5.33264,5.33264,0,0,1-1.84814,1.05206l-.25067.09521.096-.25036a6.04568,6.04568,0,0,0,.09485-.96887c.15454-2.45942.56519-8.9925,4.62921-20.01545.17975-.48755.44324-.73474.78327-.73474a1.64329,1.64329,0,0,1,1.0625.61957c1.332,1.35754,2.00061,2.03894,2.60889,2.03894.61767,0,1.25616-.7146,2.52825-2.13837a12.7546,12.7546,0,0,0,.92194-1.12286.53376.53376,0,0,0,.06207-.43854.88534.88534,0,0,0-.40368-.54809l-.10608-.05536a1.76576,1.76576,0,0,0-.73432-.27344c-.24157,0-.5592.13867-1.083,1.167l-.02265.04444c-.32666.64209-.58472,1.14923-1.3468,1.14923q-.0411,0-.08423-.002a1.396,1.396,0,0,1-1.44055-1.31256c-.0567-1.18725-.11536-2.415,1.114-3.39013a12.7942,12.7942,0,0,1,4.1922-1.97022,2.4085,2.4085,0,0,1,.741-.11884,2.48048,2.48048,0,0,1,1.83789.86274,1.11455,1.11455,0,0,1,.22748,1.46405l-.056.08984c-.19336.31189-.41254.66541-.85626.66541a1.08983,1.08983,0,0,1-.35559-.06647,2.39346,2.39346,0,0,0-.76038-.155.53336.53336,0,0,0-.54242.28107,1.12834,1.12834,0,0,0,.41913,1.07916c.34711.31342.52612.409.7663.409a2.71939,2.71939,0,0,0,.55639-.08716,3.133,3.133,0,0,0,1.17212-.5343c.01911-.01355,2.01318-1.62323,2.10584-2.944a.56393.56393,0,0,1,.64178-.51777,1.459,1.459,0,0,1,.51642.10248,13.36513,13.36513,0,0,0,4.8819.921,17.18575,17.18575,0,0,0,7.46386-1.86639,10.82528,10.82528,0,0,0,6.26819-7.44281,13.30126,13.30126,0,0,0-.383-6.382,6.61537,6.61537,0,0,0-6.041-4.61249q-.10354-.00641-.20831-.00635c-2.066,0-4.42725,1.80292-5.37573,4.10456a8.972,8.972,0,0,0-.44227,3.72638c.41547,1.44159.99793,3.02374,2.6601,3.55047a2.64961,2.64961,0,0,0,.80914.13349,3.67525,3.67525,0,0,0,2.17011-.979c.13275-.09832.26636-.19732.40271-.29364a2.52062,2.52062,0,0,0,.9776-2.89813.75991.75991,0,0,0-.7179-.66852c-.166,0-.39959.05457-.52276.52643a.73139.73139,0,0,0-.01453.08148.62659.62659,0,0,1-.04413.17664c-.61761,1.352-1.33136,2.0376-2.12128,2.0376a1.59179,1.59179,0,0,1-.68121-.16382A2.35325,2.35325,0,0,1,131.87,57.36407a3.235,3.235,0,0,1,.09582-2.45282,5.16927,5.16927,0,0,1,3.88575-2.82031,3.71266,3.71266,0,0,1,.48779-.03271,3.85674,3.85674,0,0,1,3.29425,2.05084,6.31006,6.31006,0,0,1,1.0014,4.01428,10.84061,10.84061,0,0,1-9.28924,9.18146,21.85936,21.85936,0,0,1-2.46582.12567c-.97626,0-1.96784-.04687-2.92676-.09228-.48584-.02295-.97162-.0459-1.45728-.06318a3.46057,3.46057,0,0,1-1.68194-.48773,5.33905,5.33905,0,0,0-2.74426-.9107,3.70279,3.70279,0,0,0-1.32715.24933,1.39625,1.39625,0,0,1-.48627.09222.94808.94808,0,0,1-.91449-.596,1.14412,1.14412,0,0,1,.47907-1.43579,11.77744,11.77744,0,0,0,2.53533-2.6048c.197-.24963.39386-.49914.59559-.744a4.97947,4.97947,0,0,1,2.049-1.37751,2.78247,2.78247,0,0,1,3.71081,1.60291,1.65583,1.65583,0,0,1-.60559,2.08c-.07928.05944-.15784.12408-.23645.18878a1.656,1.656,0,0,1-.98865.50341,1.14377,1.14377,0,0,1-.80584-.40759,2.15288,2.15288,0,0,0-.75086-.40838l-.06061-.02362a.482.482,0,0,0-.17468-.03357.33977.33977,0,0,0-.31683.17651.85969.85969,0,0,0-.07868.58429A2.26907,2.26907,0,0,0,124.91087,65.25a2.52792,2.52792,0,0,0,.81238-.134,3.72414,3.72414,0,0,0,2.28088-2.031,3.81666,3.81666,0,0,0-.08893-3.12756,4.66987,4.66987,0,0,0-3.87316-3.06275,1.71832,1.71832,0,0,1-1.21473-.572,1.87274,1.87274,0,0,1-.29187-1.42352l.01423-.12a42.278,42.278,0,0,1,.64837-4.22889,7.26265,7.26265,0,0,0-1.493-5.81018,3.34476,3.34476,0,0,0-2.83856-1.44574c-.407-.011-.81433-.01336-1.22162-.01336l-.4599.00067-.27277.00049c-2.92633.00415-3.67761.53039-4.72857,3.31207-.04071.10773-.08631.21405-.13184.32037a3.98921,3.98921,0,0,0-.21411.57788c-.01965.07679-.03772.15509-.05591.23346-.13238.5727-.28241,1.22174-1.09094,1.32227a1.323,1.323,0,0,1-.16376.01056c-.62,0-.8183-.47669-.99328-.89728a2.48265,2.48265,0,0,0-.215-.43811,3.10566,3.10566,0,0,0-2.51056-1.57953,3.52077,3.52077,0,0,0-2.65686,1.56812,3.02028,3.02028,0,0,0-.41144.98339c-.19965.682-.40607,1.38721-1.22845,1.38721-.04639,0-.09455-.00232-.14508-.0072a.8228.8228,0,0,1-.122.0072c-.82257,0-1.029-.7052-1.22858-1.38721a3.02146,3.02146,0,0,0-.41132-.98339,3.5215,3.5215,0,0,0-2.65692-1.56812,3.10506,3.10506,0,0,0-2.5105,1.57953,2.47923,2.47923,0,0,0-.21508.438c-.175.42065-.37342.89734-.99329.89734a1.32389,1.32389,0,0,1-.16376-.01056c-.80847-.10053-.95855-.74957-1.09094-1.32227-.01813-.07837-.03625-.15667-.05591-.23346a3.99286,3.99286,0,0,0-.214-.57769c-.04559-.10639-.09118-.21277-.13189-.32056-1.051-2.78168-1.80231-3.30792-4.72864-3.31207l-.27271-.00049-.46-.00067c-.40728,0-.81457.00238-1.22162.01336a3.34459,3.34459,0,0,0-2.8385,1.44574,7.26251,7.26251,0,0,0-1.4931,5.81018,42.281,42.281,0,0,1,.64838,4.22889l.01428.12a1.87272,1.87272,0,0,1-.292,1.42352,1.71824,1.71824,0,0,1-1.21466.5719,4.66988,4.66988,0,0,0-3.87317,3.06275,3.81666,3.81666,0,0,0-.08893,3.12756,3.72414,3.72414,0,0,0,2.28088,2.031,2.528,2.528,0,0,0,.81238.134,2.2692,2.2692,0,0,0,2.21747-1.52716.86.86,0,0,0-.07868-.58429.33977.33977,0,0,0-.31683-.17651.48346.48346,0,0,0-.17474.0335l-.06061.02369a2.153,2.153,0,0,0-.75086.40838,1.14376,1.14376,0,0,1-.8059.40759,1.656,1.656,0,0,1-.98853-.50335c-.07867-.0647-.15723-.12934-.23651-.18884a1.65583,1.65583,0,0,1-.60559-2.08,2.78247,2.78247,0,0,1,3.71081-1.60291,4.98057,4.98057,0,0,1,2.04908,1.37751c.20166.24487.39856.49432.59552.74395a11.77882,11.77882,0,0,0,2.53534,2.60486,1.14419,1.14419,0,0,1,.47906,1.43579.94808.94808,0,0,1-.91449.596,1.39562,1.39562,0,0,1-.4862-.09222,3.70373,3.70373,0,0,0-1.32721-.24933,5.33863,5.33863,0,0,0-2.74427.9107,3.46057,3.46057,0,0,1-1.68194.48773c-.48566.01728-.97156.04023-1.45746.06324-.95892.04535-1.95044.09222-2.92651.09222a21.86,21.86,0,0,1-2.46589-.12567,10.84062,10.84062,0,0,1-9.28924-9.18146,6.31,6.31,0,0,1,1.00146-4.01428,3.85668,3.85668,0,0,1,3.29425-2.05084,3.71122,3.71122,0,0,1,.48774.03271,5.16926,5.16926,0,0,1,3.88574,2.82031,3.23488,3.23488,0,0,1,.09582,2.45289,2.35311,2.35311,0,0,1-1.05792,1.45178,1.59179,1.59179,0,0,1-.68121.16382c-.78992,0-1.5036-.68555-2.12128-2.0376a.62739.62739,0,0,1-.04413-.17658.73138.73138,0,0,0-.01452-.08148c-.12311-.47186-.35669-.52649-.52173-.52649a.76019.76019,0,0,0-.71894.66852,2.52067,2.52067,0,0,0,.97767,2.89819c.13623.09626.26983.19519.40252.29346a3.67586,3.67586,0,0,0,2.17029.97907,2.65117,2.65117,0,0,0,.80908-.13343c1.66217-.52679,2.24463-2.10894,2.6601-3.55053a8.972,8.972,0,0,0-.44226-3.72638c-.94837-2.30139-3.3097-4.10437-5.37574-4.10456-.06994,0-.13916.00208-.20831.00635a6.61534,6.61534,0,0,0-6.041,4.61249,13.303,13.303,0,0,0-.383,6.382A10.8253,10.8253,0,0,0,68.5634,67.9256,17.186,17.186,0,0,0,76.02727,69.792a13.36555,13.36555,0,0,0,4.88189-.921,1.45926,1.45926,0,0,1,.51648-.10248.56389.56389,0,0,1,.64173.51777C82.16,70.607,84.1541,72.2168,84.17406,72.231a3.13148,3.13148,0,0,0,1.17126.53369,2.71947,2.71947,0,0,0,.5564.08716c.24017,0,.41919-.09558.76635-.409a1.1282,1.1282,0,0,0,.419-1.079.53327.53327,0,0,0-.54236-.28119,2.39068,2.39068,0,0,0-.76037.155,1.08993,1.08993,0,0,1-.3556.06647c-.44372,0-.66284-.35346-.8562-.66535l-.05609-.0899a1.11463,1.11463,0,0,1,.22748-1.46411,2.48056,2.48056,0,0,1,1.838-.86268,2.40841,2.40841,0,0,1,.741.11884A12.79447,12.79447,0,0,1,91.51512,70.311c1.22931.97521,1.17065,2.20288,1.114,3.39013a1.396,1.396,0,0,1-1.44055,1.31256c-.02875.00135-.05688.002-.08423.002-.76208,0-1.02-.507-1.34668-1.14893l-.02276-.04474c-.52375-1.02826-.84137-1.16693-1.083-1.167a1.76416,1.76416,0,0,0-.73407.27332l-.10632.05548a.88532.88532,0,0,0-.40369.54809.5338.5338,0,0,0,.06213.43854,12.7529,12.7529,0,0,0,.92188,1.12286c1.27209,1.42377,1.91064,2.13837,2.52826,2.13837.60827,0,1.27685-.68134,2.60876-2.03882a1.64366,1.64366,0,0,1,1.06262-.61969c.34,0,.60352.24719.78327.73474,4.064,11.02295,4.47467,17.556,4.62927,20.01545a6.04109,6.04109,0,0,0,.09479.96887l.096.2503-.25061-.09515a5.33238,5.33238,0,0,1-1.84821-1.05206.85583.85583,0,0,1-.33618-.3277,27.23132,27.23132,0,0,1-1.79242-5.77094c-.05438-.23956-.09107-.4024-.10767-.45868a12.45224,12.45224,0,0,0-2.52929-4.61859,23.51162,23.51162,0,0,1-1.653-2.17279,16.03742,16.03742,0,0,0-2.59222-3.09894,23.11516,23.11516,0,0,1-2.15107-2.21045c-.46215-.51922-.94-1.05621-1.44067-1.55322-.3595-.29437-.72327-.59-1.09259-.87939l-.04724-.03614-.13184-.09991q-.14054-.10575-.28247-.2088-.27822-.202-.564-.393c-.01258-.00714-.05146-.02423-.10309-.04767a3.09736,3.09736,0,0,1-.58637-.31732,5.29637,5.29637,0,0,0-3.57153-1.15594,20.12342,20.12342,0,0,0-2.21387.16607l-.45471.0503a3.60944,3.60944,0,0,0-3.31238,2.6709,5.521,5.521,0,0,0,1.75238,5.8706,2.07049,2.07049,0,0,0,1.36731.56708,2.71067,2.71067,0,0,0,1.19532-.3269c1.219-.60383,2.04559-1.85694,1.80487-2.73627-.23572-.86054-.89777-1.75067-1.59778-1.75073a.88248.88248,0,0,0-.4046.1015.28574.28574,0,0,0-.17072.18066c-.039.178.16724.44019.29047.59686l.05353.06873a1.94755,1.94755,0,0,1,.41632,1.20007,1.36714,1.36714,0,0,1-.36927.97565.836.836,0,0,1-.5885.26569.767.767,0,0,1-.45978-.15882l-.24035-.17462a3.94135,3.94135,0,0,1-1.9588-2.42371c-.13861-.99725.44452-1.8767,1.73309-2.61383a5.4396,5.4396,0,0,1,2.76752-.81347,5.37422,5.37422,0,0,1,1.74225.3042c3.5249,1.19226,5.9121,3.73126,7.96679,6.29742a6.23715,6.23715,0,0,1,1.68744,5.0412,2.85392,2.85392,0,0,1-1.1319,2.178,1.21615,1.21615,0,0,1-.61633.18548,1.68837,1.68837,0,0,1-1.10608-.61547,3.358,3.358,0,0,0-.47656-.39838.16336.16336,0,0,0-.08386-.01465,1.373,1.373,0,0,0-.14051.01056c-.0368.004-.07428.00787-.11175.01038a1.46661,1.46661,0,0,0-.13971,1.13745,2.16376,2.16376,0,0,0,1.28,1.12146,2.59794,2.59794,0,0,0,1.0741.26007c1.05371,0,1.746-.86292,2.479-1.77643.21918-.27325.4458-.55573.683-.81378l.08686-.09455.08844.09314a7.25755,7.25755,0,0,1,2.0653,3.753,13.97114,13.97114,0,0,0,2.38477,6.20618c.51764.66614.983,1.38715,1.433,2.08435.28943.44837.58869.912.89826,1.35541a9.78933,9.78933,0,0,1,1.37543,3.15332,1.29614,1.29614,0,0,1-.84638,1.73224,1.12894,1.12894,0,0,1-.30792.04755c-.55,0-.70154-.50733-.82324-.91492-.02625-.088-.05176-.17377-.08051-.25171a27.38025,27.38025,0,0,0-5.36011-8.54663,13.98307,13.98307,0,0,0-7.27221-4.4895l-.19342-.04883c-1.36426-.34455-1.98694-.50183-2.16053-.92359-.174-.42285.1601-.9768.892-2.19067.05133-.08508.10077-.15741.15021-.22967a2.16144,2.16144,0,0,0,.23016-.39026,4.17944,4.17944,0,0,0-.3266-3.97187,3.8989,3.8989,0,0,0-3.22564-1.75628l-.06708.00061A6.144,6.144,0,0,0,77.051,83.86694a.88283.88283,0,0,0,.1969,1.00177,11.63688,11.63688,0,0,0,1.70947,1.32618,1.7467,1.7467,0,0,0,.86908.28228.77178.77178,0,0,0,.58465-.24212.5593.5593,0,0,0,.20337-.39264c-.016-.15381-.19934-.28107-.39337-.41577a1.77307,1.77307,0,0,1-.37622-.31464,1.614,1.614,0,0,1-.41461-1.51514.93573.93573,0,0,1,.77216-.572,2.04827,2.04827,0,0,1,.32782-.02722,2.78633,2.78633,0,0,1,1.98046,1.17981c.13514.14557.26838.28918.40467.41962a1.68009,1.68009,0,0,1-.01947,2.18737,4.1438,4.1438,0,0,1-3.54755,2.04206,5.03121,5.03121,0,0,1-2.14459-.50952,7.05113,7.05113,0,0,1-3.13062-3.06891c-.53454-.92768-.99261-1.91065-1.43567-2.86133-.28955-.62134-.589-1.26379-.90625-1.88312A11.10749,11.10749,0,0,1,70.05791,74.656c.1325-1.77655.25762-2.03577,2.09411-2.5951l.09192-.02746c.211-.0625.70526-.20887.74542-.35816.00928-.0346-.02362-.07873-.05291-.10968a2.42086,2.42086,0,0,0-1.74134-.69824,3.19821,3.19821,0,0,0-2.24566.9906c-.54853.53021-.94873.83716-1.37122.83716-.35376,0-.70044-.213-1.19666-.73511a21.15934,21.15934,0,0,0-3.48535-2.99493,10.23,10.23,0,0,0-5.77881-2.08991,7.9903,7.9903,0,0,0-1.91662.23889,5.47174,5.47174,0,0,0-4.31287,5.22663,7.12841,7.12841,0,0,0,1.53266,4.91l.1073.14044a22.77442,22.77442,0,0,0,2.06848,2.45893,10.17663,10.17663,0,0,1,1.75519,2.60107c.19183.36048.39019.73328.60241,1.087a3.03426,3.03426,0,0,1-.71826,3.48834,2.51235,2.51235,0,0,1-1.7663.74774,2.74059,2.74059,0,0,1-1.7257-.64416c-.94861-.76624-.9289-1.34327.09588-2.80622.04218-.06024.09033-.11664.13855-.17285a1.495,1.495,0,0,0,.155-.202.608.608,0,0,0-.04309-.76.52528.52528,0,0,0-.405-.19189.69211.69211,0,0,0-.33685.09607,2.98251,2.98251,0,0,0-1.81281,2.29877,4.20994,4.20994,0,0,0,2.339,3.8117,5.28912,5.28912,0,0,0,2.18036.52869,2.79988,2.79988,0,0,0,2.37366-1.13886c1.10034-1.517,2.10028-3.17608,1.21118-5.30389-.47052-1.1261-.695-1.92474-.36108-2.42609a1.50279,1.50279,0,0,1,1.34069-.48559c.16639,0,.35114.00946.5492.028q.05181.00486.1048.00483c1.02716,0,2.33984-1.29889,2.967-2.50238A2.01635,2.01635,0,0,0,63.27,75.52612,30.67182,30.67182,0,0,0,60.4622,72.522a1.43009,1.43009,0,0,0-1.01233-.37872,2.359,2.359,0,0,0-.94037.21271,1.17545,1.17545,0,0,0-.70367.93414.69533.69533,0,0,0,.36255.66864.58278.58278,0,0,0,.31433.09247,1.369,1.369,0,0,0,.34991-.06372,1.66464,1.66464,0,0,1,.44513-.0763.98753.98753,0,0,1,.46058.11548,3.11707,3.11707,0,0,1,1.4956,3.81861,1.82286,1.82286,0,0,1-1.82745,1.04413,5.12844,5.12844,0,0,1-1.319-.19849,6.9328,6.9328,0,0,1-4.54071-3.626,4.41875,4.41875,0,0,1-.18384-4.042,3.935,3.935,0,0,1,3.105-1.93829,6.34039,6.34039,0,0,1,.90112-.06372,8.08121,8.08121,0,0,1,3.59613.91284C65.4879,72.21442,70.70439,81.99426,71.4243,83.818a6.99234,6.99234,0,0,1,.30841,1.63715,1.12135,1.12135,0,0,1-.35547.70343.45123.45123,0,0,1-.31061.12366.78663.78663,0,0,1-.49957-.23127c-.055-.0487-.111-.0968-.16705-.145a4.30823,4.30823,0,0,1-.55719-.54053,4.50455,4.50455,0,0,0-3.666-1.83191,7.22627,7.22627,0,0,0-2.14392.36041,4.737,4.737,0,0,0-3.28918,4.45215,4.65211,4.65211,0,0,0,3.77954,3.78326,1.68969,1.68969,0,0,0,.28515.02393,2.8581,2.8581,0,0,0,2.09205-1.15454,2.40573,2.40573,0,0,0,.59668-1.97144A2.52467,2.52467,0,0,0,65.707,87.50415a.29408.29408,0,0,0-.18847.05475c-.52735.42474-.36023.8941.10675,1.56122a.93658.93658,0,0,1,.20874.87787,1.02264,1.02264,0,0,1-.81336.52392,1.29378,1.29378,0,0,1-.25927.02521,2.73221,2.73221,0,0,1-2.33081-1.75818,1.9711,1.9711,0,0,1,.7882-2.46405l.04187-.02625a5.59094,5.59094,0,0,1,2.82856-1.1397,2.77415,2.77415,0,0,1,1.31622.33984A4.66729,4.66729,0,0,1,70.139,89.41394a8.06988,8.06988,0,0,1-1.03821,4.96094,6.01957,6.01957,0,0,1-4.94568,2.93475,4.3881,4.3881,0,0,1-.67578-.05176,1.33494,1.33494,0,0,1-1.15924-.94879,1.103,1.103,0,0,1,.36249-1.22717,2.71106,2.71106,0,0,1,.85962-.51056.78644.78644,0,0,0,.512-.39319.69017.69017,0,0,0-.0777-.56793.6215.6215,0,0,0-.589-.34222,1.10972,1.10972,0,0,0-.335.05487A3.81656,3.81656,0,0,0,60.5,95.63013c-.29962.77423.165,1.22863.65693,1.70977.139.13593.28271.27649.40716.42383a1.492,1.492,0,0,0,.1673.15985,1.807,1.807,0,0,1,.18524.17658,1.77048,1.77048,0,0,1,.60712,1.46539c-.08759.38977-.43091.71088-1.04969.98163a12.46617,12.46617,0,0,1-4.99481,1.11884,10.50473,10.50473,0,0,1-1.22082-.07123,5.75967,5.75967,0,0,1-4.36322-2.97187,3.50965,3.50965,0,0,1,.92956-4.719,2.59968,2.59968,0,0,1,1.57343-.62427,3.44872,3.44872,0,0,1,2.2456,1.1391,1.73359,1.73359,0,0,1,.40979,1.90424,1.13531,1.13531,0,0,1-1.219.78442,2.41485,2.41485,0,0,1-.32788-.02325,2.78958,2.78958,0,0,1-.65613-.22327,2.1432,2.1432,0,0,0-.7182-.2232c-.1164,0-.24549.03131-.31995.26373a1.104,1.104,0,0,0,.18311,1.01965,2.49522,2.49522,0,0,0,1.98712.87647,2.674,2.674,0,0,0,1.91821-.79065c.1084-.10962.22925-.21918.35285-.33106.593-.537,1.20629-1.09234.80511-1.98547a7.09632,7.09632,0,0,0-2.03638-2.92914,4.78611,4.78611,0,0,0-2.877-1.03375A4.3016,4.3016,0,0,0,49.20408,94.559a5.91216,5.91216,0,0,0,1.96821,7.18237,7.66292,7.66292,0,0,0,4.10876,1.84314,4.04187,4.04187,0,0,1,3.12592,1.88288,2.35674,2.35674,0,0,1,.162,2.66333c-.4306.74731-1.23333.75988-1.94152.771l-.124.00208-.05334.00049a2.0471,2.0471,0,0,1-1.95789-1.33338,2.42169,2.42169,0,0,1-.12128-.34826c-.10247-.34937-.18267-.56153-.43237-.56153a.66169.66169,0,0,0-.15417.02063c-.49781.12122-.50843.48932-.46674,1.08106.00574.0813.01135.16156.01416.23889.05786,1.57586,1.2345,2.20184,2.37244,2.80713.19348.103.38476.20477.568.30987a1.39855,1.39855,0,0,0,.70123.19507,3.11126,3.11126,0,0,0,1.954-1.13312c.08258-.08355.16169-.17108.24079-.25854a4.7625,4.7625,0,0,1,.44488-.44983c1.71527-1.45172,2.05048-2.89118,1.08686-4.6673a1.6609,1.6609,0,0,1-.24024-1.35528,1.3654,1.3654,0,0,1,.85095-.75519,10.66747,10.66747,0,0,0,2.63935-1.70307,17.24054,17.24054,0,0,1,1.52807-1.127l.06647-.04181.06494.04419a2.25773,2.25773,0,0,1,.90424,1.707,5.36842,5.36842,0,0,0,.12634.58765,2.99524,2.99524,0,0,0,2.6507,2.01629,1.55106,1.55106,0,0,0,.75964-.183l.10352-.05688c.59588-.32642,1.27124-.69636,1.06829-1.38648-.10754-.36566-.28283-.415-.44012-.415a1.96328,1.96328,0,0,0-.56415.13361,2.53243,2.53243,0,0,1-.53912.13934c-.10333.00989-.20478.01514-.30371.01514a1.46351,1.46351,0,0,1-1.56317-1.08289,1.13558,1.13558,0,0,1,.13055-.90387,2.10736,2.10736,0,0,1,1.32666-.94507,4.06644,4.06644,0,0,1,.95514-.141c.8042,0,1.27808.42395,2.03613,1.37421a3.05742,3.05742,0,0,1,.34271,3.74042,6.05177,6.05177,0,0,1-4.24859,2.81311,15.78222,15.78222,0,0,0-3.50971,1.25329c-.33593.15125-.67132.30225-1.00995.446a8.57184,8.57184,0,0,0-3.73022,3.30163,3.31778,3.31778,0,0,0-.02014,3.805,4.10431,4.10431,0,0,0,3.27527,2.08624,3.81286,3.81286,0,0,0,.47131-.03021,5.07065,5.07065,0,0,0,3.52863-2.59717c.27118-.39-.09009-.83771-.20722-.96564-.09088-.09924-.18555-.19623-.28033-.29333a4.97578,4.97578,0,0,1-.69574-.82508,1.01839,1.01839,0,0,0-1.50409-.45587c-.1966.11542-.306.23334-.32508.35047-.03015.18493.15717.40014.33832.60827.06739.07746.13422.15436.19153.23053a1.42612,1.42612,0,0,1-.28137,2.10138,1.33653,1.33653,0,0,1-.91968.37445,2.22423,2.22423,0,0,1-1.02612-.30554,2.41115,2.41115,0,0,1-1.28674-1.42535,2.57863,2.57863,0,0,1,.347-1.99061,6.32461,6.32461,0,0,1,4.27429-3.1109,16.592,16.592,0,0,0,7.23658-3.66778,4.951,4.951,0,0,0,1.00738-1.38245,7.16662,7.16662,0,0,1,.629-.98816c.038-.04742.07611-.09735.11487-.14807.24438-.31994.52136-.68255.94012-.68255a.91678.91678,0,0,1,.47638.15081,3.74883,3.74883,0,0,1,1.9,2.55133c.1048.64338-.06854,1.47858-1.4895,1.8039a.80092.80092,0,0,0-.51574.31354.51933.51933,0,0,0-.05188.40612.73888.73888,0,0,0,.81634.59015,1.6526,1.6526,0,0,0,.1936-.01184,3.21827,3.21827,0,0,0,2.25055-1.81531,2.63555,2.63555,0,0,0,.17627-2.41571c-.5719-1.05182-.92962-1.98553.492-2.76025a1.85,1.85,0,0,0,.75171-1.3764,3.07235,3.07235,0,0,0-.9549-2.7677,1.515,1.515,0,0,0-1.17718-.48066,3.934,3.934,0,0,0-.76374.08918.86158.86158,0,0,0-.66449.979c.0116.32166.1416.38629.34754.38629a2.26779,2.26779,0,0,0,.33685-.037l.06189-.0097a2.23526,2.23526,0,0,1,.33789-.02777,1.00541,1.00541,0,0,1,.76978.28271,1.19187,1.19187,0,0,1,.24633.92749,1.28471,1.28471,0,0,1-1.41534,1.38172q-.06546,0-.13452-.00336a4.567,4.567,0,0,1-3.596-2.76984c-.38324-1.062.35809-3.10083,1.46887-4.03979a7.02534,7.02534,0,0,1,4.54486-1.60608,7.37568,7.37568,0,0,1,7,4.62311,1.93733,1.93733,0,0,1-.12066,1.6015,1.70363,1.70363,0,0,1-1.163.83557,1.88971,1.88971,0,0,1-.3692.04059c-.90686,0-.92944-.871-.94592-1.507-.00147-.05676.001-.11621.00348-.176.01245-.29688.00653-.44147-.26184-.48352a.8902.8902,0,0,0-.13788-.011.91518.91518,0,0,0-.76911.48035c-.5216.83087-.26025,1.85815.73578,2.8927a1.91659,1.91659,0,0,0,1.328.76465,1.72893,1.72893,0,0,0,1.02649-.42359c1.59375-1.21362,2.93213-2.49011,1.81934-4.75085a.90424.90424,0,0,1,.77362-1.2464.98855.98855,0,0,1,.69354.34546,51.69913,51.69913,0,0,1,4.877,6.06183,1.009,1.009,0,0,1,.02032,1.28015.65394.65394,0,0,1-.51568.25934,1.48782,1.48782,0,0,1-.584-.16919c-.049-.02167-.09753-.04316-.14557-.06269a7.00137,7.00137,0,0,0-2.64129-.58447c-1.69971-.00012-3.18561.87512-4.67633,2.75433-.51069.64374-1.43464,2.21918-1.03125,2.98011,1.12756,2.12744,2.3717,3.20611,3.69787,3.20611a4.84081,4.84081,0,0,0,3.30945-1.91009.728.728,0,0,0,.11285-.85706,4.60143,4.60143,0,0,0-3.10028-2.0227.3461.3461,0,0,0-.27874.092c-.23249.34057.08087.626.62457,1.05548a4.52509,4.52509,0,0,1,.60071.53357.50354.50354,0,0,1,.10717.39435,1.93043,1.93043,0,0,1-.75378,1.13952.90219.90219,0,0,1-.5517.18994,1.63085,1.63085,0,0,1-.71917-.21429,2.83205,2.83205,0,0,1-1.3169-3.04163,4.97784,4.97784,0,0,1,3.2052-2.16577.76315.76315,0,0,1,.22827.03174c1.90619.59943,3.82978,1.42316,4.988,3.37488a16.31129,16.31129,0,0,1,2.271,8.262c.005.14014.01208.30115.01995.481.15186,3.46655.61408,14.01556-7.28894,16.81311a5.20339,5.20339,0,0,1-1.74078.29767,5.07012,5.07012,0,0,1-4.82336-3.24988,2.31352,2.31352,0,0,1,.59509-2.56317,2.66833,2.66833,0,0,1,1.95221-1.084,2.37216,2.37216,0,0,1,.47919.05133,1.22481,1.22481,0,0,1,1.07434,1.04023c.11059.7359-.57465.8894-.79987.93981a1.11743,1.11743,0,0,0-.76575.48865.98983.98983,0,0,0-.03735.80951c.16022.49213.54346.593,1.06952.593.0946,0,.1897-.00293.28339-.0058.067-.00208.13336-.00409.19836-.00507a1.97755,1.97755,0,0,0,1.69641-1.04046,2.85889,2.85889,0,0,0-.05688-3.30475,4.15636,4.15636,0,0,0-2.9361-1.42713,1.82012,1.82012,0,0,0-.6026.09241c-2.60541.91541-4.999,3.11908-3.90338,6.55841a5.74226,5.74226,0,0,0,4.7763,4.0318c.22083.01758.44483.019.6554.019l.08923-.00006.08948-.00006a4.0828,4.0828,0,0,1,1.61859.231c.33783.13977.68634.3396.70984.76166.02863.51544-.46435.7135-.67486.798a7.63671,7.63671,0,0,1-2.87647.60309,6.44341,6.44341,0,0,1-2.89581-.70264A11.08276,11.08276,0,0,1,79.8065,134.37a23.59775,23.59775,0,0,0-7.40942-6.42688l-.20844-.10108a9.92237,9.92237,0,0,0-4.195-.9527c-.11042-.00409-.22-.00616-.328-.00616a6.5197,6.5197,0,0,0-5.96606,3.56048,4.08442,4.08442,0,0,0,.47442,4.58948,4.6233,4.6233,0,0,0,3.27216,1.86878c1.11523,0,2.26361-.65015,3.61389-2.04609a2.61093,2.61093,0,0,0,.60962-1.97924,1.58563,1.58563,0,0,0-.71777-1.19208,3.20238,3.20238,0,0,0-1.66211-.553,1.36621,1.36621,0,0,0-1.32367.77863c-.05536.11914-.028.17071-.01892.18762.07062.13281.39673.18475.51947.20434l.09192.01441c.54583.0849,1.29345.20123,1.27527.98a1.682,1.682,0,0,1-1.3523,1.45489,2.514,2.514,0,0,1-.702.10547,2.47007,2.47007,0,0,1-1.97735-1.13238,2.04058,2.04058,0,0,1-.05615-2.58862,4.62071,4.62071,0,0,1,3.98846-2.18989,6.218,6.218,0,0,1,1.44611.1792c2.15216.5163,4.55688,1.37458,6.074,3.82557a2.96528,2.96528,0,0,1,.37586,2.54534,2.67037,2.67037,0,0,1-1.66278,1.6214,2.49034,2.49034,0,0,1-.85444.17035,1.42623,1.42623,0,0,1-1.25207-.68719,1.21231,1.21231,0,0,1-.23474-1.03241,1.464,1.464,0,0,1,.96515-.82526.76685.76685,0,0,0,.49475-.4353.75831.75831,0,0,0-.64136-.827,1.02369,1.02369,0,0,0-.60175.261,3.88134,3.88134,0,0,0-1.44714,1.96167,2.38078,2.38078,0,0,0,.63751,1.8515,3.39833,3.39833,0,0,0,2.56543,1.26795,3.207,3.207,0,0,0,1.42383-.34461,7.18521,7.18521,0,0,0,1.87274-1.468c.66376-.663,1.02936-1.02825,1.41815-1.02825.38385,0,.71521.35211,1.36908,1.08465a9.547,9.547,0,0,0,7.191,2.843,11.53577,11.53577,0,0,0,4.8592-1.03607,3.73187,3.73187,0,0,0,.97784-.76422,5.65315,5.65315,0,0,1,.70844-.61622,1.60627,1.60627,0,0,1,.84429-.33752.78353.78353,0,0,1,.6294.32684c.37738.47449-.00128.99689-.18329,1.24793l-.47119.64911c-.78326,1.07806-1.5932,2.19281-2.35437,3.31219a11.78978,11.78978,0,0,1-1.93475,2.22571,1.21147,1.21147,0,0,1-.773.37354c-.30481,0-.564-.20508-.77033-.6095-.07031-.13782-.134-.27808-.19769-.41815a3.7056,3.7056,0,0,0-.61341-1.03559,3.81214,3.81214,0,0,0-2.72906-1.42395,2.96751,2.96751,0,0,0-1.43634.389,3.87925,3.87925,0,0,0-1.05493,2.5542c.09869.76965.5617,1.5658,1.16565,1.5658a1.05115,1.05115,0,0,0,.61029-.23243c.27057-.19738.1463-.49408-.05884-.89166-.02972-.05768-.05835-.1131-.08289-.16522a1.41289,1.41289,0,0,1-.15606-1.11536.88943.88943,0,0,1,.543-.4873.963.963,0,0,1,.34655-.06824c.5174,0,.85547.46692,1.12714.84216l.03247.0448a1.84765,1.84765,0,0,1,.01251,2.37922,7.35623,7.35623,0,0,1-5.89392,2.631,6.44614,6.44614,0,0,1-3.95569-1.21082,5.46125,5.46125,0,0,1-1.21765-1.41125,9.97154,9.97154,0,0,0-.60058-.82929,1.593,1.593,0,0,1,.02032-1.38385A6.20974,6.20974,0,0,1,76.6616,141.947a1.46415,1.46415,0,0,1,.77753-.23364,2.13552,2.13552,0,0,1,1.52686.86462,1.099,1.099,0,0,1,.28851,1.07544.95815.95815,0,0,1-.808.56915c-.1668.027-.35278.04023-.53265.053-.73193.05207-1.21673.12384-1.28393.627a.68537.68537,0,0,0,.21575.46484,2.00487,2.00487,0,0,0,2.987.002A2.70235,2.70235,0,0,0,80.62,142.247a3.96509,3.96509,0,0,0-3.27454-2.32276,1.69761,1.69761,0,0,0-.75067.15973c-.1308.06391-.26391.12311-.397.18232-.16364.07275-.32721.14544-.48615.22717-2.60821,1.34247-3.4873,2.33929-3.22381,5.26233a5.98138,5.98138,0,0,0,1.79,3.15057c.12439.14111.2445.27741.3562.409a8.09533,8.09533,0,0,0,5.99554,2.52649,6.60234,6.60234,0,0,0,3.288-.80262l.26831-.15423c3.77685-2.17127,7.68225-4.41638,10.58435-7.874l.09491-.116c.217-.26868.463-.57318.819-.57318a.77846.77846,0,0,1,.43.1463c.75934.50622.34942,1.32678.17438,1.67712a1.54111,1.54111,0,0,1-.18555.26978c-.037.04626-.07416.09253-.10718.14105-.47351.69641-.93408,1.42132-1.37952,2.12231a28.18465,28.18465,0,0,1-4.52032,5.88886,10.71716,10.71716,0,0,0-2.38538,3.59521,2.97555,2.97555,0,0,0,.03217,3.13514,4.61979,4.61979,0,0,0,3.799,2.20861,5.42811,5.42811,0,0,0,1.78-.32531c.76947-.26838,1.4801-.51618,1.6153-1.4444a1.89442,1.89442,0,0,0-1.14148-2.06421,2.50419,2.50419,0,0,1-.34577-.25934,1.01775,1.01775,0,0,0-.57794-.3197.60678.60678,0,0,0-.3963.18976c-.32044.28955-.19629.50586.05072.86322a2.889,2.889,0,0,1,.17059.26733,1.05173,1.05173,0,0,1,.16242.8089.67486.67486,0,0,1-.36573.39465,1.2546,1.2546,0,0,1-.56744.14148,1.58314,1.58314,0,0,1-1.114-.55029c-.09943-.101-.21827-.20264-.34406-.3103-.48089-.4115-1.07941-.92365-.64459-1.6.24109-.375.45831-.78259.6684-1.17682a6.82621,6.82621,0,0,1,2.15277-2.75189A5.18814,5.18814,0,0,1,95.412,152.434a2.58144,2.58144,0,0,1,1.68738.5661,1.19875,1.19875,0,0,1,.49725,1.40613,1.23833,1.23833,0,0,1-.91589.8836,1.14632,1.14632,0,0,1-.21912.02192,1.51874,1.51874,0,0,1-.973-.46765c-.05719-.04749-.11487-.09534-.17426-.14167-.06292-.04907-.12719-.10547-.19281-.16314a1.084,1.084,0,0,0-.5921-.34888c-.15027,0-.29785.10864-.45111.33227-.32782.47828-.095.71473.312,1.06092.06989.05938.13941.11859.20343.17932.09064.08594.17951.176.26862.26642a3.57736,3.57736,0,0,0,.80639.6745,2.79316,2.79316,0,0,0,1.3.36535,1.92634,1.92634,0,0,0,1.12311-.36194,3.3607,3.3607,0,0,0,.42932-5.43353,4.26139,4.26139,0,0,0-2.70978-1.32l-.14422.02893-.17334.03473.03168-.17389.02917-.16021a12.70355,12.70355,0,0,1,.99646-1.57318,32.38214,32.38214,0,0,0,2.66193-4.377,1.54935,1.54935,0,0,1,1.37616-1.08941l.03692-.00049c.66327,0,.85932.48913,1.03223.92071.039.09729.0777.19422.12176.285a1.86369,1.86369,0,0,1,.11689.36041c.08361.33288.14618.52124.46.52124h.04175c.31378,0,.37634-.18829.4599-.52124a1.86539,1.86539,0,0,1,.11694-.36041c.044-.0907.0827-.18757.12164-.28479.173-.43164.36908-.9209,1.03235-.9209l.03687.00049a1.54944,1.54944,0,0,1,1.37616,1.08941,32.37582,32.37582,0,0,0,2.662,4.377,13.76105,13.76105,0,0,1,.99225,1.55682l.03333.17657.03167.17389-.17334-.03473-.14422-.02893a4.26125,4.26125,0,0,0-2.70978,1.32,3.3607,3.3607,0,0,0,.42932,5.43353,1.92638,1.92638,0,0,0,1.12311.36194,2.79313,2.79313,0,0,0,1.3-.36535,3.57583,3.57583,0,0,0,.80639-.6745c.08911-.0904.178-.18048.26862-.26642.064-.06073.13354-.11994.20343-.17932.407-.34619.63989-.58264.312-1.06092-.15326-.22357-.30084-.33227-.45117-.33227a1.08329,1.08329,0,0,0-.59192.34881c-.06567.05768-.12994.11414-.19293.16321-.05933.04627-.117.09418-.1742.1416a1.51877,1.51877,0,0,1-.973.46772,1.14757,1.14757,0,0,1-.21918-.02192,1.23833,1.23833,0,0,1-.91589-.8836,1.1986,1.1986,0,0,1,.49725-1.40607,2.58115,2.58115,0,0,1,1.68738-.56616,5.1882,5.1882,0,0,1,2.76734.93524,6.8263,6.8263,0,0,1,2.15277,2.75189c.21008.39417.4273.80182.66839,1.17682.43482.67633-.16369,1.18848-.64459,1.6-.12579.10766-.24463.20935-.34405.3103a1.58305,1.58305,0,0,1-1.114.55029,1.25461,1.25461,0,0,1-.56738-.14148.67484.67484,0,0,1-.36572-.39465,1.05137,1.05137,0,0,1,.16235-.8089,2.88993,2.88993,0,0,1,.17065-.26733c.24695-.35736.3711-.57367.05066-.86322a.60652.60652,0,0,0-.39636-.18976,1.01787,1.01787,0,0,0-.57788.31964,2.49678,2.49678,0,0,1-.34576.2594,1.89429,1.89429,0,0,0-1.14142,2.06421c.13519.92822.84576,1.176,1.59808,1.43841a5.46211,5.46211,0,0,0,1.79718.3313,4.61969,4.61969,0,0,0,3.799-2.20868,2.97528,2.97528,0,0,0,.03217-3.13507,10.7164,10.7164,0,0,0-2.38538-3.59521,28.18888,28.18888,0,0,1-4.52038-5.88886c-.44538-.70105-.906-1.4259-1.37946-2.12231-.033-.04852-.07013-.09479-.10712-.14105a1.53808,1.53808,0,0,1-.1856-.26978c-.175-.35034-.585-1.1709.17437-1.67712a.77849.77849,0,0,1,.43-.1463c.356,0,.60192.3045.8189.57312l.095.11609c2.90216,3.4577,6.80761,5.70282,10.58453,7.87408l.26813.15417a6.60228,6.60228,0,0,0,3.288.80262,8.09532,8.09532,0,0,0,5.99554-2.52649c.1117-.13159.23182-.26789.35621-.409a5.9816,5.9816,0,0,0,1.7901-3.15057c.26348-2.923-.61567-3.91986-3.22388-5.26233-.15894-.08173-.32251-.15442-.48615-.22717-.13311-.05921-.26623-.11841-.39709-.18232a1.69805,1.69805,0,0,0-.75061-.15973,3.96458,3.96458,0,0,0-3.27454,2.32227,2.70259,2.70259,0,0,0,.78742,3.123,2.00493,2.00493,0,0,0,2.987-.002.68515.68515,0,0,0,.2157-.4649c-.06714-.50318-.55188-.575-1.28388-.627-.17987-.01281-.36584-.02606-.53265-.053a.95807.95807,0,0,1-.808-.56915,1.0988,1.0988,0,0,1,.28846-1.07538,2.13535,2.13535,0,0,1,1.52691-.86468,1.4641,1.4641,0,0,1,.77747.23364,6.2105,6.2105,0,0,1,2.39459,2.46765,1.59317,1.59317,0,0,1,.02039,1.38385,9.97123,9.97123,0,0,0-.60065.82935,5.462,5.462,0,0,1-1.21765,1.41119,6.44608,6.44608,0,0,1-3.95563,1.21082,7.35628,7.35628,0,0,1-5.894-2.631,1.8476,1.8476,0,0,1,.01257-2.37922l.03241-.0448c.27173-.37518.6098-.84216,1.12714-.84216a.96308.96308,0,0,1,.34656.06824.88924.88924,0,0,1,.543.4873,1.41264,1.41264,0,0,1-.15606,1.11536c-.0246.05212-.05316.10754-.08289.16528-.20514.39759-.3294.69422-.05884.8916a1.05144,1.05144,0,0,0,.61029.23243c.60395,0,1.067-.79615,1.16565-1.5658a3.8792,3.8792,0,0,0-1.05493-2.5542,2.96762,2.96762,0,0,0-1.43634-.389,3.81181,3.81181,0,0,0-2.72906,1.42395,3.70925,3.70925,0,0,0-.61341,1.03553c-.06359.14013-.12738.28033-.19769.41821-.20636.40442-.46551.6095-.77026.6095a1.21142,1.21142,0,0,1-.77307-.37354,11.7941,11.7941,0,0,1-1.93476-2.22571c-.76123-1.11944-1.57123-2.23431-2.35455-3.31244l-.471-.64886c-.182-.251-.56067-.77344-.18329-1.24787a.78351.78351,0,0,1,.6294-.3269,1.6059,1.6059,0,0,1,.84424.33752,5.65007,5.65007,0,0,1,.70849.61622,3.73273,3.73273,0,0,0,.97785.76422,11.53577,11.53577,0,0,0,4.85925,1.03607,9.54687,9.54687,0,0,0,7.191-2.843c.65387-.73254.98523-1.08465,1.36914-1.08465.38873,0,.75433.36523,1.41815,1.02825a7.18223,7.18223,0,0,0,1.87274,1.468,3.2066,3.2066,0,0,0,1.42377.34461,3.39832,3.39832,0,0,0,2.56549-1.26783,2.38083,2.38083,0,0,0,.63745-1.85162,3.88188,3.88188,0,0,0-1.44714-1.96167,1.02392,1.02392,0,0,0-.60175-.261.75833.75833,0,0,0-.64129.827.76632.76632,0,0,0,.49469.43524,1.46417,1.46417,0,0,1,.96514.82532,1.21211,1.21211,0,0,1-.23474,1.03241,1.42622,1.42622,0,0,1-1.25207.68719,2.49028,2.49028,0,0,1-.85443-.17035,2.67008,2.67008,0,0,1-1.66272-1.6214,2.96522,2.96522,0,0,1,.37579-2.54534c1.51715-2.451,3.92181-3.30927,6.074-3.82557a6.218,6.218,0,0,1,1.44611-.1792,4.62073,4.62073,0,0,1,3.98847,2.18989,2.04044,2.04044,0,0,1-.05616,2.58862,2.47,2.47,0,0,1-1.97735,1.13238,2.51334,2.51334,0,0,1-.702-.10547,1.6818,1.6818,0,0,1-1.35223-1.45489c-.01825-.77875.72937-.89508,1.27521-.98l.09191-.01441c.12281-.01959.44886-.07153.51947-.20434.009-.01691.03644-.06848-.01892-.18762a1.3662,1.3662,0,0,0-1.3236-.77863,3.20165,3.20165,0,0,0-1.66218.553,1.58573,1.58573,0,0,0-.71777,1.19214,2.611,2.611,0,0,0,.60962,1.97918c1.35034,1.39594,2.49866,2.04609,3.61389,2.04609a4.62349,4.62349,0,0,0,3.27222-1.86878,4.08461,4.08461,0,0,0,.47436-4.58954,6.52016,6.52016,0,0,0-5.96612-3.56042c-.109,0-.21771.00207-.32794.00616a9.9226,9.9226,0,0,0-4.195.9527l-.28931.14484a23.64045,23.64045,0,0,0-7.32855,6.38312,11.0822,11.0822,0,0,1-3.75922,3.13848,6.44332,6.44332,0,0,1-2.89575.70264,7.63668,7.63668,0,0,1-2.87652-.60309c-.21051-.08453-.70349-.28265-.67487-.798.0235-.42206.372-.62189.70984-.76166a4.08282,4.08282,0,0,1,1.61859-.231l.08948.00006.08923.00006c.21063,0,.43476-.00146.6554-.019a5.74219,5.74219,0,0,0,4.7763-4.0318c1.09565-3.43933-1.298-5.643-3.90338-6.55841a1.82117,1.82117,0,0,0-.6026-.09241,4.15558,4.15558,0,0,0-2.93609,1.42713,2.85887,2.85887,0,0,0-.05683,3.30475,1.97738,1.97738,0,0,0,1.69635,1.04046c.065.001.13135.003.19837.00507.09375.00287.18884.0058.28338.0058.52606,0,.9093-.10083,1.06952-.593a.99008.99008,0,0,0-.03729-.80951,1.1177,1.1177,0,0,0-.76581-.48865c-.22522-.05041-.91046-.20385-.79986-.93981a1.2248,1.2248,0,0,1,1.07434-1.04023,2.372,2.372,0,0,1,.47918-.05133,2.66856,2.66856,0,0,1,1.95227,1.084,2.3136,2.3136,0,0,1,.595,2.56317,5.0702,5.0702,0,0,1-4.82337,3.24988,5.20343,5.20343,0,0,1-1.74078-.29767c-7.903-2.79749-7.4408-13.34656-7.28888-16.813.00787-.17993.01489-.34094.02-.48108a16.31022,16.31022,0,0,1,2.27093-8.262c1.15833-1.95178,3.08191-2.77545,4.988-3.37488a.7638.7638,0,0,1,.22827-.03174,4.97784,4.97784,0,0,1,3.2052,2.16577,2.83206,2.83206,0,0,1-1.31689,3.04163,1.63093,1.63093,0,0,1-.71918.21429.90219.90219,0,0,1-.5517-.18994,1.93043,1.93043,0,0,1-.75378-1.13952.50354.50354,0,0,1,.10718-.39435,4.51664,4.51664,0,0,1,.60076-.53351c.54371-.42957.857-.715.62452-1.05554a.34646.34646,0,0,0-.27875-.092,4.60042,4.60042,0,0,0-3.10022,2.02252.728.728,0,0,0,.11279.85724,4.84083,4.84083,0,0,0,3.30939,1.91009c1.32617,0,2.57037-1.07867,3.698-3.20611.40332-.761-.52069-2.33637-1.03131-2.98011-1.4906-1.87909-2.97651-2.75427-4.67633-2.75433a7,7,0,0,0-2.64124.58447c-.048.01953-.09662.041-.14557.06269a1.48834,1.48834,0,0,1-.584.16919.654.654,0,0,1-.51569-.25934,1.009,1.009,0,0,1,.02032-1.28015,51.69352,51.69352,0,0,1,4.87708-6.06183.98858.98858,0,0,1,.69348-.34546.90424.90424,0,0,1,.77362,1.2464c-1.11279,2.26074.22559,3.53729,1.81934,4.75085a1.72893,1.72893,0,0,0,1.02649.42359,1.91658,1.91658,0,0,0,1.328-.76465c.99609-1.03455,1.25739-2.06183.73578-2.89276a.91537.91537,0,0,0-.76911-.48029.89017.89017,0,0,0-.13787.011c-.26838.04205-.2743.18664-.26178.48352.0025.05975.00488.1192.00335.176-.01641.636-.039,1.507-.9458,1.507a1.88882,1.88882,0,0,1-.3692-.04059,1.70372,1.70372,0,0,1-1.16308-.83557,1.93733,1.93733,0,0,1-.12067-1.6015,7.37568,7.37568,0,0,1,7-4.62311,7.02523,7.02523,0,0,1,4.54486,1.60608c1.11078.939,1.85211,2.97778,1.46893,4.03979a4.56716,4.56716,0,0,1-3.596,2.76984q-.069.00339-.13458.00336a1.28457,1.28457,0,0,1-1.41522-1.38172,1.19176,1.19176,0,0,1,.24634-.92749,1.00514,1.00514,0,0,1,.76971-.28271,2.23639,2.23639,0,0,1,.33789.02777l.06171.0097a2.27207,2.27207,0,0,0,.337.037c.20593,0,.33593-.06463.34753-.38629a.86158.86158,0,0,0-.66449-.979,3.93192,3.93192,0,0,0-.76373-.08918,1.51487,1.51487,0,0,0-1.17713.48066,3.07221,3.07221,0,0,0-.955,2.7677,1.85,1.85,0,0,0,.75171,1.3764c1.42157.77472,1.06384,1.70843.492,2.76025a2.63536,2.63536,0,0,0,.17621,2.41571,3.21811,3.21811,0,0,0,2.25055,1.81531,1.65339,1.65339,0,0,0,.1936.01184.739.739,0,0,0,.81641-.59015.51967.51967,0,0,0-.05194-.40612.801.801,0,0,0-.51575-.31354c-1.4209-.32532-1.5943-1.16052-1.4895-1.8039a3.74847,3.74847,0,0,1,1.9-2.55133.91681.91681,0,0,1,.47644-.15081c.41876,0,.69568.36254.94006.68249.03876.05072.07691.10071.11487.14813a7.17658,7.17658,0,0,1,.62909.98822,4.95236,4.95236,0,0,0,1.00733,1.38239,16.59188,16.59188,0,0,0,7.23657,3.66778,6.3248,6.3248,0,0,1,4.27429,3.1109,2.579,2.579,0,0,1,.34711,1.99061,2.41128,2.41128,0,0,1-1.28681,1.42535,2.22463,2.22463,0,0,1-1.02612.30554,1.33653,1.33653,0,0,1-.91968-.37445,1.42616,1.42616,0,0,1-.28137-2.10138c.05737-.07617.12415-.15307.19153-.23053.18121-.20813.36853-.42334.33832-.60827-.01911-.11713-.12848-.23505-.32508-.35047a1.01837,1.01837,0,0,0-1.50409.45593,4.9778,4.9778,0,0,1-.69574.825c-.09472.0971-.18945.19409-.28027.29333-.11719.12793-.47845.57568-.20727.96564a5.07061,5.07061,0,0,0,3.52862,2.59717,3.81286,3.81286,0,0,0,.47131.03021,4.10431,4.10431,0,0,0,3.27527-2.08624,3.31788,3.31788,0,0,0-.02008-3.805,8.5723,8.5723,0,0,0-3.73028-3.30163c-.33856-.1438-.674-.2948-1.01-.446a15.78222,15.78222,0,0,0-3.50971-1.25329,6.05165,6.05165,0,0,1-4.24859-2.81311,3.0575,3.0575,0,0,1,.34271-3.74042c.75806-.95026,1.23193-1.37421,2.03613-1.37421a4.06722,4.06722,0,0,1,.9552.141,2.10739,2.10739,0,0,1,1.3266.94507,1.1359,1.1359,0,0,1,.13062.90387,1.46362,1.46362,0,0,1-1.56324,1.08289c-.09893,0-.20031-.00525-.30371-.01514a2.5335,2.5335,0,0,1-.53912-.13934,1.96321,1.96321,0,0,0-.56415-.13361c-.15729,0-.33252.04932-.44012.415-.203.69012.47241,1.06006,1.06824,1.38648l.10357.05682a1.5506,1.5506,0,0,0,.75965.1831,2.99523,2.99523,0,0,0,2.65069-2.01629,5.37306,5.37306,0,0,0,.12634-.58771,2.25794,2.25794,0,0,1,.90424-1.707l.06494-.04419.06647.04181a17.22883,17.22883,0,0,1,1.52807,1.127,10.66766,10.66766,0,0,0,2.63935,1.70307,1.36531,1.36531,0,0,1,.85095.75525,1.66056,1.66056,0,0,1-.24023,1.35522c-.96363,1.77612-.62842,3.21558,1.08685,4.6673a4.76259,4.76259,0,0,1,.44488.44983c.07911.08746.15821.175.24079.25854a3.11126,3.11126,0,0,0,1.954,1.13312,1.39855,1.39855,0,0,0,.70123-.19507c.18323-.1051.37457-.20691.56806-.30987,1.13787-.60529,2.31451-1.23127,2.37237-2.80713.00281-.07733.00848-.15759.01416-.239.04169-.59174.031-.95978-.46667-1.08094a.659.659,0,0,0-.15424-.02069c-.25482-.00006-.33026.21332-.43231.5614a2.42055,2.42055,0,0,1-.12128.34839,2.0472,2.0472,0,0,1-1.95788,1.33338l-.05341-.00049-.124-.00208c-.70819-.01111-1.51087-.02368-1.94153-.77105a2.35665,2.35665,0,0,1,.162-2.66327,4.04183,4.04183,0,0,1,3.12585-1.88288,7.663,7.663,0,0,0,4.10883-1.84314A5.91224,5.91224,0,0,0,155.55156,94.559ZM71.252,97.53986a1.94177,1.94177,0,0,1-1.09534-.42579.87487.87487,0,0,1-.4212-.66131.64043.64043,0,0,1,.27038-.52985A5.26448,5.26448,0,0,1,72.39653,94.837h.00006a.59368.59368,0,0,1,.46478.17341.65021.65021,0,0,1,.12354.52533C72.50706,96.91125,71.9583,97.53986,71.252,97.53986Zm4.25891-6.36609a1.45438,1.45438,0,0,1-1.35846.95221q-.04623,0-.09326-.00287c-.70093-.0426-1.57471-.22119-1.7569-.83008-.04395-.14679-.10309-.32007-.16785-.50983-.30536-.89453-.72345-2.11956-.33654-2.79406a.92823.92823,0,0,1,.65612-.44623,1.63971,1.63971,0,0,1,.32434-.03473h.00019c.70855,0,1.02215.53467,1.35425,1.10077a3.5695,3.5695,0,0,0,.72821.96942C75.14934,89.82092,75.82451,90.389,75.51091,91.17377Zm30.3006-42.19556a3.46657,3.46657,0,0,1,.64587-.38477,1.83945,1.83945,0,0,1,.711-.15441,1.3156,1.3156,0,0,1,1.15661.67669,2.30929,2.30929,0,0,1,.086,2.61231c-.20507.33227-.41211.48706-.65149.48706a1.1079,1.1079,0,0,1-.53259-.19885,1.92514,1.92514,0,0,0-.32831-.1637.939.939,0,0,0-.30468-.05322.62621.62621,0,0,0-.51978.24206.49144.49144,0,0,0-.051.46076,2.00444,2.00444,0,0,0,1.69348,1.39367,4.29053,4.29053,0,0,0,.51019.03723,1.08853,1.08853,0,0,0,1.17529-.78167,2.69374,2.69374,0,0,1,.52-.869,1.489,1.489,0,0,1,1.04645-.61646c.39526,0,.74274.2837,1.03271.84321a2.41586,2.41586,0,0,1,.17182.495,2.3426,2.3426,0,0,0,.14349.42792,3.25572,3.25572,0,0,0,2.98456,1.95038l.07459.00085a3.32531,3.32531,0,0,0,2.93078-1.97247,3.79685,3.79685,0,0,0,.006-3.14923.64414.64414,0,0,0-.53479-.3888.71726.71726,0,0,0-.36566.11866c-.17084.10345-.10278.35864.02051.73614a2.34825,2.34825,0,0,1,.135.557,2.09463,2.09463,0,0,1-1.78381,2.19482,1.674,1.674,0,0,1-.443.06275c-.7074,0-1.301-.52009-1.71661-1.50409a5.64188,5.64188,0,0,1,.44006-5.11658,3.744,3.744,0,0,1,3.20752-1.72583q.11106,0,.225.00555c1.66711.0813,2.73382.48328,3.357,1.265.9184,1.15191.72827,3.09216.386,5.01727a10.65987,10.65987,0,0,1-.47028,1.62427,7.91488,7.91488,0,0,0-.48932,1.86926,13.65978,13.65978,0,0,1-2.186,5.605q-.18163.31567-.36243.63281a2.00571,2.00571,0,0,1-1.28674,1.17371,2.61279,2.61279,0,0,1-.55914.087c-.39124,0-.62037-.21844-.70044-.66784-.03022-.16931-.0484-.34131-.06653-.51319a4.88265,4.88265,0,0,0-.10523-.68835,3.19981,3.19981,0,0,0-3.03314-2.632,3.33548,3.33548,0,0,0-2.05816.7572c-1.762,1.38239-2.00159,2.99878-1.63831,4.05054a1.70908,1.70908,0,0,0,1.47223,1.27869,1.21711,1.21711,0,0,0,.62414-.17841.217.217,0,0,0,.11695-.13873c.0415-.17218-.14081-.46039-.30164-.71466a2.49931,2.49931,0,0,1-.31341-.60334,1.57848,1.57848,0,0,1,.88324-1.96051,1.90366,1.90366,0,0,1,.84368-.21252,1.76518,1.76518,0,0,1,1.289.60608,2.75362,2.75362,0,0,1,.77044,2.07428,5.56568,5.56568,0,0,1-3.34894,4.29907,3.91892,3.91892,0,0,1-1.02789.13434,5.46618,5.46618,0,0,1-3.7536-1.67108,4.5911,4.5911,0,0,1-1.44116-3.23126c.0083-1.02008.47949-1.607,1.32666-1.65265.791-.04261,2.7027-2.01477,2.83789-2.51233a2.47463,2.47463,0,0,0-.553-1.998,1.61528,1.61528,0,0,0-1.03546-.72864.37861.37861,0,0,0-.35474.25715c-.04736.10137.11139.34777.265.58606.40606.63006,1.01965,1.58227-.27631,2.43164a1.12684,1.12684,0,0,1-.62054.20044c-.45789,0-.91718-.32544-1.36506-.96723A6.99463,6.99463,0,0,1,105.81151,48.97821ZM94.436,67.23181A5.56568,5.56568,0,0,1,91.087,62.93268a2.75345,2.75345,0,0,1,.77045-2.07422,1.76525,1.76525,0,0,1,1.289-.60608,1.90351,1.90351,0,0,1,.84369.21252,1.5785,1.5785,0,0,1,.88324,1.96051,2.49758,2.49758,0,0,1-.31342.60334c-.16089.25427-.34314.54248-.30164.7146a.21693.21693,0,0,0,.117.13879,1.21711,1.21711,0,0,0,.62414.17841,1.709,1.709,0,0,0,1.47229-1.27869c.36335-1.0517.12372-2.66809-1.63836-4.05054a3.33639,3.33639,0,0,0-2.05823-.7572,3.19948,3.19948,0,0,0-3.03308,2.632,4.871,4.871,0,0,0-.10517.68823c-.01812.17188-.03637.34394-.06658.51337-.08008.44934-.30921.66778-.70044.66778a2.61173,2.61173,0,0,1-.55915-.087A2.00574,2.00574,0,0,1,87.024,61.21478q-.18-.31742-.36231-.63257A13.66183,13.66183,0,0,1,84.47545,54.977a7.91178,7.91178,0,0,0-.48926-1.86926,10.65913,10.65913,0,0,1-.47028-1.62421c-.34222-1.92517-.53241-3.86542.386-5.01733.62311-.78168,1.68988-1.18366,3.357-1.265.07581-.00372.15119-.00555.225-.00555a3.74424,3.74424,0,0,1,3.20776,1.72577,5.64192,5.64192,0,0,1,.43982,5.11664c-.41558.984-1.00921,1.50409-1.71661,1.50409a1.67384,1.67384,0,0,1-.443-.06275,2.09464,2.09464,0,0,1-1.78382-2.19482,2.35117,2.35117,0,0,1,.135-.557c.12329-.3775.19135-.63269.02057-.73614a.71725.71725,0,0,0-.36572-.11866.644.644,0,0,0-.53485.38849,3.79665,3.79665,0,0,0,.006,3.14954A3.32534,3.32534,0,0,0,89.38,55.38336l.07452-.00085a3.25585,3.25585,0,0,0,2.98462-1.95038,2.34558,2.34558,0,0,0,.14343-.42792,2.42,2.42,0,0,1,.17182-.495c.29-.55951.63745-.84321,1.03277-.84321a1.48878,1.48878,0,0,1,1.04639.61652,2.69286,2.69286,0,0,1,.52.8689,1.08854,1.08854,0,0,0,1.17529.78167,4.29246,4.29246,0,0,0,.51019-.03723,2.00446,2.00446,0,0,0,1.69349-1.39367.49153.49153,0,0,0-.05091-.4607.62661.62661,0,0,0-.51983-.24212.939.939,0,0,0-.30463.05322,1.92514,1.92514,0,0,0-.32831.1637,1.10855,1.10855,0,0,1-.53265.19885c-.23938,0-.44641-.15479-.65149-.48706a2.30929,2.30929,0,0,1,.086-2.61231,1.31561,1.31561,0,0,1,1.15661-.67669,1.84039,1.84039,0,0,1,.711.15435,3.46961,3.46961,0,0,1,.64588.38483,6.99464,6.99464,0,0,1,1.49011,9.10205c-.44788.64179-.90717.96723-1.36511.96723a1.12606,1.12606,0,0,1-.62043-.20051c-1.29608-.84936-.68243-1.80157-.27636-2.43164.1535-.23828.31225-.48462.26495-.586a.37869.37869,0,0,0-.3548-.25715,1.61548,1.61548,0,0,0-1.03546.72852,2.47459,2.47459,0,0,0-.553,1.99811c.13526.49756,2.04694,2.46972,2.83789,2.51233.84717.04565,1.31836.63257,1.32666,1.65265A4.591,4.591,0,0,1,99.21745,65.695a5.46629,5.46629,0,0,1-3.7536,1.6712A3.919,3.919,0,0,1,94.436,67.23181Zm8.96637,20.14673a14.29685,14.29685,0,0,1-.27076,2.1853.88532.88532,0,0,1-.56756.56494.39166.39166,0,0,1-.10578.01325l-.04907-.00159-.03283-.00122-.02979.00122-.04913.00159a.39291.39291,0,0,1-.10565-.01318.88544.88544,0,0,1-.56769-.56507,14.2921,14.2921,0,0,1-.27075-2.18524c-.13263-3.85956-3.57416-14.10181-4.71772-15.39484a1.38954,1.38954,0,0,1-.37957-1.28589,1.06055,1.06055,0,0,1,.74261-.71752c2.22644-.67566,3.409-2.37189,4.661-4.16767q.21936-.31476.44086-.62811l.06268-.08814.09412.05323a.12528.12528,0,0,0,.24121,0l.09411-.05316.06269.08807q.22228.31246.44079.628c1.252,1.79584,2.43445,3.49213,4.661,4.16779a1.0606,1.0606,0,0,1,.74256.71752A1.38943,1.38943,0,0,1,108.12,71.9837C106.97648,73.27673,103.535,83.519,103.40233,87.37854Zm27.29412,4.74457c-.03131.00189-.0625.00287-.09326.00287a1.45438,1.45438,0,0,1-1.35846-.95221c-.31359-.78479.36158-1.35285.64991-1.5954a3.57219,3.57219,0,0,0,.72833-.96936c.33209-.5661.64581-1.10083,1.35431-1.10083a1.641,1.641,0,0,1,.32434.03473.92825.92825,0,0,1,.65613.44623c.3869.6745-.03119,1.89953-.33649,2.794-.06482.18982-.124.3631-.16791.50989C132.27116,91.90192,131.39738,92.08051,130.69645,92.12311Zm3.90253,4.991a1.94193,1.94193,0,0,1-1.09534.42579c-.70629,0-1.25506-.62861-1.727-1.97809a.66473.66473,0,0,1,.11761-.55133.59365.59365,0,0,1,.46484-.17347,5.26468,5.26468,0,0,1,2.39069,1.08594.64031.64031,0,0,1,.27039.52985A.87472.87472,0,0,1,134.599,97.11407Z" style="fill: #fff"/>
      </g>
      <g>
        <path class="falling-1" d="M76.33859,90.84811c1.94384-1.81416,3.94127-1.7391,6.08933-.432C80.38414,92.39753,78.85382,92.51,76.33859,90.84811Z" style="fill: #fff"/>
        <path class="falling-3" d="M90.95562,67.2336c.00309-.09639.00368-.19289-.00135-.28924-.00254-.0487-.00779-.09688-.01217-.14545l0-.00186-.00158-.01-.01-.067c-.01133-.07265-.02431-.145-.03731-.2174A2.90721,2.90721,0,0,1,90.711,65.979a2.08842,2.08842,0,0,0-2.7794-1.09108A2.8738,2.8738,0,0,0,89.84344,67.576a4.2188,4.2188,0,0,0,.88485-.03977c.0732-.01042.14479-.02824.217-.04328C90.94884,67.40679,90.9528,67.32051,90.95562,67.2336Z" style="fill: #fff"/>
        <path class="falling-2" d="M139.387,73.35915c-1.46829,2.5097-2.3108,2.81545-4.73656,1.84228C136.38633,72.64008,136.39478,72.63654,139.387,73.35915Z" style="fill: #fff"/>
      </g>
    </g>
  </g>
</svg>
