<svg xmlns="http://www.w3.org/2000/svg" viewBox="0 0 204.40449 204.40449">
  <title>elimination</title>
  <g class="Layer_2" data-name="Layer 2">
    <g class="base0">
      <circle class="circle_circle4" data-name="circle circle4" cx="102.25304" cy="102.11232" r="73.26325" style="fill: none;stroke: #fff;stroke-miterlimit: 10;stroke-width: 0.75px;opacity: 0.02"/>
      <circle class="circle_circle3" data-name="circle circle3" cx="102.25304" cy="102.11232" r="69.77452" style="fill: none;stroke: #fff;stroke-miterlimit: 10;stroke-width: 0.75px;opacity: 0.05"/>
      <circle class="circle_circle2" data-name="circle circle2" cx="102.25304" cy="102.11232" r="67.12316" style="fill: none;stroke: #fff;stroke-miterlimit: 10;stroke-width: 0.75px;opacity: 0.1"/>
      <circle class="circle_circle1" data-name="circle circle1" cx="102.25304" cy="102.11232" r="65.10946" style="fill: none;stroke: #fff;stroke-miterlimit: 10;stroke-width: 0.75px;opacity: 0.15"/>
    </g>
    <g class="elimination">
      <circle class="orange" cx="102.20241" cy="103.11435" r="52.77734" style="fill: #cc3c1d;opacity: 0.8"/>
      <polygon points="39.246 84.484 35.495 88.236 39.246 91.987 42.998 88.236 39.246 84.484 39.246 84.484" style="fill: #fff;fill-rule: evenodd"/>
      <polygon points="39.246 99.925 35.495 103.677 39.246 107.428 42.998 103.677 39.246 99.925 39.246 99.925" style="fill: #fff;fill-rule: evenodd"/>
      <polygon points="39.246 115.367 35.495 119.118 39.246 122.87 42.998 119.118 39.246 115.367 39.246 115.367" style="fill: #fff;fill-rule: evenodd"/>
      <polygon points="165.158 84.484 161.407 88.236 165.158 91.987 168.91 88.236 165.158 84.484 165.158 84.484" style="fill: #fff;fill-rule: evenodd"/>
      <polygon points="165.158 99.925 161.407 103.677 165.158 107.428 168.91 103.677 165.158 99.925 165.158 99.925" style="fill: #fff;fill-rule: evenodd"/>
      <polygon points="165.158 115.367 161.407 119.118 165.158 122.87 168.91 119.118 165.158 115.367 165.158 115.367" style="fill: #fff;fill-rule: evenodd"/>
      <path d="M107.56352,111.29408l-10.67674,5.21421v44.161c0,3.13591,1.87513,14.3056,5.33837,17.83778,3.60208-3.42214,5.33837-14.70187,5.33837-17.83778V111.29408Z" style="fill: #fff;fill-rule: evenodd"/>
      <path d="M152.18364,82.405A53.975,53.975,0,0,0,104.574,49.312V42.05737h2.33122V35.60206h-1.98752l-2.77325-2.38037-2.77325,2.38037H97.545v6.45531h2.33122v7.26914a53.977,53.977,0,0,0-46.22593,77.0477c-4.5019,2.94125-7.9765,5.37535-8.91091,5.96995-1.81231,1.1533-1.97706,1.81231.49427,1.1533,1.30132-.347,5.52635-1.24224,10.77472-2.7097a53.96635,53.96635,0,0,0,96.90479-46.54529c5.15875-2.69156,8.82734-4.608,9.46164-4.94959,2.14181-1.15329,1.64754-1.4828-.32952-.659-.627.26127-4.38631,1.68262-9.86167,3.77115ZM57.81583,123.70315A49.07256,49.07256,0,0,1,99.87625,54.23624v4.5635l-1.09818,7.32075-1.23745,1.87614H88.60571l-1.3892-1.38919v-.34261h-3.7118v7.90776h3.7118v-.615l1.28221-1.28221h8.38806v32.3074c-13.19341,5.5945-21.08358,8.9973-29.0816,13.26292-3.30147,1.76079-6.76834,3.834-9.98935,5.85747ZM104.574,54.2203a49.06941,49.06941,0,0,1,43.02517,29.93678c-11.73565,4.49461-28.19023,10.87639-40.03567,15.89774V72.27536h8.33107l1.51017,1.51017v.38706h3.71181V66.26482h-3.71181v.18883l-1.543,1.543h-8.95215l-1.23744-1.87614L104.574,58.79974V54.2203Zm43.9546,32.30941a49.05827,49.05827,0,0,1-87.65629,42.80905,95.851,95.851,0,0,0,10.39272-3.91433c10.54435-4.77791,28.5027-13.34519,40.36508-19.60592,7.41869-3.91542,24.56769-12.85708,36.89849-19.2888Z" style="fill: #fff;fill-rule: evenodd"/>
    </g>
  </g>
</svg>
