<svg xmlns="http://www.w3.org/2000/svg" viewBox="0 0 50.3999 47.99771">
  <title>dawning</title>
  <g id="Layer_2" data-name="Layer 2">
    <g id="Layer_2-2" data-name="Layer 2">
      <g id="flake">
        <path d="M28.12332,21.06292c.009-.091.015-.165.025-.238q.057-.3885.116-.777.088-.589.174-1.178c.033-.222.059-.446.096-.667a2.21666,2.21666,0,0,1,.848-1.369,2.38628,2.38628,0,0,1,.716-.385l.017-.005q1.657-.581,3.311-1.167c.169-.06.339-.12.508-.181a.84974.84974,0,0,0,.317-.206h0q.595-.606,1.2-1.2a.50811.50811,0,0,0,.175-.303,3.509,3.509,0,0,1,.097-.381l-.007.025.555-.142a1.84608,1.84608,0,0,1-.101.581c-.026.017-.038.032-.051.033a1.21732,1.21732,0,0,0-.818.46c-.323.349-.667.677-1.005,1.011a.80008.80008,0,0,0-.198.314l-.002.006c-.208.603-.429,1.201-.642,1.803q-.353.997-.702,1.993a2.40466,2.40466,0,0,1-.63.999l-.001.001a2.15136,2.15136,0,0,1-1.191.589c-.579.077-1.155.173-1.733.258-.326.048-.652.093-.979.138a.53591.53591,0,0,1-.099-.011l.003.001Z" style="fill: #fcd2bb"/>
        <path d="M28.11932,26.92592c.294.039.546.071.798.106.289.04.578.081.867.125.458.071.922.122,1.374.224a2.136,2.136,0,0,1,1.316.957,2.61183,2.61183,0,0,1,.281.59l.005.019q.672,1.911,1.353,3.819a.64216.64216,0,0,0,.143.224h0c.429.436.864.865,1.292,1.3a.592.592,0,0,0,.314.155h.003l.299.067c.05.195.1.388.157.613l-.605-.154a.9499.9499,0,0,1-.044-.16l-.001-.007a.99389.99389,0,0,0-.355-.627c-.378-.358-.741-.732-1.106-1.103a.605.605,0,0,0-.239-.151l-.004-.001q-1.19-.415-2.377-.838c-.538-.191-1.076-.38-1.609-.583a2.26977,2.26977,0,0,1-1.422-1.555,4.86753,4.86753,0,0,1-.111-.664q-.086-.578-.168-1.156c-.037-.26-.071-.52-.106-.78C28.15832,27.21593,28.14032,27.08493,28.11932,26.92592Z" style="fill: #fcd2bb"/>
        <path d="M14.08132,12.87992c.191.051.342.097.495.129.087.018.136.054.142.145a1.0357,1.0357,0,0,0,.398.702c.369.345.718.711,1.075,1.07a.61343.61343,0,0,0,.235.156l.004.001q1.382.483,2.759.975c.396.14.796.272,1.186.426a2.2351,2.2351,0,0,1,1.502,1.842c.087.578.176,1.155.263,1.733.045.311.091.622.136.934a.31281.31281,0,0,1-.014.082l.001-.002c-.141-.014-.281-.024-.419-.045-.453-.067-.903-.14-1.355-.207-.341-.051-.68-.105-1.024-.145a2.04116,2.04116,0,0,1-1.107-.515,2.55517,2.55517,0,0,1-.74-1.141c-.36-1.035-.733-2.066-1.1-3.098-.083-.233-.159-.469-.246-.7a.61244.61244,0,0,0-.126-.207h0c-.434-.441-.875-.875-1.309-1.317a.56207.56207,0,0,0-.299-.139c-.308-.072-.308-.072-.385-.369-.023-.092-.043-.185-.072-.313Z" style="fill: #fcd2bb"/>
        <path d="M14.07432,35.12392l.159-.615c.119-.024.236-.045.351-.072a.5473.5473,0,0,0,.272-.149h0q.634-.646,1.281-1.28a.67137.67137,0,0,0,.158-.261l.001-.005q.574-1.636,1.15-3.27a8.22491,8.22491,0,0,1,.362-.921,2.22384,2.22384,0,0,1,1.457-1.191,6.16172,6.16172,0,0,1,.709-.115c.281-.042.563-.084.845-.123.362-.051.728-.1,1.091-.15l.369-.051c-.036.268-.066.511-.101.753-.037.259-.08.518-.117.777-.034.237-.061.476-.097.713a6.39125,6.39125,0,0,1-.136.796,2.21248,2.21248,0,0,1-1.38,1.533c-.819.317-1.651.597-2.479.89-.502.178-1.007.346-1.509.525a.6883.6883,0,0,0-.244.153h0c-.441.433-.876.874-1.314,1.308a.50917.50917,0,0,0-.139.296v.002c-.051.299-.055.299-.349.37-.103.022-.203.05-.339.085Z" style="fill: #fcd2bb"/>
        <path d="M24.08532,23.97692c-.082.073-.134.126-.192.17-.459.341-.911.692-1.38,1.017a1.52878,1.52878,0,0,1-1.852.009c-.217-.149-.418-.32-.631-.475a3.66494,3.66494,0,0,0-1.341-.615l-.025-.005a.43193.43193,0,0,0-.091-.009h-.159l-.284.351a2.96217,2.96217,0,0,1-.265-.212l.003.002a.25459.25459,0,0,1,.004-.412,2.92465,2.92465,0,0,1,.25-.196l.009-.006c.097.126.19.248.295.385a2.72152,2.72152,0,0,0,1.209-.412c.338-.224.665-.467.989-.711a1.51678,1.51678,0,0,1,1.363-.272,1.76547,1.76547,0,0,1,.614.325c.463.348.933.687,1.401,1.028a.629.629,0,0,0,.078.036l.004.001Z" style="fill: #fff"/>
        <path d="M32.26032,24.39692c-.096-.129-.181-.239-.277-.368a1.68953,1.68953,0,0,0-.634.131,3.72426,3.72426,0,0,0-1.127.647q-.251.192-.508.375a1.52266,1.52266,0,0,1-1.812-.005c-.437-.32-.868-.647-1.303-.969-.091-.067-.181-.129-.29-.204.211-.157.408-.306.608-.453.309-.227.626-.443.929-.68a1.55512,1.55512,0,0,1,1.959.01c.247.185.487.381.745.548a3.10675,3.10675,0,0,0,1.421.519c.096-.124.186-.239.29-.373a2.86194,2.86194,0,0,1,.268.208l-.004-.003a.27762.27762,0,0,1-.02.432,2.70143,2.70143,0,0,1-.243.186Z" style="fill: #fff"/>
        <path d="M25.19032,22.8838c-.341-.467-.657-.896-.969-1.326a3.25592,3.25592,0,0,1-.337-.504,1.47755,1.47755,0,0,1,.077-1.483c.122-.198.276-.374.412-.564a4.29162,4.29162,0,0,0,.644-1.08l-.007.023a3.256,3.256,0,0,0,.171-.731c-.075-.05-.136-.084-.199-.133s-.121-.104-.181-.155c.051-.065.104-.129.153-.195a.29491.29491,0,0,1,.507-.019l-.004-.005a2.6103,2.6103,0,0,1,.165.229l-.362.291v.006a2.42057,2.42057,0,0,0,.376,1.187c.218.359.47.697.719,1.036a1.52471,1.52471,0,0,1,0,1.863c-.238.336-.487.666-.733.997-.134.18-.273.356-.431.563Z" style="fill: #fff"/>
        <path d="M25.19132,25.12192c.158.207.297.383.431.563.246.331.495.661.733.997a1.52471,1.52471,0,0,1,0,1.863c-.249.339-.501.677-.719,1.036a2.42057,2.42057,0,0,0-.376,1.187v.006l.362.291a2.61158,2.61158,0,0,1-.165.229l.004-.005a.29491.29491,0,0,1-.507-.019c-.049-.066-.102-.13-.153-.195.06-.051.118-.106.181-.155s.124-.083.199-.133a3.256,3.256,0,0,0-.171-.731l.007.023a4.2918,4.2918,0,0,0-.644-1.08c-.136-.19-.29-.366-.412-.564a1.47755,1.47755,0,0,1-.077-1.483,3.25592,3.25592,0,0,1,.337-.504c.312-.43.628-.859.969-1.326Z" style="fill: #fff"/>
        <path d="M9.18132,24.04092a1.871,1.871,0,0,1,.226-.05l.011-.001a4.1053,4.1053,0,0,0,2.129-.786c.404-.288.8-.587,1.201-.879a2.25751,2.25751,0,0,1,1.369-.459h.019a2.33558,2.33558,0,0,1,1.377.494c.66.486,1.322.969,1.982,1.455.078.057.147.125.236.202-.267.202-.515.395-.77.58-.521.382-1.049.757-1.568,1.141a2.06111,2.06111,0,0,1-.826.365l-.013.002a2.22156,2.22156,0,0,1-1.845-.443c-.401-.303-.809-.603-1.23-.878a4.33489,4.33489,0,0,0-1.728-.67l-.025-.003c-.163-.024-.327-.042-.544-.07Zm1.676,0a5.41437,5.41437,0,0,1,1.221.68l-.014-.01c.337.24.667.489.999.735a1.87427,1.87427,0,0,0,2.08.003c.554-.399,1.105-.807,1.655-1.21.096-.071.188-.146.299-.233-.04-.03-.063-.049-.088-.067-.606-.444-1.205-.899-1.82-1.33a1.789,1.789,0,0,0-2.055-.077c-.194.112-.368.259-.552.39-.366.262-.729.531-1.103.782-.185.123-.393.213-.622.338Z" style="fill: #fcd2bb"/>
        <path d="M32.65332,23.98192c.644-.474,1.268-.934,1.891-1.392.181-.133.362-.272.552-.39a2.15017,2.15017,0,0,1,2.11-.152,3.04219,3.04219,0,0,1,.506.309l-.008-.006c.453.312.887.648,1.35.942a4.12854,4.12854,0,0,0,1.686.604l.021.002c.126.017.251.039.42.065-.241.037-.444.062-.645.101a4.49353,4.49353,0,0,0-1.88.86l.01-.008c-.366.276-.739.544-1.113.808a1.95064,1.95064,0,0,1-.699.329l-.014.003a2.2823,2.2823,0,0,1-1.942-.408c-.487-.365-.982-.721-1.471-1.082-.252-.189-.503-.381-.775-.585Zm6.855-.02c-.116-.058-.219-.103-.317-.158-.236-.133-.478-.257-.701-.41-.322-.221-.627-.467-.943-.698a2.16958,2.16958,0,0,0-1.019-.448,1.79957,1.79957,0,0,0-1.323.334l.005-.003c-.586.421-1.168.848-1.751,1.275a1.86267,1.86267,0,0,0-.144.135l-.001.001c.052.045.082.081.119.107.575.424,1.145.856,1.727,1.268a1.80176,1.80176,0,0,0,2.092.104,9.88372,9.88372,0,0,0,.844-.602,6.96081,6.96081,0,0,1,1.309-.837.7259.7259,0,0,0,.104-.07l-.001.001Z" style="fill: #fcd2bb"/>
        <path d="M25.20932,39.91192a1.25358,1.25358,0,0,1-.018-.141v-.005a3.79507,3.79507,0,0,0-.288-1.22,6.20745,6.20745,0,0,0-.911-1.471c-.161-.217-.317-.438-.48-.655a2.28786,2.28786,0,0,1-.444-1.251v-.005c-.002-.028-.002-.062-.002-.095a1.88374,1.88374,0,0,1,.164-.774l-.005.012a2.872,2.872,0,0,1,.306-.563l-.006.009c.532-.738,1.076-1.466,1.615-2.199a.75867.75867,0,0,0,.051-.111l.002-.005c.13.171.227.293.317.419.488.667.98,1.332,1.462,2.004a2.10741,2.10741,0,0,1,.377,1.431,2.301,2.301,0,0,1-.475,1.198c-.312.424-.634.842-.916,1.284a4.22017,4.22017,0,0,0-.643,1.693l-.003.023c-.02.14-.042.28-.063.419Zm.025-1.592c.045-.083.077-.147.112-.21.14-.249.265-.507.424-.743.256-.38.523-.754.808-1.112a1.91045,1.91045,0,0,0,.063-2.212c-.304-.41-.6-.827-.901-1.239-.167-.227-.338-.453-.517-.694-.053.063-.094.106-.129.154q-.236.317-.469.634c-.3.413-.619.815-.893,1.245a1.75457,1.75457,0,0,0-.107,1.721,4.71,4.71,0,0,0,.538.803,13.00391,13.00391,0,0,1,.876,1.282c.063.116.123.233.196.372Z" style="fill: #fcd2bb"/>
        <path d="M25.24932,8.0968c.021.139.043.279.063.419l.003.023a4.22017,4.22017,0,0,0,.643,1.693c.282.442.604.86.916,1.284a2.301,2.301,0,0,1,.475,1.198,2.10741,2.10741,0,0,1-.377,1.431c-.482.672-.974,1.337-1.462,2.004-.09.126-.187.248-.317.419l-.002-.005a.75916.75916,0,0,0-.051-.111c-.539-.733-1.083-1.461-1.615-2.199l.006.009a2.872,2.872,0,0,1-.306-.563l.005.012a1.88371,1.88371,0,0,1-.164-.774c0-.033,0-.067.002-.095v-.005a2.28785,2.28785,0,0,1,.444-1.251c.163-.217.319-.438.48-.655a6.20745,6.20745,0,0,0,.911-1.471,3.795,3.795,0,0,0,.288-1.22v-.005a1.25408,1.25408,0,0,1,.018-.141Zm-.014,1.588c-.073.139-.133.256-.196.372a13.00391,13.00391,0,0,1-.876,1.282,4.71044,4.71044,0,0,0-.538.803,1.75457,1.75457,0,0,0,.107,1.721c.274.43.593.832.893,1.245q.233.317.469.634c.035.048.076.091.129.154.179-.241.35-.467.517-.694.301-.412.597-.829.901-1.239a1.91045,1.91045,0,0,0-.063-2.212c-.285-.358-.552-.732-.808-1.112-.159-.236-.284-.494-.424-.743-.035-.063-.067-.127-.112-.21Z" style="fill: #fcd2bb"/>
        <path d="M24.23032,23.97992a.98931.98931,0,0,1,.988-.959,1.01381,1.01381,0,0,1,.965.991,1.02511,1.02511,0,0,1-.987.973.99339.99339,0,0,1-.967-1.005Z" style="fill: #fff"/>
        <path d="M29.83832,14.07692l-.213.166-.129-.111.174-.167c-.068-.091-.162-.027-.257-.075l-.01-.177.268-.013-.149-.212.087-.116.201.156c.077-.076.027-.167.061-.256l.145-.02c.011.091.021.17.035.282l.231-.158.115.086-.164.212a.76134.76134,0,0,0,.131.032l.005.001c.072.003.144.007.146.099.003.106-.077.11-.157.11a.69759.69759,0,0,0-.129.029l.005-.001.155.201-.102.11-.227-.173c-.017.106-.031.188-.045.279h-.143c-.008-.08-.017-.159-.031-.284Z" style="fill: #fff"/>
        <path d="M30.03732,33.95092l.212-.181.1.115-.16.225.272.038.01.149-.285.03c.061.084.106.146.162.222l-.112.097-.2-.158c-.009.094-.016.166-.026.262l-.189.012c-.005-.094-.009-.167-.015-.272l-.231.181-.091-.122.16-.218-.276-.033-.011-.142.285-.045-.157-.214.081-.127.175.131c.106-.034.05-.133.094-.21l.165-.035c.015.099.025.186.038.294Z" style="fill: #fff"/>
        <path d="M14.73732,28.84092l-.272-.033v-.134c.067-.073.205.025.255-.116l-.145-.161.091-.118.217.171c.012-.082.021-.136.027-.189v-.005a.096.096,0,0,1,.096-.096h.002l.012-.001a.09282.09282,0,0,1,.093.093h0c.006.051.006.102.01.159.115.021.14-.091.227-.12l.106.1-.143.181c.045.118.162.041.246.097l.012.13-.285.045.173.234-.12.094-.209-.174c-.008.098-.014.17-.021.257a.52429.52429,0,0,1-.096.02h-.003a.42433.42433,0,0,1-.09-.013l.003.001c-.009-.091.068-.188-.06-.255l-.178.158-.104-.099c.049-.071.097-.14.157-.227Z" style="fill: #fff"/>
        <path d="M20.22432,13.94092l-.242-.045c0-.055-.005-.106-.008-.168l.223-.038c.016-.107-.091-.136-.124-.224l.114-.091.217.161c.014-.106.024-.181.037-.272h.15c.01.086.019.165.032.272l.209-.15c.109.095.109.095-.031.305.041.005.076.013.111.015s.074,0,.127,0c.009.061.016.116.027.188l-.272.033.144.209-.091.112c-.068-.053-.13-.101-.222-.173-.013.108-.023.184-.034.277l-.15.016c-.009-.093-.018-.172-.03-.288l-.221.163-.124-.084c.054-.071.1-.135.159-.217Z" style="fill: #fff"/>
        <path d="M35.57432,19.07692l.239-.188.084.097-.145.265h.247v.174l-.211.035c-.026.111.091.136.12.227l-.117.091-.213-.164c-.014.106-.024.184-.037.277l-.14.012-.045-.286-.217.159-.123-.091.185-.229-.243-.022c-.037-.168-.037-.168.19-.195a.35826.35826,0,0,0-.117-.23l.115-.105.207.168c.018-.107.031-.189.045-.281h.143c.009.08.018.159.033.284Z" style="fill: #fff"/>
        <path d="M20.40932,34.48792l-.202.189c-.031-.045-.06-.087-.093-.136l.159-.212-.276-.037c-.002-.045-.005-.091-.008-.147l.28-.035-.157-.221.106-.115.211.188c.024-.106.045-.188.063-.278h.136c.013.077.025.147.042.243l.22-.157.091.117c-.055.073-.101.136-.166.222l.275.035c.004.045.007.085.011.141l-.284.045.157.212-.082.126-.211-.159a.92845.92845,0,0,0-.034.105l-.001.006c-.006.036-.004.073-.007.126l-.178.016a.25582.25582,0,0,1-.013-.071v-.001c.011-.091.011-.091-.042-.205Z" style="fill: #fff"/>
        <path d="M35.33032,28.98192l-.217.207-.108-.117.157-.209c-.25-.077-.25-.077-.257-.205l.236-.026c.04-.126-.087-.154-.12-.249l.069-.087c.111,0,.133.164.272.116-.005-.045-.014-.094-.016-.143v-.006a.10115.10115,0,0,1,.201-.016v.001c.009.057.013.114.022.2l.222-.162.097.104c-.052.071-.098.134-.165.227l.269.048c.003.045.005.091.009.145l-.28.034.171.236-.096.088-.215-.181c-.018.109-.032.19-.048.285l-.141.006c-.019-.092-.035-.174-.06-.295Z" style="fill: #fff"/>
        <path d="M14.73532,19.45092l-.277-.013-.006-.146.26-.055a2.42245,2.42245,0,0,1-.113-.233l-.006-.016c-.006-.016.045-.051.071-.081l.22.163c.013-.106.023-.184.035-.276l.141-.012c.014.091.027.174.045.285l.215-.156.114.072a.23192.23192,0,0,1-.021.066l.001-.001c-.05.062-.131.11-.081.216l.188.013.014.152-.249.04.159.218-.103.095-.234-.167c-.011.067-.019.109-.024.15s-.006.073-.01.124l-.145.01c-.014-.091-.028-.174-.045-.284l-.203.154-.13-.075c.058-.073.111-.141.187-.241Z" style="fill: #fff"/>
      </g>
      <path id="snow_snow-1" data-name="snow snow-1" d="M25.22021,43.20767a.20046.20046,0,0,1-.20019-.2002h0a.20027.20027,0,0,1,.20019-.19922h0a.20016.20016,0,0,1,.19971.19922h0a.20036.20036,0,0,1-.19971.2002ZM20.25,42.568a.20028.20028,0,0,1-.14014-.25h0a.1896.1896,0,0,1,.24024-.13965h0a.19341.19341,0,0,1,.14013.23926h0a.19328.19328,0,0,1-.18994.15039H20.25Zm9.68994-.15039a.20068.20068,0,0,1,.14014-.25h0a.19791.19791,0,0,1,.24023.14062h0a.20068.20068,0,0,1-.14013.25h-.0503A.19555.19555,0,0,1,29.93994,42.41763ZM15.62012,40.6481v.00976h0a.21137.21137,0,0,1-.08008-.28027h0a.20775.20775,0,0,1,.28027-.06934h0a.19343.19343,0,0,1,.06983.26954h0a.20576.20576,0,0,1-.16993.10058h0A.17218.17218,0,0,1,15.62012,40.6481ZM34.54,40.55825a.18872.18872,0,0,1,.06982-.2705h0a.19666.19666,0,0,1,.27.07031h0a.19342.19342,0,0,1-.06982.26953h0a.18782.18782,0,0,1-.1001.03027h0A.177.177,0,0,1,34.54,40.55825Zm-22.8999-2.95019a.20511.20511,0,0,1,0-.29h0a.21192.21192,0,0,1,.27978,0h0a.20511.20511,0,0,1,0,.29h0a.18635.18635,0,0,1-.13965.0498h0A.18677.18677,0,0,1,11.64014,37.60806ZM38.5,37.57779a.19353.19353,0,0,1,0-.28028h0a.19344.19344,0,0,1,.28027,0h0a.19435.19435,0,0,1,0,.28028h0a.19859.19859,0,0,1-.14013.06054h0A.18287.18287,0,0,1,38.5,37.57779ZM8.58008,33.63833a.20609.20609,0,0,1,.06982-.2705h0a.19954.19954,0,0,1,.28028.07031h0a.20482.20482,0,0,1-.07032.26953h0a.21583.21583,0,0,1-.09961.03027h0A.22407.22407,0,0,1,8.58008,33.63833Zm32.98.04a.19055.19055,0,0,1-.06983-.27051H41.48a.2121.2121,0,0,1,.28027-.08007h0a.21873.21873,0,0,1,.06983.28027h0a.207.207,0,0,1-.16992.09961h0A.17266.17266,0,0,1,41.56006,33.67837ZM6.6499,29.01822h.01026a.19911.19911,0,0,1,.14013-.25h0a.20172.20172,0,0,1,.23975.13964h0a.19954.19954,0,0,1-.14014.25H6.8501A.20448.20448,0,0,1,6.6499,29.01822ZM43.5,29.11783a.20815.20815,0,0,1-.14014-.25v.00976a.21419.21419,0,0,1,.25-.14941h0a.20725.20725,0,0,1,.14014.25h0a.21009.21009,0,0,1-.18994.14941h0C43.54,29.12759,43.52,29.11783,43.5,29.11783ZM6,24.04751a.20058.20058,0,0,1,.2002-.19922h0a.20016.20016,0,0,1,.1997.19922h0a.20037.20037,0,0,1-.1997.2002h0A.20079.20079,0,0,1,6,24.04751Zm38-.04v-.04h0v-.03906h0a.20078.20078,0,0,1,.2002-.20019h0a.20036.20036,0,0,1,.1997.20019h0c0,.01953,0,.0293-.00976.03906h0a.06275.06275,0,0,1,.00976.04h0a.20036.20036,0,0,1-.1997.2002h0A.20078.20078,0,0,1,44,24.00747ZM6.78027,19.32779a.19953.19953,0,0,1-.14013-.25h0a.18511.18511,0,0,1,.23974-.13965h0a.19326.19326,0,0,1,.14014.24023h0a.19243.19243,0,0,1-.18994.14942H6.78027ZM43.34033,19.068h0a.20158.20158,0,0,1,.13965-.24023h0a.19977.19977,0,0,1,.25.13964h0a.19244.19244,0,0,1-.13965.24024h0a.12987.12987,0,0,1-.06006.00976h0A.2101.2101,0,0,1,43.34033,19.068ZM8.62012,14.71743A.199.199,0,0,1,8.54,14.4479h0a.2121.2121,0,0,1,.28027-.08007h0a.20833.20833,0,0,1,.06983.28027h0a.207.207,0,0,1-.16993.09961h0A.16541.16541,0,0,1,8.62012,14.71743Zm32.83008-.16992A.18561.18561,0,0,1,41.52,14.278h0a.18744.18744,0,0,1,.27.07031h0a.19565.19565,0,0,1-.06983.26954h0a.16646.16646,0,0,1-.10009.03027h0A.19282.19282,0,0,1,41.4502,14.54751Zm-29.85987-3.7998a.19353.19353,0,0,1,0-.28028h0a.19461.19461,0,0,1,.27979,0h0a.19345.19345,0,0,1,0,.28028h0a.19777.19777,0,0,1-.14014.06054h0A.19668.19668,0,0,1,11.59033,10.74771Zm26.84961-.08008h0a.20147.20147,0,0,1,0-.2793h0a.20511.20511,0,0,1,.29,0h0a.21117.21117,0,0,1,0,.2793h0a.19752.19752,0,0,1-.13965.06055h0A.20467.20467,0,0,1,38.43994,10.66763ZM15.48,7.67837a.19405.19405,0,0,1,.07031-.27051h0a.18636.18636,0,0,1,.27.07032h0a.188.188,0,0,1-.07031.26953h0a.16543.16543,0,0,1-.1001.03027h0A.207.207,0,0,1,15.48,7.67837ZM34.54,7.6979V7.68814a.19433.19433,0,0,1-.06983-.27051h0a.19778.19778,0,0,1,.27-.06934h0a.19651.19651,0,0,1,.08008.26954h0a.20013.20013,0,0,1-.18017.0996h0A.36323.36323,0,0,1,34.54,7.6979ZM20.03027,5.71743a.20834.20834,0,0,1,.13965-.25h0a.2082.2082,0,0,1,.25.14063h0a.20833.20833,0,0,1-.13965.25h0a.11156.11156,0,0,1-.05029.00977h0A.212.212,0,0,1,20.03027,5.71743Zm9.98.11036a.20064.20064,0,0,1-.15039-.24024h0a.21419.21419,0,0,1,.25-.14941h0a.20725.20725,0,0,1,.14014.25h0a.20078.20078,0,0,1-.18994.14941h0A.0755.0755,0,0,1,30.01025,5.82779Zm-5.07031-.82032a.20058.20058,0,0,1,.2002-.19922h0a.20058.20058,0,0,1,.20019.19922h0a.20078.20078,0,0,1-.20019.2002h0A.20078.20078,0,0,1,24.93994,5.00747Z" style="fill: #fff;opacity: 0.5"/>
      <path id="snow_snow-2" data-name="snow snow-2" d="M20.28027,45.66763a.21362.21362,0,0,1-.15039-.25h0a.20639.20639,0,0,1,.24024-.14941h0a.19931.19931,0,0,1,.1499.23925h0a.19436.19436,0,0,1-.19971.16016h-.04Zm9.63965-.16992a.20109.20109,0,0,1,.15039-.24024h0a.217.217,0,0,1,.23975.16016h0a.20161.20161,0,0,1-.1499.23047h0a.09307.09307,0,0,1-.0503.00976h0A.19149.19149,0,0,1,29.91992,45.49771Zm-18.54-4.10938a.19562.19562,0,0,1-.02978-.28027h0a.18637.18637,0,0,1,.27978-.03027h0a.19173.19173,0,0,1,.03028.2705h0a.20973.20973,0,0,1-.16016.08008h0A.19692.19692,0,0,1,11.37988,41.38833ZM38.77,41.32779a.19446.19446,0,0,1,.03027-.28028h0a.19554.19554,0,0,1,.27979.03028h0a.204.204,0,0,1-.02979.28027h0a.20006.20006,0,0,1-.13037.04h0A.18054.18054,0,0,1,38.77,41.32779ZM5.21,33.67837a.201.201,0,0,1,.09033-.27051h0a.20107.20107,0,0,1,.27.08985h0a.20524.20524,0,0,1-.1001.27051h0a.11015.11015,0,0,1-.08007.01953h0A.18986.18986,0,0,1,5.21,33.67837Zm39.73.04981a.20265.20265,0,0,1-.09961-.26075h0a.21345.21345,0,0,1,.26953-.0996h0a.201.201,0,0,1,.09034.2705h0a.18987.18987,0,0,1-.18018.10938h0A.12337.12337,0,0,1,44.93994,33.72818ZM3,24.04751a.20058.20058,0,0,1,.2002-.19922h0a.20016.20016,0,0,1,.1997.19922h0a.19435.19435,0,0,1-.1997.2002h0A.19475.19475,0,0,1,3,24.04751Zm44-.04h0v-.04h0v-.0498h0a.195.195,0,0,1,.2002-.2002h0a.201.201,0,0,1,.1997.2002h0c0,.02051-.00976.03027-.00976.0498h0c0,.01075.00976.03028.00976.04h0a.20036.20036,0,0,1-.1997.2002h0A.20078.20078,0,0,1,47,24.00747ZM5.26025,14.68814a.201.201,0,0,1-.09033-.27051h0a.20106.20106,0,0,1,.27-.08984h0a.20048.20048,0,0,1,.09033.25976h0a.19285.19285,0,0,1-.18017.12012h0A.29719.29719,0,0,1,5.26025,14.68814Zm39.54981-.21a.2012.2012,0,0,1,.08984-.27051h0a.20078.20078,0,0,1,.27.08984h0a.20969.20969,0,0,1-.08984.27051h0a.29689.29689,0,0,1-.08985.01953h0A.18987.18987,0,0,1,44.81006,14.47818ZM11.28027,6.96743a.19316.19316,0,0,1,.02979-.27929h0a.19433.19433,0,0,1,.28027.02929h0a.19562.19562,0,0,1-.03027.28028h0a.17321.17321,0,0,1-.12012.04h0A.19621.19621,0,0,1,11.28027,6.96743ZM38.73,6.91763h0a.19317.19317,0,0,1-.02978-.2793h0A.193.193,0,0,1,38.98,6.60806h0a.19435.19435,0,0,1,.03027.28027h0a.19923.19923,0,0,1-.16015.06934h0A.19091.19091,0,0,1,38.73,6.91763ZM20.05029,2.61783a.19179.19179,0,0,1,.14991-.24024h0a.18668.18668,0,0,1,.23.15039h0a.20115.20115,0,0,1-.14991.24024h-.04A.185.185,0,0,1,20.05029,2.61783ZM29.98,2.73794a.20377.20377,0,0,1-.1499-.24023h0a.19576.19576,0,0,1,.24023-.14942h0a.198.198,0,0,1,.1499.23926h0a.19564.19564,0,0,1-.20019.15039h-.04Z" style="fill: #fff;opacity: 0.25"/>
      <path id="snow_snow-3" data-name="snow snow-3" d="M17.43994,47.98794h0a.18754.18754,0,0,1-.12988-.25h0a.198.198,0,0,1,.25-.12988h0a.21112.21112,0,0,1,.12988.25h0a.20024.20024,0,0,1-.18994.13965h0A.12975.12975,0,0,1,17.43994,47.98794ZM32.75,47.84829a.20224.20224,0,0,1,.12988-.25h0a.18707.18707,0,0,1,.25.12989h0a.1972.1972,0,0,1-.11963.25h0a.17552.17552,0,0,1-.07031.00976h0A.21458.21458,0,0,1,32.75,47.84829ZM4.83008,38.85806a.2055.2055,0,0,1,.0498-.28027h0a.18411.18411,0,0,1,.27.04h0a.19546.19546,0,0,1-.04.28027h0a.24758.24758,0,0,1-.11963.04h0A.20976.20976,0,0,1,4.83008,38.85806Zm40.48,0a.1951.1951,0,0,1-.04-.28027h0a.20486.20486,0,0,1,.28027-.04981h0a.20781.20781,0,0,1,.04.29h0a.20973.20973,0,0,1-.16015.08008h0A.29153.29153,0,0,1,45.31006,38.85806ZM0,24.05825a.20078.20078,0,0,1,.2002-.20019h0a.20036.20036,0,0,1,.1997.20019h0a.20015.20015,0,0,1-.1997.19922h0A.20058.20058,0,0,1,0,24.05825Zm50-.05078v-.0498h0v-.04981h0a.189.189,0,0,1,.2002-.20019h0a.20036.20036,0,0,1,.1997.20019h0c0,.02051-.00976.03028-.00976.04981h0c0,.02051.00976.03027.00976.0498h0a.20036.20036,0,0,1-.1997.2002h0A.20078.20078,0,0,1,50,24.00747ZM4.82031,9.528A.20678.20678,0,0,1,4.77,9.24771h0a.20754.20754,0,0,1,.28027-.04981h0a.20715.20715,0,0,1,.04981.28028h0a.18912.18912,0,0,1-.16992.08007h0A.20474.20474,0,0,1,4.82031,9.528ZM45.21,9.35806h0a.19628.19628,0,0,1,.04-.28027h0a.19457.19457,0,0,1,.28027.04h0v.00976h0a.18514.18514,0,0,1-.04.27051h0a.19087.19087,0,0,1-.12011.04h0A.20976.20976,0,0,1,45.21,9.35806ZM17.21.30825a.198.198,0,0,1,.13037-.25h0a.1874.1874,0,0,1,.25.12989h0a.19747.19747,0,0,1-.12012.25h0A.202.202,0,0,1,17.3999.4479h0A.20112.20112,0,0,1,17.21.30825ZM32.79.38833a.18787.18787,0,0,1-.12988-.25h0a.20282.20282,0,0,1,.25-.13086h0a.21161.21161,0,0,1,.12988.25h0A.19993.19993,0,0,1,32.8501.3981h0A.12975.12975,0,0,1,32.79.38833Z" style="fill: #fff;opacity: 0.05"/>
    </g>
  </g>
</svg>
