<svg xmlns="http://www.w3.org/2000/svg" viewBox="0 0 158.34745 145.24366">
  <title>arcadian-valley-2_monochrome</title>
  <g id="Layer_2" data-name="Layer 2">
    <g id="Arcadian_Valley" data-name="Arcadian Valley">
      <g>
        <rect y="69.95541" width="75.28826" height="75.28826" rx="6.3622" style="fill: #fff;opacity: 0.1"/>
        <g style="opacity: 0.4">
          <path d="M61.84749,88.28139a3.32621,3.32621,0,1,1-6.652-.00317,3.3265,3.3265,0,0,1,6.652.00317Z" style="fill: #fff"/>
          <path d="M67.975,78.81679a3.43263,3.43263,0,0,1-3.25633,3.32669,3.37632,3.37632,0,0,1-3.30421-3.47634,3.28115,3.28115,0,0,1,6.56054.14965Z" style="fill: #fff"/>
          <path d="M16.58467,123.99507a3.39215,3.39215,0,0,1,3.21344,3.36355,3.51843,3.51843,0,0,1-3.278,3.35,3.50105,3.50105,0,0,1-3.31248-3.52022A3.37119,3.37119,0,0,1,16.58467,123.99507Z" style="fill: #fff"/>
          <path d="M39.76355,136.45014a3.36553,3.36553,0,0,1-3.29819,3.27791,3.43588,3.43588,0,0,1-3.30888-3.28365,3.48208,3.48208,0,0,1,3.4201-3.40618A3.44229,3.44229,0,0,1,39.76355,136.45014Z" style="fill: #fff"/>
          <path d="M19.79919,107.56668a3.294,3.294,0,1,1-3.212-3.341A3.36755,3.36755,0,0,1,19.79919,107.56668Z" style="fill: #fff"/>
          <path d="M22.7146,133.04081a3.3818,3.3818,0,0,1,3.20292,3.365,3.32913,3.32913,0,0,1-3.44539,3.316,3.39433,3.39433,0,0,1-3.11858-3.45006A3.44718,3.44718,0,0,1,22.7146,133.04081Z" style="fill: #fff"/>
          <path d="M30.07419,91.64006a3.31368,3.31368,0,1,1,3.33841-3.247A3.43814,3.43814,0,0,1,30.07419,91.64006Z" style="fill: #fff"/>
          <path d="M9.20327,94.65191A3.47849,3.47849,0,0,1,12.39566,98.063a3.33765,3.33765,0,0,1-3.56689,3.19074,3.29237,3.29237,0,0,1-3.06365-3.45547A3.457,3.457,0,0,1,9.20327,94.65191Z" style="fill: #fff"/>
          <path d="M22.70118,75.47135a3.31,3.31,0,0,1,3.2166,3.32509,3.36225,3.36225,0,0,1-3.21467,3.34288,3.334,3.334,0,1,1-.00193-6.668Z" style="fill: #fff"/>
          <path d="M58.47108,130.70157a3.60214,3.60214,0,0,1-3.27353-3.372,3.44241,3.44241,0,0,1,3.49191-3.31984,3.39735,3.39735,0,0,1,3.14729,3.42875A3.54887,3.54887,0,0,1,58.47108,130.70157Z" style="fill: #fff"/>
          <path d="M43.86862,85.02219a3.31206,3.31206,0,0,1,.17266,6.62154,3.31251,3.31251,0,1,1-.17266-6.62154Z" style="fill: #fff"/>
          <path d="M47.22978,127.51569a3.60739,3.60739,0,0,1-3.4633,3.18279,3.53313,3.53313,0,0,1-3.16881-3.65956,3.39992,3.39992,0,0,1,3.54264-3.02331A3.47019,3.47019,0,0,1,47.22978,127.51569Z" style="fill: #fff"/>
          <path d="M33.40308,127.49907a3.5834,3.5834,0,0,1-3.43628,3.20582,3.59156,3.59156,0,0,1-3.204-3.65352,3.32816,3.32816,0,0,1,6.64025.4477Z" style="fill: #fff"/>
          <path d="M12.39992,117.70253a3.3236,3.3236,0,1,1-3.351-3.20279A3.36675,3.36675,0,0,1,12.39992,117.70253Z" style="fill: #fff"/>
          <path d="M36.38168,82.13943a3.45966,3.45966,0,0,1-3.22217-3.36979,3.30451,3.30451,0,1,1,6.60543.16272A3.43016,3.43016,0,0,1,36.38168,82.13943Z" style="fill: #fff"/>
          <path d="M64.75832,139.72634a3.3446,3.3446,0,0,1-3.34289-3.21047,3.408,3.408,0,0,1,3.30584-3.48321,3.45284,3.45284,0,0,1,3.25089,3.34187A3.37741,3.37741,0,0,1,64.75832,139.72634Z" style="fill: #fff"/>
          <path d="M47.23372,107.5626a3.33209,3.33209,0,0,1-6.6601.05267A3.38886,3.38886,0,0,1,43.98,104.23915,3.42949,3.42949,0,0,1,47.23372,107.5626Z" style="fill: #fff"/>
          <path d="M54.37012,136.47478a3.35763,3.35763,0,0,1-3.30646,3.25082,3.41686,3.41686,0,0,1-3.275-3.30715,3.47577,3.47577,0,0,1,3.44014-3.3755A3.40379,3.40379,0,0,1,54.37012,136.47478Z" style="fill: #fff"/>
          <path d="M9.04943,133.03781a3.55076,3.55076,0,0,1,3.35,3.28485,3.46354,3.46354,0,0,1-3.424,3.40016,3.40984,3.40984,0,0,1-3.2221-3.3684A3.48827,3.48827,0,0,1,9.04943,133.03781Z" style="fill: #fff"/>
          <path d="M54.37081,78.863A3.40486,3.40486,0,0,1,51.078,82.14854a3.48375,3.48375,0,0,1-3.29586-3.30614,3.39285,3.39285,0,0,1,3.431-3.36144A3.3052,3.3052,0,0,1,54.37081,78.863Z" style="fill: #fff"/>
          <path d="M12.39865,78.75882A3.51232,3.51232,0,0,1,9.16584,82.142,3.47058,3.47058,0,0,1,5.75726,78.7328,3.35806,3.35806,0,0,1,9.078,75.47972,3.43583,3.43583,0,0,1,12.39865,78.75882Z" style="fill: #fff"/>
          <path d="M58.59105,104.23387a3.38977,3.38977,0,0,1,3.25324,3.30934,3.325,3.325,0,0,1-3.27415,3.26882,3.37086,3.37086,0,0,1-3.371-3.39913A3.41977,3.41977,0,0,1,58.59105,104.23387Z" style="fill: #fff"/>
          <path d="M30.15527,110.80212a3.32858,3.32858,0,0,1-3.40881-3.14062,3.331,3.331,0,1,1,6.66007-.15336A3.318,3.318,0,0,1,30.15527,110.80212Z" style="fill: #fff"/>
          <path d="M39.767,117.768a3.30475,3.30475,0,0,1-6.60458.11844A3.3029,3.3029,0,1,1,39.767,117.768Z" style="fill: #fff"/>
          <path d="M16.576,91.63992a3.311,3.311,0,0,1-3.36112-3.17684A3.29263,3.29263,0,1,1,16.576,91.63992Z" style="fill: #fff"/>
          <path d="M67.97572,97.93556a3.28144,3.28144,0,0,1-6.55875.19671,3.35467,3.35467,0,0,1,3.27453-3.48159A3.4069,3.4069,0,0,1,67.97572,97.93556Z" style="fill: #fff"/>
          <path d="M22.92475,114.4998a3.28864,3.28864,0,0,1,2.99319,3.49873,3.21962,3.21962,0,0,1-3.65555,3.01395,3.26828,3.26828,0,0,1-2.896-3.56944A3.32562,3.32562,0,0,1,22.92475,114.4998Z" style="fill: #fff"/>
          <path d="M51.06582,121.02136a3.24437,3.24437,0,0,1-3.27879-3.21462,3.32876,3.32876,0,0,1,3.21973-3.31034,3.26353,3.26353,0,0,1,3.36571,3.34943A3.19965,3.19965,0,0,1,51.06582,121.02136Z" style="fill: #fff"/>
          <path d="M64.63291,121.0187a3.166,3.166,0,0,1-3.21506-3.24783,3.22744,3.22744,0,0,1,3.2173-3.271,3.27558,3.27558,0,0,1,3.3385,3.37892A3.22344,3.22344,0,0,1,64.63291,121.0187Z" style="fill: #fff"/>
          <path d="M54.3898,97.92911a3.30232,3.30232,0,0,1-6.59928.21349,3.30246,3.30246,0,1,1,6.59928-.21349Z" style="fill: #fff"/>
          <path d="M36.52821,101.25317A3.29927,3.29927,0,0,1,33.15874,98.099a3.30937,3.30937,0,1,1,6.61563-.12766A3.27552,3.27552,0,0,1,36.52821,101.25317Z" style="fill: #fff"/>
          <path d="M22.57835,101.25736a3.264,3.264,0,0,1-3.22207-3.28928,3.41623,3.41623,0,0,1,3.46289-3.31658,3.38181,3.38181,0,0,1,3.09867,3.44842A3.24365,3.24365,0,0,1,22.57835,101.25736Z" style="fill: #fff"/>
        </g>
        <rect x="83.05919" y="69.95541" width="75.28826" height="75.28826" rx="6.3622" style="fill: #fff;opacity: 0.2"/>
        <rect x="100.69091" y="87.82761" width="39.67679" height="39.67679" rx="3.27896" style="fill: #fff;opacity: 0.4"/>
        <g style="opacity: 0.4">
          <g>
            <rect x="48.50346" width="13.93222" height="13.93222" style="fill: #fff"/>
            <rect x="48.50346" y="16.03431" width="13.93222" height="13.93222" style="fill: #fff"/>
            <rect x="32.37264" y="16.03431" width="13.93222" height="13.93222" style="fill: #fff"/>
            <rect x="32.37264" y="0.00691" width="13.93222" height="13.93222" style="fill: #fff"/>
            <rect x="16.14467" y="16.03431" width="13.93222" height="13.93222" style="fill: #fff"/>
            <rect x="16.14467" y="32.15017" width="13.93222" height="13.93222" style="fill: #fff"/>
            <rect x="16.14467" y="48.25145" width="13.93222" height="13.93222" style="fill: #fff"/>
            <rect y="32.15017" width="13.93222" height="13.93222" style="fill: #fff"/>
            <rect y="48.27073" width="13.93222" height="13.93222" style="fill: #fff"/>
          </g>
          <path d="M158.34745,32.052s-.03216-.00056-.25568,2.26932a34.80037,34.80037,0,0,1-2.49772,9.4966,16.711,16.711,0,0,1-1.306,2.26436c-14.408-.088-89.24476.00014-89.24476.00014l.0165-14.022Z" style="fill: #fff"/>
          <path d="M65.04577,29.96635V16.09926s61.307.06106,89.4796,0a28.43654,28.43654,0,0,1,1.34324,2.94135,28.65555,28.65555,0,0,1,2.24793,8.86059c.16092,2.029.16091,2.05765.16091,2.05765C149.7601,29.96837,65.04577,29.96635,65.04577,29.96635Z" style="fill: #fff"/>
          <path d="M65.05632,13.93022,65.03694.04477S108.2377.116,128.32321.00732A28.454,28.454,0,0,1,143.40245,4.3744c2.64722,1.58577,9.01227,6.74848,10.13873,9.56473Z" style="fill: #fff"/>
          <path d="M152.9123,48.25145a7.92514,7.92514,0,0,1-.84825,1.33212c-6.09845,7.8853-14.06918,12.57794-24.09288,12.6666-20.15407.17828-62.92786-.01889-62.92786-.01889V48.25145Z" style="fill: #fff"/>
          <path d="M32.28948,32.052V62.32479H62.56219V32.052ZM51.42889,55.99019a6.89666,6.89666,0,0,1-5.188,1.99732,11.17224,11.17224,0,0,1-4.75635-1.151l.62622-4.09619a7.916,7.916,0,0,0,3.8086,1.38806,2.824,2.824,0,0,0,2.24267-.96265,3.76972,3.76972,0,0,0,.83789-2.56628,2.9917,2.9917,0,0,0-1.134-2.47376,4.959,4.959,0,0,0-3.16528-.90356,15.43337,15.43337,0,0,0-1.96363.13549l1.10035-10.96838H52.893v3.9436h-5.794l-.35131,3.50391a6.98432,6.98432,0,0,1,4.98584,2.05676,6.85264,6.85264,0,0,1,1.6333,4.731A7.37711,7.37711,0,0,1,51.42889,55.99019Z" style="fill: #fff"/>
        </g>
      </g>
    </g>
  </g>
</svg>
