<svg xmlns="http://www.w3.org/2000/svg" viewBox="0 0 157.55621 107.53534">
  <title>hellas-basin-1_monochrome</title>
  <g id="Layer_2" data-name="Layer 2">
    <g id="Hellas_Basin" data-name="Hellas Basin">
      <g style="opacity: 0.3">
        <path d="M77.60967,107.53534l-53.164-53.16983,53.164-53.1683v.53068q0,8.63058.01,17.2624l.00077.0474a1.42281,1.42281,0,0,1-.47175,1.06l-.00123.00123Q60.31294,36.91048,43.49859,53.73359c-.184.184-.39081.34666-.63345.55914.2468.24957.44082.44928.63622.64623Q60.30157,71.73208,77.1033,88.51935a1.57954,1.57954,0,0,1,.52606,1.178c0,.01969-.00031.03924-.00107.05878l.00015-.00277c-.02138,5.70664-.01277,11.41328-.01277,17.11977Z" style="fill: #fff"/>
        <path d="M79.93085,1.1986,133.055,54.32273,79.93085,107.44826v-.428c0-5.75234.00708-11.50592-.01138-17.26241-.00077-.01892-.00123-.04124-.00123-.06339a1.58226,1.58226,0,0,1,.52067-1.17506l.00138-.00123Q97.2448,71.74069,114.03362,54.94205c.184-.184.38373-.351.62345-.57068-.23248-.2468-.41512-.45082-.60914-.64484q-16.766-16.76881-33.54332-33.52624a1.81207,1.81207,0,0,1-.58853-1.33846c0-.03108.00077-.062.00231-.09263l-.00015.00431c.02138-5.85788.01277-11.72716.01277-17.5749Z" style="fill: #fff"/>
        <path d="M79.93085,23.082Q95.624,38.76652,111.17437,54.3255L79.93085,85.569v-.55913c0-5.53832.00708-11.07648-.01-16.6148-.00154-.02692-.00246-.05862-.00246-.09047a1.6582,1.6582,0,0,1,.52944-1.21691l.00092-.00092q6.099-6.05331,12.16507-12.13937a7.37762,7.37762,0,0,1,.73547-.55345l.02785-.01723a9.98025,9.98025,0,0,1-.8167-.64838l.01061.00923q-6.08176-6.069-12.16214-12.14229a1.50328,1.50328,0,0,1-.48944-1.11136c0-.02369.00046-.04708.00154-.07031l-.00015.00323q.02275-8.67683.01-17.33519Z" style="fill: #fff"/>
        <path d="M77.60967,23.0349V33.18835c0,2.40258-.01431,4.80346.01,7.20451.00154.026.00246.05631.00246.08677a1.48213,1.48213,0,0,1-.47944,1.09336l-.00108.00092Q71.01846,47.65706,64.92655,53.769c-.16833.16832-.36235.30957-.59053.50067.23248.24388.40235.428.57929.60638q6.10038,6.10329,12.21215,12.19922a1.49045,1.49045,0,0,1,.495,1.11059q0,.03278-.00139.06508l.00016-.00308c-.01862,5.56386-.01139,11.12787-.01139,16.69173V85.573a.544.544,0,0,1-.07031.03293l-.00385.00138c-.02139.00708-.05416.02-.06709.01-.07277-.06-.14278-.12125-.21248-.18833L46.24075,54.408Z" style="fill: #fff"/>
        <path d="M82.37189.00015h75.18432A4.127,4.127,0,0,1,157.24.40681l.00385-.00446q-6.2344,6.17024-12.46894,12.33908a.962.962,0,0,1-.70008.301c-.01831,0-.03631-.00046-.05447-.00154l.00246.00016c-1.11705-.01431-2.2341,0-3.35253,0q-22.32422,0-44.6541.01277c-.02139.00092-.04647.00154-.07155.00154a1.72137,1.72137,0,0,1-1.2823-.57068L94.661,12.4831Q88.75461,6.53689,82.8198.62623A5.77232,5.77232,0,0,0,82.28974.211L82.27051.19833A1.3422,1.3422,0,0,1,82.3719,0Z" style="fill: #fff"/>
        <path d="M0,.00015H75.23155a3.92083,3.92083,0,0,1-.30388.40005l.00416-.00492Q68.78159,6.55274,62.63706,12.713a1.18461,1.18461,0,0,1-.95734.32388H43.41859q-14.8,0-29.60149.01139c-.01969.00077-.04292.00138-.06631.00138a1.66011,1.66011,0,0,1-1.22937-.54221l-.00123-.00123Q6.99049,6.99079,1.43371,1.50525C.96581,1.04012.52207.54945,0,.00015Z" style="fill: #fff"/>
        <path d="M97.64839,15.408h44.36884c-.1911.21249-.31527.368-.45513.50652q-5.99192,5.94482-11.99243,11.89395a1.11482,1.11482,0,0,1-.81948.35774c-.01785,0-.03569-.00046-.05339-.00123l.00247.00015q-8.91087-.0143-17.82171,0c-.026.00231-.05615.00369-.08678.00369a1.02534,1.02534,0,0,1-.73208-.306l-.00015-.00016q-6.06468-6.08607-12.14506-12.15214c-.06278-.0657-.11848-.13555-.26541-.30249Z" style="fill: #fff"/>
        <path d="M59.644,15.43805c-4.15586,4.15431-8.36587,8.36448-12.57588,12.57588l.11263.14278h-.63777c-5.84927,0-11.69854-.00707-17.54782.01139l-.04631.00077a1.50043,1.50043,0,0,1-1.12228-.50283l-.00123-.00154c-3.0245-3.02588-6.07192-6.029-9.09918-9.05209-1.03581-1.03581-2.03438-2.11286-3.0545-3.17421Z" style="fill: #fff"/>
      </g>
    </g>
  </g>
</svg>
