<svg xmlns="http://www.w3.org/2000/svg" viewBox="0 0 500 500" class="victory-gambit">
  <title>standing-victory-gambit</title>
  <g class="Layer_2" data-name="Layer 2">
    <g class="Layer_3" data-name="Layer 3">
      <g>
        <g style="opacity: 0.2">
          <rect x="173.61308" y="173.61308" width="152.77383" height="152.77383" transform="translate(250 -103.55339) rotate(45)" style="fill: none;stroke: #fff;stroke-miterlimit: 10"/>
          <rect x="184.30725" y="184.30725" width="131.3855" height="131.3855" transform="translate(250 -103.55339) rotate(45)" style="fill: none;stroke: #fff;stroke-miterlimit: 10"/>
        </g>
        <g style="opacity: 0.1">
          <path d="M355.3791,197.92947,407.44966,250,355.3791,302.07058,303.30854,250l52.07056-52.07056m0-1.41419L301.89424,250l53.48486,53.48474L408.864,250,355.3791,196.51528Z" style="fill: #fff"/>
          <path d="M302.68965,250.61892,354.76,302.68948l-52.07031,52.07068-52.07056-52.07068,52.07056-52.07056m0-1.41418-53.48487,53.48474,53.48487,53.48486,53.48462-53.48486-53.48462-53.48474Z" style="fill: #fff"/>
          <path d="M250,303.3085l52.07056,52.07055L250,407.44961l-52.07031-52.07056L250,303.3085m0-1.41419-53.48462,53.48474L250,408.8638l53.48486-53.48475L250,301.89431Z" style="fill: #fff"/>
          <path d="M302.68965,145.23989,354.76,197.31045,302.68965,249.381l-52.07056-52.07056,52.07056-52.07056m0-1.41418-53.48487,53.48474,53.48487,53.48474,53.48462-53.48474-53.48462-53.48474Z" style="fill: #fff"/>
          <path d="M250,197.92947,302.07051,250,250,302.07058,197.92964,250,250,197.92947m0-1.41419L196.51533,250,250,303.48477,303.48481,250,250,196.51528Z" style="fill: #fff"/>
          <path d="M197.3105,250.61892l52.07031,52.07056L197.3105,354.76016l-52.07056-52.07068,52.07056-52.07056m0-1.41418-53.48487,53.48474,53.48487,53.48486,53.48462-53.48486L197.3105,249.20474Z" style="fill: #fff"/>
          <path d="M250,92.55032l52.07056,52.07056L250,196.69155l-52.07031-52.07067L250,92.55032m0-1.41419-53.48462,53.48475L250,198.10574l53.48486-53.48486L250,91.13613Z" style="fill: #fff"/>
          <path d="M197.3105,145.23989l52.07031,52.07056L197.3105,249.381l-52.07056-52.07056,52.07056-52.07056m0-1.41418-53.48487,53.48474,53.48487,53.48474,53.48462-53.48474L197.3105,143.82571Z" style="fill: #fff"/>
          <path d="M144.621,197.92947,196.69136,250,144.621,302.07058,92.55049,250,144.621,197.92947m0-1.41419L91.13618,250,144.621,303.48477,198.10566,250,144.621,196.51528Z" style="fill: #fff"/>
        </g>
      </g>
      <polygon class="triangle" points="249.806 153.077 294 251.459 338.193 349.842 249.806 349.842 161.42 349.842 205.613 251.459 249.806 153.077" style="fill: none;stroke: #8cd6ed;stroke-miterlimit: 10;stroke-width: 5px"/>
      <g class="roles">
        <g class="role">
          <path d="M247.531,115.44974q-1.20645,1.95754-2.41453,3.9141c-.53207.86284-1.78606,2.84405-1.78606,2.84405-1.5453-2.50544-4.67934-7.56213-4.67934-7.56213,2.95743-.009,9.35868-.00324,9.35868-.00324C247.83817,114.92736,247.67219,115.22063,247.531,115.44974Zm-2.14557.70327H241.313c.64886,1.12355,1.34511,2.18112,2.02486,3.31648Z" style="fill: #fff"/>
          <path d="M260.8702,115.48069q-1.20646,1.95754-2.41453,3.9141c-.53207.86284-1.78607,2.844-1.78607,2.844-1.5453-2.50544-4.67934-7.56213-4.67934-7.56213,2.95744-.009,9.35868-.00324,9.35868-.00324C261.17738,114.95831,261.0114,115.25157,260.8702,115.48069Zm-2.14557.70327h-4.07242c.64886,1.12354,1.34511,2.18112,2.02486,3.31648Z" style="fill: #fff"/>
          <path d="M248.00974,135.75474s-6.40125.00579-9.35868-.00324c0,0,3.134-5.05669,4.67934-7.56213,0,0,1.254,1.98122,1.78606,2.84405q1.20694,1.95726,2.41453,3.91411C247.67219,135.17664,247.83817,135.46991,248.00974,135.75474Zm-4.67188-4.827c-.67975,1.13536-1.376,2.19294-2.02486,3.31649h4.07242Z" style="fill: #fff"/>
          <path d="M250.09658,133.808c-.22719-.24185-5.01318-8.53951-5.1429-8.90787l5.27649-8.53337,4.971,8.58023Z" style="fill: #fff"/>
          <path d="M261.34894,135.7238s-6.40124.00578-9.35868-.00325c0,0,3.134-5.05668,4.67934-7.56212,0,0,1.254,1.98121,1.78607,2.844q1.20693,1.95725,2.41453,3.9141C261.0114,135.14569,261.17738,135.439,261.34894,135.7238Zm-4.67187-4.827c-.67975,1.13536-1.376,2.19293-2.02486,3.31648h4.07242Z" style="fill: #fff"/>
        </g>
        <g class="role" data-name="role">
          <path d="M247.2889,370.77659a10.92069,10.92069,0,0,1-1.01333,1.09122.58239.58239,0,0,1-.79824-.029c-.336-.34854-.68862-.68094-1.033-1.02139-.36687-.36267-.7302-.729-1.09893-1.08972q-1.19593-1.1701-2.3956-2.33637c-.09041-.08819-.18319-.17463-.26655-.26923a.471.471,0,0,1-.07025-.583,1.13406,1.13406,0,0,1,.16488-.22907q.38147-.39987.77261-.79046c.28136-.27974.49916-.30614.8-.04895.3272.27974.629.58965.93632.89207.61531.60554,1.22435,1.21747,1.8406,1.822q.9689.95052,1.94836,1.8902A.65.65,0,0,1,247.2889,370.77659Z" style="fill: #fff"/>
          <path d="M252.68764,378.85724a.74353.74353,0,0,1,.25028-.46641c.254-.23664.49252-.49.7492-.72353a.98386.98386,0,0,1,.367-.23076.54924.54924,0,0,1,.56387.19757c.43457.45727.8755.90855,1.317,1.3592.5523.56378,1.10918,1.12309,1.66127,1.68707q.81654.83412,1.62709,1.67412a.54527.54527,0,0,1-.00274.83177q-.45159.44007-.91883.864a.49645.49645,0,0,1-.73292-.00372c-.23594-.22418-.453-.4682-.67986-.702q-.39567-.40772-.79432-.81253c-.6066-.61374-1.2167-1.224-1.82122-1.83981-.46406-.4727-.91928-.95407-1.38405-1.42606A.75121.75121,0,0,1,252.68764,378.85724Z" style="fill: #fff"/>
          <path d="M254.09349,372.01088a.50965.50965,0,0,1-.40152-.16835c-.29663-.31211-.59838-.61978-.88464-.94118a.4919.4919,0,0,1,.009-.71232c.44059-.45134.89353-.8907,1.34453-1.33178.30039-.29378.60935-.57883.90889-.87346.60722-.59723,1.20913-1.19986,1.81637-1.79707q.37051-.36438.75453-.715a.49446.49446,0,0,1,.75486.00105q.45042.4414.88029.90362a.53307.53307,0,0,1-.035.82952c-.77394.75743-1.54348,1.51937-2.31677,2.27749q-1.18206,1.15887-2.367,2.31484A.595.595,0,0,1,254.09349,372.01088Z" style="fill: #fff"/>
          <path d="M247.33481,378.84171a3.02706,3.02706,0,0,1-.13245.30466.87857.87857,0,0,1-.14547.16513q-1.47758,1.5105-2.95567,3.02048c-.514.52622-1.02458,1.05578-1.53705,1.5835a1.90573,1.90573,0,0,1-.15805.15407.50486.50486,0,0,1-.69085-.00024c-.32956-.293-.6527-.59438-.96241-.90815a.541.541,0,0,1,.00711-.79186c.2965-.3129.60465-.61475.90643-.92269q1.5783-1.61049,3.15506-3.2225c.154-.1576.29788-.32511.451-.48368a1.7189,1.7189,0,0,1,.23522-.20819.50477.50477,0,0,1,.6664.01194c.34152.31167.67064.63768.99188.9703A1.27943,1.27943,0,0,1,247.33481,378.84171Z" style="fill: #fff"/>
          <path d="M248.05071,374.67506a1.95362,1.95362,0,0,1,1.96556-1.98483,2.00121,2.00121,0,0,1,1.98392,1.98679,1.97091,1.97091,0,0,1-1.98269,1.98355A1.93408,1.93408,0,0,1,248.05071,374.67506Z" style="fill: #fff"/>
          <path d="M253.6595,366.32463a1.33821,1.33821,0,0,1-.09308.27086,7.34,7.34,0,0,1-.70873,1.09439c-.45524-.09348-.88318-.19545-1.31623-.26625-.42319-.06919-.85052-.11939-1.278-.15479a4.34916,4.34916,0,0,0-1.70308.24127c-.40868.13211-.81039.28579-1.23634.43738a.50357.50357,0,0,1-.1367-.08981c-.25386-.30769-.50047-.62135-.75286-.93028a.283.283,0,0,1-.01553-.3871,11.99952,11.99952,0,0,1,2.47646-.75227,6.18586,6.18586,0,0,1,1.65985-.10321,13.77188,13.77188,0,0,1,2.3534.38911c.14185.03759.28646.06589.42623.1098C253.43149,366.21407,253.52191,366.2639,253.6595,366.32463Z" style="fill: #fff"/>
          <path d="M242.81222,377.74233a7.971,7.971,0,0,1-1.1087.70921.94233.94233,0,0,1-.251.07081,1.76051,1.76051,0,0,1-.14119-.29806,14.39014,14.39014,0,0,1-.39625-1.93819c-.03973-.3643-.09791-.72777-.11472-1.09314a7.29472,7.29472,0,0,1,.355-2.44771c.13616-.45161.30549-.89325.46191-1.33866a.85169.85169,0,0,1,.064-.123.2442.2442,0,0,1,.30984-.01554c.35863.28934.709.58892,1.06194.8853.00713.006.00862.01868.02518.05716-.04307.11388-.08963.2513-.14631.38441a6.994,6.994,0,0,0-.52523,1.87221,4.02364,4.02364,0,0,0-.00241.91256,14.093,14.093,0,0,0,.40729,2.25515A.61564.61564,0,0,1,242.81222,377.74233Z" style="fill: #fff"/>
          <path d="M246.32037,383.09734a1.08393,1.08393,0,0,1,.10231-.29174c.27149-.34659.5543-.68431.81-.99684a.60571.60571,0,0,1,.46309.08511,6.80543,6.80543,0,0,0,1.56406.47463,4.88982,4.88982,0,0,0,1.02736.0675,14.72293,14.72293,0,0,0,2.32926-.367,1.55927,1.55927,0,0,1,.18542-.03067.55648.55648,0,0,1,.11978.021,12.415,12.415,0,0,1,.71264,1.1969c-.04078.20386-.17677.23845-.31106.26983-.50048.117-.99848.24777-1.50319.34272a10.022,10.022,0,0,1-2.03979.15131,5.9792,5.9792,0,0,1-1.46022-.2195c-.53641-.14559-1.0627-.32929-1.59067-.5046A3.68173,3.68173,0,0,1,246.32037,383.09734Z" style="fill: #fff"/>
          <path d="M258.38326,378.52417l-1.22367-.73206c.01463-.11335.024-.22408.04378-.33293.10846-.5981.23241-1.1937.32662-1.794a5.457,5.457,0,0,0-.412-2.86108c-.05337-.13709-.11672-.27043-.16682-.40863a2.11736,2.11736,0,0,1-.05776-.25367,9.33583,9.33583,0,0,1,1.27476-.9749,1.91774,1.91774,0,0,1,.19979.30036,10.08506,10.08506,0,0,1,.74535,2.7245,7.86224,7.86224,0,0,1-.02884,1.8565,16.92689,16.92689,0,0,1-.40119,2.0352C258.64315,378.24011,258.63664,378.42639,258.38326,378.52417Z" style="fill: #fff"/>
        </g>
        <g class="role" data-name="role">
          <path d="M125.15386,238.99582a11.00459,11.00459,0,1,1-11.03027,10.89236A10.98819,10.98819,0,0,1,125.15386,238.99582Zm-9.19229,13.37161a9.49817,9.49817,0,1,0,8.36047-11.84985,9.30227,9.30227,0,0,0-6.358,3.227,9.69469,9.69469,0,0,0-1.98088,3.74872l6.05609.00762c0-.24453,0-.52975,0-.78412q0-.38493-.00016-.76987,0-.37013,0-.74026c0-.25662.0158-1.58253.0158-1.58253a1.76391,1.76391,0,0,1,.19549.10941c.1958.11466.38976.23249.58381.35013q2.45492,1.48828,4.90963,2.97691,1.392.8439,2.78359,1.68844c.05907.036.28939.20171.28939.20171-.104.00677-1.9251.01594-2.65549.01594q-6.02571,0-12.05142.00079c-.13448,0-.269.01338-.4092.02083a4.992,4.992,0,0,0,.00777,1.92313h.42854q7.04727.0001,14.09455.00025c.08882,0,.58317.00106.58317.00106-.08471.06986-.73414.49721-.96187.63533q-3.75785,2.27913-7.51676,4.55647c-.07935.048-.297.17366-.297.17366,0-.63088.00365-1.35294-.001-1.98239-.00473-.63744.00224-1.92328.00224-1.92328C120.00118,252.37257,117.97351,252.36743,115.96157,252.36743Z" style="fill: #fff"/>
        </g>
        <g class="role" data-name="role">
          <path d="M381.07993,248.92021v-1.13679c-3.07962-1.60911-6.19875-3.21512-9.33738-4.84267l-4.16633,3.57411v2.40535Z" style="fill: #fff"/>
          <path d="M363.47293,255.3204V244.67608l8.60641-6.45511,14.23925,8.13651v7.288l-14.2337,8.13359Zm8.72085-15.33917-7.23715,5.42929v9.17941l7.24025,5.43039,12.67181-7.24182v-5.55427Z" style="fill: #fff"/>
          <path d="M381.07993,251.1108v1.1368c-3.07962,1.6091-6.19875,3.21511-9.33738,4.84266l-4.16633-3.57411V251.1108Z" style="fill: #fff"/>
        </g>
      </g>
      <g class="snake">
        <rect x="298.4674" y="158.12641" width="31.90869" height="3.41406" style="fill: #455c4a"/>
        <path d="M316.30342,201.83527a39.10193,39.10193,0,0,1,3.18608,3.46246,57.86232,57.86232,0,0,1,10.4645,23.716,30.17621,30.17621,0,0,1-1.653,17.85034c-3.21563,7.39237-8.12441,13.3753-15.39465,17.12126a21.42956,21.42956,0,0,1-10.12454,2.56241c-10.23854-.08772-20.4784-.02285-30.71773-.02246q-15.23517.00057-30.47035-.0069-14.03477-.00256-28.06953.00033c-.79881.00038-1.60089.01173-2.39588.0815a25.04143,25.04143,0,0,1-15.38994-3.35244,12.66893,12.66893,0,0,1-5.74322-7.40524,18.03849,18.03849,0,0,1,.72584-13.53866,13.9713,13.9713,0,0,1,4.87065-5.50863,22.08994,22.08994,0,0,1,8.85217-3.50517,41.90484,41.90484,0,0,1,7.37259-.55235q39.35714.08124,78.71454.0337c2.5551-.00008,5.11241.05658,7.66477-.02944A19.12294,19.12294,0,0,0,308.5973,229.579c3.92884-2.67976,6.00467-6.5385,7.06017-11.03048a38.06825,38.06825,0,0,0,.19592-15.44332,5.411,5.411,0,0,1-.00678-.922Z" style="fill: #459a52"/>
        <path d="M171.375,284.37815a28.2448,28.2448,0,0,1-1.94921-10.77651,34.27471,34.27471,0,0,1,1.72786-10.83625,115.14049,115.14049,0,0,1,4.56853-11.56846,39.92759,39.92759,0,0,1,6.49667-9.43262c.47144-.51419,1.03188-.94675,2.00653-1.82925-.17946,1.495-.306,2.45321-.40655,3.41413-.09949.95107-.1987,1.9034-.25322,2.85774-.37562,6.57542.24947,12.91012,4.31643,18.459a14.97811,14.97811,0,0,0,9.772,5.96161,36.4606,36.4606,0,0,0,6.42458.53034q25.54455.0603,51.08931.01c1.0924-.001,2.264.2666,3.07016-.47411a14.13358,14.13358,0,0,0,2.53151.45914c3.188-.01947,6.37572-.20339,9.563-.19056q8.86641.0357,17.73179.24064a48.18961,48.18961,0,0,1,7.14533.52105c4.38352.76321,8.49484,2.24357,11.63742,5.64492a14.989,14.989,0,0,1,3.87091,13.06093,20.20375,20.20375,0,0,1-1.19338,4.3462c-1.67774,4.2335-5.04678,6.691-9.15454,8.22255a30.44146,30.44146,0,0,1-10.78825,1.90389q-41.49465-.0624-82.98944-.02173c-3.34281,0-6.686-.032-10.02829.01007a18.05549,18.05549,0,0,1-7.4219-1.65927,26.8006,26.8006,0,0,1-9.17506-5.97926,53.36231,53.36231,0,0,1-6.12975-7.93486A31.40575,31.40575,0,0,1,171.375,284.37815Z" style="fill: #2d6a43"/>
        <path d="M213.21936,215.37153c-5.4813-7.50238-6.67818-15.94981-4.87156-24.86259a53.74687,53.74687,0,0,1,10.52489-23.15082,11.613,11.613,0,0,1,3.46351-3.07707c-.08267.96858-.12528,1.82606-.23335,2.67522-.64037,5.03187-.73486,10.05446.7175,14.96434,2.2125,7.47962,6.89646,12.05557,15.15644,12.92419a62.99176,62.99176,0,0,0,6.43959.39868q23.50362.04968,47.00737.006a26.154,26.154,0,0,1,12.871,3.16838c4.69192,2.56486,7.01223,6.63475,7.6339,11.75927a17.83769,17.83769,0,0,1-.53618,6.89089c-1.35618,4.953-4.65012,8.117-9.24832,9.98825A28.38431,28.38431,0,0,1,291.376,229.078q-17.26775.00567-34.53547.00779c-6.54942-.00013-13.09993-.08481-19.64794.009a25.019,25.019,0,0,1-16.098-5.25706A39.17924,39.17924,0,0,1,213.21936,215.37153Z" style="fill: #67bc5d"/>
        <path d="M254.65938,341.82c1.10861-.78558,12.69691-8.3461,17.57918-11.53168q13.92859-9.08814,27.83408-18.21165,3.50748-2.28782,7.10627-4.435c5.22716-3.12932,7.51536-8.05248,8.55121-13.77662.74625-4.12376.49764-8.283.46619-12.43188a20.8354,20.8354,0,0,1,.01556-4.19178,17.03463,17.03463,0,0,1,1.94242,1.94549c1.6413,2.25625,3.35033,4.485,4.756,6.88653a55.7167,55.7167,0,0,1,7.09047,18.977,30.0587,30.0587,0,0,1-5.29739,23.369c-.6969.97408-1.3477,1.98379-2.08561,2.92547a29.09946,29.09946,0,0,1-15.62151,10.06976,10.72016,10.72016,0,0,1-2.83006.386C288.41361,341.82519,254.65938,341.82,254.65938,341.82Z" style="fill: #27563a"/>
        <path d="M271.109,173.23623c-7.7557,4.91554-15.54991,9.77234-23.2323,14.79995-1.607,1.05167-3.24916,2.0339-4.90521,2.98565a4.38092,4.38092,0,0,1-2.67708.69944c-5.2633-.98989-9.64786-3.38422-12.0472-8.45735a16.95839,16.95839,0,0,1-1.43913-9.35568,29.39642,29.39642,0,0,1,1.19793-5.35552,15.85878,15.85878,0,0,1,7.89781-9.22906,10.13122,10.13122,0,0,1,5.04577-1.26252c16.77868.02846,53.23509,0,53.23509,0S278.1239,168.79021,271.109,173.23623Z" style="fill: #a1cc5c"/>
        <path d="M261.33354,330.11549c-1.462,1.04121-11.59546,8.20516-15.0881,10.71731a5.396,5.396,0,0,1-3.55848,1.099c-1.62158-.07874-2.88432-.111-4.98051-.27923.72921-.7333,10.66343-8.74064,12.432-10.099a5.53276,5.53276,0,0,1,4.17558-1.42125C255.20477,330.1241,261.33354,330.11549,261.33354,330.11549Z" style="fill: #6ac67c"/>
        <path d="M245.35546,330.75529c-.74034.57734-1.45862,1.18594-2.22484,1.72658-3.31887,2.34184-6.75529,4.5317-9.94751,7.03385-2.66,2.085-5.38094,1.28367-8.30122.23456.54259-.46819,1.16993-.93328,1.58069-1.23937,3.32137-2.47494,6.64456-4.94778,9.995-7.38306a3.97263,3.97263,0,0,1,1.9023-.90638c2.28124-.11058,4.57114-.0429,6.85774-.0429Z" style="fill: #bec3c3"/>
        <path d="M229.724,330.27586c-3.431,2.41967-7.59947,6.79045-11.89445,7.36137-1.70173.2262-3.5606-.73777-4.69777-1.30563a21.08224,21.08224,0,0,1,1.73871-1.37335c1.7825-1.34251,3.58333-2.66232,5.4127-3.94a3.56967,3.56967,0,0,1,1.71421-.7638C224.283,330.16662,229.68417,330.08178,229.724,330.27586Z" style="fill: #c3b63f"/>
        <path d="M204.539,331.05469c2.76186-1.49043,5.24674-1.06535,9.006-1.06908-1.47714,1.70391-2.82816,3.196-4.45658,3.89806A8.70658,8.70658,0,0,1,204.539,331.05469Z" style="fill: #635139"/>
      </g>
    </g>
  </g>
</svg>
