<svg xmlns="http://www.w3.org/2000/svg" 
  xmlns:xlink="http://www.w3.org/1999/xlink" viewBox="0 0 500 500" class="victory-gambit">
  <defs>
    <radialGradient id="radial-gradient" cx="250.19318" cy="250.61125" r="217.28585" gradientUnits="userSpaceOnUse">
      <stop offset="0" stop-color="#18352a"/>
      <stop offset="1" stop-color="#18352a" stop-opacity="0"/>
    </radialGradient>
  </defs>
  <title>standing-victory-gambit</title>
  <g class="Layer_2" data-name="Layer 2">
    <g class="Layer_3" data-name="Layer 3">
      <g>
        <g style="opacity: 0.2">
          <rect x="173.61308" y="173.61308" width="152.77383" height="152.77383" transform="translate(250 -103.55339) rotate(45)" style="fill: none;stroke: #fff;stroke-miterlimit: 10"/>
          <rect x="184.30725" y="184.30725" width="131.3855" height="131.3855" transform="translate(250 -103.55339) rotate(45)" style="fill: none;stroke: #fff;stroke-miterlimit: 10"/>
        </g>
        <g style="opacity: 0.1">
          <path d="M355.3791,197.92947,407.44966,250,355.3791,302.07058,303.30854,250l52.07056-52.07056m0-1.41419L301.89424,250l53.48486,53.48474L408.864,250,355.3791,196.51528Z" style="fill: #fff"/>
          <path d="M302.68965,250.61892,354.76,302.68948l-52.07031,52.07068-52.07056-52.07068,52.07056-52.07056m0-1.41418-53.48487,53.48474,53.48487,53.48486,53.48462-53.48486-53.48462-53.48474Z" style="fill: #fff"/>
          <path d="M250,303.3085l52.07056,52.07055L250,407.44961l-52.07031-52.07056L250,303.3085m0-1.41419-53.48462,53.48474L250,408.8638l53.48486-53.48475L250,301.89431Z" style="fill: #fff"/>
          <path d="M302.68965,145.23989,354.76,197.31045,302.68965,249.381l-52.07056-52.07056,52.07056-52.07056m0-1.41418-53.48487,53.48474,53.48487,53.48474,53.48462-53.48474-53.48462-53.48474Z" style="fill: #fff"/>
          <path d="M250,197.92947,302.07051,250,250,302.07058,197.92964,250,250,197.92947m0-1.41419L196.51533,250,250,303.48477,303.48481,250,250,196.51528Z" style="fill: #fff"/>
          <path d="M197.3105,250.61892l52.07031,52.07056L197.3105,354.76016l-52.07056-52.07068,52.07056-52.07056m0-1.41418-53.48487,53.48474,53.48487,53.48486,53.48462-53.48486L197.3105,249.20474Z" style="fill: #fff"/>
          <path d="M250,92.55032l52.07056,52.07056L250,196.69155l-52.07031-52.07067L250,92.55032m0-1.41419-53.48462,53.48475L250,198.10574l53.48486-53.48486L250,91.13613Z" style="fill: #fff"/>
          <path d="M197.3105,145.23989l52.07031,52.07056L197.3105,249.381l-52.07056-52.07056,52.07056-52.07056m0-1.41418-53.48487,53.48474,53.48487,53.48474,53.48462-53.48474L197.3105,143.82571Z" style="fill: #fff"/>
          <path d="M144.621,197.92947,196.69136,250,144.621,302.07058,92.55049,250,144.621,197.92947m0-1.41419L91.13618,250,144.621,303.48477,198.10566,250,144.621,196.51528Z" style="fill: #fff"/>
        </g>
      </g>
      <circle class="radial-background" cx="250.19318" cy="250.61125" r="217.28585" style="fill: url(#radial-gradient)"/>
      <g class="radial-2">
        <g class="radial">
          <path d="M196.921,193.16277a.24966.24966,0,0,1-.1753-.0727h0a.26539.26539,0,0,0-.126-.12693l-.00154-.00062-10.32266-10.32266a.25072.25072,0,0,1,0-.3506h0a15.7743,15.7743,0,0,0-22.1845-22.42265.25041.25041,0,0,1-.34814-.00031h0l-10.39013-10.39013a.25072.25072,0,0,1,0-.3506h0a29.99421,29.99421,0,0,1,21.04583-8.89593c.19317-.00431.42053-.00677.64852-.00677a31.023,31.023,0,0,1,22.02954,52.866l.00215-.00215a.24951.24951,0,0,1-.17776.07516h0Zm-10.09992-10.7056,10.09745,10.09745A30.55989,30.55989,0,0,0,174.979,140.72136q-.29022,0-.5792.00523l.029-.00031a29.56249,29.56249,0,0,0-20.52516,8.56535l10.04723,10.03491a16.35786,16.35786,0,0,1,22.27723.20272,16.71835,16.71835,0,0,1,4.95892,10.96932l.00186.04406c.01386.25047.02187.54377.02187.83891a16.11084,16.11084,0,0,1-4.39728,11.08363Z" style="fill: #fff"/>
          <path d="M171.42243,206.15375a33.94689,33.94689,0,0,1-3.84766-.22244l.15559.01448a32.41133,32.41133,0,0,1-9.41659-2.60824l.20519.08257a30.06012,30.06012,0,0,1-12.21738-9.74192,29.08324,29.08324,0,0,1-6.019-15.27788l-.00832-.11338a30.41328,30.41328,0,0,1,1.85713-14.2498,28.37291,28.37291,0,0,1,6.93589-10.60794.24988.24988,0,0,1,.16914-.06593.25286.25286,0,0,1,.06531.00862l-.00184-.00031a.24018.24018,0,0,1,.06131-.0077.25.25,0,0,1,.17653.07271h0l10.38766,10.38766a.24956.24956,0,0,1,.07517.17776h0a.24952.24952,0,0,1-.07517.17777h0a15.54225,15.54225,0,0,0-.59337,21.28859,15.75117,15.75117,0,0,0,11.01339,5.43152,16.06281,16.06281,0,0,0,11.69424-4.37048.25053.25053,0,0,1,.34567.00031h0l10.45514,10.45267a.25066.25066,0,0,1,0,.35307h0a27.99958,27.99958,0,0,1-2.94066,2.48592l-.07795.05454a29.95,29.95,0,0,1-18.4,6.27751Zm-22.1275-52.25411a28.082,28.082,0,0,0-6.69806,10.32513,29.88667,29.88667,0,0,0-1.82231,14.01719,28.73752,28.73752,0,0,0,5.97036,15.19008l-.04807-.06409a29.67752,29.67752,0,0,0,12.01466,9.58665,31.06933,31.06933,0,0,0,8.91533,2.47237l.15559.01571a31.44864,31.44864,0,0,0,24.5432-8.29454l-.01572.01448L182.2026,187.06025a16.50062,16.50062,0,0,1-11.88187,4.34028,16.25749,16.25749,0,0,1-11.364-5.59942,16.04948,16.04948,0,0,1,.44056-21.79909Z" style="fill: #fff"/>
          <path d="M246.419,172.39238h-.4532c-.29021-.01757-.58074-.04745-.86109-.08011l-.40051-.04251A31.08,31.08,0,0,1,216.447,139.21667a30.76474,30.76474,0,0,1,3.0263-11.4789,30.26254,30.26254,0,0,1,9.36637-11.31623,29.44071,29.44071,0,0,1,9.587-4.85078l.20981-.05268a33.03452,33.03452,0,0,1,3.59287-.77976l.21443-.029c.6935-.12262,1.40917-.25016,2.1076-.39558a.21181.21181,0,0,1,.05762-.0077.21913.21913,0,0,1,.05914.008l-.00154-.00031a.247.247,0,0,1,.03142-.00185.22963.22963,0,0,1,.03266.00216h2.43909a.25015.25015,0,0,1,.25017.25016h0v14.768a.24956.24956,0,0,1-.07517.17777h0a.30642.30642,0,0,1-.17653.0724h-.08349c-7.101,0-14.91065,5.33909-15.45626,15.28373a14.783,14.783,0,0,0,3.30389,10.07219,16.0929,16.0929,0,0,0,12.2451,6.22022.25015.25015,0,0,1,.25017.25016h0v14.73041a.25015.25015,0,0,1-.25017.25017h-.7508Zm-1.75208-61.59059h-.01263c-.70581.15-1.42674.27789-2.1227.40051a37.03583,37.03583,0,0,0-4.01741.85709l.2631-.06131a29.30826,29.30826,0,0,0-9.7031,4.86064l.07116-.05207a29.80061,29.80061,0,0,0-9.21633,11.12861,30.67078,30.67078,0,0,0,7.224,36.22666,29.8447,29.8447,0,0,0,17.60145,7.59673l.4079.04251c.273.02988.55825.06254.83336.07764s.50064,0,.7736,0h.15281V157.64132a16.56448,16.56448,0,0,1-12.37511-6.3952A15.26705,15.26705,0,0,1,231.1377,140.836a16.89114,16.89114,0,0,1,5.22633-11.514,15.65133,15.65133,0,0,1,10.54756-4.25495h.01047V110.79964h-2.19017a.17262.17262,0,0,1-.03913.00462.15855.15855,0,0,1-.02712-.00216h.00092Z" style="fill: #fff"/>
          <path d="M171.92553,247.54173H157.24965a.25029.25029,0,0,1-.24986-.23722v-.00062a16.03367,16.03367,0,0,0-14.658-15.48645A15.743,15.743,0,0,0,125.41349,247.299a.25015.25015,0,0,1-.25016.25017H110.47666a.2503.2503,0,0,1-.24893-.22428v-.00092a17.7887,17.7887,0,0,1,.36786-5.389,30.94294,30.94294,0,0,1,8.81582-16.52008,29.93116,29.93116,0,0,1,12.59786-7.50923,38.50522,38.50522,0,0,1,6.89152-1.32723l.17223-.01417a.25743.25743,0,0,1,.045-.004.29089.29089,0,0,1,.04653.004l-.00155-.00031.02742-.00185.02866.00185h-.00123a34.0744,34.0744,0,0,1,9.32631.7736,31.91875,31.91875,0,0,1,12.5652,6.4334l-.04991-.04066a30.8022,30.8022,0,0,1,10.05987,15.419,17.19606,17.19606,0,0,1,.84846,4.0624,12.20454,12.20454,0,0,0,.17129,1.40794l-.01109-.07394a6.84518,6.84518,0,0,1,.04744,2.80357.25049.25049,0,0,1-.24369.19286h-.00678Zm-14.438-.50063H171.725a6.81355,6.81355,0,0,0-.0952-2.41292,11.37736,11.37736,0,0,1-.16574-1.35556l-.00186-.036a16.79625,16.79625,0,0,0-.82843-3.94224,30.31326,30.31326,0,0,0-9.8972-15.1759,31.23138,31.23138,0,0,0-12.09876-6.24394l-.21874-.04867a33.21973,33.21973,0,0,0-9.1886-.75081.19329.19329,0,0,1-.03389.00278.219.219,0,0,1-.03512-.00278l.00123.00031-.01879.00185-.01941-.00185h.00061a39.78825,39.78825,0,0,0-7.25691,1.39439l.281-.07024a29.27387,29.27387,0,0,0-12.38774,7.37891,30.44436,30.44436,0,0,0-8.67564,16.25728,17.16957,17.16957,0,0,0-.42023,3.82487q0,.6234.04282,1.236l-.00308-.05514h14.22978a16.02193,16.02193,0,0,1,5.52425-11.73923,16.19171,16.19171,0,0,1,11.91946-3.98476c6.99843.34783,14.52277,6.32527,15.10843,15.7243Z" style="fill: #fff"/>
          <path d="M328.80708,206.1938h-.00647a30.80173,30.80173,0,0,1-21.79631-8.99729l.00124.00123a.25065.25065,0,0,1,0-.35306h0a.19482.19482,0,0,1,.07364-.05207l.00124-.00062a.213.213,0,0,1,.0499-.07517h0L317.453,186.39416a.2507.2507,0,0,1,.35058,0h0a15.77518,15.77518,0,0,0,22.42512-22.1845.25038.25038,0,0,1,.0003-.34814h0l10.3926-10.39259a.2507.2507,0,0,1,.35058,0h0a29.98154,29.98154,0,0,1,8.89346,21.04583c.00276.15589.00431.34012.00431.52436a31.15308,31.15308,0,0,1-30.64111,31.14882l-.02588.00031Zm-21.276-9.17628a30.55989,30.55989,0,0,0,51.83327-21.93957q0-.29022-.00525-.5792l.00031.029a29.497,29.497,0,0,0-8.56535-20.52517l-10.04477,10.04723a16.35786,16.35786,0,0,1-.20273,22.27723,16.71833,16.71833,0,0,1-10.96932,4.95892l-.04405.00186c-.24771.01355-.53791.02125-.82967.02125a16.11656,16.11656,0,0,1-11.0904-4.40159l.008.00739Z" style="fill: #fff"/>
          <path d="M302.92557,193.0152H302.924a.24924.24924,0,0,1-.17623-.0727h0a28.08234,28.08234,0,0,1-2.48315-2.94282l-.05484-.07856a30.12215,30.12215,0,0,1-6.06739-22.08438,32.40463,32.40463,0,0,1,2.60546-9.41659l-.08257.20519A30.06673,30.06673,0,0,1,306.4097,146.408a29.07509,29.07509,0,0,1,15.27543-6.019l.11336-.00832a30.40891,30.40891,0,0,1,14.2498,1.85713,28.35029,28.35029,0,0,1,10.608,6.93589.251.251,0,0,1,.05976.23446l.0003-.00185a.23975.23975,0,0,1,.00709.05946.24993.24993,0,0,1-.07456.17838h0l-10.38766,10.38766a.25057.25057,0,0,1-.175.07517h-.0003a.24958.24958,0,0,1-.17777-.07517h0a15.54279,15.54279,0,0,0-21.29105-.59337,15.74759,15.74759,0,0,0-5.42968,10.96964l-.00216.04374a16.035,16.035,0,0,0,4.373,11.69425.25056.25056,0,0,1-.0003.34568h0L303.1,192.94188a.24968.24968,0,0,1-.17529.0727h0Zm22.21224-52.29939q-1.61433,0-3.28665.15527a28.74445,28.74445,0,0,0-15.195,5.97282l.06409-.04806a29.7049,29.7049,0,0,0-9.58911,12.01466,31.13,31.13,0,0,0-2.47206,8.91748l-.01572.1562a29.60753,29.60753,0,0,0,5.96482,21.73409,29.05131,29.05131,0,0,0,2.32881,2.80511l-.01326-.01448L313.031,182.30159a16.48816,16.48816,0,0,1-4.34029-11.87941,16.24763,16.24763,0,0,1,5.60189-11.36644,16.04632,16.04632,0,0,1,21.79663.44056l10.10238-10.10238a29.73421,29.73421,0,0,0-20.79133-8.679q-.13819,0-.276.00123h.01418Z" style="fill: #fff"/>
          <path d="M389.53165,247.51924h-14.768a.24956.24956,0,0,1-.17777-.07517h0a.24924.24924,0,0,1-.07272-.17622v-.00154h0c.03759-7.121-5.304-14.98581-15.2862-15.53389a14.787,14.787,0,0,0-10.07218,3.30389,16.0827,16.0827,0,0,0-6.21775,12.2451.25016.25016,0,0,1-.25017.25017H327.95645a.25016.25016,0,0,1-.25017-.25017h0v-1.204c0-.26526.04744-.57828.07764-.85862.0151-.13525.02988-.26773.04252-.403a31.08,31.08,0,0,1,33.05309-28.25715,30.73074,30.73074,0,0,1,11.48167,3.0263,30.3005,30.3005,0,0,1,11.31623,9.36637,29.47174,29.47174,0,0,1,4.83568,9.587l.05269.21011a33.0476,33.0476,0,0,1,.78193,3.59226l.029.215c.12263.6935.25017,1.40918.39558,2.10761a.28037.28037,0,0,1,.00555.05761.31425.31425,0,0,1-.00585.05946l.0003-.00185a.24515.24515,0,0,1,.00185.03142.22794.22794,0,0,1-.00217.03265v2.4391a.2505.2505,0,0,1-.23969.23784h-.00062Zm-14.51783-.50063h14.26736v-2.19017a.2454.2454,0,0,1-.00184-.03143.22959.22959,0,0,1,.00216-.03265V244.753c-.15-.70582-.27542-1.42674-.398-2.12271a36.30833,36.30833,0,0,0-.85925-4.0131l.0607.25848a29.20726,29.20726,0,0,0-4.86-9.70249l.05177.07055a29.76265,29.76265,0,0,0-11.12861-9.21633,30.6708,30.6708,0,0,0-36.22667,7.224,29.84459,29.84459,0,0,0-7.59674,17.60145c-.01264.13771-.02742.273-.04252.41037-.02988.273-.06254.55577-.07764.83089s0,.50064,0,.77607v.15h14.24734a16.57,16.57,0,0,1,6.39274-12.37511,15.267,15.267,0,0,1,10.41015-3.40926,16.88617,16.88617,0,0,1,11.514,5.22633,15.63786,15.63786,0,0,1,4.24262,10.54571v.00955Z" style="fill: #fff"/>
          <path d="M253.858,172.3973h-.03266a4.67564,4.67564,0,0,1-1.11588-.13432l.032.00678a.25086.25086,0,0,1-.19039-.24308v-14.678a.25029.25029,0,0,1,.23723-.24986h.00062a16.03306,16.03306,0,0,0,15.484-14.658,15.743,15.743,0,0,0-15.48154-16.92828.25016.25016,0,0,1-.25016-.25017h0V110.57566a.25028.25028,0,0,1,.22429-.24894h.00092a17.77755,17.77755,0,0,1,5.38654.36786A30.933,30.933,0,0,1,274.673,119.5104a29.90606,29.90606,0,0,1,7.50924,12.59786,38.312,38.312,0,0,1,1.32754,6.89306l.01418.17068a.20592.20592,0,0,1,.00463.045.23135.23135,0,0,1-.00493.04652l.0003-.00154.00184.02742-.00184.02865v-.00123a34.08963,34.08963,0,0,1-.77606,9.32632,31.88489,31.88489,0,0,1-6.43341,12.56489l.04067-.0496A30.79448,30.79448,0,0,1,260.939,171.21827a17.33971,17.33971,0,0,1-4.06487.84847,12.21594,12.21594,0,0,0-1.40856.17129l.07425-.01109a10.25434,10.25434,0,0,1-1.67012.17006l-.01172.00031Zm-.80594-.573a6.81591,6.81591,0,0,0,2.41291-.09519,11.32478,11.32478,0,0,1,1.35618-.16575l.03574-.00185a16.823,16.823,0,0,0,3.94225-.82844,30.317,30.317,0,0,0,15.17343-9.89719,31.1999,31.1999,0,0,0,6.24641-12.09907l.04868-.21844a33.41634,33.41634,0,0,0,.75081-9.1886.28646.28646,0,0,1-.00185-.03389.2607.2607,0,0,1,.00217-.03512v-.036a39.90583,39.90583,0,0,0-1.39439-7.2603l.07025.28189a29.32466,29.32466,0,0,0-7.37645-12.38774,30.45768,30.45768,0,0,0-16.26991-8.67318,17.15823,17.15823,0,0,0-3.82363-.42023q-.62386,0-1.23758.04283l.05515-.00308v14.22978a16.02612,16.02612,0,0,1,11.73923,5.52425,16.19,16.19,0,0,1,3.9823,11.91946,16.53958,16.53958,0,0,1-15.72183,15.12106Z" style="fill: #fff"/>
          <path d="M324.84727,360.24714h-.05453A31.02031,31.02031,0,0,1,302.77,307.38056l-.00216.00216a.25067.25067,0,0,1,.35554,0h0a.263.263,0,0,1,.05177.07578l.00062.00154a.18084.18084,0,0,1,.0724.04991l10.32543,10.323a.2507.2507,0,0,1,0,.35058h0a15.77428,15.77428,0,0,0,22.182,22.42512.25067.25067,0,0,1,.35058,0h0l10.39012,10.39258a.2504.2504,0,0,1-.0003.34814h0a29.97866,29.97866,0,0,1-21.04583,8.89592Zm-21.89921-52.33421a30.55967,30.55967,0,0,0,21.93958,51.83295q.28607,0,.57119-.00524l-.02865.0003a29.558,29.558,0,0,0,20.52516-8.56535L335.918,341.13082a15.81126,15.81126,0,0,1-10.84856,4.28544h-.04992a16.52621,16.52621,0,0,1-11.384-4.48786,16.7044,16.7044,0,0,1-4.95922-10.96964l-.00184-.04406c-.01294-.24278-.02033-.52713-.02033-.813a16.1158,16.1158,0,0,1,4.401-11.08947l-.00771.008Z" style="fill: #fff"/>
          <path d="M350.63175,347.10613a.99858.99858,0,0,1-.30932-.07764l.00647.00246L339.94863,336.6433a.24966.24966,0,0,1-.07272-.17529h0a.24955.24955,0,0,1,.07272-.17529h0a15.54539,15.54539,0,0,0,.59584-21.29107,15.77027,15.77027,0,0,0-11.01338-5.43152,16.06247,16.06247,0,0,0-11.69425,4.37293.25052.25052,0,0,1-.34565-.0003h0l-10.4653-10.4653a.25063.25063,0,0,1,0-.35306h0a28.359,28.359,0,0,1,2.94466-2.48286l.07918-.05545a30.10323,30.10323,0,0,1,22.09208-6.06247,32.40512,32.40512,0,0,1,9.41659,2.60546l-.20519-.08257a30.0828,30.0828,0,0,1,12.21737,9.74439,29.06125,29.06125,0,0,1,6.01657,15.27573l.00831.11307a30.37746,30.37746,0,0,1-1.85713,14.2498,28.35021,28.35021,0,0,1-6.93589,10.60794.24856.24856,0,0,1-.17007.06747h0Zm-10.16-10.64061,10.09992,10.10239a28.03749,28.03749,0,0,0,6.69806-10.32266,29.88269,29.88269,0,0,0,1.82478-14.01719,28.71944,28.71944,0,0,0-5.97283-15.1947l.04806.06376a29.68894,29.68894,0,0,0-12.01465-9.58911,31.12518,31.12518,0,0,0-8.915-2.46959l-.1562-.01572a31.41209,31.41209,0,0,0-24.53981,8.29393l.01478-.01386,10.11224,10.10731a16.49391,16.49391,0,0,1,11.88187-4.34029,16.25793,16.25793,0,0,1,11.36644,5.59942,16.05445,16.05445,0,0,1-.44795,21.79663Z" style="fill: #fff"/>
          <path d="M255.26469,390.15869a.24513.24513,0,0,1-.03142.00184.22973.22973,0,0,1-.03266-.00216h.00124a.24524.24524,0,0,1-.03142.00184.289.289,0,0,1-.03266-.00184h-2.4391a.25016.25016,0,0,1-.25017-.25017h0V375.13866a.24926.24926,0,0,1,.07272-.17623h0a.24922.24922,0,0,1,.17623-.07271h.00154a15.62079,15.62079,0,0,0,15.5339-15.2862,14.78452,14.78452,0,0,0-3.30143-10.07219,16.09169,16.09169,0,0,0-12.24757-6.21775.2504.2504,0,0,1-.23537-.24984v-.00063h0V328.3327a.25016.25016,0,0,1,.25017-.25016h1.20153c.26527,0,.57828.04744.85863.07764l.403.04251A31.08,31.08,0,0,1,283.419,361.25578a30.71992,30.71992,0,0,1-3.02384,11.48167,30.33085,30.33085,0,0,1-9.36883,11.31624,29.45784,29.45784,0,0,1-9.58694,4.836l-.21012.05269a32.80359,32.80359,0,0,1-3.59411.78222l-.21288.02866c-.69073.12016-1.4067.25017-2.1076.39558Zm-2.31525-.50063h2.19017a.24335.24335,0,0,1,.03142-.00185.2866.2866,0,0,1,.03266.00185h-.00124c.70829-.15,1.42673-.27543,2.12517-.398a36.115,36.115,0,0,0,4.01186-.85894l-.25726.06038a29.19349,29.19349,0,0,0,9.70494-4.86l-.07055.05176a29.77857,29.77857,0,0,0,9.21386-11.1286,30.67376,30.67376,0,0,0-7.22147-36.22667,29.8582,29.8582,0,0,0-17.60391-7.59674l-.41036-.04252c-.273-.02988-.55579-.06254-.83091-.07764s-.50064,0-.7736,0h-.15v14.24734a16.57,16.57,0,0,1,12.3751,6.39274,15.29175,15.29175,0,0,1,3.40925,10.41015,16.88867,16.88867,0,0,1-5.22879,11.514,15.63516,15.63516,0,0,1-10.54511,4.25494h-.01017Z" style="fill: #fff"/>
          <path d="M358.83417,283.92613a30.06852,30.06852,0,0,1-7.50925-.79855,31.90245,31.90245,0,0,1-12.56519-6.43341l.04991.04067a30.77424,30.77424,0,0,1-10.05741-15.41621,17.19983,17.19983,0,0,1-.85093-4.06485,11.64632,11.64632,0,0,0-.171-1.40548l.01078.07117a6.87615,6.87615,0,0,1-.045-2.80079.25086.25086,0,0,1,.24308-.19039h14.68327a.25027.25027,0,0,1,.24984.23723v.00062a16.035,16.035,0,0,0,14.658,15.484,15.73946,15.73946,0,0,0,16.92829-15.48153.25016.25016,0,0,1,.25017-.25017h14.68913a.25029.25029,0,0,1,.24893.22429v.00092a17.77786,17.77786,0,0,1-.36784,5.38655,30.93294,30.93294,0,0,1-8.81582,16.52007,29.88318,29.88318,0,0,1-12.59539,7.50925,38.36344,38.36344,0,0,1-6.89522,1.32754l-.171.01417a.196.196,0,0,1-.04376.00463.22074.22074,0,0,1-.04528-.00493l.00124.0003-.02866.00185-.02988-.00185h.00124c-.60569.0151-1.21138.025-1.82231.025Zm-30.69286-30.48458a6.81646,6.81646,0,0,0,.09767,2.4129,11.85442,11.85442,0,0,1,.16329,1.354l.00184.03789a16.89994,16.89994,0,0,0,.82845,3.93979,30.3013,30.3013,0,0,0,9.89966,15.17589,31.18979,31.18979,0,0,0,12.0966,6.24641l.21842.04868a33.41641,33.41641,0,0,0,9.18861.75081.30847.30847,0,0,1,.03512-.00184.28074.28074,0,0,1,.03635.00216h.03359a39.8758,39.8758,0,0,0,7.26-1.39439l-.28159.07025a29.29314,29.29314,0,0,0,12.38774-7.37645,30.45767,30.45767,0,0,0,8.67317-16.26991,17.166,17.166,0,0,0,.42208-3.83318q0-.61926-.04222-1.22771l.00309.05483H374.94324a16.01483,16.01483,0,0,1-5.52177,11.73923,16.20617,16.20617,0,0,1-11.92193,3.9823,16.53552,16.53552,0,0,1-15.1186-15.72183Z" style="fill: #fff"/>
          <path d="M253.1497,407.973q-1.52933,0-3.05619-.04006a.33671.33671,0,0,1-.08627.02h-.00154l-1.76963-.0151c-2.50318-.0151-5.08369-.02988-7.63432-.20026-3.85228-.25017-7.036-.54562-10.02474-.90607a158.607,158.607,0,0,1-25.448-5.27347l1.12327.285a160.45251,160.45251,0,0,1-24.68029-9.444,146.27894,146.27894,0,0,1-22.69531-13.40628,150.38973,150.38973,0,0,1-14.90726-12.10522l.0989.09057a162.78048,162.78048,0,0,1-17.52135-18.57006A157.66915,157.66915,0,0,1,112.555,327.63983l-.41315-.79546a157.45847,157.45847,0,0,1-11.31314-25.29492l-.34845-1.15255A159.12128,159.12128,0,0,1,96.02968,284.127a154.14994,154.14994,0,0,1-3.04109-19.07841,108.58022,108.58022,0,0,1-.59245-11.51063q0-1.65994.04775-3.30881l-.00369.16143-.02249-.25017c0-.61339,0-1.20153.01263-1.79212.01509-2.50318.03266-5.08369.20272-7.63432.26279-3.86214.54561-7.04618.90607-10.03738a158.60745,158.60745,0,0,1,5.27347-25.448l-.285,1.12328a160.17106,160.17106,0,0,1,9.44154-24.6803,145.80722,145.80722,0,0,1,13.40627-22.6953,150.04086,150.04086,0,0,1,12.10461-14.90664l-.09.09828a162.57035,162.57035,0,0,1,18.5676-17.52135,157.70573,157.70573,0,0,1,20.7704-13.99194l.79579-.41314a157.28709,157.28709,0,0,1,25.29861-11.31376l1.15131-.34783a158.947,158.947,0,0,1,16.26991-4.45058,154.1905,154.1905,0,0,1,19.07594-3.04109,108.63784,108.63784,0,0,1,11.518-.59245q1.61513,0,3.21948.04529l-.15743-.00339a.20757.20757,0,0,1,.0875-.02h0l1.76717.01264c2.50318.01509,5.08615.03265,7.63433.20272,3.84981.25016,7.036.54315,10.02474.90607a158.705,158.705,0,0,1,25.45112,5.27347l-1.12389-.285a160.13556,160.13556,0,0,1,24.67751,9.44154,146.03692,146.03692,0,0,1,22.69531,13.40627,150.05328,150.05328,0,0,1,14.90911,12.10493L355.924,133.49a162.79094,162.79094,0,0,1,17.52135,18.5676A157.8094,157.8094,0,0,1,387.437,172.82767l.41344.79609A157.49386,157.49386,0,0,1,399.171,198.92084l.34876,1.15254a159.58064,159.58064,0,0,1,4.45058,16.2699,153.466,153.466,0,0,1,3.03862,19.06824,108.33178,108.33178,0,0,1,.59492,11.52511q0,1.66041-.04806,3.30913l.0037-.16143a.26384.26384,0,0,1-.03326.11645l.00062-.00123a.24922.24922,0,0,1,.05515.15651v.00124h0c0,.58813,0,1.179-.0151,1.76718-.0151,2.50318-.02988,5.08615-.20026,7.63433-.25017,3.85229-.54562,7.03848-.90607,10.02474a158.705,158.705,0,0,1-5.27347,25.45112l.285-1.12389a160.51238,160.51238,0,0,1-9.444,24.67751A146.03542,146.03542,0,0,1,378.6218,341.4836a149.76137,149.76137,0,0,1-12.1046,14.90881l.08965-.09827a162.78927,162.78927,0,0,1-18.5676,17.52135,157.90982,157.90982,0,0,1-20.76732,13.99132l-.79641.41376a157.63467,157.63467,0,0,1-25.29337,11.303l-1.15408.34875a159.57944,159.57944,0,0,1-16.26991,4.45058,153.5105,153.5105,0,0,1-19.0707,3.03862,107.89426,107.89426,0,0,1-11.53281.61062h-.00647Zm-3.14124-.54316h0c.93473.028,2.03429.04436,3.13722.04436a112.537,112.537,0,0,0,11.95643-.63465l-.48832.04221A151.01252,151.01252,0,0,0,283.622,403.853a155.34316,155.34316,0,0,0,43.42719-16.47816l-.83029.42608a158.93308,158.93308,0,0,0,21.81634-14.60687l-.3201.24678A163.569,163.569,0,0,0,366.23771,355.962a149.04117,149.04117,0,0,0,11.6693-14.32l.30532-.44795a145.66545,145.66545,0,0,0,13.3613-22.61767,160.06822,160.06822,0,0,0,9.41412-24.60265,148.44224,148.44224,0,0,0,4.89083-23.4612l.08257-.78839c.36045-2.97608.64821-6.15491.9036-9.99733.17006-2.53306.18516-5.11112.20026-7.60443,0-.59059,0-1.179.0151-1.76963v-.00125a.24817.24817,0,0,1,.0308-.12015l-.00062.00123a.2481.2481,0,0,1-.05269-.15373l.0003-.00956v.00031c.028-.93441.04406-2.03335.04406-3.136a112.55451,112.55451,0,0,0-.63465-11.95735l.04222.48831a151.16131,151.16131,0,0,0-3.02878-19.00816,155.29064,155.29064,0,0,0-16.47816-43.42412l.42578.82967a158.98724,158.98724,0,0,0-14.60687-21.81911l.24678.3204a165.06527,165.06527,0,0,0-17.47883-18.52261,148.76538,148.76538,0,0,0-14.321-11.67268l-.447-.3047A146.66965,146.66965,0,0,0,318.20378,108.502a160.12949,160.12949,0,0,0-24.60265-9.41412,148.70088,148.70088,0,0,0-23.45227-4.87142l-.78747-.08226c-2.98872-.36046-6.16506-.63835-10.0121-.90361-2.53306-.1676-5.11112-.18516-7.60443-.20025l-1.67968-.01263a.18811.18811,0,0,1-.09.02249H249.97c-.94-.02835-2.04568-.04468-3.15508-.04468a112.60613,112.60613,0,0,0-11.93794.6325l.48769-.04221a153.34985,153.34985,0,0,0-19.00815,3.02878,155.39663,155.39663,0,0,0-43.41672,16.47786l.82967-.42577a158.74212,158.74212,0,0,0-21.81727,14.61581l.31855-.24585a165.06708,165.06708,0,0,0-18.52262,17.47883,148.97912,148.97912,0,0,0-11.67206,14.32066l-.305.44734a146.78639,146.78639,0,0,0-13.36128,22.61767,160.32245,160.32245,0,0,0-9.41412,24.60265,148.80017,148.80017,0,0,0-4.8782,23.4421l-.08288.78993c-.358,2.981-.63835,6.15767-.90361,9.99733-.1676,2.53553-.18516,5.11388-.20025,7.6069,0,.58813,0,1.179-.01263,1.76963l.02.25016.00093.01263-.00093.01294v-.00062c-.02865.94027-.04467,2.046-.04467,3.1557a112.57946,112.57946,0,0,0,.6325,11.937l-.04221-.48769a153.35,153.35,0,0,0,3.02877,19.00815A155.49957,155.49957,0,0,0,112.995,327.4288l-.42547-.82875a158.7226,158.7226,0,0,0,14.61335,21.8148l-.24585-.31856a164.64246,164.64246,0,0,0,17.47883,18.52262,148.94643,148.94643,0,0,0,14.32005,11.6693l.44795.30532a146.58829,146.58829,0,0,0,22.61767,13.3613,159.87588,159.87588,0,0,0,24.60265,9.41412,148.75577,148.75577,0,0,0,23.45874,4.89053l.79085.08287c2.97855.36045,6.1549.64821,9.99732.9036,2.53554.17006,5.11389.18516,7.60691.20026h1.6769a.22922.22922,0,0,1,.07177-.01756h.00092Z" style="fill: #fff"/>
          <path d="M149.06972,347.05621a.24911.24911,0,0,1-.17284-.07025h0a29.99422,29.99422,0,0,1-8.89592-21.04583c-.00277-.15589-.00431-.34013-.00431-.52437A31.153,31.153,0,0,1,170.63774,294.267l.02588-.0003h.40236a30.80742,30.80742,0,0,1,21.79847,8.99727l-.00123-.00124a.25067.25067,0,0,1,0,.35554h0a.24911.24911,0,0,1-.07364.05207l-.00154.00062a.21527.21527,0,0,1-.05238.0724l-10.323,10.32543a.2507.2507,0,0,1-.3506,0h0a15.7743,15.7743,0,0,0-22.42265,22.18451.2507.2507,0,0,1,0,.35058h0L149.24932,346.994a.24925.24925,0,0,1-.16606.06284l-.01479-.0003h.00062Zm21.98979-52.29169h-.38788a30.65809,30.65809,0,0,0-30.17373,30.6488q0,.27125.00462.54161l-.00031-.02712a29.55792,29.55792,0,0,0,8.56535,20.52517l10.04477-10.04477a16.35764,16.35764,0,0,1,.20518-22.27724,16.70438,16.70438,0,0,1,10.96963-4.95923l.04406-.00184c.2477-.01356.53761-.02125.82936-.02125a16.11081,16.11081,0,0,1,11.08825,4.40159l-.008-.00739,10.09744-10.09745a30.28142,30.28142,0,0,0-21.25378-8.67071h-.02465Z" style="fill: #fff"/>
          <path d="M174.72879,360.25237c-.08935.00092-.19471.00154-.30039.00154a29.03459,29.03459,0,0,1-10.81158-2.0734l.19624.06931a28.35017,28.35017,0,0,1-10.60794-6.93589.483.483,0,0,1,.00123-.4732l-.00123.00246,10.38766-10.38766a.24925.24925,0,0,1,.17623-.07271h.00308a.24924.24924,0,0,1,.17623.07271h0a15.54232,15.54232,0,0,0,21.28859.59584,15.76059,15.76059,0,0,0,5.43152-11.01337,16.07027,16.07027,0,0,0-4.37048-11.69425.25052.25052,0,0,1,.00031-.34566h0l10.47517-10.47022a.25063.25063,0,0,1,.35306,0h0a27.79305,27.79305,0,0,1,2.48346,2.94528l.05454.07826a30.116,30.116,0,0,1,6.06494,22.09208,32.4118,32.4118,0,0,1-2.60824,9.41658l.08257-.20518a30.07616,30.07616,0,0,1-9.74193,12.21737,29.05917,29.05917,0,0,1-15.27849,6.01657l-.11307.00831q-1.70478.15388-3.34148.15528Zm-21.05353-9.17874a28.08189,28.08189,0,0,0,10.32512,6.69806,29.85135,29.85135,0,0,0,14.01721,1.82478,28.73835,28.73835,0,0,0,15.195-5.97283l-.06409.04806a29.66142,29.66142,0,0,0,9.58665-12.01465,31.06947,31.06947,0,0,0,2.47237-8.91286l.01571-.15589a31.41305,31.41305,0,0,0-8.29392-24.54227l.01387.01478-10.10731,10.10484a16.49772,16.49772,0,0,1,4.34029,11.88188,16.26292,16.26292,0,0,1-5.59942,11.36644,16.05139,16.05139,0,0,1-10.69052,4.05253h-.04159A15.82476,15.82476,0,0,1,163.774,340.97l.00369.00338Z" style="fill: #fff"/>
          <path d="M250.93458,303.81294H249.8381c-.0992.00062-.21627.00124-.33366.00124a48.77545,48.77545,0,0,1-20.5418-4.5048l.30285.1257a56.06111,56.06111,0,0,1-16.9212-11.81964l-.00955-.00955a57.81673,57.81673,0,0,1-11.661-17.08141l-.146-.36724a47.39924,47.39924,0,0,1-4.07749-19.90437l-.01756-.1026-.00092-.02.00092-.02095v.00092c-.00123-.138-.00215-.301-.00215-.46428a51.155,51.155,0,0,1,4.38711-20.79627l-.1297.32749A54.51583,54.51583,0,0,1,212.445,212.01842l.00739-.00739a52.31246,52.31246,0,0,1,37.54587-15.34381h.02988c.09058-.00062.1978-.00092.305-.00092a48.90086,48.90086,0,0,1,20.56891,4.5048l-.30408-.126a56.01591,56.01591,0,0,1,16.92366,11.81963l.00955.00987a57.79518,57.79518,0,0,1,11.67823,17.06723l.146.36662a47.35756,47.35756,0,0,1,4.07748,19.92934l.00092.00863-.00092.00893v-.0003a.2282.2282,0,0,1,.025.10259h0c.00124.1331.00185.29022.00185.44765a51.22705,51.22705,0,0,1-4.38681,20.81106l.12971-.32811a54.57306,54.57306,0,0,1-11.7571,17.1615l-.00739.00709A52.539,52.539,0,0,1,250.93362,303.813Zm-1.00128-.50064h1.00126a51.91581,51.91581,0,0,0,36.13176-15.211,52.79571,52.79571,0,0,0,15.882-37.736v-.02495a.24831.24831,0,0,1-.02279-.10414l.0003-.00893v.00031c.29022-13.07107-5.454-26.55744-15.76927-37.00025s-23.52866-16.17964-37.18048-16.057h-.045a51.86282,51.86282,0,0,0-37.1429,15.20117A52.80532,52.80532,0,0,0,196.909,250.0902l.01757.10752.00092.02372-.00123.025v-.00092c-.29021,13.07107,5.45154,26.55745,15.75664,37.00026s23.52868,16.17717,37.18049,16.05949a.11483.11483,0,0,1,.03482-.00524.12439.12439,0,0,1,.02618.00276h-.00092Z" style="fill: #fff"/>
          <path d="M140.99484,283.97882q-1.00127,0-2.00255-.05515a30.71879,30.71879,0,0,1-11.47889-3.02385,30.29284,30.29284,0,0,1-11.31623-9.36882,29.46283,29.46283,0,0,1-4.83846-9.587l-.05268-.21011a33.31294,33.31294,0,0,1-.77915-3.59011l-.02927-.2172c-.12261-.69073-.25016-1.40671-.39558-2.10761a.24864.24864,0,0,1-.00647-.05637.255.255,0,0,1,.00678-.05792l-.00031.00185a.24723.24723,0,0,1-.00184-.03143.28674.28674,0,0,1,.00184-.03266v-2.45171a.25016.25016,0,0,1,.25017-.25017h14.76954a.24921.24921,0,0,1,.17622.07271h0a.26356.26356,0,0,1,.07271.17746v.0003c-.04005,7.12105,5.304,14.9858,15.28373,15.5339a14.77659,14.77659,0,0,0,10.07219-3.30143,16.08531,16.08531,0,0,0,6.22022-12.24757.2504.2504,0,0,1,.24985-.23537h14.731a.25015.25015,0,0,1,.25016.25017h0v1.20153a8.11679,8.11679,0,0,1-.0801.86355c-.0151.1328-.02988.26527-.04252.398a31.07472,31.07472,0,0,1-31.06071,28.32461Zm-30.41712-28.28456h0c.14757.70829.27543,1.42673.398,2.12516a36.78435,36.78435,0,0,0,.85709,4.01619l-.061-.26156a29.29392,29.29392,0,0,0,4.86033,9.70556l-.05206-.07117a29.81675,29.81675,0,0,0,11.1286,9.21386,30.67377,30.67377,0,0,0,36.22666-7.22149,29.85834,29.85834,0,0,0,7.59673-17.60392c.01262-.13526.02741-.27019.04251-.40543.03266-.27542.06254-.55825.07764-.83614s0-.50063,0-.77359v-.15h-14.235A16.56444,16.56444,0,0,1,151.022,265.8068a15.271,15.271,0,0,1-10.41015,3.40925,16.89365,16.89365,0,0,1-11.514-5.2288,15.65058,15.65058,0,0,1-4.25494-10.54478V253.432H110.57556v2.19017a.18309.18309,0,0,1,.00493.04252.172.172,0,0,1-.00277.03112l.00031-.00124Z" style="fill: #fff"/>
          <path d="M245.663,390.21384a20.17877,20.17877,0,0,1-4.0929-.46489l.13279.02434a30.94294,30.94294,0,0,1-16.52008-8.81582,29.93377,29.93377,0,0,1-7.50924-12.59539,38.57544,38.57544,0,0,1-1.32722-6.89338l-.01417-.17253a.24231.24231,0,0,1-.004-.04375.27413.27413,0,0,1,.004-.04528l-.00031.00154L216.33,361.18l.00186-.02988v.00124a34.05629,34.05629,0,0,1,.77359-9.32384,31.93112,31.93112,0,0,1,6.4334-12.56519l-.04066.0499a30.79817,30.79817,0,0,1,15.419-10.0574,17.20591,17.20591,0,0,1,4.0624-.85094,11.51592,11.51592,0,0,0,1.40486-.171l-.07055.01077a6.88971,6.88971,0,0,1,2.80356-.045.25086.25086,0,0,1,.1904.24307v14.68329a.25026.25026,0,0,1-.23722.24985H247.07a16.03746,16.03746,0,0,0-15.48645,14.658A15.73946,15.73946,0,0,0,247.065,374.96125a.25014.25014,0,0,1,.25016.25017h0v14.68913a.2503.2503,0,0,1-.22428.24893H247.09c-.40513.04159-.87558.0653-1.35125.0653l-.07949-.0003h.004Zm-28.83019-29.00548.00186.01756-.00216.01819v-.00062a39.875,39.875,0,0,0,1.39439,7.26l-.07024-.28159a29.40308,29.40308,0,0,0,7.37891,12.38774,30.45755,30.45755,0,0,0,16.25728,8.67317,17.17731,17.17731,0,0,0,3.83442.42208q.61833,0,1.22648-.0419l-.05484.00309V375.44614a16.01951,16.01951,0,0,1-11.73923-5.52177,16.19759,16.19759,0,0,1-3.98476-11.92193,16.54007,16.54007,0,0,1,15.7243-15.1186v-14.24a6.87239,6.87239,0,0,0-2.41292.09767,11.9104,11.9104,0,0,1-1.35341.16329l-.0382.00184a16.92088,16.92088,0,0,0-3.94224.82845,30.31949,30.31949,0,0,0-15.1759,9.89966,31.22116,31.22116,0,0,0-6.24394,12.0963l-.04867.21874a33.22727,33.22727,0,0,0-.75081,9.18861.20789.20789,0,0,1,.00278.03512.20145.20145,0,0,1-.00309.03635l.00031-.00124Z" style="fill: #fff"/>
        </g>
      </g>
      <g class="radial-1">
        <g class="radial">
          <path d="M204.24224,201.03472a.21524.21524,0,0,1-.15112-.06268h0a.22883.22883,0,0,0-.10862-.10942l-.00133-.00053-8.89885-8.89885a.21612.21612,0,0,1,0-.30224h0a13.59853,13.59853,0,0,0-19.12457-19.32987.21587.21587,0,0,1-.30012-.00027h0l-8.957-8.957a.21614.21614,0,0,1,0-.30224h0a25.857,25.857,0,0,1,18.143-7.6689c.16653-.00372.36253-.00584.55907-.00584a26.74392,26.74392,0,0,1,18.991,45.5741l.00186-.00185a.21516.21516,0,0,1-.15325.0648h0Zm-8.70683-9.229,8.7047,8.7047a26.34473,26.34473,0,0,0-18.91342-44.68385q-.25019,0-.49931.00452l.025-.00027a25.4849,25.4849,0,0,0-17.69411,7.38392l8.66141,8.65078a14.10161,14.10161,0,0,1,19.20451.17476,14.41238,14.41238,0,0,1,4.27493,9.45631l.0016.038c.012.21593.01886.46877.01886.7232a13.88872,13.88872,0,0,1-3.79076,9.55486Z" style="fill: #fff"/>
          <path d="M182.26072,212.23383a29.26385,29.26385,0,0,1-3.31695-.19175l.13412.01248a27.94115,27.94115,0,0,1-8.11774-2.24848l.17688.07118a25.91384,25.91384,0,0,1-10.53222-8.39821,25.0717,25.0717,0,0,1-5.18882-13.17058l-.00717-.09774a26.21843,26.21843,0,0,1,1.601-12.28431,24.45932,24.45932,0,0,1,5.97922-9.14478.21541.21541,0,0,1,.14581-.05684.21813.21813,0,0,1,.0563.00743l-.00159-.00026a.20717.20717,0,0,1,.05286-.00664.21547.21547,0,0,1,.15218.06268h0l8.95488,8.95488a.21508.21508,0,0,1,.0648.15324h0a.21512.21512,0,0,1-.0648.15325h0a13.39848,13.39848,0,0,0-.51152,18.35223,13.57855,13.57855,0,0,0,9.49429,4.68235,13.84731,13.84731,0,0,0,10.08125-3.76766.216.216,0,0,1,.298.00027h0l9.01305,9.01092a.21609.21609,0,0,1,0,.30437h0a24.13575,24.13575,0,0,1-2.53506,2.143l-.06719.047a25.819,25.819,0,0,1-15.86207,5.41165Zm-19.07544-45.04664a24.20862,24.20862,0,0,0-5.77418,8.901,25.76427,25.76427,0,0,0-1.571,12.08379,24.77369,24.77369,0,0,0,5.14686,13.09489l-.04144-.05524A25.5841,25.5841,0,0,0,171.303,209.476a26.78375,26.78375,0,0,0,7.68563,2.13135l.13412.01355a27.11081,27.11081,0,0,0,21.15793-7.15047l-.01354.01248-8.7132-8.70894a14.22472,14.22472,0,0,1-10.243,3.74163,14.01519,14.01519,0,0,1-9.79654-4.82709,13.83575,13.83575,0,0,1,.37979-18.79232Z" style="fill: #fff"/>
          <path d="M246.91292,183.1292h-.39068c-.25019-.01514-.50064-.0409-.74233-.06905l-.34526-.03665a26.79309,26.79309,0,0,1-24.35962-28.494,26.52109,26.52109,0,0,1,2.60889-9.8956,26.08821,26.08821,0,0,1,8.07445-9.75537,25.3798,25.3798,0,0,1,8.26462-4.18171l.18087-.04542a28.47835,28.47835,0,0,1,3.0973-.6722l.18485-.025c.59785-.10571,1.21481-.21566,1.8169-.341a.18264.18264,0,0,1,.04967-.00664.18881.18881,0,0,1,.051.00691l-.00133-.00027.02709-.00159a.19751.19751,0,0,1,.02815.00186h2.10267a.21564.21564,0,0,1,.21566.21566h0v12.731a.21512.21512,0,0,1-.0648.15325h0a.26421.26421,0,0,1-.15218.06241h-.072a13.45775,13.45775,0,0,0-13.32436,13.17563,12.744,12.744,0,0,0,2.84818,8.68293,13.87317,13.87317,0,0,0,10.55613,5.36225.21564.21564,0,0,1,.21566.21566h0v12.69863a.21565.21565,0,0,1-.21566.21566h-.64725Zm-1.51041-53.09533h-.01089c-.60846.12934-1.22994.23956-1.82991.34527a31.92526,31.92526,0,0,0-3.46329.73887l.22681-.05286a25.26576,25.26576,0,0,0-8.36474,4.19021l.06135-.04488a25.69007,25.69007,0,0,0-7.94511,9.59362,26.44031,26.44031,0,0,0,6.22754,31.22988,25.72809,25.72809,0,0,0,15.17366,6.5489l.35164.03666c.23531.02575.48125.05391.71842.06693s.43158,0,.66689,0h.13173V170.41278a14.27974,14.27974,0,0,1-10.6682-5.51311,13.16129,13.16129,0,0,1-2.939-8.97427,14.56147,14.56147,0,0,1,4.50546-9.92588,13.49252,13.49252,0,0,1,9.09272-3.668h.009V130.032h-1.88808a.14862.14862,0,0,1-.03373.004l-.02337-.00186h.00079Z" style="fill: #fff"/>
          <path d="M182.69442,247.91313H170.0428a.21576.21576,0,0,1-.21539-.2045v-.00054a13.82213,13.82213,0,0,0-12.63622-13.35038,13.57153,13.57153,0,0,0-14.59335,13.34614.21564.21564,0,0,1-.21566.21566H129.72126a.21576.21576,0,0,1-.21459-.19335v-.00079a15.33508,15.33508,0,0,1,.31711-4.6457,26.675,26.675,0,0,1,7.59985-14.24144,25.8027,25.8027,0,0,1,10.86022-6.47348,33.19487,33.19487,0,0,1,5.941-1.14416l.14847-.01222a.22212.22212,0,0,1,.03877-.00345.25068.25068,0,0,1,.04011.00345l-.00133-.00027.02364-.00159.0247.00159h-.00106a29.37438,29.37438,0,0,1,8.03992.6669,27.51623,27.51623,0,0,1,10.83207,5.546l-.043-.03505a26.55366,26.55366,0,0,1,8.67229,13.29223,14.82327,14.82327,0,0,1,.73144,3.50206,10.52184,10.52184,0,0,0,.14766,1.21375l-.00956-.06374a5.901,5.901,0,0,1,.0409,2.41687.216.216,0,0,1-.21008.16626h-.00584Zm-12.44658-.43158h12.27369a5.8741,5.8741,0,0,0-.08206-2.0801,9.807,9.807,0,0,1-.14289-1.16859l-.00159-.03108a14.47962,14.47962,0,0,0-.71417-3.39848,26.13215,26.13215,0,0,0-8.53207-13.08267,26.9237,26.9237,0,0,0-10.43-5.38271l-.18857-.042a28.6377,28.6377,0,0,0-7.92121-.64724.16722.16722,0,0,1-.02922.00239.1893.1893,0,0,1-.03027-.00239l.00106.00026-.0162.0016-.01674-.0016h.00054a34.29991,34.29991,0,0,0-6.256,1.20206l.24221-.06055a25.23617,25.23617,0,0,0-10.67909,6.36113,26.24519,26.24519,0,0,0-7.479,14.0149,14.80172,14.80172,0,0,0-.36226,3.2973q0,.53742.03692,1.06554l-.00266-.04754h12.26705a13.812,13.812,0,0,1,4.76228-10.12,13.95837,13.95837,0,0,1,10.2754-3.43513,14.25414,14.25414,0,0,1,13.02451,13.55542Z" style="fill: #fff"/>
          <path d="M317.93714,212.26836h-.00558a26.55321,26.55321,0,0,1-18.78992-7.75628l.00107.00106a.21605.21605,0,0,1,0-.30436h0a.16775.16775,0,0,1,.06348-.04489l.00107-.00053a.18349.18349,0,0,1,.043-.0648h0l8.89884-8.89885a.21609.21609,0,0,1,.30222,0h0a13.59929,13.59929,0,0,0,19.332-19.12457.21586.21586,0,0,1,.00026-.30012h0l8.95914-8.95913a.2161.2161,0,0,1,.30223,0h0a25.84617,25.84617,0,0,1,7.66677,18.143c.00238.1344.00371.29322.00371.452a26.85609,26.85609,0,0,1-26.41475,26.85243l-.0223.00027Zm-18.34135-7.91059a26.34473,26.34473,0,0,0,44.68385-18.91342q0-.25018-.00452-.49931l.00026.025a25.42837,25.42837,0,0,0-7.38393-17.6941l-8.65928,8.6614a14.1016,14.1016,0,0,1-.17476,19.20451,14.41242,14.41242,0,0,1-9.45631,4.27494l-.038.00159c-.21354.01169-.46371.01833-.71523.01833a13.89358,13.89358,0,0,1-9.56069-3.79448l.0069.00637Z" style="fill: #fff"/>
          <path d="M295.62549,200.9075h-.00132a.21486.21486,0,0,1-.15193-.06268h0a24.20691,24.20691,0,0,1-2.14065-2.53691l-.04727-.06772a25.96737,25.96737,0,0,1-5.23051-19.03826,27.93547,27.93547,0,0,1,2.24608-8.11774l-.07118.17688a25.91962,25.91962,0,0,1,8.40034-10.53222A25.0648,25.0648,0,0,1,311.79752,155.54l.09773-.00717a26.21467,26.21467,0,0,1,12.28431,1.601,24.43978,24.43978,0,0,1,9.14479,5.97922.21635.21635,0,0,1,.05151.20211l.00026-.00159a.20669.20669,0,0,1,.00611.05125.21544.21544,0,0,1-.06427.15378h0l-8.95488,8.95488a.216.216,0,0,1-.15085.06481H324.212a.21515.21515,0,0,1-.15325-.06481h0a13.399,13.399,0,0,0-18.35436-.51152,13.5755,13.5755,0,0,0-4.68075,9.45658l-.00187.03771a13.82329,13.82329,0,0,0,3.76979,10.08125.216.216,0,0,1-.00026.298h0l-9.01544,9.00879a.21523.21523,0,0,1-.15111.06268h0ZM314.774,155.82182q-1.39167,0-2.83332.13386a24.77961,24.77961,0,0,0-13.09914,5.149l.05525-.04143a25.60773,25.60773,0,0,0-8.26648,10.35746,26.83645,26.83645,0,0,0-2.13109,7.68748l-.01355.13466a25.52372,25.52372,0,0,0,5.14209,18.73628,25.04475,25.04475,0,0,0,2.00759,2.4182l-.01142-.01249,8.71319-8.71319a14.21391,14.21391,0,0,1-3.74162-10.24087,14.00658,14.00658,0,0,1,4.82921-9.79866,13.83306,13.83306,0,0,1,18.7902.37979l8.70895-8.70894a25.63291,25.63291,0,0,0-17.92357-7.48193q-.11911,0-.238.00107h.01223Z" style="fill: #fff"/>
          <path d="M370.2859,247.89374h-12.731a.2151.2151,0,0,1-.15325-.0648h0a.21484.21484,0,0,1-.06269-.15191v-.00133h0a13.45914,13.45914,0,0,0-13.17776-13.39129,12.74735,12.74735,0,0,0-8.68291,2.84818,13.86443,13.86443,0,0,0-5.36013,10.55613.21565.21565,0,0,1-.21567.21566H317.20383a.21565.21565,0,0,1-.21566-.21566h0v-1.03793c0-.22867.0409-.49851.06694-.74019.013-.11659.02575-.23079.03665-.3474a26.79307,26.79307,0,0,1,28.494-24.35961,26.49211,26.49211,0,0,1,9.898,2.60889,26.12111,26.12111,0,0,1,9.75538,8.07445,25.407,25.407,0,0,1,4.16869,8.26462l.04542.18113a28.49174,28.49174,0,0,1,.67407,3.09678l.025.18538c.10571.59784.21567,1.21481.341,1.8169a.24231.24231,0,0,1,.00478.04967.271.271,0,0,1-.005.05125l.00026-.00159.00159.02709a.19737.19737,0,0,1-.00187.02814V247.689a.216.216,0,0,1-.20663.205h-.00053Zm-12.51537-.43158H370.07v-1.88808l-.00159-.02709a.19737.19737,0,0,1,.00187-.02814V245.509c-.12934-.60846-.23743-1.23-.34314-1.82991a31.29886,31.29886,0,0,0-.74073-3.45957l.05233.22282a25.17862,25.17862,0,0,0-4.18969-8.36421l.04463.06082A25.65723,25.65723,0,0,0,355.3,224.19386a26.44033,26.44033,0,0,0-31.22989,6.22754,25.72816,25.72816,0,0,0-6.54891,15.17366c-.01089.11871-.02363.23531-.03665.35376-.02576.23531-.05391.47912-.06693.7163s0,.43158,0,.669v.12934h12.28219a14.28448,14.28448,0,0,1,5.511-10.6682,13.16133,13.16133,0,0,1,8.97426-2.939,14.55716,14.55716,0,0,1,9.92588,4.50546,13.481,13.481,0,0,1,3.65743,9.09114v.00823Z" style="fill: #fff"/>
          <path d="M253.32584,183.13345h-.02816a4.03031,4.03031,0,0,1-.962-.1158l.02762.00585a.21627.21627,0,0,1-.16413-.20955V170.16047a.21577.21577,0,0,1,.20451-.2154h.00054a13.82161,13.82161,0,0,0,13.34826-12.63622,13.57153,13.57153,0,0,0-13.34615-14.59335.21565.21565,0,0,1-.21567-.21565h0V129.83893a.21578.21578,0,0,1,.19336-.2146h.00079a15.32576,15.32576,0,0,1,4.64357.31711,26.66641,26.66641,0,0,1,14.24145,7.59985,25.78119,25.78119,0,0,1,6.47349,10.86022,33.02847,33.02847,0,0,1,1.14443,5.9423l.01222.14714a.17717.17717,0,0,1,.004.03877.1991.1991,0,0,1-.00425.04011l.00026-.00133.00159.02364-.00159.0247v-.00106a29.38749,29.38749,0,0,1-.669,8.03992,27.48706,27.48706,0,0,1-5.546,10.83181l.03506-.04276a26.547,26.547,0,0,1-13.28983,8.67229,14.9481,14.9481,0,0,1-3.5042.73144,10.5291,10.5291,0,0,0-1.21428.14767l.064-.00956a8.84011,8.84011,0,0,1-1.43976.1466l-.0101.00027Zm-.69478-.494a5.87571,5.87571,0,0,0,2.08009-.08207,9.76355,9.76355,0,0,1,1.16912-.14288l.03082-.0016a14.50271,14.50271,0,0,0,3.39849-.71417,26.13533,26.13533,0,0,0,13.08054-8.53206,26.89655,26.89655,0,0,0,5.38484-10.43024l.042-.1883a28.8071,28.8071,0,0,0,.64725-7.92121l-.00159-.02921a.22747.22747,0,0,1,.00186-.03028v-.03107a34.40053,34.40053,0,0,0-1.20205-6.25888l.06056.243a25.28,25.28,0,0,0-6.359-10.67909,26.25675,26.25675,0,0,0-14.02578-7.47688,14.79209,14.79209,0,0,0-3.29624-.36226q-.53781,0-1.06688.03692l.04755-.00266v12.26705a13.81565,13.81565,0,0,1,10.12,4.76229,13.95692,13.95692,0,0,1,3.433,10.27539,14.25829,14.25829,0,0,1-13.5533,13.03541Z" style="fill: #fff"/>
          <path d="M314.52351,345.073h-.047a26.74164,26.74164,0,0,1-18.98513-45.57464l-.00186.00187a.2161.2161,0,0,1,.3065,0h0a.22672.22672,0,0,1,.04463.06533l.00053.00132a.15587.15587,0,0,1,.06241.043l8.90124,8.89911a.2161.2161,0,0,1,0,.30223h0a13.59851,13.59851,0,0,0,19.12245,19.332.21612.21612,0,0,1,.30222,0h0l8.957,8.95913a.21586.21586,0,0,1-.00026.30012h0a25.84364,25.84364,0,0,1-18.143,7.66889Zm-18.87863-45.11569a26.34455,26.34455,0,0,0,18.91343,44.68358q.24661,0,.49241-.00453l-.02471.00026a25.481,25.481,0,0,0,17.69411-7.38392l-8.65291-8.65928a13.63037,13.63037,0,0,1-9.35221,3.69434h-.043a14.24668,14.24668,0,0,1-9.81379-3.86884,14.40024,14.40024,0,0,1-4.27519-9.45659l-.00159-.038c-.01115-.20929-.01752-.45442-.01752-.70089a13.89293,13.89293,0,0,1,3.79393-9.55989l-.00664.00691Z" style="fill: #fff"/>
          <path d="M336.75151,333.74451a.8608.8608,0,0,1-.26666-.06693l.00558.00212-8.94851-8.95488a.2152.2152,0,0,1-.06268-.15111h0a.21517.21517,0,0,1,.06268-.15111h0a13.4012,13.4012,0,0,0,.51366-18.35437,13.5951,13.5951,0,0,0-9.49429-4.68235A13.847,13.847,0,0,0,308.48,305.15565a.21595.21595,0,0,1-.298-.00026h0l-9.02181-9.02181a.21605.21605,0,0,1,0-.30436h0a24.44821,24.44821,0,0,1,2.5385-2.14039l.06826-.04781a25.95105,25.95105,0,0,1,19.0449-5.22626,27.93534,27.93534,0,0,1,8.11774,2.24608l-.17688-.07118A25.93349,25.93349,0,0,1,339.285,298.99a25.0528,25.0528,0,0,1,5.18669,13.16873l.00717.09747a26.18752,26.18752,0,0,1-1.601,12.28431,24.43977,24.43977,0,0,1-5.97922,9.14478.21427.21427,0,0,1-.1466.05817h0Zm-8.75862-9.17294,8.70683,8.709a24.17025,24.17025,0,0,0,5.77419-8.89884A25.76093,25.76093,0,0,0,344.047,312.2979a24.75815,24.75815,0,0,0-5.149-13.09888l.04143.055a25.59387,25.59387,0,0,0-10.35746-8.26648,26.83179,26.83179,0,0,0-7.68536-2.129l-.13466-.01355a27.07937,27.07937,0,0,0-21.155,7.14994l.01274-.012,8.71745,8.7132a14.21891,14.21891,0,0,1,10.243-3.74163,14.01546,14.01546,0,0,1,9.79866,4.82709,13.84006,13.84006,0,0,1-.38616,18.7902Z" style="fill: #fff"/>
          <path d="M254.53853,370.85879l-.02709.00158a.19784.19784,0,0,1-.02816-.00186h.00107l-.02708.00159-.02816-.00159h-2.10267a.21565.21565,0,0,1-.21566-.21566h0V357.91048a.21489.21489,0,0,1,.06268-.15192h0a.21488.21488,0,0,1,.15193-.06268h.00132a13.4662,13.4662,0,0,0,13.3913-13.17776,12.7453,12.7453,0,0,0-2.84606-8.68292,13.87214,13.87214,0,0,0-10.55825-5.36013.21586.21586,0,0,1-.20291-.21538v-.00054h0V317.56052a.21566.21566,0,0,1,.21567-.21566h1.0358c.22868,0,.49852.0409.7402.06693l.34738.03665a26.79308,26.79308,0,0,1,24.35961,28.49405,26.4829,26.4829,0,0,1-2.60676,9.898,26.14738,26.14738,0,0,1-8.07657,9.75537,25.39473,25.39473,0,0,1-8.26461,4.169l-.18114.04542a28.27683,28.27683,0,0,1-3.09837.67433l-.18352.02471c-.59545.10358-1.21267.21566-1.8169.341Zm-1.99591-.43159h1.88808l.02709-.00159.02815.00159h-.00107c.6106-.12934,1.22994-.23743,1.832-.34314a31.13226,31.13226,0,0,0,3.4585-.74047l-.22177.05205A25.16667,25.16667,0,0,0,267.92,365.206l-.06082.04463a25.67115,25.67115,0,0,0,7.943-9.59363,26.44292,26.44292,0,0,0-6.2254-31.22989,25.73989,25.73989,0,0,0-15.17579-6.54891l-.35376-.03665c-.23531-.02576-.47913-.05392-.7163-.06693s-.43159,0-.66689,0h-.12935v12.28218a14.28448,14.28448,0,0,1,10.6682,5.511,13.18259,13.18259,0,0,1,2.939,8.97426,14.55923,14.55923,0,0,1-4.50759,9.92588,13.47855,13.47855,0,0,1-9.0906,3.668h-.00877Z" style="fill: #fff"/>
          <path d="M343.82256,279.279a25.9213,25.9213,0,0,1-6.47349-.6884,27.50225,27.50225,0,0,1-10.83206-5.54605l.043.03506a26.52955,26.52955,0,0,1-8.67018-13.28983,14.828,14.828,0,0,1-.73356-3.50418,10.04,10.04,0,0,0-.1474-1.21162l.00929.06135a5.92781,5.92781,0,0,1-.03878-2.41447.21626.21626,0,0,1,.20955-.16413h12.658a.21574.21574,0,0,1,.21539.20451v.00053A13.82324,13.82324,0,0,0,342.69855,266.11a13.5685,13.5685,0,0,0,14.59336-13.34615.21565.21565,0,0,1,.21566-.21566h12.663a.21576.21576,0,0,1,.21459.19335v.0008a15.32546,15.32546,0,0,1-.31711,4.64357,26.6663,26.6663,0,0,1-7.59984,14.24144,25.76142,25.76142,0,0,1-10.8581,6.47349,33.07245,33.07245,0,0,1-5.94415,1.14443l-.1474.01222a.16918.16918,0,0,1-.03772.004.19054.19054,0,0,1-.039-.00425l.00107.00026-.0247.00159-.02576-.00159h.00107c-.52215.013-1.0443.02151-1.571.02151ZM317.3632,252.99918a5.87639,5.87639,0,0,0,.08419,2.08009,10.21628,10.21628,0,0,1,.14077,1.16727l.00159.03266a14.56944,14.56944,0,0,0,.71418,3.39637,26.122,26.122,0,0,0,8.53419,13.08267,26.88785,26.88785,0,0,0,10.4281,5.38483l.1883.042a28.80708,28.80708,0,0,0,7.92121.64724l.03028-.00159a.24175.24175,0,0,1,.03134.00187h.029a34.37616,34.37616,0,0,0,6.25862-1.20206l-.24275.06056a25.25282,25.25282,0,0,0,10.67908-6.359,26.25656,26.25656,0,0,0,7.47687-14.02578,14.79873,14.79873,0,0,0,.36386-3.30447q0-.53385-.03639-1.05837l.00266.04727H357.70969a13.80586,13.80586,0,0,1-4.76015,10.12,13.97083,13.97083,0,0,1-10.27753,3.433,14.25476,14.25476,0,0,1-13.03327-13.5533Z" style="fill: #fff"/>
          <path d="M252.71526,386.216q-1.31838,0-2.63464-.03453a.2906.2906,0,0,1-.07438.01727h-.00133l-1.52554-.013c-2.15791-.013-4.38249-.02576-6.58131-.17264-3.32093-.21566-6.06554-.47036-8.642-.78109a136.73146,136.73146,0,0,1-21.938-4.5461l.96834.24567a138.32327,138.32327,0,0,1-21.27612-8.14138A126.10237,126.10237,0,0,1,171.44538,361.233a129.646,129.646,0,0,1-12.85108-10.43554l.08525.07809a140.32886,140.32886,0,0,1-15.10461-16.00868,135.92157,135.92157,0,0,1-12.062-17.90366l-.35616-.68574a135.74032,135.74032,0,0,1-9.75271-21.806l-.30039-.99358a137.17547,137.17547,0,0,1-3.8367-14.02578,132.88985,132.88985,0,0,1-2.62164-16.44691,93.60528,93.60528,0,0,1-.51073-9.923q0-1.431.04117-2.85243l-.00319.13916-.01938-.21566c0-.52879,0-1.0358.01089-1.54493.013-2.15791.02815-4.38249.17475-6.58131.22655-3.32943.47036-6.0743.7811-8.65291a136.72941,136.72941,0,0,1,4.5461-21.938l-.24567.96834a138.07835,138.07835,0,0,1,8.13926-21.27611,125.69652,125.69652,0,0,1,11.55712-19.56492,129.34666,129.34666,0,0,1,10.435-12.85055l-.07755.08472a140.14609,140.14609,0,0,1,16.00655-15.10461,135.95181,135.95181,0,0,1,17.90552-12.062l.686-.35616a135.59135,135.59135,0,0,1,21.80915-9.75324l.99251-.29985a137.02188,137.02188,0,0,1,14.02578-3.83671,132.92327,132.92327,0,0,1,16.44477-2.62163,93.65439,93.65439,0,0,1,9.92933-.51073q1.39236,0,2.77541.039l-.13571-.00292a.17887.17887,0,0,1,.07543-.01727h0l1.52343.01089c2.15791.013,4.38461.02815,6.58131.17476,3.3188.21566,6.06554.46823,8.642.7811a136.81419,136.81419,0,0,1,21.94063,4.5461l-.96888-.24567a138.04716,138.04716,0,0,1,21.27372,8.13925,125.89394,125.89394,0,0,1,19.56492,11.55713,129.35562,129.35562,0,0,1,12.85268,10.43528l-.085-.07781a140.33554,140.33554,0,0,1,15.10461,16.00655,136.04208,136.04208,0,0,1,12.06174,17.90525l.35642.68628a135.77162,135.77162,0,0,1,9.75909,21.80782l.30065.99357a137.56918,137.56918,0,0,1,3.8367,14.02579,132.29663,132.29663,0,0,1,2.6195,16.43813,93.39,93.39,0,0,1,.51287,9.93544q0,1.43139-.04144,2.8527l.0032-.13917a.22744.22744,0,0,1-.02868.10039l.00053-.00106a.21481.21481,0,0,1,.04755.13493v.00107h0c0,.507,0,1.01642-.013,1.52343-.013,2.15791-.02576,4.38461-.17264,6.58131-.21566,3.32094-.47036,6.06766-.78109,8.642a136.81383,136.81383,0,0,1-4.5461,21.94062l.24567-.96887a138.3727,138.3727,0,0,1-8.14138,21.27372,125.89315,125.89315,0,0,1-11.55713,19.56492,129.10331,129.10331,0,0,1-10.435,12.85242l.07729-.08472a140.33459,140.33459,0,0,1-16.00655,15.10461,136.12791,136.12791,0,0,1-17.90287,12.06149l-.68655.35669a135.89259,135.89259,0,0,1-21.80464,9.74395l-.99489.30065a137.56825,137.56825,0,0,1-14.02578,3.8367,132.33542,132.33542,0,0,1-16.44026,2.6195,93.01241,93.01241,0,0,1-9.94209.5264H252.714Zm-2.708-.46823h0c.80579.02416,1.75369.03824,2.70449.03824a97.01543,97.01543,0,0,0,10.30727-.54712l-.421.03639a130.18179,130.18179,0,0,0,16.38634-2.611,133.91665,133.91665,0,0,0,37.43723-14.20531l-.71576.36731a137.01128,137.01128,0,0,0,18.80719-12.59213l-.276.21275a141.00876,141.00876,0,0,0,15.96777-15.068A128.48051,128.48051,0,0,0,360.26466,329.034l.26321-.38616a125.573,125.573,0,0,0,11.51836-19.498,137.98985,137.98985,0,0,0,8.11562-21.20918,127.96671,127.96671,0,0,0,4.21623-20.22517l.07118-.67965c.31074-2.56559.55881-5.306.779-8.61838.14661-2.18368.15963-4.40614.17264-6.55555,0-.50913,0-1.01641.013-1.52555v-.00107a.21386.21386,0,0,1,.02655-.10358l-.00053.00106a.21383.21383,0,0,1-.04542-.13253l.00026-.00823v.00027c.02417-.80553.038-1.7529.038-2.70344a97.02769,97.02769,0,0,0-.54712-10.30806l.03639.421a130.31072,130.31072,0,0,0-2.611-16.38635,133.87191,133.87191,0,0,0-14.20532-37.43458l.36705.71523a137.05567,137.05567,0,0,0-12.59213-18.80958l.21275.27621a142.298,142.298,0,0,0-15.068-15.96777,128.24744,128.24744,0,0,0-12.34567-10.06266l-.38537-.26267a126.43976,126.43976,0,0,0-19.498-11.51835,138.04254,138.04254,0,0,0-21.20918-8.11562,128.19126,128.19126,0,0,0-20.21747-4.1995l-.67885-.07091c-2.57649-.31074-5.31471-.5503-8.63113-.779-2.18367-.14448-4.40614-.15962-6.55554-.17263l-1.448-.01089a.16211.16211,0,0,1-.07755.01939h-.00452c-.81031-.02444-1.76352-.03851-2.7199-.03851a97.07572,97.07572,0,0,0-10.29133.54525l.42043-.03638a132.19865,132.19865,0,0,0-16.38634,2.611,133.96307,133.96307,0,0,0-37.4282,14.20506l.71523-.36705a136.84757,136.84757,0,0,0-18.808,12.59984l.27462-.21194a142.29885,142.29885,0,0,0-15.96777,15.068,128.42888,128.42888,0,0,0-10.06213,12.34539l-.26293.38564a126.53983,126.53983,0,0,0-11.51836,19.498,138.21031,138.21031,0,0,0-8.11562,21.20918,128.27761,128.27761,0,0,0-4.20534,20.20871l-.07144.681c-.30862,2.56985-.55031,5.30834-.779,8.61839-.14448,2.1858-.15962,4.40852-.17263,6.55767,0,.507,0,1.01641-.01089,1.52554l.01726.21566.0008.01089-.0008.01115V250.364c-.0247.81058-.03851,1.76378-.03851,2.72043a97.05,97.05,0,0,0,.54526,10.29052l-.03639-.42043a132.19884,132.19884,0,0,0,2.611,16.38635,134.05161,134.05161,0,0,0,14.209,37.44042l-.36677-.71444a136.83027,136.83027,0,0,0,12.5977,18.80587l-.21194-.27462a141.93348,141.93348,0,0,0,15.068,15.96777A128.402,128.402,0,0,0,171.324,360.62561l.38617.26321a126.37011,126.37011,0,0,0,19.498,11.51836,137.824,137.824,0,0,0,21.20918,8.11562,128.2368,128.2368,0,0,0,20.22305,4.216l.68177.07144c2.56772.31074,5.30595.5588,8.61838.779,2.18581.14661,4.40852.15962,6.55768.17264h1.4456a.198.198,0,0,1,.06187-.01514h.0008Z" style="fill: #fff"/>
          <path d="M162.99114,333.70147a.21473.21473,0,0,1-.149-.06056h0a25.8571,25.8571,0,0,1-7.6689-18.143c-.00239-.13438-.00372-.29321-.00372-.452a26.85607,26.85607,0,0,1,26.41474-26.85242l.02231-.00026h.34686a26.55816,26.55816,0,0,1,18.79179,7.75627l-.00106-.00107a.21612.21612,0,0,1,0,.3065h0a.21476.21476,0,0,1-.06348.04489l-.00133.00054a.18584.18584,0,0,1-.04516.06241l-8.8991,8.90123a.21612.21612,0,0,1-.30224,0h0A13.59854,13.59854,0,0,0,172.103,324.38857a.2161.2161,0,0,1,0,.30223h0l-8.957,8.957a.21485.21485,0,0,1-.14315.05417l-.01275-.00025h.00053Zm18.95672-45.079h-.33438a26.42939,26.42939,0,0,0-26.01184,26.42138q0,.23383.004.4669l-.00027-.02337a25.481,25.481,0,0,0,7.38392,17.69411l8.65929-8.65929a14.10142,14.10142,0,0,1,.17688-19.20452,14.40036,14.40036,0,0,1,9.45658-4.27519l.038-.00159c.21354-.01168.46345-.01831.715-.01831a13.8886,13.8886,0,0,1,9.55883,3.79447l-.00691-.00637,8.7047-8.7047a26.10467,26.10467,0,0,0-18.32223-7.47475h-.02125Z" style="fill: #fff"/>
          <path d="M185.111,345.07747c-.077.0008-.16785.00133-.25895.00133a25.02986,25.02986,0,0,1-9.32033-1.78741l.16918.05975a24.43985,24.43985,0,0,1-9.14478-5.97922.41638.41638,0,0,1,.00106-.40793l-.00106.00212,8.95488-8.95487a.21484.21484,0,0,1,.15192-.06269h.00266a.21486.21486,0,0,1,.15192.06269h0a13.39856,13.39856,0,0,0,18.35223.51365,13.58671,13.58671,0,0,0,4.68235-9.49429,13.8537,13.8537,0,0,0-3.76766-10.08125.216.216,0,0,1,.00027-.298h0l9.03031-9.026a.21607.21607,0,0,1,.30437,0h0a23.96225,23.96225,0,0,1,2.14092,2.539l.047.06747a25.962,25.962,0,0,1,5.22839,19.0449,27.94106,27.94106,0,0,1-2.24848,8.11774l.07118-.17689a25.92758,25.92758,0,0,1-8.39821,10.53222,25.051,25.051,0,0,1-13.17112,5.1867l-.09747.00717q-1.46964.13266-2.88059.13386Zm-18.14959-7.9127a24.20859,24.20859,0,0,0,8.901,5.77419,25.734,25.734,0,0,0,12.0838,1.57308,24.77433,24.77433,0,0,0,13.09913-5.149l-.05524.04143a25.57014,25.57014,0,0,0,8.26435-10.35745,26.78438,26.78438,0,0,0,2.13136-7.68351l.01354-.13438a27.08022,27.08022,0,0,0-7.14993-21.15713l.01195.01274-8.7132,8.71107a14.22215,14.22215,0,0,1,3.74163,10.243,14.01971,14.01971,0,0,1-4.82708,9.79865,13.83743,13.83743,0,0,1-9.216,3.49357h-.03585a13.642,13.642,0,0,1-9.54369-3.87627l.00318.00291Z" style="fill: #fff"/>
          <path d="M250.80567,296.42279h-.94524c-.08552.00054-.18644.00107-.28763.00107a42.04775,42.04775,0,0,1-17.70845-3.88345l.26107.10837a48.32876,48.32876,0,0,1-14.58724-10.18935l-.00823-.00823a49.842,49.842,0,0,1-10.05257-14.72535l-.12589-.31659a40.86128,40.86128,0,0,1-3.51507-17.15894l-.01514-.08845-.0008-.01726.0008-.01806v.00079c-.00107-.119-.00186-.25947-.00186-.40024a44.09922,44.09922,0,0,1,3.782-17.92782l-.11181.28232a46.99639,46.99639,0,0,1,10.13543-14.792l.00637-.00637a45.0969,45.0969,0,0,1,32.36713-13.22743h.02575c.07809-.00053.17052-.00079.26294-.00079a42.15586,42.15586,0,0,1,17.73181,3.88345l-.26214-.10862a48.2893,48.2893,0,0,1,14.58937,10.18934l.00824.0085a49.82379,49.82379,0,0,1,10.06743,14.71313l.12589.316a40.82536,40.82536,0,0,1,3.51508,17.18046l.00079.00745-.00079.0077v-.00026a.19677.19677,0,0,1,.02151.08844h0c.00107.11474.00159.25019.00159.3859a44.16106,44.16106,0,0,1-3.78174,17.94057l.11182-.28285a47.04556,47.04556,0,0,1-10.13542,14.79439l-.00637.00611a45.29219,45.29219,0,0,1-31.46945,13.23805Zm-.86317-.43158h.86315a44.755,44.755,0,0,0,31.14808-13.113,45.51361,45.51361,0,0,0,13.69141-32.531v-.02151a.214.214,0,0,1-.01965-.08977l.00026-.0077v.00027c.25019-11.26817-4.70173-22.89435-13.5942-31.89677s-20.28333-13.948-32.05214-13.84226h-.03877A44.70934,44.70934,0,0,0,217.9209,217.594a45.52181,45.52181,0,0,0-13.689,32.51613l.01514.09269.0008.02045-.00106.02151v-.0008c-.25019,11.26817,4.6996,22.89436,13.58331,31.89678s20.28334,13.94584,32.05215,13.84439a.09909.09909,0,0,1,.03-.00452l.02257.00238H249.934Z" style="fill: #fff"/>
          <path d="M156.03,279.32441q-.86316,0-1.72633-.04754a26.48168,26.48168,0,0,1-9.8956-2.60677,26.11441,26.11441,0,0,1-9.75537-8.07657,25.39883,25.39883,0,0,1-4.17108-8.26461l-.04542-.18113a28.71817,28.71817,0,0,1-.67168-3.09492l-.02523-.18724c-.1057-.59546-.21566-1.21268-.341-1.8169a.21376.21376,0,0,1-.00558-.0486.21945.21945,0,0,1,.00584-.04993l-.00026.00159-.0016-.02709.0016-.02816V252.783a.21565.21565,0,0,1,.21565-.21567h12.73237a.21484.21484,0,0,1,.15191.06269h0a.22719.22719,0,0,1,.06268.153v.00026a13.45721,13.45721,0,0,0,13.17563,13.39129,12.73845,12.73845,0,0,0,8.68293-2.84606,13.86665,13.86665,0,0,0,5.36225-10.55825.21587.21587,0,0,1,.21539-.20291h12.69917a.21565.21565,0,0,1,.21566.21567h0v1.0358a6.99856,6.99856,0,0,1-.06905.74444c-.013.11448-.02576.22868-.03666.34314a26.78854,26.78854,0,0,1-26.77647,24.41777Zm-26.22165-24.38324h0c.12722.61059.23744,1.22994.34314,1.832a31.70915,31.70915,0,0,0,.73887,3.46223l-.05259-.22549a25.25354,25.25354,0,0,0,4.18994,8.36687l-.04488-.06136a25.70388,25.70388,0,0,0,9.59363,7.943,26.44286,26.44286,0,0,0,31.22987-6.22542,25.73985,25.73985,0,0,0,6.5489-15.17579c.01089-.1166.02364-.23292.03666-.34951.02815-.23743.05391-.48125.06693-.7208s0-.43159,0-.6669v-.12934H170.18728a14.27971,14.27971,0,0,1-5.5131,10.6682,13.1646,13.1646,0,0,1-8.97427,2.939,14.56344,14.56344,0,0,1-9.92588-4.50758A13.49185,13.49185,0,0,1,142.106,253v-.009H129.80652V254.879a.15753.15753,0,0,1,.00425.03665.14868.14868,0,0,1-.00239.02683l.00026-.00107Z" style="fill: #fff"/>
          <path d="M246.26116,370.90633a17.3955,17.3955,0,0,1-3.52836-.40077l.11447.021a26.675,26.675,0,0,1-14.24144-7.59984,25.80492,25.80492,0,0,1-6.47348-10.8581,33.25265,33.25265,0,0,1-1.14416-5.94257l-.01222-.14872a.20993.20993,0,0,1-.00345-.03773.23729.23729,0,0,1,.00345-.039l-.00027.00133-.00159-.02471.00159-.02575v.00107a29.35917,29.35917,0,0,1,.6669-8.0378,27.52682,27.52682,0,0,1,5.546-10.83206l-.035.043a26.55015,26.55015,0,0,1,13.29223-8.67018,14.832,14.832,0,0,1,3.50206-.73356,9.92828,9.92828,0,0,0,1.21109-.1474l-.06082.00929a5.93935,5.93935,0,0,1,2.41686-.03878.21627.21627,0,0,1,.16414.20955v12.658a.21576.21576,0,0,1-.2045.21539h-.00054a13.82539,13.82539,0,0,0-13.35038,12.63622,13.5685,13.5685,0,0,0,13.34614,14.59335.21565.21565,0,0,1,.21566.21566h0v12.663a.21576.21576,0,0,1-.19335.21459h-.00079c-.34925.03586-.75481.0563-1.16488.0563l-.06852-.00026h.00346ZM221.40755,345.9016l.0016.01514-.00186.01568v-.00054a34.37531,34.37531,0,0,0,1.20206,6.25862l-.06055-.24275a25.34755,25.34755,0,0,0,6.36113,10.67909,26.25656,26.25656,0,0,0,14.0149,7.47687,14.8084,14.8084,0,0,0,3.30553.36386q.533,0,1.05731-.03612l-.04728.00266V358.17556a13.80992,13.80992,0,0,1-10.12-4.76016,13.96341,13.96341,0,0,1-3.43513-10.27752,14.25867,14.25867,0,0,1,13.55542-13.03328V317.82878a5.92458,5.92458,0,0,0-2.0801.0842,10.26471,10.26471,0,0,1-1.16673.14077l-.03293.00159a14.587,14.587,0,0,0-3.39849.71418,26.13757,26.13757,0,0,0-13.08267,8.53418,26.915,26.915,0,0,0-5.38271,10.42785l-.042.18857a28.64417,28.64417,0,0,0-.64724,7.92121.17879.17879,0,0,1,.00239.03028.17293.17293,0,0,1-.00266.03134l.00027-.00107Z" style="fill: #fff"/>
        </g>
      </g>
      <g>
        <g>
          <path d="M281.82438,280.80849v-6.81983c-1.3496-4.32763-5.741-4.79345-9.22192-7.16626h7.66773c.64379-.64355,1.1145-1.11425,1.62841-1.62841-.20239-1.82373.85083-3.97925-1.36181-5.3833-.93213,1.05883-1.87574,2.13085-2.51367,2.85546h-4.04639c-3.31738-1.24218-5.25391-3.18774-6.14038-6.43408.54321-.59961,1.90405-1.33789.56787-2.54492-.97437,1.146-2.49732,1.25244-3.70142,2.074-.81176-1.66821-2.761-.53491-3.64087-1.42553-.364-1.73633.04761-2.4524,1.08789-3.75366-3.30346-.80494-6.16479,1.33593-9.34082-.38648-.62378-2.0271-2.8894-2.78027-4.332-4.468-3.51343.30616-6.75415-1.84448-10.27539-.98266-.28174-1.293-.66968-2.24585.21021-3.06617a1.18508,1.18508,0,0,0,.18237.01c.0249-.11743.05859-.23315.07861-.35156.00928-.05444.01758-.10888.02588-.16333l.00342-.0188.00244-.02758c.00952-.09327.019-.18628.0249-.28a4.30005,4.30005,0,0,0-.00415-.60669.45988.45988,0,0,1,.20508-.40235c-.05224-.50781.199-.9917.06055-1.25024-.21192-.91846-1.10156-.77319-1.65015-1.0022a.45613.45613,0,0,1-.30884-.05762,4.27283,4.27283,0,0,1-.46093-.386,2.74342,2.74342,0,0,1-.33521-.4104.37793.37793,0,0,1-.019-.05518h-1.30078v-1.0039a1.72771,1.72771,0,0,1-.55957-1.12232c-.61426-.27222-.44043-.96167-.20044-1.87378h2.51343a12.85588,12.85588,0,0,1,1.42822-.696c.17383-.20117.4248-.39185.63745-.67554a1.47452,1.47452,0,0,0-.67041-1.02808.4368.4368,0,0,1-.38892-.23339c-.0166-.03809-.02588-.07691-.04028-.11524a1.73184,1.73184,0,0,1-.62451-.84668c.46-.46.91968-.91968,1.26074-1.2605l.01733.01758a6.88049,6.88049,0,0,1,.96705-.73755c.32031-.2102.65087-.40429.97973-.60083.14258-.0852.28491-.1709.42481-.26l.02612-.01733c.03686-.041.08008-.07544.1145-.11865.03906-.053.07422-.10865.11182-.16285q.00219-.85766.00293-1.7163c-2.52979-.88526-3.96-2.83814-4.89551-5.967.24243-1.85346,1.96118-3.89588,3.07739-6.199a2.40466,2.40466,0,0,1,2.187-1.45679,6.05733,6.05733,0,0,0,.44654-.47943.49045.49045,0,0,1,.35351-.14642.36658.36658,0,0,1,.03955.00793.854.854,0,0,1,.3877-.19818c.04077-.00921.12378.05164.19189.12244a4.08726,4.08726,0,0,1,.77954-.28143c3.10816-.74018,5.77,2.90332,4.73853,5.73541a3.89674,3.89674,0,0,1-.37964,2.074.5001.5001,0,0,1-.86352-.5047c.01709-.03015.03369-.06024.04931-.09118l.01514-.03034.01782-.0429c.01-.02674.01929-.05359.02808-.08069.022-.067.03418-.13642.05029-.205a.3512.3512,0,0,1-.02661-.17395,4.04524,4.04524,0,0,0,.03-.62268.45708.45708,0,0,1-.01612-.18677,6.12861,6.12861,0,0,0-.38281-1.67,11.972,11.972,0,0,1-.95971-2.50934,3.6211,3.6211,0,0,0-1.86158-.514,3.90073,3.90073,0,0,0-2.00439.81525,2.56047,2.56047,0,0,0,1.79492,2.02924c1.259.47888,2.26733,1.01989,2.20581,2.5108-.75561,1.04016-1.92969.09765-3.00317.95471v3.01459l.011.02368c.02662.0553.05445.10986.084.1637a3.2709,3.2709,0,0,0,.1958.31451c.01221.01733.0293.03955.04419.06055l.01758.02148c.02246.0271.04638.05274.06982.07886,2.28.63135,2.27783,1.04492,2.18286,3.98437-.60473.14063-.79736-1.84179-1.4812-2.52a.55155.55155,0,0,1-.20019-.0061,2.32774,2.32774,0,0,1-1.1753-.72119.49633.49633,0,0,1-.67431-.18286,3.72745,3.72745,0,0,1-.27613-.67237c-.12817.002-.26782.0022-.41626.0022-.58032-1.66656-.78149-3.54944-1.99853-5.00006a2.465,2.465,0,0,0-1.42212.58936c-.781.84564.25,4.10443.25,4.10443,1.23047,1.88611,3.582,2.8219,5.95264,3.71863-.44678,1.54492-1.11451,2.48584-2.38892,2.60156a.33635.33635,0,0,1-.06128.08349c-.07446.05787-.15747.10157-.23413.15528a2.14664,2.14664,0,0,1-.44019.39477.43322.43322,0,0,1-.2434.05713c-.24024.14356-.47974.28858-.71705.43726.00269.00708.00831.01245.0105.01953a.5094.5094,0,0,1-.34912.615l-.00049.00024a1.05607,1.05607,0,0,0-.13916.07935q-.019.01758-.03662.03589c-.01269.01977-.02466.04028-.03564.061a1.11326,1.11326,0,0,0-.03736.146c-.00561.06689-.2517.634-.25195.70093.49854.5083,1.25464.52417,1.79517,1.07544a2.62388,2.62388,0,0,1-2.2295,2.136.51515.51515,0,0,1-.02246.06641.57.57,0,0,1-.31543.24292c-.02343.00879-.04638.01855-.06933.02759-.17847.07714-.34986.16821-.522.25781a.79161.79161,0,0,1-.76954.40088c-.04394.0227-.08691.04712-.1311.06933a.5361.5361,0,0,1-.62622-.08618c-.03125.00073-.06421-.00146-.09448.00073a1.613,1.613,0,0,0-1.07691.29859.553.553,0,0,1,.3064.477c.00024.01733.00269.03442.00366.05176a1.03664,1.03664,0,0,0,.03711.13452,1.23112,1.23112,0,0,0,.084.14136,2.311,2.311,0,0,0,.31665.30346c.06274.04053.12207.085.17993.13062.21753.155.4375.30688.63965.48266a.439.439,0,0,1,.14526.26758c.00854.0022.01733-.00146.02612.00122a.59175.59175,0,0,1,.31592.24268l.00391.00537a2.771,2.771,0,0,0,.47265.45825l-.05713-.04419c.02442.01465.03711.04077.05835.05835h1.81495c.42529.45484.87451.9353,1.32861,1.42066-.344.60815-.7041,1.24463-1.07007,1.89135a.62646.62646,0,0,1,.08252.252,5.89415,5.89415,0,0,1-.14014,1.62353.671.671,0,0,1,.0896.114c.10767.30053-.07226.47583-.26269.6538-.01441.05835-.02808.11768-.04273.176a.49009.49009,0,0,1-.28222.32617.72175.72175,0,0,0,.12329.47412h9.8667c.13134.08985.24633.18726.36987.28076-.24292-.55883-.48511-1.11792-.687-1.69531a.46229.46229,0,0,1,.11621-.45581c-.03711-2.718-.04688-3.7417.19433-4.5271a.46844.46844,0,0,1-.02514-.12182,15.51262,15.51262,0,0,1,.198-2.242c.40185-2.13379,1.56421-2.89038,3.062-4.42993a.42873.42873,0,0,1,.21875-.23267l.00488-.00512a.43463.43463,0,0,1,.39966-.11792,12.47424,12.47424,0,0,1,2.73511-2.52222c.54638-.345,1.0476.52075.50488.86353a18.94,18.94,0,0,0-3.94385,4.03418.44711.44711,0,0,1-.40161.13452,10.4049,10.4049,0,0,0-1.21216,2.2915.57385.57385,0,0,1,.02344.21851c-.00269.01465-.009.02807-.012.04248.333-.12158.27441.22461-.11182.39819-.06811.20239-.14526.40186-.22412.60108-.02539.06445-.04517.13061-.06763.196a7.59491,7.59491,0,0,0-.13965,1.49438.4484.4484,0,0,1-.10839.30567,7.19251,7.19251,0,0,0,.54126,4.18555c.87817,1.24877,1.01733,2.84472,1.79077,4.15527a.44448.44448,0,0,1,.01928.44336c.67066.92139,1.2627,1.85107,1.90235,2.70239,3.58984-2.38306,7.86084.521,10.2688-1.09131,4.58056-.35278,6.88549,2.17407,9.06494,4.22779,1.85205-1.85206,3.45679-3.45655,5.36621-5.36573.137-.86938-.50269-2.38891.36865-3.67309.88306-.20044,1.76978.32788,2.44922-.40674-.13647-1.168-1.52856-.16943-1.82446-1.06934-.04688-.78442-.094-1.57031-.13575-2.26977-.79492-.27124-1.37548-.46973-2.20166-.75171l.02833-.01392a5.48779,5.48779,0,0,1-2.09766-.83764,2.10051,2.10051,0,0,1-.87915-1.381,9.0289,9.0289,0,0,1-.07813-.97741c-.0039-.083-.0083-.166-.01562-.24878-.00147-.01831-.01221-.09546-.01465-.1189-.00391-.02148-.0127-.04175-.01709-.063-.21338.09107-.42651.18213-.64331.26368a.7513.7513,0,0,1-.55054.75634,6.59331,6.59331,0,0,1-2.93408,2.63892,8.1452,8.1452,0,0,1-4.39233.583,3.77782,3.77782,0,0,1-3.76612,2.91919,4.957,4.957,0,0,1-2.65551-.95,8.86827,8.86827,0,0,1-1.0979-.92579,6.94824,6.94824,0,0,1-.86109-.88745,4.19069,4.19069,0,0,1-.96216-2.60034.86953.86953,0,0,1-.28393.30518c-.4607-.3208-.4624-.64966-.01294-.97046a.45254.45254,0,0,1,.449-.37549c.03321-.11279.063-.22583.10791-.33838.0669-.168.14478-.32886.22681-.4873-.08569-.071-.17212-.1753-.16113-.22364a.68014.68014,0,0,1,.67944-.59814l.01562-.02026c.07422-.10328.15235-.20459.23218-.30542a.72294.72294,0,0,1,.49366-.58082c.17895-.19482.36425-.3833.55224-.5664a.69764.69764,0,0,1,.48-.45361c.24-.21851.47876-.42725.70874-.62549a.645.645,0,0,1,.10034-.05664c1.094-1.71961,2.84375-2.83728,4.04395-4.35108,3.14892-.20556,6.17676-.28,8.58423,2.48218,0,1.13184-.04077,2.42456.02051,3.7124a.87813.87813,0,0,0,.18652.501c.2417-.08008.48-.17041.71582-.26831.04394-.01929.08813-.03784.13208-.05738a.8018.8018,0,0,1,.37231-.10083c1.36133-1.95776,3.64551-3.32421,3.68482-5.99877,5.21557-1.98438,6.33105-6.59522,7.58813-11.14148-1.28686-1.22791-2.94507-1.61469-4.56543-2.2461-4.302-1.67627-8.97046-2.45257-12.65185-5.75928a12.75511,12.75511,0,0,0-6.6604-2.99884c-2.03614-.23645-3.875-.90362-5.74512-1.28-.03687.00219-.07373.00824-.11035.00866a4.36389,4.36389,0,0,1-.65772-.06958,2.33858,2.33858,0,0,1-.53173-.14569,1.5136,1.5136,0,0,1-.66846-.38953l-.1626-.21038c-.08765-.03284-.17676-.06269-.26538-.09351-.01782.00482-.0354.01556-.05322.01923a4.84256,4.84256,0,0,1-3.40161-.79572,7.94394,7.94394,0,0,1-2.42139-2.12506,1.0834,1.0834,0,0,1-.17774-.4729,1.62505,1.62505,0,0,1-.37939-.63055,1.52681,1.52681,0,0,1,1.05786-1.86329c.2334-.05261.46143-.12384.69238-.18585a20.52513,20.52513,0,0,1-2.20044-2.29986,2.24231,2.24231,0,0,0-.51171-.43933c-.21656.02056-.51.03216-.49707.02758a10.66568,10.66568,0,0,1-3.95191.48285,10.394,10.394,0,0,0-2.84961,4.43927c1.02124,1.94361,1.94751,3.70642,2.80518,5.3393-.75513.84576-1.52735,1.71087-2.23535,2.5039h-5.05249c-.856-.84668-1.68287-1.66485-2.50464-2.47784v-2.50458c-2.71265-.30823-3.24951,2.469-4.99658,3.38135v3.809c.78271,1.47455,1.43335,2.70062,2.084,3.9267-.20483,2.29724-2.06665,3.6961-3.22778,5.16882-2.62256,3.32666-5.30811,7.14453-10.46924,6.85767-.11572-.0066-.26074.51953-.39111.79736,1.43188,3.54541,4.92382,4.10425,8.02294,5.47-1.4873,1.33472-2.92114,2.62158-3.74243,3.35864-.73388,2.43042.19532,3.35523,1.24439,4.23047.90747,0,1.8247-.00073,2.74145-.00171.31494-.21386.6167-.44653.92066-.675l.01025-.00415a.84266.84266,0,0,1,.39966-.20947c.07739-.01733.31177.2168.29419.29419-.00733.03272-.02344.05493-.033.08521.00342.00512.00976.00854.01294.01367a.513.513,0,0,1-.17944.68408,13.69285,13.69285,0,0,1-1.2129.87109c-.04345.02564-.09082.03809-.13476.062-1.05151,1.197-2.8208,1.40992-4.36255,2.28785.6001,1.34692-.83887,1.71118-1.36865,2.44238h-4.2478c-1.52662-1.39429-1.52662-1.39429-3.39624-1.47681-.11036,2.21,2.44873,2.665,3.81152,4.64527a.90272.90272,0,0,0,.635.01049c.03857-.02368.32837.3606-.45093.26954.27051.92089-.71338.95581-.87671.14941a.88685.88685,0,0,1-.01245-.18237c-1.416-.18994-2.10059-1.04346-2.96289-.9834-.65527,2.78345,1.97461,4.27881,2.06616,6.22168,1.85962,1.49292,3.894,1.42334,6.58667,1.99634-3.228,1.20776-4.36743,3.916-6.959,4.5227-.95215-.324-1.65381-2.03686-2.92456-.22851.50219,1.01831,1.04565,2.1206,1.58911,3.22314,1.84814,1.52637,4.05224.82471,6.05737,1.00977.50757.50756.97876.97876.95606.95605-1.24805,1.269-2.49463,2.53662-4.22486,4.29614-.68139.26367-1.44092-1.67138-2.85644-1.20068a2.00135,2.00135,0,0,0-.34326,2.28516c.98046,2.2771,3.73559,1.29858,5.10693,2.87548,1.29-1.61352,2.84326-1.16137,4.26684-1.2395.79712-.57837,1.35791-1.53125,2.17749-1.94971,1.21412,1.44605-.79638,1.80884-.12475,3.09131,2.01172-1.42651,5.52173-.37256,5.86743-4.18261.94434.218,1.8291-.31275,2.53662.42553v3.33741q-.32483-.26478-.64966-.52979c-.59326,1.01489-1.18652,2.02979-1.6416,2.80786-1.87256,0-3.37231-.02319-4.86987.02442-.23291.00732-.45581.33886-.65039.49438.80713.833,1.61694,1.66846,2.574,2.656,1.42163-1.103,2.18067.79052,3.51245.8269a4.4664,4.4664,0,0,1,3.09351-1.126c3.80493-1.939,4.1189-6.00805,6.29712-9.18676,2.11548,3.30737,3.62646,6.334,3.43677,9.81933-1.22486,1.22486-2.28467,2.28467-3.345,3.343-1.12622.5918-2.58985-.533-3.59473.69873a7.42082,7.42082,0,0,0,7.82812,2.197c.10425-2.70825,1.81519-4.92456,2.15381-7.30444a.565.565,0,0,1-.18969-.26245c-.13526-.36695-.186-.7583-.32569-1.12354a1.74253,1.74253,0,0,0-.09619-.18774c-.01343-.02149-.02759-.04273-.04224-.06372-.01586-.02295-.01855-.02832-.01684-.02783-.02588-.02613-.05469-.052-.0647-.062a.4839.4839,0,0,1-.13257-.29809.98417.98417,0,0,1,.23853-1.34033.87078.87078,0,0,1,.6333.97534,2.40189,2.40189,0,0,1,.52783.97021c.02319.07959.04151.16065.06128.24121.53857.144.28394.90357.37647,1.47828.54126,3.36084-1.98243,6.43286-.85108,9.89746.99194.64062,1.41943,2.10449,2.84766,2.36059a7.04353,7.04353,0,0,1,1.45532-4.33349.54563.54563,0,0,1,.01587-.19507,9.01392,9.01392,0,0,1,2.67236-3.562c.07422-1.056.15723-2.1045.26123-3.12159a10.56047,10.56047,0,0,1,1.73828,6.07373c4.24976-1.06469,4.57666-4.94238,6.35059-7.90185,1.11108,1.238,2.20044,2.45215,3.35474,3.73877v4.85254c-.98877,1.6394-3.1521,1.35009-3.7417,3.13672,3.77881,1.16088,6.52685-.47754,8.89331-3.231,0-2.12915.04248-5.78052-.2522-6.209-.48218.0835-.53491-.3872-.63818-.844-.01758-.07739.21679-.31152.29419-.29419.45678.10327.92749.156.844.63818,3.37817,3.08448,3.209,3.63453,1.77588,7.78443.62891.832,1.533.32348,2.26758.46753a5.74085,5.74085,0,0,0,2.84155-5.83032c2.08569,3.43994,4.97778,4.27392,7.62183,5.82275,4.00634-.01563,6.22534-.7749,7.93359-2.80371C286.16325,284.46278,284.50285,283.70668,281.82438,280.80849Zm-1.56152-62.75507c.09668.09357,1.44092.63385,1.81763.40222a7.91713,7.91713,0,0,1,.76294.81824c-.51978.46814.20776,1.68695-.29346,1.58588a1.44069,1.44069,0,0,1-.79712-.98511c-.02392-.118-1.02661.04468-1.0188-.0274-1.47021-.29212-3.34009,1.00714-4.03467-1.79383C278.35881,217.124,279.10881,217.124,280.26286,218.05342Zm-19.4563-5.54278h3.3125c.49414.74041,1.71485,1.07067,2.48218,2.22052-.14941.151-.30835.3114-.46289.46753a2.53266,2.53266,0,0,1-.11426.92828c-.45605,1.363-3.61474,2.53009-3.61474,2.53009a7.56789,7.56789,0,0,1-.77369.106c-.11108.00866-2.48754-.106-2.48754-.106.23584-1.05536.9414-1.65967.03906-2.77637l-5.19043-.25C256.36638,214.60982,259.132,214.56014,260.80656,212.51064ZM232.674,260.98744a14.74,14.74,0,0,0-.7417,1.99561,8.19124,8.19124,0,0,0-.26879,2.134.5003.5003,0,0,1-1,0c.00122-.31933.02783-.63794.05835-.95581a.49138.49138,0,0,1-.86719-.32519,4.71533,4.71533,0,0,1,.51684-1.78956c.12281-.25024.25733-.49438.38623-.74145.06739-.12891.13306-.25879.19507-.39038.02783-.05933.05493-.1189.08081-.179l.00464-.00976.01172-.03076c.012-.031.02417-.062.03589-.093a.59845.59845,0,0,1,.15869-.22754,7.87016,7.87016,0,0,1,1.40381-1.51514,1.1655,1.1655,0,0,1-.05957,1.52857A.53237.53237,0,0,1,232.674,260.98744Z" style="fill: #fff"/>
          <path d="M289.9262,231.61415c-.01831-.49121-.06787-.90942-1.10816-1.31738-.77539.97485-1.69311,2.12891-2.58447,3.25H276.15886c-.115.20825-.22534.41907-.34936.62195a4.14078,4.14078,0,0,1-.301.38757.78964.78964,0,0,1,.252.33765,3.72227,3.72227,0,0,1,.18261,1.13769c.00879.18775.01929.37525.02906.56275a.33169.33169,0,0,1,.00048.05054.40329.40329,0,0,1,.01.04028c.01734.0852.03809.16748.06226.251l.00659.01843a1.03628,1.03628,0,0,0,.06079.10522.204.204,0,0,0,.02808.036c.03223.03247.06421.06617.09546.09864.0166.01513.03345.02954.05029.04394.09253.062.18457.12195.283.175.06152.03333.124.06458.1875.09424.02466.01172.04956.02283.07446.03393.062.02478.1272.0398.18994.06263a.49177.49177,0,0,1,.2212-.05042c1.45947.00147,2.918.04053,4.376.0979,3.08863-.55371,6.23682-.379,9.05835-1.59277C289.52923,234.78237,289.98308,233.14882,289.9262,231.61415Z" style="fill: #fff"/>
          <path d="M272.16765,235.55837a5.4333,5.4333,0,0,1-.54126-1.11341,3.25142,3.25142,0,0,1-.1455-.89819H260.57317a9.0723,9.0723,0,0,0-2.168,2.4917,2.86333,2.86333,0,0,0,.56421,3.34375,4.97656,4.97656,0,0,0,3.21875,2.01514c1.02124.05249,2.61255-.7649,2.55713-1.92774a.55431.55431,0,0,1,.40674-.58764.68644.68644,0,0,1,.78955-.408,6.68363,6.68363,0,0,0,3.9126-.44043,5.43037,5.43037,0,0,0,2.46362-2.313A.67264.67264,0,0,1,272.16765,235.55837Z" style="fill: #fff"/>
        </g>
        <g style="opacity: 0.4">
          <path d="M278.89226,167.94136c-1.61109-.10937-3.27442.01843-4.90284-.079a14.01744,14.01744,0,0,1-.052-4.59967,14.03228,14.03228,0,0,1,4.47852.21442.80412.80412,0,0,0-.91846-.68219c-.82275-.01081-1.637-.00867-2.46-.01081-.35523-.00109-.71021,0-1.03076,0a17.74618,17.74618,0,0,1-.08692-5.18115c1.10889-.27392,2.30445.08447,3.43042-.30206-1.10864-.42017-2.29541-.0401-3.508-.33026-.01758-.44721-.07813-.89441-.06079-1.33942a9.73749,9.73749,0,0,0-1.09131-5.02954,5.2016,5.2016,0,0,0-2.81543-2.61823,5.1345,5.1345,0,0,0-1.61988-.33459c-2.1914-.03247-31.45263.066-34.43261-.0249a5.34114,5.34114,0,0,0-5.34473,3.558,8.62209,8.62209,0,0,0-.78809,3.81793c.02588.64533-.00878,1.29175-.01733,1.95551a15.13508,15.13508,0,0,1-2.83276.11371,9.86221,9.86221,0,0,0-2.66773.21112,7.44349,7.44349,0,0,0,2.65064.23608c.90942.02271,1.81885.00537,2.79785.00537.17334,1.77362-.03467,3.426.06055,5.17255-.39844.03137-.71045.07465-1.022.07684-1.17822.00867-2.36474.00324-3.543.00647-.47656.0011-.89209.08014-1.04809.706,1.87085-.49158,3.67285-.144,5.58716-.28156.06054,1.6004.03466,3.05676.00879,4.5943-.34668.03467-.63257.08228-.91846.08447-1.34253.00867-2.68506,0-4.02783.00867-.35523.00214-.71045.04767-1.00489.06928a.95646.95646,0,0,0-.04321,1.2539c.12988-.31183.21655-.53058.3291-.81317h5.52661a22.61,22.61,0,0,1,.06055,5.12262c-.28589.026-.59766.07471-.90942.0769-1.30811.00977-2.62476.0011-3.93286.00757-.32032.0022-.64087.04114-1.02222.06714.156.42011.45068.3606.67578.36273,1.34277.0119,2.6853.00977,4.03662.0119.35523.0011.71021,0,1.18677,0,.15576,1.94574.06933,3.819.06055,5.7464a13.14685,13.14685,0,0,1-2.33887.08558c-.71875.01293-1.43775.00207-2.12207.00207-.35523-.26739-.667-.49475-1.01367-.75574a1.17388,1.17388,0,0,0,1.23877,1.20081c1.02221.027,2.03564.00439,3.04907.01086.35522.00208.71045.027,1.16089.04651a48.60024,48.60024,0,0,1-.54566,5.7041,17.82549,17.82549,0,0,1-1.67187,5.43891c.48511-.12561.66675-.53064.88354-.90094a18.46479,18.46479,0,0,0,2.00952-5.92939c.24268-1.25274.39869-2.52069.58912-3.782.02587-.156.06933-.30975.12988-.53931.46777-.01733.91821-.04107,1.36865-.0487.58911-.00977,1.17822.00213,1.76709-.00867.88355-.01623,1.10889-.16785,1.77588-1.308-.38989.22955-.58887.35193-.78833.46564-.25122.14062-.5022.3811-.76245.3919-1.1084.04328-2.20874.01843-3.38672.01843.09521-1.962.18188-3.8125.27734-5.65545a6.23773,6.23773,0,0,1,2.20874-.20032,6.11862,6.11862,0,0,0,2.17432-.209,5.609,5.609,0,0,0-2.18311-.20459c-.68432-.03357-1.35986-.02063-2.12231-.02924-.12988-1.76929-.04321-3.42377-.04321-5.04907a14.9496,14.9496,0,0,1,4.50439-.13318c.09522.23065.19922.48724.31177.7439.09521-.04877.19067-.07361.19067-.10505.02588-.31512.04322-.63128.06079-1.03192-1.698-.26312-3.3352.01953-4.92041-.18512a17.95783,17.95783,0,0,1-.06054-4.43621,9.9423,9.9423,0,0,1,4.3916.10827c-.19922-.57062-.33765-.68213-1.022-.70379-.78809-.02381-1.57666-.00434-2.36475-.0141-.32056-.00434-.64111-.03351-1.03955-.05628-.12134-1.72491-.06055-3.37939-.052-5.0675,1.14355-.34107,2.26953.00982,3.491-.2782-.58032-.45587-1.14355-.25556-1.64575-.287-.5459-.0357-1.10034-.00867-1.61987-.00867-.104-.16241-.19068-.24035-.19922-.32482a11.14269,11.14269,0,0,1,.58887-5.02735,4.1117,4.1117,0,0,1,3.92407-2.72326c1.07422.06713,2.157-.14832,3.2312-.14289,1.34253.00647,2.68506.09094,4.01929.18622a1.92162,1.92162,0,0,1,.89209.35083,15.21091,15.21091,0,0,1,6.332,8.358,22.11162,22.11162,0,0,1,.41577,2.41028,8.8181,8.8181,0,0,1,.09546,1.07306c.00561.20245.0083.40692.00976.61407.00123.19318.01026,20.657.01636,34.18653a12.098,12.098,0,0,1,1.27344,1.3598c.52046.60182.4919.678-.23877.91052-.36287.1155-.6792.34339-1.03369.48426.00049.49676.00049.98346.00073,1.45007l.00464.0036a5.90539,5.90539,0,0,0,2.62158,1.54047c.002-12.35254.00537-39.67194-.00171-39.88489a13.08679,13.08679,0,0,1,3.94825-10.03162,14.95667,14.95667,0,0,1,2.83276-2.42,2.4747,2.4747,0,0,1,1.074-.40174c2.001-.09851,3.99341-.17645,5.9856-.19055a22.02626,22.02626,0,0,1,3.13574.21,3.73421,3.73421,0,0,1,2.88452,2.41357,10.93329,10.93329,0,0,1,.74512,5.49408c-.33765.03247-.64966.08447-.96167.08771-1.14331.0108-2.29541-.0022-3.439.00866a1.2388,1.2388,0,0,0-1.00464.2544,8.30814,8.30814,0,0,0,2.668.18194c.875.02814,1.74975.00647,2.72876.00647.09521,1.77039.04321,3.42377.03442,5.17255-.39844.03137-.71021.07361-1.022.07684-1.11744.00971-2.23487-.00866-3.34375.01081-.70166.0119-.71021.0368-1.00464.68542,1.741-.457,3.49072-.157,5.19726-.23822a16.99241,16.99241,0,0,1,.07788,4.58344c-.29467.02276-.6062.066-.91821.06823-1.282.00867-2.564,0-3.8374.00867-.35523.00214-.70166.04327-1.03955.066a1.10393,1.10393,0,0,0,.08691,1.25824c.1211-.32166.20777-.54681.303-.81537H272.101c.104,1.713.06054,3.36749.052,5.11835-.39868.03357-.71021.08008-1.02222.08227-1.24731.00977-2.49463.0011-3.74219.00867-.31176.0011-.63232.03894-1.022.066.16455.4212.45044.3595.68433.3617,1.282.01293,2.55542.0108,3.83716.01293.35546.0011.71923,0,1.16088,0a47.426,47.426,0,0,1,.33789,5.75831,12.47947,12.47947,0,0,1-2.313.07367c-.75342.01617-1.50708.00323-2.18286.00323-.38965-.27936-.69288-.50354-1.05665-.76666a1.215,1.215,0,0,0,1.282,1.21167c1.08276.0249,2.16552.00329,3.2395.0086.35522.0022.71045.02924,1.09155.04657.16455,1.07416.32935,2.07032.47656,3.06647a22.8469,22.8469,0,0,0,1.62842,6.0528,18.56283,18.56283,0,0,0,1.35132,2.27276,1.78247,1.78247,0,0,0,.58032.45368c-2.27807-3.17475-2.72851-9.82734-2.54663-11.85431.43311-.0174.88355-.0412,1.334-.04877.58911-.0097,1.17822.00977,1.76709-.01294.719-.02826.97876-.25012,1.35986-1.12073-.16431.04981-.32031.04877-.37232.12128a1.81846,1.81846,0,0,1-1.6892.588,13.4793,13.4793,0,0,1-2.50342-.12561c-.12134-1.87646-.06934-3.72589-.04321-5.64783,1.49853-.22522,2.93652.02924,4.34838-.25335-.63232-.43207-1.35131-.22089-2.02685-.25556-.71045-.0357-1.42945-.00757-2.24365-.00757a38.85338,38.85338,0,0,1-.04346-5.10858,18.40164,18.40164,0,0,1,4.68652-.0747c.09522.22955.19922.47961.33789.80664A1.499,1.499,0,0,0,278.89226,167.94136Z" style="fill: #fff"/>
          <path d="M278.45939,304.90785c-2.75439,2.7334-5.49316,5.4646-8.21679,8.22437a3.11127,3.11127,0,0,1-2.24219,1.24878c-5.05664-.14112-10.11328-.23889-15.16943-.35938a9.24521,9.24521,0,0,1-1.468-.01684c-.04492-.28076-.00952-19.28223.01172-28.95118-.20435.24122-.31556.54962-.55615.79383a7.49439,7.49439,0,0,0-1.50855,2.79431l.04541,25.271c-.49658.07531-2.18262.19751-2.61914.19946-4.83105.01318-9.67676-.00562-14.50732.02441a2.89,2.89,0,0,1-2.25733-.96118c-2.6333-2.68433-5.312-5.33105-7.96094-7.9873a2.90864,2.90864,0,0,0-1.42968-.86328c.88818,1.1549,1.76074,2.31176,2.64892,3.46484q5.19141,6.76941,10.36865,13.54407c3.29541,4.3435,6.57618,8.71325,9.85694,13.06237,1.41455,1.85865,2.79931,3.736,4.28906,5.53052a6.9513,6.9513,0,0,1,1.45947,3.91089,60.77037,60.77037,0,0,0,.96338,6.81714,6.90341,6.90341,0,0,0,.39112-1.29981c.16552-1.69311.31591-3.39172.39111-5.09228a7.58873,7.58873,0,0,1,1.52-4.40747c4.71045-6.13233,9.37549-12.30994,14.05566-18.46485q4.89844-6.44749,9.82715-12.88012a35.28887,35.28887,0,0,0,3.03955-4.366A9.32347,9.32347,0,0,0,278.45939,304.90785Z" style="fill: #fff"/>
          <path d="M176.48943,250.13124s9.16854-1.30631,14.80043-5.99131v11.98261C185.64026,251.704,176.48943,250.13124,176.48943,250.13124Z" style="fill: #fff"/>
          <path d="M198.07264,197.80866s7.40683,5.55944,14.702,6.229l-4.23649,4.23649-4.23649,4.2365C203.43115,205.39137,198.07264,197.80866,198.07264,197.80866Z" style="fill: #fff"/>
          <path d="M198.07264,302.71288s7.40683-5.55944,14.702-6.229l-4.23649-4.23649-4.23649-4.23649C203.43115,295.13017,198.07264,302.71288,198.07264,302.71288Z" style="fill: #fff"/>
          <rect x="145.34336" y="246.15175" width="8.16524" height="8.16524" style="fill: #fff"/>
          <path d="M324.51057,250.13124s-9.16854-1.30631-14.80043-5.99131v11.98261C315.35974,251.704,324.51057,250.13124,324.51057,250.13124Z" style="fill: #fff"/>
          <path d="M302.92736,197.80866s-7.40683,5.55944-14.702,6.229l4.23649,4.23649,4.23649,4.2365C297.56885,205.39137,302.92736,197.80866,302.92736,197.80866Z" style="fill: #fff"/>
          <path d="M302.92736,302.71288s-7.40683-5.55944-14.702-6.229l4.23649-4.23649,4.23649-4.23649C297.56885,295.13017,302.92736,302.71288,302.92736,302.71288Z" style="fill: #fff"/>
          <rect x="346.49139" y="246.15175" width="8.16524" height="8.16524" transform="translate(701.14803 500.46875) rotate(-180)" style="fill: #fff"/>
          <rect x="246.17928" y="127.56535" width="8.16524" height="8.16524" transform="translate(500.52381 263.29593) rotate(-180)" style="fill: #fff"/>
          <rect x="246.17928" y="360.82377" width="8.16524" height="8.16524" transform="translate(500.52381 729.81279) rotate(-180)" style="fill: #fff"/>
        </g>
      </g>
    </g>
  </g>
</svg>
